<svg xmlns="http://www.w3.org/2000/svg" xmlns:xlink="http://www.w3.org/1999/xlink" width="850" zoomAndPan="magnify" viewBox="0 0 637.5 388.499989" height="518" preserveAspectRatio="xMidYMid meet" version="1.0"><defs><g/><clipPath id="a8f985659b"><path d="M 0.160156 69.496094 L 636.242188 69.496094 L 636.242188 387.535156 L 0.160156 387.535156 Z M 0.160156 69.496094 " clip-rule="nonzero"/></clipPath><clipPath id="5fa83b6102"><path d="M 636.09375 84.476562 L 636.09375 372.554688 C 636.09375 376.527344 634.515625 380.339844 631.707031 383.148438 C 628.898438 385.957031 625.089844 387.535156 621.113281 387.535156 L 15.140625 387.535156 C 11.167969 387.535156 7.355469 385.957031 4.546875 383.148438 C 1.738281 380.339844 0.160156 376.527344 0.160156 372.554688 L 0.160156 84.476562 C 0.160156 80.503906 1.738281 76.691406 4.546875 73.882812 C 7.355469 71.074219 11.167969 69.496094 15.140625 69.496094 L 621.113281 69.496094 C 625.089844 69.496094 628.898438 71.074219 631.707031 73.882812 C 634.515625 76.691406 636.09375 80.503906 636.09375 84.476562 Z M 636.09375 84.476562 " clip-rule="nonzero"/></clipPath><clipPath id="555a5adb03"><path d="M 0.160156 0.496094 L 636.242188 0.496094 L 636.242188 318.535156 L 0.160156 318.535156 Z M 0.160156 0.496094 " clip-rule="nonzero"/></clipPath><clipPath id="696febaea9"><path d="M 636.09375 15.476562 L 636.09375 303.554688 C 636.09375 307.527344 634.515625 311.339844 631.707031 314.148438 C 628.898438 316.957031 625.089844 318.535156 621.113281 318.535156 L 15.140625 318.535156 C 11.167969 318.535156 7.355469 316.957031 4.546875 314.148438 C 1.738281 311.339844 0.160156 307.527344 0.160156 303.554688 L 0.160156 15.476562 C 0.160156 11.503906 1.738281 7.691406 4.546875 4.882812 C 7.355469 2.074219 11.167969 0.496094 15.140625 0.496094 L 621.113281 0.496094 C 625.089844 0.496094 628.898438 2.074219 631.707031 4.882812 C 634.515625 7.691406 636.09375 11.503906 636.09375 15.476562 Z M 636.09375 15.476562 " clip-rule="nonzero"/></clipPath><clipPath id="379c57261a"><rect x="0" width="637" y="0" height="319"/></clipPath><clipPath id="7f8437bc4b"><path d="M 0.164062 69.496094 L 636.089844 69.496094 L 636.089844 387.835938 L 0.164062 387.835938 Z M 0.164062 69.496094 " clip-rule="nonzero"/></clipPath><clipPath id="b84ac3b5a3"><path d="M 636.089844 84.476562 L 636.089844 372.550781 C 636.089844 376.523438 634.511719 380.332031 631.699219 383.144531 C 628.890625 385.953125 625.082031 387.53125 621.109375 387.53125 L 15.144531 387.53125 C 11.171875 387.53125 7.359375 385.953125 4.550781 383.144531 C 1.742188 380.332031 0.164062 376.523438 0.164062 372.550781 L 0.164062 84.476562 C 0.164062 80.503906 1.742188 76.691406 4.550781 73.882812 C 7.359375 71.074219 11.171875 69.496094 15.144531 69.496094 L 621.109375 69.496094 C 625.082031 69.496094 628.890625 71.074219 631.699219 73.882812 C 634.511719 76.691406 636.089844 80.503906 636.089844 84.476562 Z M 636.089844 84.476562 " clip-rule="nonzero"/></clipPath><clipPath id="7af358356f"><path d="M 0.160156 0.472656 L 636.257812 0.472656 L 636.257812 59.410156 L 0.160156 59.410156 Z M 0.160156 0.472656 " clip-rule="nonzero"/></clipPath><clipPath id="ad71bf3c79"><path d="M 636.09375 15.453125 L 636.09375 44.429688 C 636.09375 48.402344 634.515625 52.210938 631.707031 55.023438 C 628.898438 57.832031 625.089844 59.410156 621.113281 59.410156 L 15.140625 59.410156 C 11.167969 59.410156 7.355469 57.832031 4.546875 55.023438 C 1.738281 52.210938 0.160156 48.402344 0.160156 44.429688 L 0.160156 15.453125 C 0.160156 11.480469 1.738281 7.671875 4.546875 4.859375 C 7.355469 2.050781 11.167969 0.472656 15.140625 0.472656 L 621.113281 0.472656 C 625.089844 0.472656 628.898438 2.050781 631.707031 4.859375 C 634.515625 7.671875 636.09375 11.480469 636.09375 15.453125 Z M 636.09375 15.453125 " clip-rule="nonzero"/></clipPath><clipPath id="43ff50061d"><path d="M 0.160156 0.472656 L 636.257812 0.472656 L 636.257812 59.410156 L 0.160156 59.410156 Z M 0.160156 0.472656 " clip-rule="nonzero"/></clipPath><clipPath id="554298c681"><path d="M 636.09375 15.453125 L 636.09375 44.429688 C 636.09375 48.402344 634.515625 52.210938 631.707031 55.023438 C 628.898438 57.832031 625.089844 59.410156 621.113281 59.410156 L 15.140625 59.410156 C 11.167969 59.410156 7.355469 57.832031 4.546875 55.023438 C 1.738281 52.210938 0.160156 48.402344 0.160156 44.429688 L 0.160156 15.453125 C 0.160156 11.480469 1.738281 7.671875 4.546875 4.859375 C 7.355469 2.050781 11.167969 0.472656 15.140625 0.472656 L 621.113281 0.472656 C 625.089844 0.472656 628.898438 2.050781 631.707031 4.859375 C 634.515625 7.671875 636.09375 11.480469 636.09375 15.453125 Z M 636.09375 15.453125 " clip-rule="nonzero"/></clipPath><clipPath id="6468b9f7d3"><rect x="0" width="637" y="0" height="60"/></clipPath><clipPath id="edaec5ac6a"><path d="M 0.203125 0.472656 L 636.089844 0.472656 L 636.089844 59.648438 L 0.203125 59.648438 Z M 0.203125 0.472656 " clip-rule="nonzero"/></clipPath><clipPath id="aa1561da85"><path d="M 636.050781 15.453125 L 636.050781 44.421875 C 636.050781 48.394531 634.472656 52.207031 631.660156 55.015625 C 628.851562 57.824219 625.042969 59.402344 621.070312 59.402344 L 15.179688 59.402344 C 11.207031 59.402344 7.398438 57.824219 4.589844 55.015625 C 1.78125 52.207031 0.203125 48.394531 0.203125 44.421875 L 0.203125 15.453125 C 0.203125 11.480469 1.78125 7.667969 4.589844 4.859375 C 7.398438 2.050781 11.207031 0.472656 15.179688 0.472656 L 621.070312 0.472656 C 625.042969 0.472656 628.851562 2.050781 631.660156 4.859375 C 634.472656 7.667969 636.050781 11.480469 636.050781 15.453125 Z M 636.050781 15.453125 " clip-rule="nonzero"/></clipPath><clipPath id="96a46e6ff7"><path d="M 13 43.742188 L 326 43.742188 L 326 83.441406 L 13 83.441406 Z M 13 43.742188 " clip-rule="nonzero"/></clipPath><clipPath id="12de3609bb"><path d="M 0.101562 0.742188 L 312.902344 0.742188 L 312.902344 15 L 0.101562 15 Z M 0.101562 0.742188 " clip-rule="nonzero"/></clipPath><clipPath id="c2d47aa6bc"><path d="M 3 4 L 310 4 L 310 40.253906 L 3 40.253906 Z M 3 4 " clip-rule="nonzero"/></clipPath><clipPath id="87ed97d2f3"><path d="M 300.972656 8.066406 L 300.972656 36.121094 C 300.972656 38.375 302.789062 40.191406 305.042969 40.191406 C 307.296875 40.191406 309.113281 38.375 309.113281 36.121094 L 309.113281 8.128906 C 309.113281 5.875 307.296875 4.058594 305.042969 4.058594 C 302.851562 3.996094 300.972656 5.875 300.972656 8.066406 Z M 278.117188 8.066406 L 278.117188 36.121094 C 278.117188 38.375 279.933594 40.191406 282.1875 40.191406 C 284.441406 40.191406 286.257812 38.375 286.257812 36.121094 L 286.257812 8.128906 C 286.257812 5.875 284.441406 4.058594 282.1875 4.058594 C 279.996094 3.996094 278.117188 5.875 278.117188 8.066406 Z M 255.261719 8.066406 L 255.261719 36.121094 C 255.261719 38.375 257.078125 40.191406 259.332031 40.191406 C 261.585938 40.191406 263.402344 38.375 263.402344 36.121094 L 263.402344 8.128906 C 263.402344 5.875 261.585938 4.058594 259.332031 4.058594 C 257.140625 3.996094 255.261719 5.875 255.261719 8.066406 Z M 232.40625 8.066406 L 232.40625 36.121094 C 232.40625 38.375 234.222656 40.191406 236.476562 40.191406 C 238.730469 40.191406 240.546875 38.375 240.546875 36.121094 L 240.546875 8.128906 C 240.546875 5.875 238.730469 4.058594 236.476562 4.058594 C 234.285156 3.996094 232.40625 5.875 232.40625 8.066406 Z M 209.550781 8.066406 L 209.550781 36.121094 C 209.550781 38.375 211.367188 40.191406 213.621094 40.191406 C 215.875 40.191406 217.691406 38.375 217.691406 36.121094 L 217.691406 8.128906 C 217.691406 5.875 215.875 4.058594 213.621094 4.058594 C 211.429688 3.996094 209.550781 5.875 209.550781 8.066406 Z M 186.695312 8.066406 L 186.695312 36.121094 C 186.695312 38.375 188.511719 40.191406 190.765625 40.191406 C 193.019531 40.191406 194.835938 38.375 194.835938 36.121094 L 194.835938 8.128906 C 194.835938 5.875 193.019531 4.058594 190.765625 4.058594 C 188.574219 3.996094 186.695312 5.875 186.695312 8.066406 Z M 163.839844 8.066406 L 163.839844 36.121094 C 163.839844 38.375 165.65625 40.191406 167.910156 40.191406 C 170.164062 40.191406 171.980469 38.375 171.980469 36.121094 L 171.980469 8.128906 C 171.980469 5.875 170.164062 4.058594 167.910156 4.058594 C 165.71875 3.996094 163.839844 5.875 163.839844 8.066406 Z M 140.984375 8.066406 L 140.984375 36.121094 C 140.984375 38.375 142.800781 40.191406 145.054688 40.191406 C 147.308594 40.191406 149.125 38.375 149.125 36.121094 L 149.125 8.128906 C 149.125 5.875 147.308594 4.058594 145.054688 4.058594 C 142.800781 3.996094 140.984375 5.875 140.984375 8.066406 Z M 118.128906 8.066406 L 118.128906 36.121094 C 118.128906 38.375 119.945312 40.191406 122.199219 40.191406 C 124.453125 40.191406 126.269531 38.375 126.269531 36.121094 L 126.269531 8.128906 C 126.269531 5.875 124.453125 4.058594 122.199219 4.058594 C 119.945312 3.996094 118.128906 5.875 118.128906 8.066406 Z M 95.273438 8.066406 L 95.273438 36.121094 C 95.273438 38.375 97.089844 40.191406 99.34375 40.191406 C 101.597656 40.191406 103.414062 38.375 103.414062 36.121094 L 103.414062 8.128906 C 103.414062 5.875 101.597656 4.058594 99.34375 4.058594 C 97.089844 3.996094 95.273438 5.875 95.273438 8.066406 Z M 72.417969 8.066406 L 72.417969 36.121094 C 72.417969 38.375 74.234375 40.191406 76.488281 40.191406 C 78.742188 40.191406 80.558594 38.375 80.558594 36.121094 L 80.558594 8.128906 C 80.558594 5.875 78.742188 4.058594 76.488281 4.058594 C 74.234375 3.996094 72.417969 5.875 72.417969 8.066406 Z M 49.5625 8.066406 L 49.5625 36.121094 C 49.5625 38.375 51.378906 40.191406 53.632812 40.191406 C 55.886719 40.191406 57.703125 38.375 57.703125 36.121094 L 57.703125 8.128906 C 57.703125 5.875 55.886719 4.058594 53.632812 4.058594 C 51.378906 3.996094 49.5625 5.875 49.5625 8.066406 Z M 26.707031 8.066406 L 26.707031 36.121094 C 26.707031 38.375 28.523438 40.191406 30.777344 40.191406 C 33.03125 40.191406 34.847656 38.375 34.847656 36.121094 L 34.847656 8.128906 C 34.847656 5.875 33.03125 4.058594 30.777344 4.058594 C 28.523438 3.996094 26.707031 5.875 26.707031 8.066406 Z M 3.851562 8.066406 L 3.851562 36.121094 C 3.851562 38.375 5.667969 40.191406 7.921875 40.191406 C 10.175781 40.191406 11.992188 38.375 11.992188 36.121094 L 11.992188 8.128906 C 11.992188 5.875 10.175781 4.058594 7.921875 4.058594 C 5.667969 3.996094 3.851562 5.875 3.851562 8.066406 Z M 3.851562 8.066406 " clip-rule="nonzero"/></clipPath><linearGradient x1="0.0999999" gradientTransform="matrix(0, -0.626175, -0.626175, 0, 312.681894, 40.252901)" y1="249.412" x2="57.900002" gradientUnits="userSpaceOnUse" y2="249.412" id="835d15bb9f"><stop stop-opacity="1" stop-color="rgb(82.348633%, 82.749939%, 83.529663%)" offset="0"/><stop stop-opacity="1" stop-color="rgb(82.518005%, 82.913208%, 83.683777%)" offset="0.015625"/><stop stop-opacity="1" stop-color="rgb(82.872009%, 83.255005%, 84.004211%)" offset="0.0234375"/><stop stop-opacity="1" stop-color="rgb(83.239746%, 83.612061%, 84.338379%)" offset="0.03125"/><stop stop-opacity="1" stop-color="rgb(83.607483%, 83.969116%, 84.672546%)" offset="0.0390625"/><stop stop-opacity="1" stop-color="rgb(83.97522%, 84.324646%, 85.006714%)" offset="0.046875"/><stop stop-opacity="1" stop-color="rgb(84.342957%, 84.681702%, 85.340881%)" offset="0.0546875"/><stop stop-opacity="1" stop-color="rgb(84.710693%, 85.038757%, 85.675049%)" offset="0.0625"/><stop stop-opacity="1" stop-color="rgb(85.07843%, 85.394287%, 86.009216%)" offset="0.0703125"/><stop stop-opacity="1" stop-color="rgb(85.446167%, 85.751343%, 86.343384%)" offset="0.078125"/><stop stop-opacity="1" stop-color="rgb(85.813904%, 86.108398%, 86.679077%)" offset="0.0859375"/><stop stop-opacity="1" stop-color="rgb(86.181641%, 86.463928%, 87.013245%)" offset="0.09375"/><stop stop-opacity="1" stop-color="rgb(86.550903%, 86.820984%, 87.347412%)" offset="0.101562"/><stop stop-opacity="1" stop-color="rgb(86.91864%, 87.17804%, 87.68158%)" offset="0.109375"/><stop stop-opacity="1" stop-color="rgb(87.286377%, 87.533569%, 88.015747%)" offset="0.117187"/><stop stop-opacity="1" stop-color="rgb(87.654114%, 87.890625%, 88.349915%)" offset="0.125"/><stop stop-opacity="1" stop-color="rgb(88.021851%, 88.246155%, 88.684082%)" offset="0.132812"/><stop stop-opacity="1" stop-color="rgb(88.389587%, 88.60321%, 89.01825%)" offset="0.140625"/><stop stop-opacity="1" stop-color="rgb(88.757324%, 88.960266%, 89.352417%)" offset="0.148438"/><stop stop-opacity="1" stop-color="rgb(89.125061%, 89.315796%, 89.68811%)" offset="0.15625"/><stop stop-opacity="1" stop-color="rgb(89.492798%, 89.672852%, 90.022278%)" offset="0.164062"/><stop stop-opacity="1" stop-color="rgb(89.860535%, 90.029907%, 90.356445%)" offset="0.171875"/><stop stop-opacity="1" stop-color="rgb(90.229797%, 90.385437%, 90.690613%)" offset="0.179688"/><stop stop-opacity="1" stop-color="rgb(90.597534%, 90.742493%, 91.02478%)" offset="0.1875"/><stop stop-opacity="1" stop-color="rgb(90.965271%, 91.099548%, 91.358948%)" offset="0.195312"/><stop stop-opacity="1" stop-color="rgb(91.333008%, 91.455078%, 91.693115%)" offset="0.203125"/><stop stop-opacity="1" stop-color="rgb(91.700745%, 91.812134%, 92.027283%)" offset="0.210937"/><stop stop-opacity="1" stop-color="rgb(92.068481%, 92.167664%, 92.36145%)" offset="0.21875"/><stop stop-opacity="1" stop-color="rgb(92.436218%, 92.524719%, 92.697144%)" offset="0.226562"/><stop stop-opacity="1" stop-color="rgb(92.803955%, 92.881775%, 93.031311%)" offset="0.234375"/><stop stop-opacity="1" stop-color="rgb(93.171692%, 93.237305%, 93.365479%)" offset="0.242187"/><stop stop-opacity="1" stop-color="rgb(93.539429%, 93.59436%, 93.699646%)" offset="0.25"/><stop stop-opacity="1" stop-color="rgb(93.907166%, 93.951416%, 94.033813%)" offset="0.257813"/><stop stop-opacity="1" stop-color="rgb(94.276428%, 94.306946%, 94.367981%)" offset="0.265625"/><stop stop-opacity="1" stop-color="rgb(94.644165%, 94.664001%, 94.702148%)" offset="0.273438"/><stop stop-opacity="1" stop-color="rgb(95.011902%, 95.021057%, 95.036316%)" offset="0.28125"/><stop stop-opacity="1" stop-color="rgb(95.372009%, 95.373535%, 95.376587%)" offset="0.296875"/><stop stop-opacity="1" stop-color="rgb(95.697021%, 95.697021%, 95.697021%)" offset="0.3125"/><stop stop-opacity="1" stop-color="rgb(95.993042%, 95.993042%, 95.993042%)" offset="0.328125"/><stop stop-opacity="1" stop-color="rgb(96.290588%, 96.290588%, 96.290588%)" offset="0.34375"/><stop stop-opacity="1" stop-color="rgb(96.588135%, 96.588135%, 96.588135%)" offset="0.359375"/><stop stop-opacity="1" stop-color="rgb(96.884155%, 96.884155%, 96.884155%)" offset="0.375"/><stop stop-opacity="1" stop-color="rgb(97.181702%, 97.181702%, 97.181702%)" offset="0.390625"/><stop stop-opacity="1" stop-color="rgb(97.477722%, 97.477722%, 97.477722%)" offset="0.40625"/><stop stop-opacity="1" stop-color="rgb(97.775269%, 97.775269%, 97.775269%)" offset="0.421875"/><stop stop-opacity="1" stop-color="rgb(98.072815%, 98.072815%, 98.072815%)" offset="0.4375"/><stop stop-opacity="1" stop-color="rgb(98.368835%, 98.368835%, 98.368835%)" offset="0.453125"/><stop stop-opacity="1" stop-color="rgb(98.666382%, 98.666382%, 98.666382%)" offset="0.46875"/><stop stop-opacity="1" stop-color="rgb(98.963928%, 98.963928%, 98.963928%)" offset="0.484375"/><stop stop-opacity="1" stop-color="rgb(99.259949%, 99.259949%, 99.259949%)" offset="0.5"/><stop stop-opacity="1" stop-color="rgb(99.557495%, 99.557495%, 99.557495%)" offset="0.515625"/><stop stop-opacity="1" stop-color="rgb(99.847412%, 99.848938%, 99.848938%)" offset="0.53125"/><stop stop-opacity="1" stop-color="rgb(99.84436%, 99.847412%, 99.855042%)" offset="0.539063"/><stop stop-opacity="1" stop-color="rgb(99.549866%, 99.560547%, 99.580383%)" offset="0.546875"/><stop stop-opacity="1" stop-color="rgb(99.255371%, 99.272156%, 99.305725%)" offset="0.554688"/><stop stop-opacity="1" stop-color="rgb(98.960876%, 98.985291%, 99.031067%)" offset="0.5625"/><stop stop-opacity="1" stop-color="rgb(98.666382%, 98.696899%, 98.756409%)" offset="0.570313"/><stop stop-opacity="1" stop-color="rgb(98.373413%, 98.410034%, 98.48175%)" offset="0.578125"/><stop stop-opacity="1" stop-color="rgb(98.078918%, 98.121643%, 98.207092%)" offset="0.585938"/><stop stop-opacity="1" stop-color="rgb(97.784424%, 97.834778%, 97.932434%)" offset="0.59375"/><stop stop-opacity="1" stop-color="rgb(97.489929%, 97.547913%, 97.657776%)" offset="0.601563"/><stop stop-opacity="1" stop-color="rgb(97.195435%, 97.259521%, 97.383118%)" offset="0.609375"/><stop stop-opacity="1" stop-color="rgb(96.90094%, 96.972656%, 97.109985%)" offset="0.617188"/><stop stop-opacity="1" stop-color="rgb(96.607971%, 96.684265%, 96.835327%)" offset="0.625"/><stop stop-opacity="1" stop-color="rgb(96.313477%, 96.3974%, 96.560669%)" offset="0.632813"/><stop stop-opacity="1" stop-color="rgb(96.018982%, 96.109009%, 96.286011%)" offset="0.640625"/><stop stop-opacity="1" stop-color="rgb(95.724487%, 95.822144%, 96.011353%)" offset="0.648438"/><stop stop-opacity="1" stop-color="rgb(95.429993%, 95.533752%, 95.736694%)" offset="0.65625"/><stop stop-opacity="1" stop-color="rgb(95.135498%, 95.246887%, 95.462036%)" offset="0.664063"/><stop stop-opacity="1" stop-color="rgb(94.842529%, 94.958496%, 95.187378%)" offset="0.671875"/><stop stop-opacity="1" stop-color="rgb(94.548035%, 94.671631%, 94.91272%)" offset="0.679688"/><stop stop-opacity="1" stop-color="rgb(94.25354%, 94.384766%, 94.638062%)" offset="0.6875"/><stop stop-opacity="1" stop-color="rgb(93.959045%, 94.096375%, 94.363403%)" offset="0.695313"/><stop stop-opacity="1" stop-color="rgb(93.664551%, 93.809509%, 94.088745%)" offset="0.703125"/><stop stop-opacity="1" stop-color="rgb(93.371582%, 93.521118%, 93.814087%)" offset="0.710938"/><stop stop-opacity="1" stop-color="rgb(93.077087%, 93.234253%, 93.539429%)" offset="0.71875"/><stop stop-opacity="1" stop-color="rgb(92.782593%, 92.945862%, 93.264771%)" offset="0.726563"/><stop stop-opacity="1" stop-color="rgb(92.488098%, 92.658997%, 92.991638%)" offset="0.734375"/><stop stop-opacity="1" stop-color="rgb(92.193604%, 92.370605%, 92.71698%)" offset="0.742188"/><stop stop-opacity="1" stop-color="rgb(91.899109%, 92.08374%, 92.442322%)" offset="0.75"/><stop stop-opacity="1" stop-color="rgb(91.60614%, 91.795349%, 92.167664%)" offset="0.757812"/><stop stop-opacity="1" stop-color="rgb(91.311646%, 91.508484%, 91.893005%)" offset="0.765625"/><stop stop-opacity="1" stop-color="rgb(91.017151%, 91.221619%, 91.618347%)" offset="0.773438"/><stop stop-opacity="1" stop-color="rgb(90.722656%, 90.933228%, 91.343689%)" offset="0.78125"/><stop stop-opacity="1" stop-color="rgb(90.428162%, 90.646362%, 91.069031%)" offset="0.789062"/><stop stop-opacity="1" stop-color="rgb(90.135193%, 90.357971%, 90.794373%)" offset="0.796875"/><stop stop-opacity="1" stop-color="rgb(89.840698%, 90.071106%, 90.519714%)" offset="0.804688"/><stop stop-opacity="1" stop-color="rgb(89.546204%, 89.782715%, 90.245056%)" offset="0.8125"/><stop stop-opacity="1" stop-color="rgb(89.251709%, 89.49585%, 89.970398%)" offset="0.820312"/><stop stop-opacity="1" stop-color="rgb(88.957214%, 89.207458%, 89.69574%)" offset="0.828125"/><stop stop-opacity="1" stop-color="rgb(88.66272%, 88.920593%, 89.421082%)" offset="0.835938"/><stop stop-opacity="1" stop-color="rgb(88.369751%, 88.632202%, 89.147949%)" offset="0.84375"/><stop stop-opacity="1" stop-color="rgb(88.075256%, 88.345337%, 88.873291%)" offset="0.851562"/><stop stop-opacity="1" stop-color="rgb(87.780762%, 88.058472%, 88.598633%)" offset="0.859375"/><stop stop-opacity="1" stop-color="rgb(87.486267%, 87.770081%, 88.323975%)" offset="0.867188"/><stop stop-opacity="1" stop-color="rgb(87.191772%, 87.483215%, 88.049316%)" offset="0.875"/><stop stop-opacity="1" stop-color="rgb(86.897278%, 87.194824%, 87.774658%)" offset="0.882812"/><stop stop-opacity="1" stop-color="rgb(86.604309%, 86.907959%, 87.5%)" offset="0.890625"/><stop stop-opacity="1" stop-color="rgb(86.309814%, 86.619568%, 87.225342%)" offset="0.898438"/><stop stop-opacity="1" stop-color="rgb(86.01532%, 86.332703%, 86.950684%)" offset="0.90625"/><stop stop-opacity="1" stop-color="rgb(85.720825%, 86.044312%, 86.676025%)" offset="0.914062"/><stop stop-opacity="1" stop-color="rgb(85.426331%, 85.757446%, 86.401367%)" offset="0.921875"/><stop stop-opacity="1" stop-color="rgb(85.133362%, 85.470581%, 86.126709%)" offset="0.929688"/><stop stop-opacity="1" stop-color="rgb(84.838867%, 85.18219%, 85.852051%)" offset="0.9375"/><stop stop-opacity="1" stop-color="rgb(84.544373%, 84.895325%, 85.577393%)" offset="0.945312"/><stop stop-opacity="1" stop-color="rgb(84.249878%, 84.606934%, 85.302734%)" offset="0.953125"/><stop stop-opacity="1" stop-color="rgb(83.955383%, 84.320068%, 85.029602%)" offset="0.960938"/><stop stop-opacity="1" stop-color="rgb(83.660889%, 84.031677%, 84.754944%)" offset="0.96875"/><stop stop-opacity="1" stop-color="rgb(83.36792%, 83.744812%, 84.480286%)" offset="0.976562"/><stop stop-opacity="1" stop-color="rgb(83.073425%, 83.456421%, 84.205627%)" offset="0.984375"/><stop stop-opacity="1" stop-color="rgb(82.778931%, 83.169556%, 83.930969%)" offset="0.992188"/><stop stop-opacity="1" stop-color="rgb(82.49054%, 82.887268%, 83.660889%)" offset="1"/></linearGradient><clipPath id="8c00b4ff66"><path d="M 1 1 L 312 1 L 312 40.253906 L 1 40.253906 Z M 1 1 " clip-rule="nonzero"/></clipPath><clipPath id="21bb55bc22"><rect x="0" width="313" y="0" height="41"/></clipPath><clipPath id="b89b561057"><path d="M 310 43.742188 L 624 43.742188 L 624 83.441406 L 310 83.441406 Z M 310 43.742188 " clip-rule="nonzero"/></clipPath><clipPath id="d59d06047b"><path d="M 0.320312 0.742188 L 313 0.742188 L 313 15 L 0.320312 15 Z M 0.320312 0.742188 " clip-rule="nonzero"/></clipPath><clipPath id="98c8ed6137"><path d="M 4 4 L 310 4 L 310 40.253906 L 4 40.253906 Z M 4 4 " clip-rule="nonzero"/></clipPath><clipPath id="a1d53be8d3"><path d="M 301.195312 8.066406 L 301.195312 36.121094 C 301.195312 38.375 303.011719 40.191406 305.265625 40.191406 C 307.519531 40.191406 309.335938 38.375 309.335938 36.121094 L 309.335938 8.128906 C 309.335938 5.875 307.519531 4.058594 305.265625 4.058594 C 303.074219 3.996094 301.195312 5.875 301.195312 8.066406 Z M 278.339844 8.066406 L 278.339844 36.121094 C 278.339844 38.375 280.15625 40.191406 282.410156 40.191406 C 284.664062 40.191406 286.480469 38.375 286.480469 36.121094 L 286.480469 8.128906 C 286.480469 5.875 284.664062 4.058594 282.410156 4.058594 C 280.21875 3.996094 278.339844 5.875 278.339844 8.066406 Z M 255.484375 8.066406 L 255.484375 36.121094 C 255.484375 38.375 257.300781 40.191406 259.554688 40.191406 C 261.808594 40.191406 263.625 38.375 263.625 36.121094 L 263.625 8.128906 C 263.625 5.875 261.808594 4.058594 259.554688 4.058594 C 257.363281 3.996094 255.484375 5.875 255.484375 8.066406 Z M 232.628906 8.066406 L 232.628906 36.121094 C 232.628906 38.375 234.445312 40.191406 236.699219 40.191406 C 238.953125 40.191406 240.769531 38.375 240.769531 36.121094 L 240.769531 8.128906 C 240.769531 5.875 238.953125 4.058594 236.699219 4.058594 C 234.507812 3.996094 232.628906 5.875 232.628906 8.066406 Z M 209.773438 8.066406 L 209.773438 36.121094 C 209.773438 38.375 211.589844 40.191406 213.84375 40.191406 C 216.097656 40.191406 217.914062 38.375 217.914062 36.121094 L 217.914062 8.128906 C 217.914062 5.875 216.097656 4.058594 213.84375 4.058594 C 211.652344 3.996094 209.773438 5.875 209.773438 8.066406 Z M 186.917969 8.066406 L 186.917969 36.121094 C 186.917969 38.375 188.734375 40.191406 190.988281 40.191406 C 193.242188 40.191406 195.058594 38.375 195.058594 36.121094 L 195.058594 8.128906 C 195.058594 5.875 193.242188 4.058594 190.988281 4.058594 C 188.796875 3.996094 186.917969 5.875 186.917969 8.066406 Z M 164.0625 8.066406 L 164.0625 36.121094 C 164.0625 38.375 165.878906 40.191406 168.132812 40.191406 C 170.386719 40.191406 172.203125 38.375 172.203125 36.121094 L 172.203125 8.128906 C 172.203125 5.875 170.386719 4.058594 168.132812 4.058594 C 165.941406 3.996094 164.0625 5.875 164.0625 8.066406 Z M 141.207031 8.066406 L 141.207031 36.121094 C 141.207031 38.375 143.023438 40.191406 145.277344 40.191406 C 147.53125 40.191406 149.347656 38.375 149.347656 36.121094 L 149.347656 8.128906 C 149.347656 5.875 147.53125 4.058594 145.277344 4.058594 C 143.023438 3.996094 141.207031 5.875 141.207031 8.066406 Z M 118.351562 8.066406 L 118.351562 36.121094 C 118.351562 38.375 120.167969 40.191406 122.421875 40.191406 C 124.675781 40.191406 126.492188 38.375 126.492188 36.121094 L 126.492188 8.128906 C 126.492188 5.875 124.675781 4.058594 122.421875 4.058594 C 120.167969 3.996094 118.351562 5.875 118.351562 8.066406 Z M 95.496094 8.066406 L 95.496094 36.121094 C 95.496094 38.375 97.3125 40.191406 99.566406 40.191406 C 101.820312 40.191406 103.636719 38.375 103.636719 36.121094 L 103.636719 8.128906 C 103.636719 5.875 101.820312 4.058594 99.566406 4.058594 C 97.3125 3.996094 95.496094 5.875 95.496094 8.066406 Z M 72.640625 8.066406 L 72.640625 36.121094 C 72.640625 38.375 74.457031 40.191406 76.710938 40.191406 C 78.964844 40.191406 80.78125 38.375 80.78125 36.121094 L 80.78125 8.128906 C 80.78125 5.875 78.964844 4.058594 76.710938 4.058594 C 74.457031 3.996094 72.640625 5.875 72.640625 8.066406 Z M 49.785156 8.066406 L 49.785156 36.121094 C 49.785156 38.375 51.601562 40.191406 53.855469 40.191406 C 56.109375 40.191406 57.925781 38.375 57.925781 36.121094 L 57.925781 8.128906 C 57.925781 5.875 56.109375 4.058594 53.855469 4.058594 C 51.601562 3.996094 49.785156 5.875 49.785156 8.066406 Z M 26.929688 8.066406 L 26.929688 36.121094 C 26.929688 38.375 28.746094 40.191406 31 40.191406 C 33.253906 40.191406 35.070312 38.375 35.070312 36.121094 L 35.070312 8.128906 C 35.070312 5.875 33.253906 4.058594 31 4.058594 C 28.746094 3.996094 26.929688 5.875 26.929688 8.066406 Z M 4.074219 8.066406 L 4.074219 36.121094 C 4.074219 38.375 5.890625 40.191406 8.144531 40.191406 C 10.402344 40.191406 12.214844 38.375 12.214844 36.121094 L 12.214844 8.128906 C 12.214844 5.875 10.402344 4.058594 8.144531 4.058594 C 5.890625 3.996094 4.074219 5.875 4.074219 8.066406 Z M 4.074219 8.066406 " clip-rule="nonzero"/></clipPath><linearGradient x1="0.0999999" gradientTransform="matrix(0, -0.626175, -0.626175, 0, 312.905646, 40.252901)" y1="249.412" x2="57.900002" gradientUnits="userSpaceOnUse" y2="249.412" id="3ddf9b382e"><stop stop-opacity="1" stop-color="rgb(82.348633%, 82.749939%, 83.529663%)" offset="0"/><stop stop-opacity="1" stop-color="rgb(82.518005%, 82.913208%, 83.683777%)" offset="0.015625"/><stop stop-opacity="1" stop-color="rgb(82.872009%, 83.255005%, 84.004211%)" offset="0.0234375"/><stop stop-opacity="1" stop-color="rgb(83.239746%, 83.612061%, 84.338379%)" offset="0.03125"/><stop stop-opacity="1" stop-color="rgb(83.607483%, 83.969116%, 84.672546%)" offset="0.0390625"/><stop stop-opacity="1" stop-color="rgb(83.97522%, 84.324646%, 85.006714%)" offset="0.046875"/><stop stop-opacity="1" stop-color="rgb(84.342957%, 84.681702%, 85.340881%)" offset="0.0546875"/><stop stop-opacity="1" stop-color="rgb(84.710693%, 85.038757%, 85.675049%)" offset="0.0625"/><stop stop-opacity="1" stop-color="rgb(85.07843%, 85.394287%, 86.009216%)" offset="0.0703125"/><stop stop-opacity="1" stop-color="rgb(85.446167%, 85.751343%, 86.343384%)" offset="0.078125"/><stop stop-opacity="1" stop-color="rgb(85.813904%, 86.108398%, 86.679077%)" offset="0.0859375"/><stop stop-opacity="1" stop-color="rgb(86.181641%, 86.463928%, 87.013245%)" offset="0.09375"/><stop stop-opacity="1" stop-color="rgb(86.550903%, 86.820984%, 87.347412%)" offset="0.101562"/><stop stop-opacity="1" stop-color="rgb(86.91864%, 87.17804%, 87.68158%)" offset="0.109375"/><stop stop-opacity="1" stop-color="rgb(87.286377%, 87.533569%, 88.015747%)" offset="0.117187"/><stop stop-opacity="1" stop-color="rgb(87.654114%, 87.890625%, 88.349915%)" offset="0.125"/><stop stop-opacity="1" stop-color="rgb(88.021851%, 88.246155%, 88.684082%)" offset="0.132812"/><stop stop-opacity="1" stop-color="rgb(88.389587%, 88.60321%, 89.01825%)" offset="0.140625"/><stop stop-opacity="1" stop-color="rgb(88.757324%, 88.960266%, 89.352417%)" offset="0.148438"/><stop stop-opacity="1" stop-color="rgb(89.125061%, 89.315796%, 89.68811%)" offset="0.15625"/><stop stop-opacity="1" stop-color="rgb(89.492798%, 89.672852%, 90.022278%)" offset="0.164062"/><stop stop-opacity="1" stop-color="rgb(89.860535%, 90.029907%, 90.356445%)" offset="0.171875"/><stop stop-opacity="1" stop-color="rgb(90.229797%, 90.385437%, 90.690613%)" offset="0.179688"/><stop stop-opacity="1" stop-color="rgb(90.597534%, 90.742493%, 91.02478%)" offset="0.1875"/><stop stop-opacity="1" stop-color="rgb(90.965271%, 91.099548%, 91.358948%)" offset="0.195312"/><stop stop-opacity="1" stop-color="rgb(91.333008%, 91.455078%, 91.693115%)" offset="0.203125"/><stop stop-opacity="1" stop-color="rgb(91.700745%, 91.812134%, 92.027283%)" offset="0.210937"/><stop stop-opacity="1" stop-color="rgb(92.068481%, 92.167664%, 92.36145%)" offset="0.21875"/><stop stop-opacity="1" stop-color="rgb(92.436218%, 92.524719%, 92.697144%)" offset="0.226562"/><stop stop-opacity="1" stop-color="rgb(92.803955%, 92.881775%, 93.031311%)" offset="0.234375"/><stop stop-opacity="1" stop-color="rgb(93.171692%, 93.237305%, 93.365479%)" offset="0.242187"/><stop stop-opacity="1" stop-color="rgb(93.539429%, 93.59436%, 93.699646%)" offset="0.25"/><stop stop-opacity="1" stop-color="rgb(93.907166%, 93.951416%, 94.033813%)" offset="0.257813"/><stop stop-opacity="1" stop-color="rgb(94.276428%, 94.306946%, 94.367981%)" offset="0.265625"/><stop stop-opacity="1" stop-color="rgb(94.644165%, 94.664001%, 94.702148%)" offset="0.273438"/><stop stop-opacity="1" stop-color="rgb(95.011902%, 95.021057%, 95.036316%)" offset="0.28125"/><stop stop-opacity="1" stop-color="rgb(95.372009%, 95.373535%, 95.376587%)" offset="0.296875"/><stop stop-opacity="1" stop-color="rgb(95.697021%, 95.697021%, 95.697021%)" offset="0.3125"/><stop stop-opacity="1" stop-color="rgb(95.993042%, 95.993042%, 95.993042%)" offset="0.328125"/><stop stop-opacity="1" stop-color="rgb(96.290588%, 96.290588%, 96.290588%)" offset="0.34375"/><stop stop-opacity="1" stop-color="rgb(96.588135%, 96.588135%, 96.588135%)" offset="0.359375"/><stop stop-opacity="1" stop-color="rgb(96.884155%, 96.884155%, 96.884155%)" offset="0.375"/><stop stop-opacity="1" stop-color="rgb(97.181702%, 97.181702%, 97.181702%)" offset="0.390625"/><stop stop-opacity="1" stop-color="rgb(97.477722%, 97.477722%, 97.477722%)" offset="0.40625"/><stop stop-opacity="1" stop-color="rgb(97.775269%, 97.775269%, 97.775269%)" offset="0.421875"/><stop stop-opacity="1" stop-color="rgb(98.072815%, 98.072815%, 98.072815%)" offset="0.4375"/><stop stop-opacity="1" stop-color="rgb(98.368835%, 98.368835%, 98.368835%)" offset="0.453125"/><stop stop-opacity="1" stop-color="rgb(98.666382%, 98.666382%, 98.666382%)" offset="0.46875"/><stop stop-opacity="1" stop-color="rgb(98.963928%, 98.963928%, 98.963928%)" offset="0.484375"/><stop stop-opacity="1" stop-color="rgb(99.259949%, 99.259949%, 99.259949%)" offset="0.5"/><stop stop-opacity="1" stop-color="rgb(99.557495%, 99.557495%, 99.557495%)" offset="0.515625"/><stop stop-opacity="1" stop-color="rgb(99.847412%, 99.848938%, 99.848938%)" offset="0.53125"/><stop stop-opacity="1" stop-color="rgb(99.84436%, 99.847412%, 99.855042%)" offset="0.539063"/><stop stop-opacity="1" stop-color="rgb(99.549866%, 99.560547%, 99.580383%)" offset="0.546875"/><stop stop-opacity="1" stop-color="rgb(99.255371%, 99.272156%, 99.305725%)" offset="0.554688"/><stop stop-opacity="1" stop-color="rgb(98.960876%, 98.985291%, 99.031067%)" offset="0.5625"/><stop stop-opacity="1" stop-color="rgb(98.666382%, 98.696899%, 98.756409%)" offset="0.570313"/><stop stop-opacity="1" stop-color="rgb(98.373413%, 98.410034%, 98.48175%)" offset="0.578125"/><stop stop-opacity="1" stop-color="rgb(98.078918%, 98.121643%, 98.207092%)" offset="0.585938"/><stop stop-opacity="1" stop-color="rgb(97.784424%, 97.834778%, 97.932434%)" offset="0.59375"/><stop stop-opacity="1" stop-color="rgb(97.489929%, 97.547913%, 97.657776%)" offset="0.601563"/><stop stop-opacity="1" stop-color="rgb(97.195435%, 97.259521%, 97.383118%)" offset="0.609375"/><stop stop-opacity="1" stop-color="rgb(96.90094%, 96.972656%, 97.109985%)" offset="0.617188"/><stop stop-opacity="1" stop-color="rgb(96.607971%, 96.684265%, 96.835327%)" offset="0.625"/><stop stop-opacity="1" stop-color="rgb(96.313477%, 96.3974%, 96.560669%)" offset="0.632813"/><stop stop-opacity="1" stop-color="rgb(96.018982%, 96.109009%, 96.286011%)" offset="0.640625"/><stop stop-opacity="1" stop-color="rgb(95.724487%, 95.822144%, 96.011353%)" offset="0.648438"/><stop stop-opacity="1" stop-color="rgb(95.429993%, 95.533752%, 95.736694%)" offset="0.65625"/><stop stop-opacity="1" stop-color="rgb(95.135498%, 95.246887%, 95.462036%)" offset="0.664063"/><stop stop-opacity="1" stop-color="rgb(94.842529%, 94.958496%, 95.187378%)" offset="0.671875"/><stop stop-opacity="1" stop-color="rgb(94.548035%, 94.671631%, 94.91272%)" offset="0.679688"/><stop stop-opacity="1" stop-color="rgb(94.25354%, 94.384766%, 94.638062%)" offset="0.6875"/><stop stop-opacity="1" stop-color="rgb(93.959045%, 94.096375%, 94.363403%)" offset="0.695313"/><stop stop-opacity="1" stop-color="rgb(93.664551%, 93.809509%, 94.088745%)" offset="0.703125"/><stop stop-opacity="1" stop-color="rgb(93.371582%, 93.521118%, 93.814087%)" offset="0.710938"/><stop stop-opacity="1" stop-color="rgb(93.077087%, 93.234253%, 93.539429%)" offset="0.71875"/><stop stop-opacity="1" stop-color="rgb(92.782593%, 92.945862%, 93.264771%)" offset="0.726563"/><stop stop-opacity="1" stop-color="rgb(92.488098%, 92.658997%, 92.991638%)" offset="0.734375"/><stop stop-opacity="1" stop-color="rgb(92.193604%, 92.370605%, 92.71698%)" offset="0.742188"/><stop stop-opacity="1" stop-color="rgb(91.899109%, 92.08374%, 92.442322%)" offset="0.75"/><stop stop-opacity="1" stop-color="rgb(91.60614%, 91.795349%, 92.167664%)" offset="0.757812"/><stop stop-opacity="1" stop-color="rgb(91.311646%, 91.508484%, 91.893005%)" offset="0.765625"/><stop stop-opacity="1" stop-color="rgb(91.017151%, 91.221619%, 91.618347%)" offset="0.773438"/><stop stop-opacity="1" stop-color="rgb(90.722656%, 90.933228%, 91.343689%)" offset="0.78125"/><stop stop-opacity="1" stop-color="rgb(90.428162%, 90.646362%, 91.069031%)" offset="0.789062"/><stop stop-opacity="1" stop-color="rgb(90.135193%, 90.357971%, 90.794373%)" offset="0.796875"/><stop stop-opacity="1" stop-color="rgb(89.840698%, 90.071106%, 90.519714%)" offset="0.804688"/><stop stop-opacity="1" stop-color="rgb(89.546204%, 89.782715%, 90.245056%)" offset="0.8125"/><stop stop-opacity="1" stop-color="rgb(89.251709%, 89.49585%, 89.970398%)" offset="0.820312"/><stop stop-opacity="1" stop-color="rgb(88.957214%, 89.207458%, 89.69574%)" offset="0.828125"/><stop stop-opacity="1" stop-color="rgb(88.66272%, 88.920593%, 89.421082%)" offset="0.835938"/><stop stop-opacity="1" stop-color="rgb(88.369751%, 88.632202%, 89.147949%)" offset="0.84375"/><stop stop-opacity="1" stop-color="rgb(88.075256%, 88.345337%, 88.873291%)" offset="0.851562"/><stop stop-opacity="1" stop-color="rgb(87.780762%, 88.058472%, 88.598633%)" offset="0.859375"/><stop stop-opacity="1" stop-color="rgb(87.486267%, 87.770081%, 88.323975%)" offset="0.867188"/><stop stop-opacity="1" stop-color="rgb(87.191772%, 87.483215%, 88.049316%)" offset="0.875"/><stop stop-opacity="1" stop-color="rgb(86.897278%, 87.194824%, 87.774658%)" offset="0.882812"/><stop stop-opacity="1" stop-color="rgb(86.604309%, 86.907959%, 87.5%)" offset="0.890625"/><stop stop-opacity="1" stop-color="rgb(86.309814%, 86.619568%, 87.225342%)" offset="0.898438"/><stop stop-opacity="1" stop-color="rgb(86.01532%, 86.332703%, 86.950684%)" offset="0.90625"/><stop stop-opacity="1" stop-color="rgb(85.720825%, 86.044312%, 86.676025%)" offset="0.914062"/><stop stop-opacity="1" stop-color="rgb(85.426331%, 85.757446%, 86.401367%)" offset="0.921875"/><stop stop-opacity="1" stop-color="rgb(85.133362%, 85.470581%, 86.126709%)" offset="0.929688"/><stop stop-opacity="1" stop-color="rgb(84.838867%, 85.18219%, 85.852051%)" offset="0.9375"/><stop stop-opacity="1" stop-color="rgb(84.544373%, 84.895325%, 85.577393%)" offset="0.945312"/><stop stop-opacity="1" stop-color="rgb(84.249878%, 84.606934%, 85.302734%)" offset="0.953125"/><stop stop-opacity="1" stop-color="rgb(83.955383%, 84.320068%, 85.029602%)" offset="0.960938"/><stop stop-opacity="1" stop-color="rgb(83.660889%, 84.031677%, 84.754944%)" offset="0.96875"/><stop stop-opacity="1" stop-color="rgb(83.36792%, 83.744812%, 84.480286%)" offset="0.976562"/><stop stop-opacity="1" stop-color="rgb(83.073425%, 83.456421%, 84.205627%)" offset="0.984375"/><stop stop-opacity="1" stop-color="rgb(82.778931%, 83.169556%, 83.930969%)" offset="0.992188"/><stop stop-opacity="1" stop-color="rgb(82.49054%, 82.887268%, 83.660889%)" offset="1"/></linearGradient><clipPath id="5aaff6b8d5"><path d="M 1 1 L 312 1 L 312 40.253906 L 1 40.253906 Z M 1 1 " clip-rule="nonzero"/></clipPath><clipPath id="575198c2ac"><rect x="0" width="314" y="0" height="41"/></clipPath></defs><g clip-path="url(#a8f985659b)"><g clip-path="url(#5fa83b6102)"><g transform="matrix(1, 0, 0, 1, 0, 69)"><g clip-path="url(#379c57261a)"><g clip-path="url(#555a5adb03)"><g clip-path="url(#696febaea9)"><path fill="#ffffff" d="M 0.160156 0.496094 L 636.242188 0.496094 L 636.242188 318.535156 L 0.160156 318.535156 Z M 0.160156 0.496094 " fill-opacity="1" fill-rule="nonzero"/></g></g></g></g></g></g><g clip-path="url(#7f8437bc4b)"><g clip-path="url(#b84ac3b5a3)"><path stroke-linecap="butt" transform="matrix(0.749036, 0, 0, 0.749036, 0.163377, 69.49502)" fill="none" stroke-linejoin="miter" d="M 848.993266 20.0011 L 848.993266 404.594422 C 848.993266 409.898114 846.886392 414.982775 843.131565 418.737602 C 839.381954 422.487213 834.297293 424.594088 828.9936 424.594088 L 20.000581 424.594088 C 14.696889 424.594088 9.607013 422.487213 5.857401 418.737602 C 2.10779 414.982775 0.000914767 409.898114 0.000914767 404.594422 L 0.000914767 20.0011 C 0.000914767 14.697408 2.10779 9.607532 5.857401 5.85792 C 9.607013 2.108309 14.696889 0.00143394 20.000581 0.00143394 L 828.9936 0.00143394 C 834.297293 0.00143394 839.381954 2.108309 843.131565 5.85792 C 846.886392 9.607532 848.993266 14.697408 848.993266 20.0011 Z M 848.993266 20.0011 " stroke="#bac4cc" stroke-width="2" stroke-opacity="1" stroke-miterlimit="4"/></g></g><g clip-path="url(#7af358356f)"><g clip-path="url(#ad71bf3c79)"><g><g clip-path="url(#6468b9f7d3)"><g clip-path="url(#43ff50061d)"><g clip-path="url(#554298c681)"><path fill="#ffffff" d="M 0.160156 0.472656 L 636.027344 0.472656 L 636.027344 59.410156 L 0.160156 59.410156 Z M 0.160156 0.472656 " fill-opacity="1" fill-rule="nonzero"/></g></g></g></g></g></g><g clip-path="url(#edaec5ac6a)"><g clip-path="url(#aa1561da85)"><path stroke-linecap="butt" transform="matrix(0.749036, 0, 0, 0.749036, 0.202631, 0.473351)" fill="none" stroke-linejoin="miter" d="M 848.88871 19.998739 L 848.88871 58.673452 C 848.88871 63.977144 846.781835 69.06702 843.027009 72.816632 C 839.277397 76.566243 834.192736 78.673118 828.889044 78.673118 L 19.99511 78.673118 C 14.691418 78.673118 9.606757 76.566243 5.857145 72.816632 C 2.107534 69.06702 0.000659107 63.977144 0.000659107 58.673452 L 0.000659107 19.998739 C 0.000659107 14.695046 2.107534 9.60517 5.857145 5.855559 C 9.606757 2.105947 14.691418 -0.000927647 19.99511 -0.000927647 L 828.889044 -0.000927647 C 834.192736 -0.000927647 839.277397 2.105947 843.027009 5.855559 C 846.781835 9.60517 848.88871 14.695046 848.88871 19.998739 Z M 848.88871 19.998739 " stroke="#bac4cc" stroke-width="2" stroke-opacity="1" stroke-miterlimit="4"/></g></g><g fill="#5289b8" fill-opacity="1"><g transform="translate(177.885546, 35.205836)"><g><path d="M 13.140625 -17.484375 C 13.140625 -17.117188 13.101562 -16.765625 13.03125 -16.421875 C 12.957031 -16.078125 12.832031 -15.78125 12.65625 -15.53125 C 12.488281 -15.28125 12.257812 -15.082031 11.96875 -14.9375 C 11.675781 -14.789062 11.3125 -14.71875 10.875 -14.71875 C 10.394531 -14.71875 10.035156 -14.8125 9.796875 -15 C 9.566406 -15.195312 9.40625 -15.4375 9.3125 -15.71875 C 9.226562 -16 9.1875 -16.304688 9.1875 -16.640625 C 9.1875 -16.972656 9.171875 -17.28125 9.140625 -17.5625 C 9.109375 -17.84375 9.035156 -18.082031 8.921875 -18.28125 C 8.804688 -18.476562 8.59375 -18.578125 8.28125 -18.578125 C 7.988281 -18.578125 7.75 -18.351562 7.5625 -17.90625 C 7.375 -17.457031 7.222656 -16.9375 7.109375 -16.34375 C 6.992188 -15.757812 6.914062 -15.191406 6.875 -14.640625 C 6.832031 -14.085938 6.8125 -13.710938 6.8125 -13.515625 C 7.070312 -13.554688 7.316406 -13.585938 7.546875 -13.609375 C 7.773438 -13.640625 8.03125 -13.65625 8.3125 -13.65625 C 8.582031 -13.65625 8.863281 -13.625 9.15625 -13.5625 C 9.445312 -13.507812 9.71875 -13.421875 9.96875 -13.296875 C 10.226562 -13.171875 10.4375 -12.992188 10.59375 -12.765625 C 10.75 -12.546875 10.828125 -12.269531 10.828125 -11.9375 C 10.828125 -11.582031 10.675781 -11.269531 10.375 -11 C 10.070312 -10.726562 9.707031 -10.5 9.28125 -10.3125 C 8.863281 -10.125 8.441406 -9.972656 8.015625 -9.859375 C 7.585938 -9.742188 7.242188 -9.664062 6.984375 -9.625 C 7.046875 -8.28125 7.078125 -6.925781 7.078125 -5.5625 C 7.078125 -4.269531 7.046875 -3 6.984375 -1.75 C 6.953125 -1.144531 6.742188 -0.644531 6.359375 -0.25 C 5.984375 0.132812 5.492188 0.328125 4.890625 0.328125 C 4.554688 0.328125 4.269531 0.257812 4.03125 0.125 C 3.800781 0 3.609375 -0.164062 3.453125 -0.375 C 3.296875 -0.59375 3.171875 -0.835938 3.078125 -1.109375 C 2.992188 -1.378906 2.941406 -1.660156 2.921875 -1.953125 C 2.828125 -3.128906 2.75 -4.304688 2.6875 -5.484375 C 2.632812 -6.660156 2.613281 -7.84375 2.625 -9.03125 C 2.488281 -9.019531 2.359375 -9.015625 2.234375 -9.015625 C 2.109375 -9.015625 1.976562 -9.015625 1.84375 -9.015625 C 1.601562 -9.015625 1.316406 -9.039062 0.984375 -9.09375 C 0.660156 -9.15625 0.347656 -9.257812 0.046875 -9.40625 C -0.253906 -9.550781 -0.507812 -9.726562 -0.71875 -9.9375 C -0.9375 -10.15625 -1.046875 -10.429688 -1.046875 -10.765625 C -1.046875 -11.191406 -0.90625 -11.550781 -0.625 -11.84375 C -0.34375 -12.132812 -0.00390625 -12.375 0.390625 -12.5625 C 0.796875 -12.75 1.21875 -12.878906 1.65625 -12.953125 C 2.09375 -13.035156 2.476562 -13.097656 2.8125 -13.140625 L 2.8125 -13.609375 C 2.8125 -14.554688 2.894531 -15.578125 3.0625 -16.671875 C 3.238281 -17.765625 3.550781 -18.78125 4 -19.71875 C 4.457031 -20.65625 5.070312 -21.429688 5.84375 -22.046875 C 6.625 -22.660156 7.617188 -22.96875 8.828125 -22.96875 C 9.585938 -22.96875 10.238281 -22.804688 10.78125 -22.484375 C 11.332031 -22.160156 11.785156 -21.738281 12.140625 -21.21875 C 12.492188 -20.707031 12.75 -20.125 12.90625 -19.46875 C 13.0625 -18.8125 13.140625 -18.148438 13.140625 -17.484375 Z M 13.140625 -17.484375 "/></g></g></g><g fill="#5289b8" fill-opacity="1"><g transform="translate(194.511158, 35.205836)"><g><path d="M 13.140625 -5.203125 C 13.140625 -4.546875 12.925781 -3.898438 12.5 -3.265625 C 12.082031 -2.628906 11.554688 -2.0625 10.921875 -1.5625 C 10.285156 -1.0625 9.609375 -0.660156 8.890625 -0.359375 C 8.171875 -0.0546875 7.507812 0.09375 6.90625 0.09375 C 5.875 0.09375 4.953125 -0.164062 4.140625 -0.6875 C 3.328125 -1.207031 2.644531 -1.863281 2.09375 -2.65625 C 1.550781 -3.457031 1.140625 -4.335938 0.859375 -5.296875 C 0.578125 -6.265625 0.4375 -7.207031 0.4375 -8.125 C 0.4375 -9.101562 0.570312 -10.144531 0.84375 -11.25 C 1.113281 -12.363281 1.523438 -13.390625 2.078125 -14.328125 C 2.640625 -15.265625 3.34375 -16.046875 4.1875 -16.671875 C 5.039062 -17.296875 6.050781 -17.609375 7.21875 -17.609375 C 7.882812 -17.609375 8.519531 -17.492188 9.125 -17.265625 C 9.726562 -17.046875 10.253906 -16.726562 10.703125 -16.3125 C 11.148438 -15.90625 11.507812 -15.421875 11.78125 -14.859375 C 12.0625 -14.296875 12.203125 -13.660156 12.203125 -12.953125 C 12.203125 -12.035156 12.003906 -11.175781 11.609375 -10.375 C 11.222656 -9.582031 10.707031 -8.894531 10.0625 -8.3125 C 9.414062 -7.726562 8.671875 -7.253906 7.828125 -6.890625 C 6.992188 -6.523438 6.140625 -6.320312 5.265625 -6.28125 C 5.335938 -5.71875 5.5625 -5.3125 5.9375 -5.0625 C 6.320312 -4.8125 6.78125 -4.6875 7.3125 -4.6875 C 7.695312 -4.6875 8.078125 -4.78125 8.453125 -4.96875 C 8.828125 -5.164062 9.1875 -5.382812 9.53125 -5.625 C 9.882812 -5.875 10.234375 -6.09375 10.578125 -6.28125 C 10.921875 -6.476562 11.265625 -6.578125 11.609375 -6.578125 C 12.003906 -6.578125 12.359375 -6.453125 12.671875 -6.203125 C 12.984375 -5.953125 13.140625 -5.617188 13.140625 -5.203125 Z M 8.390625 -12.375 C 8.390625 -12.625 8.320312 -12.882812 8.1875 -13.15625 C 8.050781 -13.4375 7.835938 -13.578125 7.546875 -13.578125 C 7.117188 -13.578125 6.757812 -13.460938 6.46875 -13.234375 C 6.175781 -13.015625 5.929688 -12.734375 5.734375 -12.390625 C 5.535156 -12.046875 5.382812 -11.675781 5.28125 -11.28125 C 5.175781 -10.894531 5.113281 -10.535156 5.09375 -10.203125 C 5.363281 -10.265625 5.6875 -10.34375 6.0625 -10.4375 C 6.445312 -10.539062 6.804688 -10.675781 7.140625 -10.84375 C 7.484375 -11.007812 7.773438 -11.21875 8.015625 -11.46875 C 8.265625 -11.71875 8.390625 -12.019531 8.390625 -12.375 Z M 8.390625 -12.375 "/></g></g></g><g fill="#5289b8" fill-opacity="1"><g transform="translate(213.38885, 35.205836)"><g><path d="M 6.34375 -17.71875 C 6.34375 -16.664062 6.296875 -15.609375 6.203125 -14.546875 C 6.117188 -13.484375 6.078125 -12.414062 6.078125 -11.34375 C 6.078125 -9.957031 6.117188 -8.570312 6.203125 -7.1875 C 6.296875 -5.8125 6.34375 -4.421875 6.34375 -3.015625 C 6.34375 -2.660156 6.320312 -2.265625 6.28125 -1.828125 C 6.25 -1.390625 6.160156 -0.984375 6.015625 -0.609375 C 5.867188 -0.242188 5.648438 0.0625 5.359375 0.3125 C 5.066406 0.570312 4.675781 0.703125 4.1875 0.703125 C 3.71875 0.703125 3.3125 0.472656 2.96875 0.015625 C 2.625 -0.441406 2.335938 -1.023438 2.109375 -1.734375 C 1.890625 -2.453125 1.707031 -3.25 1.5625 -4.125 C 1.414062 -5 1.304688 -5.847656 1.234375 -6.671875 C 1.171875 -7.503906 1.125 -8.265625 1.09375 -8.953125 C 1.0625 -9.648438 1.046875 -10.164062 1.046875 -10.5 C 1.046875 -10.875 1.0625 -11.410156 1.09375 -12.109375 C 1.125 -12.804688 1.1875 -13.566406 1.28125 -14.390625 C 1.382812 -15.210938 1.519531 -16.046875 1.6875 -16.890625 C 1.851562 -17.742188 2.070312 -18.515625 2.34375 -19.203125 C 2.613281 -19.890625 2.9375 -20.453125 3.3125 -20.890625 C 3.695312 -21.335938 4.15625 -21.5625 4.6875 -21.5625 C 5.113281 -21.5625 5.4375 -21.414062 5.65625 -21.125 C 5.882812 -20.84375 6.046875 -20.503906 6.140625 -20.109375 C 6.234375 -19.710938 6.289062 -19.289062 6.3125 -18.84375 C 6.332031 -18.40625 6.34375 -18.03125 6.34375 -17.71875 Z M 6.34375 -17.71875 "/></g></g></g><g fill="#5289b8" fill-opacity="1"><g transform="translate(226.533976, 35.205836)"><g><path d="M 5.703125 -20.421875 C 5.703125 -20.140625 5.628906 -19.890625 5.484375 -19.671875 C 5.335938 -19.460938 5.144531 -19.273438 4.90625 -19.109375 C 4.675781 -18.941406 4.425781 -18.816406 4.15625 -18.734375 C 3.882812 -18.648438 3.628906 -18.609375 3.390625 -18.609375 C 3.003906 -18.609375 2.664062 -18.703125 2.375 -18.890625 C 2.082031 -19.085938 1.9375 -19.390625 1.9375 -19.796875 C 1.9375 -20.085938 2.007812 -20.347656 2.15625 -20.578125 C 2.300781 -20.804688 2.476562 -20.992188 2.6875 -21.140625 C 2.90625 -21.285156 3.148438 -21.394531 3.421875 -21.46875 C 3.691406 -21.550781 3.957031 -21.59375 4.21875 -21.59375 C 4.582031 -21.59375 4.921875 -21.503906 5.234375 -21.328125 C 5.546875 -21.148438 5.703125 -20.847656 5.703125 -20.421875 Z M 5.9375 -10.46875 C 5.9375 -10.195312 5.9375 -9.910156 5.9375 -9.609375 C 5.9375 -9.304688 5.925781 -9.019531 5.90625 -8.75 C 5.882812 -8.414062 5.875 -7.96875 5.875 -7.40625 C 5.875 -6.851562 5.851562 -6.253906 5.8125 -5.609375 C 5.78125 -4.972656 5.71875 -4.320312 5.625 -3.65625 C 5.539062 -2.988281 5.398438 -2.382812 5.203125 -1.84375 C 5.015625 -1.300781 4.757812 -0.859375 4.4375 -0.515625 C 4.113281 -0.171875 3.707031 0.0078125 3.21875 0.03125 C 2.84375 0.0507812 2.53125 -0.09375 2.28125 -0.40625 C 2.03125 -0.71875 1.820312 -1.125 1.65625 -1.625 C 1.488281 -2.125 1.363281 -2.679688 1.28125 -3.296875 C 1.207031 -3.910156 1.148438 -4.503906 1.109375 -5.078125 C 1.066406 -5.648438 1.046875 -6.179688 1.046875 -6.671875 C 1.046875 -7.160156 1.046875 -7.519531 1.046875 -7.75 C 1.046875 -8.0625 1.046875 -8.503906 1.046875 -9.078125 C 1.046875 -9.660156 1.066406 -10.28125 1.109375 -10.9375 C 1.148438 -11.601562 1.222656 -12.273438 1.328125 -12.953125 C 1.429688 -13.640625 1.585938 -14.265625 1.796875 -14.828125 C 2.003906 -15.390625 2.269531 -15.847656 2.59375 -16.203125 C 2.925781 -16.554688 3.347656 -16.734375 3.859375 -16.734375 C 4.390625 -16.734375 4.789062 -16.46875 5.0625 -15.9375 C 5.332031 -15.414062 5.535156 -14.800781 5.671875 -14.09375 C 5.804688 -13.394531 5.882812 -12.695312 5.90625 -12 C 5.925781 -11.3125 5.9375 -10.800781 5.9375 -10.46875 Z M 5.9375 -10.46875 "/></g></g></g><g fill="#5289b8" fill-opacity="1"><g transform="translate(239.123394, 35.205836)"><g><path d="M 14.015625 -2.75 C 14.015625 -2.363281 13.851562 -2.019531 13.53125 -1.71875 C 13.207031 -1.425781 12.796875 -1.160156 12.296875 -0.921875 C 11.796875 -0.691406 11.226562 -0.5 10.59375 -0.34375 C 9.96875 -0.1875 9.347656 -0.0625 8.734375 0.03125 C 8.117188 0.125 7.535156 0.195312 6.984375 0.25 C 6.441406 0.300781 6.003906 0.328125 5.671875 0.328125 C 5.335938 0.328125 4.875 0.316406 4.28125 0.296875 C 3.6875 0.273438 3.097656 0.203125 2.515625 0.078125 C 1.929688 -0.046875 1.421875 -0.25 0.984375 -0.53125 C 0.554688 -0.820312 0.34375 -1.21875 0.34375 -1.71875 C 0.34375 -2.113281 0.476562 -2.59375 0.75 -3.15625 C 1.03125 -3.71875 1.382812 -4.332031 1.8125 -5 C 2.238281 -5.664062 2.710938 -6.34375 3.234375 -7.03125 C 3.765625 -7.726562 4.285156 -8.394531 4.796875 -9.03125 C 5.304688 -9.675781 5.785156 -10.265625 6.234375 -10.796875 C 6.679688 -11.335938 7.03125 -11.785156 7.28125 -12.140625 C 7.007812 -12.078125 6.660156 -11.992188 6.234375 -11.890625 C 5.816406 -11.785156 5.382812 -11.679688 4.9375 -11.578125 C 4.488281 -11.484375 4.054688 -11.398438 3.640625 -11.328125 C 3.222656 -11.265625 2.867188 -11.234375 2.578125 -11.234375 C 2.335938 -11.234375 2.070312 -11.273438 1.78125 -11.359375 C 1.488281 -11.453125 1.210938 -11.578125 0.953125 -11.734375 C 0.691406 -11.890625 0.46875 -12.070312 0.28125 -12.28125 C 0.09375 -12.5 0 -12.742188 0 -13.015625 C 0 -13.367188 0.15625 -13.695312 0.46875 -14 C 0.78125 -14.300781 1.1875 -14.570312 1.6875 -14.8125 C 2.195312 -15.0625 2.765625 -15.273438 3.390625 -15.453125 C 4.015625 -15.640625 4.628906 -15.796875 5.234375 -15.921875 C 5.835938 -16.054688 6.410156 -16.148438 6.953125 -16.203125 C 7.503906 -16.265625 7.945312 -16.296875 8.28125 -16.296875 C 8.644531 -16.296875 9.085938 -16.253906 9.609375 -16.171875 C 10.140625 -16.097656 10.65625 -15.960938 11.15625 -15.765625 C 11.65625 -15.566406 12.078125 -15.300781 12.421875 -14.96875 C 12.773438 -14.644531 12.953125 -14.226562 12.953125 -13.71875 C 12.953125 -13.5625 12.9375 -13.421875 12.90625 -13.296875 C 12.882812 -13.171875 12.851562 -13.03125 12.8125 -12.875 C 12.769531 -12.738281 12.597656 -12.429688 12.296875 -11.953125 C 11.992188 -11.472656 11.625 -10.90625 11.1875 -10.25 C 10.75 -9.59375 10.269531 -8.890625 9.75 -8.140625 C 9.238281 -7.390625 8.75 -6.679688 8.28125 -6.015625 C 7.8125 -5.359375 7.398438 -4.773438 7.046875 -4.265625 C 6.691406 -3.765625 6.457031 -3.425781 6.34375 -3.25 C 7.144531 -3.457031 7.957031 -3.632812 8.78125 -3.78125 C 9.613281 -3.925781 10.441406 -4 11.265625 -4 C 11.453125 -4 11.703125 -3.988281 12.015625 -3.96875 C 12.328125 -3.957031 12.628906 -3.90625 12.921875 -3.8125 C 13.222656 -3.726562 13.476562 -3.601562 13.6875 -3.4375 C 13.90625 -3.269531 14.015625 -3.039062 14.015625 -2.75 Z M 14.015625 -2.75 "/></g></g></g><g fill="#5289b8" fill-opacity="1"><g transform="translate(258.293564, 35.205836)"><g/></g></g><g fill="#5289b8" fill-opacity="1"><g transform="translate(270.795238, 35.205836)"><g><path d="M 13.3125 -4.125 C 13.3125 -3.769531 13.296875 -3.3125 13.265625 -2.75 C 13.234375 -2.1875 13.148438 -1.632812 13.015625 -1.09375 C 12.878906 -0.5625 12.664062 -0.101562 12.375 0.28125 C 12.082031 0.675781 11.671875 0.875 11.140625 0.875 C 10.421875 0.875 9.863281 0.640625 9.46875 0.171875 C 9.082031 -0.296875 8.898438 -0.878906 8.921875 -1.578125 C 8.296875 -1.035156 7.585938 -0.609375 6.796875 -0.296875 C 6.003906 0.015625 5.203125 0.171875 4.390625 0.171875 C 3.828125 0.171875 3.289062 0.0351562 2.78125 -0.234375 C 2.269531 -0.503906 1.816406 -0.851562 1.421875 -1.28125 C 1.035156 -1.71875 0.722656 -2.203125 0.484375 -2.734375 C 0.253906 -3.273438 0.140625 -3.804688 0.140625 -4.328125 C 0.140625 -5.265625 0.425781 -6.082031 1 -6.78125 C 1.582031 -7.488281 2.289062 -8.085938 3.125 -8.578125 C 3.96875 -9.078125 4.859375 -9.472656 5.796875 -9.765625 C 6.742188 -10.054688 7.59375 -10.253906 8.34375 -10.359375 C 8.34375 -10.453125 8.34375 -10.535156 8.34375 -10.609375 C 8.351562 -10.691406 8.359375 -10.78125 8.359375 -10.875 C 8.359375 -11.476562 8.191406 -11.96875 7.859375 -12.34375 C 7.535156 -12.71875 7.070312 -12.90625 6.46875 -12.90625 C 5.976562 -12.90625 5.554688 -12.820312 5.203125 -12.65625 C 4.859375 -12.488281 4.53125 -12.300781 4.21875 -12.09375 C 3.90625 -11.882812 3.59375 -11.695312 3.28125 -11.53125 C 2.96875 -11.375 2.613281 -11.296875 2.21875 -11.296875 C 1.789062 -11.296875 1.425781 -11.429688 1.125 -11.703125 C 0.820312 -11.972656 0.671875 -12.320312 0.671875 -12.75 C 0.671875 -13.394531 0.859375 -13.976562 1.234375 -14.5 C 1.617188 -15.03125 2.097656 -15.472656 2.671875 -15.828125 C 3.253906 -16.191406 3.878906 -16.476562 4.546875 -16.6875 C 5.222656 -16.894531 5.84375 -17 6.40625 -17 C 6.9375 -17 7.460938 -16.929688 7.984375 -16.796875 C 8.515625 -16.671875 9.007812 -16.476562 9.46875 -16.21875 C 9.9375 -15.957031 10.359375 -15.632812 10.734375 -15.25 C 11.117188 -14.875 11.429688 -14.429688 11.671875 -13.921875 C 12.023438 -13.203125 12.304688 -12.4375 12.515625 -11.625 C 12.734375 -10.8125 12.898438 -9.984375 13.015625 -9.140625 C 13.128906 -8.296875 13.207031 -7.445312 13.25 -6.59375 C 13.289062 -5.75 13.3125 -4.925781 13.3125 -4.125 Z M 8.625 -5.0625 L 8.546875 -7.046875 C 8.503906 -7.046875 8.460938 -7.050781 8.421875 -7.0625 C 8.378906 -7.070312 8.34375 -7.078125 8.3125 -7.078125 C 8.050781 -7.078125 7.726562 -7.015625 7.34375 -6.890625 C 6.96875 -6.765625 6.601562 -6.585938 6.25 -6.359375 C 5.90625 -6.140625 5.609375 -5.890625 5.359375 -5.609375 C 5.117188 -5.335938 5 -5.054688 5 -4.765625 C 5 -4.492188 5.097656 -4.304688 5.296875 -4.203125 C 5.492188 -4.109375 5.71875 -4.0625 5.96875 -4.0625 C 6.394531 -4.0625 6.851562 -4.171875 7.34375 -4.390625 C 7.832031 -4.617188 8.257812 -4.84375 8.625 -5.0625 Z M 8.625 -5.0625 "/></g></g></g><g fill="#5289b8" fill-opacity="1"><g transform="translate(290.433372, 35.205836)"><g><path d="M 9.1875 0.8125 C 8.851562 0.8125 8.585938 0.660156 8.390625 0.359375 C 8.203125 0.0546875 8.054688 -0.285156 7.953125 -0.671875 C 7.859375 -1.054688 7.796875 -1.445312 7.765625 -1.84375 C 7.734375 -2.25 7.71875 -2.5625 7.71875 -2.78125 C 7.71875 -3.363281 7.75 -3.945312 7.8125 -4.53125 C 7.882812 -5.113281 7.960938 -5.695312 8.046875 -6.28125 C 8.140625 -6.875 8.21875 -7.460938 8.28125 -8.046875 C 8.351562 -8.628906 8.390625 -9.210938 8.390625 -9.796875 C 8.390625 -10.035156 8.378906 -10.289062 8.359375 -10.5625 C 8.347656 -10.832031 8.304688 -11.085938 8.234375 -11.328125 C 8.160156 -11.578125 8.046875 -11.78125 7.890625 -11.9375 C 7.734375 -12.09375 7.53125 -12.171875 7.28125 -12.171875 C 7.101562 -12.171875 6.90625 -12.023438 6.6875 -11.734375 C 6.476562 -11.453125 6.28125 -11.128906 6.09375 -10.765625 C 5.914062 -10.410156 5.757812 -10.050781 5.625 -9.6875 C 5.5 -9.332031 5.4375 -9.066406 5.4375 -8.890625 C 5.4375 -8.460938 5.441406 -8.03125 5.453125 -7.59375 C 5.460938 -7.15625 5.46875 -6.710938 5.46875 -6.265625 L 5.46875 -4.5625 C 5.445312 -4.207031 5.414062 -3.84375 5.375 -3.46875 C 5.34375 -3.101562 5.285156 -2.75 5.203125 -2.40625 C 5.148438 -2.050781 5.0625 -1.710938 4.9375 -1.390625 C 4.820312 -1.066406 4.671875 -0.78125 4.484375 -0.53125 C 4.304688 -0.289062 4.085938 -0.09375 3.828125 0.0625 C 3.578125 0.21875 3.273438 0.296875 2.921875 0.296875 C 2.535156 0.296875 2.210938 0.171875 1.953125 -0.078125 C 1.703125 -0.335938 1.5 -0.664062 1.34375 -1.0625 C 1.1875 -1.46875 1.070312 -1.914062 1 -2.40625 C 0.9375 -2.90625 0.890625 -3.394531 0.859375 -3.875 C 0.828125 -4.351562 0.816406 -4.789062 0.828125 -5.1875 C 0.835938 -5.59375 0.84375 -5.910156 0.84375 -6.140625 L 0.84375 -7.515625 C 0.84375 -8.253906 0.828125 -8.984375 0.796875 -9.703125 C 0.773438 -10.429688 0.765625 -11.15625 0.765625 -11.875 C 0.765625 -12.269531 0.769531 -12.769531 0.78125 -13.375 C 0.789062 -13.976562 0.863281 -14.566406 1 -15.140625 C 1.132812 -15.710938 1.359375 -16.203125 1.671875 -16.609375 C 1.984375 -17.023438 2.441406 -17.234375 3.046875 -17.234375 C 3.316406 -17.234375 3.554688 -17.144531 3.765625 -16.96875 C 3.984375 -16.789062 4.175781 -16.570312 4.34375 -16.3125 C 4.507812 -16.0625 4.644531 -15.789062 4.75 -15.5 C 4.863281 -15.207031 4.945312 -14.957031 5 -14.75 C 5.195312 -15.019531 5.425781 -15.28125 5.6875 -15.53125 C 5.945312 -15.78125 6.242188 -16.003906 6.578125 -16.203125 C 6.910156 -16.398438 7.28125 -16.554688 7.6875 -16.671875 C 8.101562 -16.785156 8.570312 -16.84375 9.09375 -16.84375 C 10.09375 -16.84375 10.867188 -16.601562 11.421875 -16.125 C 11.972656 -15.65625 12.378906 -15.0625 12.640625 -14.34375 C 12.910156 -13.632812 13.070312 -12.867188 13.125 -12.046875 C 13.1875 -11.234375 13.21875 -10.492188 13.21875 -9.828125 C 13.21875 -9.492188 13.1875 -9 13.125 -8.34375 C 13.070312 -7.695312 12.984375 -6.976562 12.859375 -6.1875 C 12.734375 -5.394531 12.5625 -4.582031 12.34375 -3.75 C 12.125 -2.925781 11.867188 -2.171875 11.578125 -1.484375 C 11.285156 -0.804688 10.941406 -0.253906 10.546875 0.171875 C 10.148438 0.597656 9.695312 0.8125 9.1875 0.8125 Z M 9.1875 0.8125 "/></g></g></g><g fill="#5289b8" fill-opacity="1"><g transform="translate(309.866773, 35.205836)"><g><path d="M 5.703125 -20.421875 C 5.703125 -20.140625 5.628906 -19.890625 5.484375 -19.671875 C 5.335938 -19.460938 5.144531 -19.273438 4.90625 -19.109375 C 4.675781 -18.941406 4.425781 -18.816406 4.15625 -18.734375 C 3.882812 -18.648438 3.628906 -18.609375 3.390625 -18.609375 C 3.003906 -18.609375 2.664062 -18.703125 2.375 -18.890625 C 2.082031 -19.085938 1.9375 -19.390625 1.9375 -19.796875 C 1.9375 -20.085938 2.007812 -20.347656 2.15625 -20.578125 C 2.300781 -20.804688 2.476562 -20.992188 2.6875 -21.140625 C 2.90625 -21.285156 3.148438 -21.394531 3.421875 -21.46875 C 3.691406 -21.550781 3.957031 -21.59375 4.21875 -21.59375 C 4.582031 -21.59375 4.921875 -21.503906 5.234375 -21.328125 C 5.546875 -21.148438 5.703125 -20.847656 5.703125 -20.421875 Z M 5.9375 -10.46875 C 5.9375 -10.195312 5.9375 -9.910156 5.9375 -9.609375 C 5.9375 -9.304688 5.925781 -9.019531 5.90625 -8.75 C 5.882812 -8.414062 5.875 -7.96875 5.875 -7.40625 C 5.875 -6.851562 5.851562 -6.253906 5.8125 -5.609375 C 5.78125 -4.972656 5.71875 -4.320312 5.625 -3.65625 C 5.539062 -2.988281 5.398438 -2.382812 5.203125 -1.84375 C 5.015625 -1.300781 4.757812 -0.859375 4.4375 -0.515625 C 4.113281 -0.171875 3.707031 0.0078125 3.21875 0.03125 C 2.84375 0.0507812 2.53125 -0.09375 2.28125 -0.40625 C 2.03125 -0.71875 1.820312 -1.125 1.65625 -1.625 C 1.488281 -2.125 1.363281 -2.679688 1.28125 -3.296875 C 1.207031 -3.910156 1.148438 -4.503906 1.109375 -5.078125 C 1.066406 -5.648438 1.046875 -6.179688 1.046875 -6.671875 C 1.046875 -7.160156 1.046875 -7.519531 1.046875 -7.75 C 1.046875 -8.0625 1.046875 -8.503906 1.046875 -9.078125 C 1.046875 -9.660156 1.066406 -10.28125 1.109375 -10.9375 C 1.148438 -11.601562 1.222656 -12.273438 1.328125 -12.953125 C 1.429688 -13.640625 1.585938 -14.265625 1.796875 -14.828125 C 2.003906 -15.390625 2.269531 -15.847656 2.59375 -16.203125 C 2.925781 -16.554688 3.347656 -16.734375 3.859375 -16.734375 C 4.390625 -16.734375 4.789062 -16.46875 5.0625 -15.9375 C 5.332031 -15.414062 5.535156 -14.800781 5.671875 -14.09375 C 5.804688 -13.394531 5.882812 -12.695312 5.90625 -12 C 5.925781 -11.3125 5.9375 -10.800781 5.9375 -10.46875 Z M 5.9375 -10.46875 "/></g></g></g><g fill="#5289b8" fill-opacity="1"><g transform="translate(322.456191, 35.205836)"><g><path d="M 13.484375 -10.46875 C 12.972656 -9.125 12.414062 -7.71875 11.8125 -6.25 C 11.207031 -4.789062 10.554688 -3.429688 9.859375 -2.171875 C 9.429688 -1.390625 8.953125 -0.738281 8.421875 -0.21875 C 7.898438 0.300781 7.296875 0.5625 6.609375 0.5625 C 6.066406 0.5625 5.535156 0.285156 5.015625 -0.265625 C 4.492188 -0.828125 4.015625 -1.492188 3.578125 -2.265625 C 3.140625 -3.035156 2.757812 -3.816406 2.4375 -4.609375 C 2.113281 -5.398438 1.875 -6.03125 1.71875 -6.5 C 1.5625 -7.019531 1.382812 -7.582031 1.1875 -8.1875 C 1 -8.789062 0.828125 -9.40625 0.671875 -10.03125 C 0.515625 -10.65625 0.382812 -11.273438 0.28125 -11.890625 C 0.1875 -12.503906 0.140625 -13.082031 0.140625 -13.625 C 0.140625 -14.382812 0.273438 -15.007812 0.546875 -15.5 C 0.828125 -15.988281 1.367188 -16.234375 2.171875 -16.234375 C 2.472656 -16.234375 2.75 -16.140625 3 -15.953125 C 3.257812 -15.765625 3.492188 -15.503906 3.703125 -15.171875 C 3.921875 -14.847656 4.128906 -14.46875 4.328125 -14.03125 C 4.523438 -13.59375 4.710938 -13.109375 4.890625 -12.578125 C 5.054688 -12.066406 5.21875 -11.535156 5.375 -10.984375 C 5.53125 -10.441406 5.6875 -9.921875 5.84375 -9.421875 C 6 -8.910156 6.160156 -8.414062 6.328125 -7.9375 C 6.492188 -7.457031 6.710938 -6.984375 6.984375 -6.515625 C 7.128906 -6.867188 7.285156 -7.269531 7.453125 -7.71875 C 7.628906 -8.164062 7.820312 -8.644531 8.03125 -9.15625 C 8.238281 -9.664062 8.457031 -10.1875 8.6875 -10.71875 C 8.914062 -11.257812 9.171875 -11.78125 9.453125 -12.28125 C 9.972656 -13.332031 10.53125 -14.226562 11.125 -14.96875 C 11.71875 -15.71875 12.3125 -16.09375 12.90625 -16.09375 C 13.445312 -16.09375 13.832031 -15.925781 14.0625 -15.59375 C 14.300781 -15.257812 14.421875 -14.828125 14.421875 -14.296875 C 14.421875 -13.773438 14.332031 -13.179688 14.15625 -12.515625 C 13.976562 -11.859375 13.753906 -11.175781 13.484375 -10.46875 Z M 13.484375 -10.46875 "/></g></g></g><g fill="#5289b8" fill-opacity="1"><g transform="translate(342.474546, 35.205836)"><g><path d="M 13.140625 -5.203125 C 13.140625 -4.546875 12.925781 -3.898438 12.5 -3.265625 C 12.082031 -2.628906 11.554688 -2.0625 10.921875 -1.5625 C 10.285156 -1.0625 9.609375 -0.660156 8.890625 -0.359375 C 8.171875 -0.0546875 7.507812 0.09375 6.90625 0.09375 C 5.875 0.09375 4.953125 -0.164062 4.140625 -0.6875 C 3.328125 -1.207031 2.644531 -1.863281 2.09375 -2.65625 C 1.550781 -3.457031 1.140625 -4.335938 0.859375 -5.296875 C 0.578125 -6.265625 0.4375 -7.207031 0.4375 -8.125 C 0.4375 -9.101562 0.570312 -10.144531 0.84375 -11.25 C 1.113281 -12.363281 1.523438 -13.390625 2.078125 -14.328125 C 2.640625 -15.265625 3.34375 -16.046875 4.1875 -16.671875 C 5.039062 -17.296875 6.050781 -17.609375 7.21875 -17.609375 C 7.882812 -17.609375 8.519531 -17.492188 9.125 -17.265625 C 9.726562 -17.046875 10.253906 -16.726562 10.703125 -16.3125 C 11.148438 -15.90625 11.507812 -15.421875 11.78125 -14.859375 C 12.0625 -14.296875 12.203125 -13.660156 12.203125 -12.953125 C 12.203125 -12.035156 12.003906 -11.175781 11.609375 -10.375 C 11.222656 -9.582031 10.707031 -8.894531 10.0625 -8.3125 C 9.414062 -7.726562 8.671875 -7.253906 7.828125 -6.890625 C 6.992188 -6.523438 6.140625 -6.320312 5.265625 -6.28125 C 5.335938 -5.71875 5.5625 -5.3125 5.9375 -5.0625 C 6.320312 -4.8125 6.78125 -4.6875 7.3125 -4.6875 C 7.695312 -4.6875 8.078125 -4.78125 8.453125 -4.96875 C 8.828125 -5.164062 9.1875 -5.382812 9.53125 -5.625 C 9.882812 -5.875 10.234375 -6.09375 10.578125 -6.28125 C 10.921875 -6.476562 11.265625 -6.578125 11.609375 -6.578125 C 12.003906 -6.578125 12.359375 -6.453125 12.671875 -6.203125 C 12.984375 -5.953125 13.140625 -5.617188 13.140625 -5.203125 Z M 8.390625 -12.375 C 8.390625 -12.625 8.320312 -12.882812 8.1875 -13.15625 C 8.050781 -13.4375 7.835938 -13.578125 7.546875 -13.578125 C 7.117188 -13.578125 6.757812 -13.460938 6.46875 -13.234375 C 6.175781 -13.015625 5.929688 -12.734375 5.734375 -12.390625 C 5.535156 -12.046875 5.382812 -11.675781 5.28125 -11.28125 C 5.175781 -10.894531 5.113281 -10.535156 5.09375 -10.203125 C 5.363281 -10.265625 5.6875 -10.34375 6.0625 -10.4375 C 6.445312 -10.539062 6.804688 -10.675781 7.140625 -10.84375 C 7.484375 -11.007812 7.773438 -11.21875 8.015625 -11.46875 C 8.265625 -11.71875 8.390625 -12.019531 8.390625 -12.375 Z M 8.390625 -12.375 "/></g></g></g><g fill="#5289b8" fill-opacity="1"><g transform="translate(361.352238, 35.205836)"><g><path d="M 11.03125 -10.9375 C 10.757812 -10.914062 10.523438 -10.9375 10.328125 -11 C 10.128906 -11.070312 9.929688 -11.148438 9.734375 -11.234375 C 9.566406 -11.304688 9.394531 -11.375 9.21875 -11.4375 C 9.039062 -11.507812 8.84375 -11.539062 8.625 -11.53125 C 8.238281 -11.507812 7.894531 -11.398438 7.59375 -11.203125 C 7.289062 -11.003906 7.015625 -10.757812 6.765625 -10.46875 C 6.523438 -10.175781 6.316406 -9.847656 6.140625 -9.484375 C 5.960938 -9.128906 5.828125 -8.773438 5.734375 -8.421875 C 5.671875 -8.191406 5.625 -7.835938 5.59375 -7.359375 C 5.570312 -6.878906 5.5625 -6.367188 5.5625 -5.828125 C 5.539062 -5.253906 5.53125 -4.710938 5.53125 -4.203125 C 5.53125 -3.703125 5.507812 -3.304688 5.46875 -3.015625 C 5.445312 -2.703125 5.394531 -2.332031 5.3125 -1.90625 C 5.238281 -1.488281 5.117188 -1.09375 4.953125 -0.71875 C 4.785156 -0.351562 4.566406 -0.046875 4.296875 0.203125 C 4.023438 0.453125 3.675781 0.578125 3.25 0.578125 C 2.914062 0.578125 2.625 0.476562 2.375 0.28125 C 2.132812 0.09375 1.929688 -0.160156 1.765625 -0.484375 C 1.597656 -0.804688 1.460938 -1.179688 1.359375 -1.609375 C 1.253906 -2.035156 1.171875 -2.472656 1.109375 -2.921875 C 1.054688 -3.390625 1.015625 -3.859375 0.984375 -4.328125 C 0.953125 -4.796875 0.929688 -5.238281 0.921875 -5.65625 C 0.910156 -6.070312 0.910156 -6.457031 0.921875 -6.8125 C 0.929688 -7.164062 0.9375 -7.445312 0.9375 -7.65625 C 0.914062 -8.34375 0.878906 -9.03125 0.828125 -9.71875 C 0.785156 -10.414062 0.765625 -11.101562 0.765625 -11.78125 C 0.765625 -12.21875 0.78125 -12.695312 0.8125 -13.21875 C 0.851562 -13.75 0.960938 -14.242188 1.140625 -14.703125 C 1.316406 -15.160156 1.570312 -15.546875 1.90625 -15.859375 C 2.25 -16.171875 2.722656 -16.328125 3.328125 -16.328125 C 3.660156 -16.328125 3.941406 -16.21875 4.171875 -16 C 4.410156 -15.78125 4.601562 -15.515625 4.75 -15.203125 C 4.894531 -14.898438 5.003906 -14.570312 5.078125 -14.21875 C 5.160156 -13.863281 5.210938 -13.539062 5.234375 -13.25 C 5.703125 -14.007812 6.226562 -14.628906 6.8125 -15.109375 C 7.394531 -15.585938 8.15625 -15.847656 9.09375 -15.890625 C 9.5625 -15.898438 10.023438 -15.851562 10.484375 -15.75 C 10.941406 -15.644531 11.359375 -15.46875 11.734375 -15.21875 C 12.117188 -14.976562 12.429688 -14.660156 12.671875 -14.265625 C 12.921875 -13.878906 13.054688 -13.425781 13.078125 -12.90625 C 13.117188 -12.28125 12.929688 -11.800781 12.515625 -11.46875 C 12.109375 -11.132812 11.613281 -10.957031 11.03125 -10.9375 Z M 11.03125 -10.9375 "/></g></g></g><g fill="#5289b8" fill-opacity="1"><g transform="translate(379.440239, 35.205836)"><g><path d="M 9.453125 -16.09375 C 9.453125 -15.519531 9.257812 -15.097656 8.875 -14.828125 C 8.5 -14.554688 8.078125 -14.296875 7.609375 -14.046875 C 7.140625 -13.804688 6.710938 -13.519531 6.328125 -13.1875 C 5.953125 -12.851562 5.765625 -12.359375 5.765625 -11.703125 C 5.765625 -11.347656 5.847656 -11.039062 6.015625 -10.78125 C 6.179688 -10.53125 6.382812 -10.300781 6.625 -10.09375 C 6.863281 -9.894531 7.128906 -9.6875 7.421875 -9.46875 C 7.722656 -9.257812 7.992188 -9.019531 8.234375 -8.75 C 8.472656 -8.476562 8.675781 -8.144531 8.84375 -7.75 C 9.007812 -7.363281 9.09375 -6.882812 9.09375 -6.3125 C 9.09375 -5.5 8.882812 -4.695312 8.46875 -3.90625 C 8.050781 -3.113281 7.515625 -2.410156 6.859375 -1.796875 C 6.203125 -1.179688 5.460938 -0.6875 4.640625 -0.3125 C 3.828125 0.0507812 3.019531 0.234375 2.21875 0.234375 C 1.882812 0.234375 1.550781 0.207031 1.21875 0.15625 C 0.894531 0.113281 0.597656 0.0234375 0.328125 -0.109375 C 0.0664062 -0.253906 -0.144531 -0.445312 -0.3125 -0.6875 C -0.488281 -0.925781 -0.578125 -1.242188 -0.578125 -1.640625 C -0.578125 -2.179688 -0.46875 -2.601562 -0.25 -2.90625 C -0.0390625 -3.207031 0.222656 -3.445312 0.546875 -3.625 C 0.878906 -3.800781 1.234375 -3.9375 1.609375 -4.03125 C 1.992188 -4.132812 2.351562 -4.257812 2.6875 -4.40625 C 3.019531 -4.550781 3.289062 -4.738281 3.5 -4.96875 C 3.71875 -5.207031 3.828125 -5.539062 3.828125 -5.96875 C 3.828125 -6.375 3.664062 -6.796875 3.34375 -7.234375 C 3.019531 -7.671875 2.664062 -8.140625 2.28125 -8.640625 C 1.894531 -9.140625 1.539062 -9.671875 1.21875 -10.234375 C 0.894531 -10.804688 0.734375 -11.429688 0.734375 -12.109375 C 0.734375 -12.953125 0.898438 -13.726562 1.234375 -14.4375 C 1.578125 -15.144531 2.035156 -15.757812 2.609375 -16.28125 C 3.191406 -16.8125 3.851562 -17.226562 4.59375 -17.53125 C 5.332031 -17.832031 6.113281 -17.984375 6.9375 -17.984375 C 7.25 -17.984375 7.554688 -17.953125 7.859375 -17.890625 C 8.160156 -17.835938 8.425781 -17.738281 8.65625 -17.59375 C 8.894531 -17.445312 9.085938 -17.25 9.234375 -17 C 9.378906 -16.757812 9.453125 -16.457031 9.453125 -16.09375 Z M 9.453125 -16.09375 "/></g></g></g><g fill="#5289b8" fill-opacity="1"><g transform="translate(394.632699, 35.205836)"><g><path d="M 13.3125 -4.125 C 13.3125 -3.769531 13.296875 -3.3125 13.265625 -2.75 C 13.234375 -2.1875 13.148438 -1.632812 13.015625 -1.09375 C 12.878906 -0.5625 12.664062 -0.101562 12.375 0.28125 C 12.082031 0.675781 11.671875 0.875 11.140625 0.875 C 10.421875 0.875 9.863281 0.640625 9.46875 0.171875 C 9.082031 -0.296875 8.898438 -0.878906 8.921875 -1.578125 C 8.296875 -1.035156 7.585938 -0.609375 6.796875 -0.296875 C 6.003906 0.015625 5.203125 0.171875 4.390625 0.171875 C 3.828125 0.171875 3.289062 0.0351562 2.78125 -0.234375 C 2.269531 -0.503906 1.816406 -0.851562 1.421875 -1.28125 C 1.035156 -1.71875 0.722656 -2.203125 0.484375 -2.734375 C 0.253906 -3.273438 0.140625 -3.804688 0.140625 -4.328125 C 0.140625 -5.265625 0.425781 -6.082031 1 -6.78125 C 1.582031 -7.488281 2.289062 -8.085938 3.125 -8.578125 C 3.96875 -9.078125 4.859375 -9.472656 5.796875 -9.765625 C 6.742188 -10.054688 7.59375 -10.253906 8.34375 -10.359375 C 8.34375 -10.453125 8.34375 -10.535156 8.34375 -10.609375 C 8.351562 -10.691406 8.359375 -10.78125 8.359375 -10.875 C 8.359375 -11.476562 8.191406 -11.96875 7.859375 -12.34375 C 7.535156 -12.71875 7.070312 -12.90625 6.46875 -12.90625 C 5.976562 -12.90625 5.554688 -12.820312 5.203125 -12.65625 C 4.859375 -12.488281 4.53125 -12.300781 4.21875 -12.09375 C 3.90625 -11.882812 3.59375 -11.695312 3.28125 -11.53125 C 2.96875 -11.375 2.613281 -11.296875 2.21875 -11.296875 C 1.789062 -11.296875 1.425781 -11.429688 1.125 -11.703125 C 0.820312 -11.972656 0.671875 -12.320312 0.671875 -12.75 C 0.671875 -13.394531 0.859375 -13.976562 1.234375 -14.5 C 1.617188 -15.03125 2.097656 -15.472656 2.671875 -15.828125 C 3.253906 -16.191406 3.878906 -16.476562 4.546875 -16.6875 C 5.222656 -16.894531 5.84375 -17 6.40625 -17 C 6.9375 -17 7.460938 -16.929688 7.984375 -16.796875 C 8.515625 -16.671875 9.007812 -16.476562 9.46875 -16.21875 C 9.9375 -15.957031 10.359375 -15.632812 10.734375 -15.25 C 11.117188 -14.875 11.429688 -14.429688 11.671875 -13.921875 C 12.023438 -13.203125 12.304688 -12.4375 12.515625 -11.625 C 12.734375 -10.8125 12.898438 -9.984375 13.015625 -9.140625 C 13.128906 -8.296875 13.207031 -7.445312 13.25 -6.59375 C 13.289062 -5.75 13.3125 -4.925781 13.3125 -4.125 Z M 8.625 -5.0625 L 8.546875 -7.046875 C 8.503906 -7.046875 8.460938 -7.050781 8.421875 -7.0625 C 8.378906 -7.070312 8.34375 -7.078125 8.3125 -7.078125 C 8.050781 -7.078125 7.726562 -7.015625 7.34375 -6.890625 C 6.96875 -6.765625 6.601562 -6.585938 6.25 -6.359375 C 5.90625 -6.140625 5.609375 -5.890625 5.359375 -5.609375 C 5.117188 -5.335938 5 -5.054688 5 -4.765625 C 5 -4.492188 5.097656 -4.304688 5.296875 -4.203125 C 5.492188 -4.109375 5.71875 -4.0625 5.96875 -4.0625 C 6.394531 -4.0625 6.851562 -4.171875 7.34375 -4.390625 C 7.832031 -4.617188 8.257812 -4.84375 8.625 -5.0625 Z M 10.03125 -22.140625 C 10.03125 -21.921875 9.972656 -21.707031 9.859375 -21.5 C 9.742188 -21.300781 9.601562 -21.113281 9.4375 -20.9375 C 9.269531 -20.757812 9.085938 -20.597656 8.890625 -20.453125 C 8.691406 -20.304688 8.515625 -20.175781 8.359375 -20.0625 C 8.222656 -19.957031 8.070312 -19.84375 7.90625 -19.71875 C 7.738281 -19.59375 7.5625 -19.476562 7.375 -19.375 C 7.195312 -19.269531 7.015625 -19.175781 6.828125 -19.09375 C 6.640625 -19.019531 6.457031 -18.984375 6.28125 -18.984375 C 6.125 -18.984375 5.988281 -19.023438 5.875 -19.109375 C 5.757812 -19.191406 5.703125 -19.320312 5.703125 -19.5 C 5.703125 -19.789062 5.8125 -20.144531 6.03125 -20.5625 C 6.257812 -20.988281 6.539062 -21.398438 6.875 -21.796875 C 7.207031 -22.203125 7.554688 -22.546875 7.921875 -22.828125 C 8.296875 -23.109375 8.640625 -23.25 8.953125 -23.25 C 9.222656 -23.25 9.46875 -23.132812 9.6875 -22.90625 C 9.914062 -22.6875 10.03125 -22.429688 10.03125 -22.140625 Z M 10.03125 -22.140625 "/></g></g></g><g fill="#5289b8" fill-opacity="1"><g transform="translate(414.270845, 35.205836)"><g><path d="M 11.03125 -10.9375 C 10.757812 -10.914062 10.523438 -10.9375 10.328125 -11 C 10.128906 -11.070312 9.929688 -11.148438 9.734375 -11.234375 C 9.566406 -11.304688 9.394531 -11.375 9.21875 -11.4375 C 9.039062 -11.507812 8.84375 -11.539062 8.625 -11.53125 C 8.238281 -11.507812 7.894531 -11.398438 7.59375 -11.203125 C 7.289062 -11.003906 7.015625 -10.757812 6.765625 -10.46875 C 6.523438 -10.175781 6.316406 -9.847656 6.140625 -9.484375 C 5.960938 -9.128906 5.828125 -8.773438 5.734375 -8.421875 C 5.671875 -8.191406 5.625 -7.835938 5.59375 -7.359375 C 5.570312 -6.878906 5.5625 -6.367188 5.5625 -5.828125 C 5.539062 -5.253906 5.53125 -4.710938 5.53125 -4.203125 C 5.53125 -3.703125 5.507812 -3.304688 5.46875 -3.015625 C 5.445312 -2.703125 5.394531 -2.332031 5.3125 -1.90625 C 5.238281 -1.488281 5.117188 -1.09375 4.953125 -0.71875 C 4.785156 -0.351562 4.566406 -0.046875 4.296875 0.203125 C 4.023438 0.453125 3.675781 0.578125 3.25 0.578125 C 2.914062 0.578125 2.625 0.476562 2.375 0.28125 C 2.132812 0.09375 1.929688 -0.160156 1.765625 -0.484375 C 1.597656 -0.804688 1.460938 -1.179688 1.359375 -1.609375 C 1.253906 -2.035156 1.171875 -2.472656 1.109375 -2.921875 C 1.054688 -3.390625 1.015625 -3.859375 0.984375 -4.328125 C 0.953125 -4.796875 0.929688 -5.238281 0.921875 -5.65625 C 0.910156 -6.070312 0.910156 -6.457031 0.921875 -6.8125 C 0.929688 -7.164062 0.9375 -7.445312 0.9375 -7.65625 C 0.914062 -8.34375 0.878906 -9.03125 0.828125 -9.71875 C 0.785156 -10.414062 0.765625 -11.101562 0.765625 -11.78125 C 0.765625 -12.21875 0.78125 -12.695312 0.8125 -13.21875 C 0.851562 -13.75 0.960938 -14.242188 1.140625 -14.703125 C 1.316406 -15.160156 1.570312 -15.546875 1.90625 -15.859375 C 2.25 -16.171875 2.722656 -16.328125 3.328125 -16.328125 C 3.660156 -16.328125 3.941406 -16.21875 4.171875 -16 C 4.410156 -15.78125 4.601562 -15.515625 4.75 -15.203125 C 4.894531 -14.898438 5.003906 -14.570312 5.078125 -14.21875 C 5.160156 -13.863281 5.210938 -13.539062 5.234375 -13.25 C 5.703125 -14.007812 6.226562 -14.628906 6.8125 -15.109375 C 7.394531 -15.585938 8.15625 -15.847656 9.09375 -15.890625 C 9.5625 -15.898438 10.023438 -15.851562 10.484375 -15.75 C 10.941406 -15.644531 11.359375 -15.46875 11.734375 -15.21875 C 12.117188 -14.976562 12.429688 -14.660156 12.671875 -14.265625 C 12.921875 -13.878906 13.054688 -13.425781 13.078125 -12.90625 C 13.117188 -12.28125 12.929688 -11.800781 12.515625 -11.46875 C 12.109375 -11.132812 11.613281 -10.957031 11.03125 -10.9375 Z M 11.03125 -10.9375 "/></g></g></g><g fill="#5289b8" fill-opacity="1"><g transform="translate(432.358846, 35.205836)"><g><path d="M 5.703125 -20.421875 C 5.703125 -20.140625 5.628906 -19.890625 5.484375 -19.671875 C 5.335938 -19.460938 5.144531 -19.273438 4.90625 -19.109375 C 4.675781 -18.941406 4.425781 -18.816406 4.15625 -18.734375 C 3.882812 -18.648438 3.628906 -18.609375 3.390625 -18.609375 C 3.003906 -18.609375 2.664062 -18.703125 2.375 -18.890625 C 2.082031 -19.085938 1.9375 -19.390625 1.9375 -19.796875 C 1.9375 -20.085938 2.007812 -20.347656 2.15625 -20.578125 C 2.300781 -20.804688 2.476562 -20.992188 2.6875 -21.140625 C 2.90625 -21.285156 3.148438 -21.394531 3.421875 -21.46875 C 3.691406 -21.550781 3.957031 -21.59375 4.21875 -21.59375 C 4.582031 -21.59375 4.921875 -21.503906 5.234375 -21.328125 C 5.546875 -21.148438 5.703125 -20.847656 5.703125 -20.421875 Z M 5.9375 -10.46875 C 5.9375 -10.195312 5.9375 -9.910156 5.9375 -9.609375 C 5.9375 -9.304688 5.925781 -9.019531 5.90625 -8.75 C 5.882812 -8.414062 5.875 -7.96875 5.875 -7.40625 C 5.875 -6.851562 5.851562 -6.253906 5.8125 -5.609375 C 5.78125 -4.972656 5.71875 -4.320312 5.625 -3.65625 C 5.539062 -2.988281 5.398438 -2.382812 5.203125 -1.84375 C 5.015625 -1.300781 4.757812 -0.859375 4.4375 -0.515625 C 4.113281 -0.171875 3.707031 0.0078125 3.21875 0.03125 C 2.84375 0.0507812 2.53125 -0.09375 2.28125 -0.40625 C 2.03125 -0.71875 1.820312 -1.125 1.65625 -1.625 C 1.488281 -2.125 1.363281 -2.679688 1.28125 -3.296875 C 1.207031 -3.910156 1.148438 -4.503906 1.109375 -5.078125 C 1.066406 -5.648438 1.046875 -6.179688 1.046875 -6.671875 C 1.046875 -7.160156 1.046875 -7.519531 1.046875 -7.75 C 1.046875 -8.0625 1.046875 -8.503906 1.046875 -9.078125 C 1.046875 -9.660156 1.066406 -10.28125 1.109375 -10.9375 C 1.148438 -11.601562 1.222656 -12.273438 1.328125 -12.953125 C 1.429688 -13.640625 1.585938 -14.265625 1.796875 -14.828125 C 2.003906 -15.390625 2.269531 -15.847656 2.59375 -16.203125 C 2.925781 -16.554688 3.347656 -16.734375 3.859375 -16.734375 C 4.390625 -16.734375 4.789062 -16.46875 5.0625 -15.9375 C 5.332031 -15.414062 5.535156 -14.800781 5.671875 -14.09375 C 5.804688 -13.394531 5.882812 -12.695312 5.90625 -12 C 5.925781 -11.3125 5.9375 -10.800781 5.9375 -10.46875 Z M 5.9375 -10.46875 "/></g></g></g><g fill="#5289b8" fill-opacity="1"><g transform="translate(444.948264, 35.205836)"><g><path d="M 6.4375 0.84375 C 5.4375 0.84375 4.566406 0.578125 3.828125 0.046875 C 3.085938 -0.472656 2.460938 -1.140625 1.953125 -1.953125 C 1.453125 -2.773438 1.070312 -3.6875 0.8125 -4.6875 C 0.5625 -5.695312 0.4375 -6.6875 0.4375 -7.65625 C 0.4375 -8.695312 0.5625 -9.765625 0.8125 -10.859375 C 1.070312 -11.960938 1.460938 -12.96875 1.984375 -13.875 C 2.515625 -14.78125 3.1875 -15.519531 4 -16.09375 C 4.820312 -16.675781 5.800781 -16.96875 6.9375 -16.96875 C 8.03125 -16.96875 8.957031 -16.671875 9.71875 -16.078125 C 10.488281 -15.484375 11.109375 -14.738281 11.578125 -13.84375 C 12.046875 -12.957031 12.378906 -11.988281 12.578125 -10.9375 C 12.773438 -9.882812 12.84375 -8.890625 12.78125 -7.953125 C 12.71875 -6.921875 12.554688 -5.878906 12.296875 -4.828125 C 12.035156 -3.773438 11.648438 -2.828125 11.140625 -1.984375 C 10.640625 -1.148438 10 -0.472656 9.21875 0.046875 C 8.4375 0.578125 7.507812 0.84375 6.4375 0.84375 Z M 6.734375 -12.375 C 6.429688 -12.375 6.164062 -12.21875 5.9375 -11.90625 C 5.71875 -11.59375 5.535156 -11.210938 5.390625 -10.765625 C 5.242188 -10.316406 5.128906 -9.84375 5.046875 -9.34375 C 4.972656 -8.84375 4.9375 -8.410156 4.9375 -8.046875 C 4.9375 -7.578125 4.976562 -7.066406 5.0625 -6.515625 C 5.15625 -5.972656 5.28125 -5.472656 5.4375 -5.015625 C 5.59375 -4.554688 5.78125 -4.175781 6 -3.875 C 6.226562 -3.570312 6.488281 -3.421875 6.78125 -3.421875 C 7.09375 -3.421875 7.359375 -3.566406 7.578125 -3.859375 C 7.804688 -4.148438 7.988281 -4.519531 8.125 -4.96875 C 8.269531 -5.414062 8.367188 -5.90625 8.421875 -6.4375 C 8.484375 -6.976562 8.515625 -7.484375 8.515625 -7.953125 C 8.515625 -8.378906 8.472656 -8.851562 8.390625 -9.375 C 8.316406 -9.894531 8.207031 -10.378906 8.0625 -10.828125 C 7.914062 -11.273438 7.726562 -11.644531 7.5 -11.9375 C 7.28125 -12.226562 7.023438 -12.375 6.734375 -12.375 Z M 6.734375 -12.375 "/></g></g></g><g clip-path="url(#96a46e6ff7)"><g transform="matrix(1, 0, 0, 1, 13, 43)"><g clip-path="url(#21bb55bc22)"><g clip-path="url(#12de3609bb)"><path fill="#a7a9ac" d="M 305.105469 0.742188 C 300.910156 0.742188 297.527344 3.683594 297.527344 7.378906 C 297.527344 11.074219 300.910156 14.015625 305.105469 14.015625 C 309.300781 14.015625 312.683594 11.011719 312.683594 7.378906 C 312.683594 3.746094 309.300781 0.742188 305.105469 0.742188 Z M 282.25 0.742188 C 278.054688 0.742188 274.671875 3.683594 274.671875 7.378906 C 274.671875 11.074219 278.054688 14.015625 282.25 14.015625 C 286.445312 14.015625 289.828125 11.074219 289.828125 7.378906 C 289.828125 3.683594 286.445312 0.742188 282.25 0.742188 Z M 259.394531 0.742188 C 255.199219 0.742188 251.816406 3.683594 251.816406 7.378906 C 251.816406 11.074219 255.199219 14.015625 259.394531 14.015625 C 263.589844 14.015625 266.972656 11.011719 266.972656 7.378906 C 266.972656 3.746094 263.589844 0.742188 259.394531 0.742188 Z M 236.539062 0.742188 C 232.34375 0.742188 228.960938 3.683594 228.960938 7.378906 C 228.960938 11.074219 232.34375 14.015625 236.539062 14.015625 C 240.734375 14.015625 244.117188 11.074219 244.117188 7.378906 C 244.117188 3.683594 240.734375 0.742188 236.539062 0.742188 Z M 213.621094 0.742188 C 209.425781 0.742188 206.042969 3.683594 206.042969 7.378906 C 206.042969 11.074219 209.425781 14.015625 213.621094 14.015625 C 217.816406 14.015625 221.261719 11.011719 221.261719 7.378906 C 221.261719 3.746094 217.878906 0.742188 213.621094 0.742188 Z M 190.765625 0.742188 C 186.570312 0.742188 183.1875 3.683594 183.1875 7.378906 C 183.1875 11.074219 186.570312 14.015625 190.765625 14.015625 C 194.960938 14.015625 198.34375 11.074219 198.34375 7.378906 C 198.34375 3.683594 194.960938 0.742188 190.765625 0.742188 Z M 167.910156 0.742188 C 163.714844 0.742188 160.332031 3.683594 160.332031 7.378906 C 160.332031 11.074219 163.714844 14.015625 167.910156 14.015625 C 172.105469 14.015625 175.488281 11.074219 175.488281 7.378906 C 175.488281 3.683594 172.105469 0.742188 167.910156 0.742188 Z M 145.054688 0.742188 C 140.859375 0.742188 137.476562 3.683594 137.476562 7.378906 C 137.476562 11.074219 140.859375 14.015625 145.054688 14.015625 C 149.25 14.015625 152.632812 11.074219 152.632812 7.378906 C 152.632812 3.683594 149.25 0.742188 145.054688 0.742188 Z M 122.199219 0.742188 C 118.003906 0.742188 114.621094 3.683594 114.621094 7.378906 C 114.621094 11.074219 118.003906 14.015625 122.199219 14.015625 C 126.394531 14.015625 129.839844 11.011719 129.839844 7.378906 C 129.839844 3.746094 126.394531 0.742188 122.199219 0.742188 Z M 99.34375 0.742188 C 95.148438 0.742188 91.765625 3.683594 91.765625 7.378906 C 91.765625 11.074219 95.148438 14.015625 99.34375 14.015625 C 103.539062 14.015625 106.921875 11.074219 106.921875 7.378906 C 106.921875 3.683594 103.539062 0.742188 99.34375 0.742188 Z M 76.488281 0.742188 C 72.292969 0.742188 68.910156 3.683594 68.910156 7.378906 C 68.910156 11.074219 72.292969 14.015625 76.488281 14.015625 C 80.683594 14.015625 84.066406 11.074219 84.066406 7.378906 C 84.066406 3.683594 80.683594 0.742188 76.488281 0.742188 Z M 53.632812 0.742188 C 49.4375 0.742188 46.054688 3.683594 46.054688 7.378906 C 46.054688 11.074219 49.4375 14.015625 53.632812 14.015625 C 57.828125 14.015625 61.210938 11.074219 61.210938 7.378906 C 61.210938 3.683594 57.828125 0.742188 53.632812 0.742188 Z M 30.777344 0.742188 C 26.582031 0.742188 23.199219 3.683594 23.199219 7.378906 C 23.199219 11.074219 26.582031 14.015625 30.777344 14.015625 C 34.972656 14.015625 38.355469 11.074219 38.355469 7.378906 C 38.355469 3.683594 34.972656 0.742188 30.777344 0.742188 Z M 7.921875 0.742188 C 3.726562 0.742188 0.347656 3.683594 0.347656 7.378906 C 0.347656 11.074219 3.726562 14.015625 7.921875 14.015625 C 12.117188 14.015625 15.5 11.074219 15.5 7.378906 C 15.5 3.683594 12.117188 0.742188 7.921875 0.742188 Z M 7.921875 0.742188 " fill-opacity="1" fill-rule="nonzero"/></g><g clip-path="url(#c2d47aa6bc)"><g clip-path="url(#87ed97d2f3)"><path fill="url(#835d15bb9f)" d="M 309.113281 40.191406 L 3.851562 40.191406 L 3.851562 3.996094 L 309.113281 3.996094 Z M 309.113281 40.191406 " fill-rule="nonzero"/></g></g><g clip-path="url(#8c00b4ff66)"><path stroke-linecap="butt" transform="matrix(0, -0.626175, -0.626175, 0, 312.681894, 40.252901)" fill="none" stroke-linejoin="miter" d="M 51.401748 18.699623 L 6.598486 18.699623 C 2.999003 18.699623 0.0982072 15.798827 0.0982072 12.199344 C 0.0982072 8.599862 2.999003 5.699066 6.598486 5.699066 L 51.301935 5.699066 C 54.901418 5.699066 57.802214 8.599862 57.802214 12.199344 C 57.902026 15.699014 54.901418 18.699623 51.401748 18.699623 Z M 51.401748 55.199746 L 6.598486 55.199746 C 2.999003 55.199746 0.0982072 52.29895 0.0982072 48.699468 C 0.0982072 45.099985 2.999003 42.199189 6.598486 42.199189 L 51.301935 42.199189 C 54.901418 42.199189 57.802214 45.099985 57.802214 48.699468 C 57.902026 52.199138 54.901418 55.199746 51.401748 55.199746 Z M 51.401748 91.69987 L 6.598486 91.69987 C 2.999003 91.69987 0.0982072 88.799074 0.0982072 85.199591 C 0.0982072 81.600109 2.999003 78.699313 6.598486 78.699313 L 51.301935 78.699313 C 54.901418 78.699313 57.802214 81.600109 57.802214 85.199591 C 57.902026 88.699261 54.901418 91.69987 51.401748 91.69987 Z M 51.401748 128.199993 L 6.598486 128.199993 C 2.999003 128.199993 0.0982072 125.299197 0.0982072 121.699715 C 0.0982072 118.100232 2.999003 115.199436 6.598486 115.199436 L 51.301935 115.199436 C 54.901418 115.199436 57.802214 118.100232 57.802214 121.699715 C 57.902026 125.199385 54.901418 128.199993 51.401748 128.199993 Z M 51.401748 164.700117 L 6.598486 164.700117 C 2.999003 164.700117 0.0982072 161.799321 0.0982072 158.199838 C 0.0982072 154.600356 2.999003 151.69956 6.598486 151.69956 L 51.301935 151.69956 C 54.901418 151.69956 57.802214 154.600356 57.802214 158.199838 C 57.902026 161.699508 54.901418 164.700117 51.401748 164.700117 Z M 51.401748 201.20024 L 6.598486 201.20024 C 2.999003 201.20024 0.0982072 198.299444 0.0982072 194.699962 C 0.0982072 191.100479 2.999003 188.199683 6.598486 188.199683 L 51.301935 188.199683 C 54.901418 188.199683 57.802214 191.100479 57.802214 194.699962 C 57.902026 198.199632 54.901418 201.20024 51.401748 201.20024 Z M 51.401748 237.700364 L 6.598486 237.700364 C 2.999003 237.700364 0.0982072 234.799568 0.0982072 231.200085 C 0.0982072 227.600603 2.999003 224.699807 6.598486 224.699807 L 51.301935 224.699807 C 54.901418 224.699807 57.802214 227.600603 57.802214 231.200085 C 57.902026 234.699755 54.901418 237.700364 51.401748 237.700364 Z M 51.401748 274.200487 L 6.598486 274.200487 C 2.999003 274.200487 0.0982072 271.299691 0.0982072 267.700209 C 0.0982072 264.100726 2.999003 261.19993 6.598486 261.19993 L 51.301935 261.19993 C 54.901418 261.19993 57.802214 264.100726 57.802214 267.700209 C 57.902026 271.299691 54.901418 274.200487 51.401748 274.200487 Z M 51.401748 310.700611 L 6.598486 310.700611 C 2.999003 310.700611 0.0982072 307.799815 0.0982072 304.200332 C 0.0982072 300.60085 2.999003 297.700054 6.598486 297.700054 L 51.301935 297.700054 C 54.901418 297.700054 57.802214 300.60085 57.802214 304.200332 C 57.902026 307.799815 54.901418 310.700611 51.401748 310.700611 Z M 51.401748 347.200734 L 6.598486 347.200734 C 2.999003 347.200734 0.0982072 344.299938 0.0982072 340.700456 C 0.0982072 337.100973 2.999003 334.200177 6.598486 334.200177 L 51.301935 334.200177 C 54.901418 334.200177 57.802214 337.100973 57.802214 340.700456 C 57.902026 344.299938 54.901418 347.200734 51.401748 347.200734 Z M 51.401748 383.700858 L 6.598486 383.700858 C 2.999003 383.700858 0.0982072 380.800062 0.0982072 377.200579 C 0.0982072 373.601097 2.999003 370.700301 6.598486 370.700301 L 51.301935 370.700301 C 54.901418 370.700301 57.802214 373.601097 57.802214 377.200579 C 57.902026 380.800062 54.901418 383.700858 51.401748 383.700858 Z M 51.401748 420.200981 L 6.598486 420.200981 C 2.999003 420.200981 0.0982072 417.300185 0.0982072 413.700703 C 0.0982072 410.10122 2.999003 407.200424 6.598486 407.200424 L 51.301935 407.200424 C 54.901418 407.200424 57.802214 410.10122 57.802214 413.700703 C 57.902026 417.300185 54.901418 420.200981 51.401748 420.200981 Z M 51.401748 456.701105 L 6.598486 456.701105 C 2.999003 456.701105 0.0982072 453.800309 0.0982072 450.200826 C 0.0982072 446.601344 2.999003 443.700548 6.598486 443.700548 L 51.301935 443.700548 C 54.901418 443.700548 57.802214 446.601344 57.802214 450.200826 C 57.902026 453.800309 54.901418 456.701105 51.401748 456.701105 Z M 51.401748 493.201228 L 6.598486 493.201228 C 2.999003 493.201228 0.0982072 490.300432 0.0982072 486.70095 C 0.0982072 483.101467 2.999003 480.200671 6.598486 480.200671 L 51.301935 480.200671 C 54.901418 480.200671 57.802214 483.101467 57.802214 486.70095 C 57.902026 490.300432 54.901418 493.201228 51.401748 493.201228 Z M 51.401748 493.201228 " stroke="#a7a9ac" stroke-width="0.25" stroke-opacity="1" stroke-miterlimit="10"/></g></g></g></g><g clip-path="url(#b89b561057)"><g transform="matrix(1, 0, 0, 1, 310, 43)"><g clip-path="url(#575198c2ac)"><g clip-path="url(#d59d06047b)"><path fill="#a7a9ac" d="M 305.328125 0.742188 C 301.132812 0.742188 297.753906 3.683594 297.753906 7.378906 C 297.753906 11.074219 301.132812 14.015625 305.328125 14.015625 C 309.523438 14.015625 312.90625 11.011719 312.90625 7.378906 C 312.90625 3.746094 309.523438 0.742188 305.328125 0.742188 Z M 282.472656 0.742188 C 278.277344 0.742188 274.898438 3.683594 274.898438 7.378906 C 274.898438 11.074219 278.277344 14.015625 282.472656 14.015625 C 286.667969 14.015625 290.050781 11.074219 290.050781 7.378906 C 290.050781 3.683594 286.667969 0.742188 282.472656 0.742188 Z M 259.617188 0.742188 C 255.421875 0.742188 252.042969 3.683594 252.042969 7.378906 C 252.042969 11.074219 255.421875 14.015625 259.617188 14.015625 C 263.8125 14.015625 267.195312 11.011719 267.195312 7.378906 C 267.195312 3.746094 263.8125 0.742188 259.617188 0.742188 Z M 236.761719 0.742188 C 232.566406 0.742188 229.1875 3.683594 229.1875 7.378906 C 229.1875 11.074219 232.566406 14.015625 236.761719 14.015625 C 240.957031 14.015625 244.339844 11.074219 244.339844 7.378906 C 244.339844 3.683594 240.957031 0.742188 236.761719 0.742188 Z M 213.84375 0.742188 C 209.648438 0.742188 206.269531 3.683594 206.269531 7.378906 C 206.269531 11.074219 209.648438 14.015625 213.84375 14.015625 C 218.039062 14.015625 221.484375 11.011719 221.484375 7.378906 C 221.484375 3.746094 218.101562 0.742188 213.84375 0.742188 Z M 190.988281 0.742188 C 186.792969 0.742188 183.414062 3.683594 183.414062 7.378906 C 183.414062 11.074219 186.792969 14.015625 190.988281 14.015625 C 195.183594 14.015625 198.566406 11.074219 198.566406 7.378906 C 198.566406 3.683594 195.183594 0.742188 190.988281 0.742188 Z M 168.132812 0.742188 C 163.9375 0.742188 160.558594 3.683594 160.558594 7.378906 C 160.558594 11.074219 163.9375 14.015625 168.132812 14.015625 C 172.328125 14.015625 175.710938 11.074219 175.710938 7.378906 C 175.710938 3.683594 172.328125 0.742188 168.132812 0.742188 Z M 145.277344 0.742188 C 141.082031 0.742188 137.703125 3.683594 137.703125 7.378906 C 137.703125 11.074219 141.082031 14.015625 145.277344 14.015625 C 149.472656 14.015625 152.855469 11.074219 152.855469 7.378906 C 152.855469 3.683594 149.472656 0.742188 145.277344 0.742188 Z M 122.421875 0.742188 C 118.226562 0.742188 114.847656 3.683594 114.847656 7.378906 C 114.847656 11.074219 118.226562 14.015625 122.421875 14.015625 C 126.617188 14.015625 130.0625 11.011719 130.0625 7.378906 C 130.0625 3.746094 126.617188 0.742188 122.421875 0.742188 Z M 99.566406 0.742188 C 95.371094 0.742188 91.992188 3.683594 91.992188 7.378906 C 91.992188 11.074219 95.371094 14.015625 99.566406 14.015625 C 103.761719 14.015625 107.144531 11.074219 107.144531 7.378906 C 107.144531 3.683594 103.761719 0.742188 99.566406 0.742188 Z M 76.710938 0.742188 C 72.515625 0.742188 69.136719 3.683594 69.136719 7.378906 C 69.136719 11.074219 72.515625 14.015625 76.710938 14.015625 C 80.90625 14.015625 84.289062 11.074219 84.289062 7.378906 C 84.289062 3.683594 80.90625 0.742188 76.710938 0.742188 Z M 53.855469 0.742188 C 49.660156 0.742188 46.28125 3.683594 46.28125 7.378906 C 46.28125 11.074219 49.660156 14.015625 53.855469 14.015625 C 58.050781 14.015625 61.433594 11.074219 61.433594 7.378906 C 61.433594 3.683594 58.050781 0.742188 53.855469 0.742188 Z M 31 0.742188 C 26.804688 0.742188 23.425781 3.683594 23.425781 7.378906 C 23.425781 11.074219 26.804688 14.015625 31 14.015625 C 35.195312 14.015625 38.578125 11.074219 38.578125 7.378906 C 38.578125 3.683594 35.195312 0.742188 31 0.742188 Z M 8.144531 0.742188 C 3.949219 0.742188 0.570312 3.683594 0.570312 7.378906 C 0.570312 11.074219 3.949219 14.015625 8.144531 14.015625 C 12.339844 14.015625 15.722656 11.074219 15.722656 7.378906 C 15.722656 3.683594 12.339844 0.742188 8.144531 0.742188 Z M 8.144531 0.742188 " fill-opacity="1" fill-rule="nonzero"/></g><g clip-path="url(#98c8ed6137)"><g clip-path="url(#a1d53be8d3)"><path fill="url(#3ddf9b382e)" d="M 309.335938 40.191406 L 4.074219 40.191406 L 4.074219 3.996094 L 309.335938 3.996094 Z M 309.335938 40.191406 " fill-rule="nonzero"/></g></g><g clip-path="url(#5aaff6b8d5)"><path stroke-linecap="butt" transform="matrix(0, -0.626175, -0.626175, 0, 312.905646, 40.252901)" fill="none" stroke-linejoin="miter" d="M 51.401748 18.701372 L 6.598486 18.701372 C 2.999003 18.701372 0.0982072 15.800576 0.0982072 12.201093 C 0.0982072 8.601611 2.999003 5.700815 6.598486 5.700815 L 51.301935 5.700815 C 54.901418 5.700815 57.802214 8.601611 57.802214 12.201093 C 57.902026 15.700763 54.901418 18.701372 51.401748 18.701372 Z M 51.401748 55.201495 L 6.598486 55.201495 C 2.999003 55.201495 0.0982072 52.300699 0.0982072 48.701217 C 0.0982072 45.101735 2.999003 42.200939 6.598486 42.200939 L 51.301935 42.200939 C 54.901418 42.200939 57.802214 45.101735 57.802214 48.701217 C 57.902026 52.200887 54.901418 55.201495 51.401748 55.201495 Z M 51.401748 91.701619 L 6.598486 91.701619 C 2.999003 91.701619 0.0982072 88.800823 0.0982072 85.20134 C 0.0982072 81.601858 2.999003 78.701062 6.598486 78.701062 L 51.301935 78.701062 C 54.901418 78.701062 57.802214 81.601858 57.802214 85.20134 C 57.902026 88.70101 54.901418 91.701619 51.401748 91.701619 Z M 51.401748 128.201742 L 6.598486 128.201742 C 2.999003 128.201742 0.0982072 125.300946 0.0982072 121.701464 C 0.0982072 118.101982 2.999003 115.201186 6.598486 115.201186 L 51.301935 115.201186 C 54.901418 115.201186 57.802214 118.101982 57.802214 121.701464 C 57.902026 125.201134 54.901418 128.201742 51.401748 128.201742 Z M 51.401748 164.701866 L 6.598486 164.701866 C 2.999003 164.701866 0.0982072 161.80107 0.0982072 158.201587 C 0.0982072 154.602105 2.999003 151.701309 6.598486 151.701309 L 51.301935 151.701309 C 54.901418 151.701309 57.802214 154.602105 57.802214 158.201587 C 57.902026 161.701257 54.901418 164.701866 51.401748 164.701866 Z M 51.401748 201.201989 L 6.598486 201.201989 C 2.999003 201.201989 0.0982072 198.301193 0.0982072 194.701711 C 0.0982072 191.102229 2.999003 188.201433 6.598486 188.201433 L 51.301935 188.201433 C 54.901418 188.201433 57.802214 191.102229 57.802214 194.701711 C 57.902026 198.201381 54.901418 201.201989 51.401748 201.201989 Z M 51.401748 237.702113 L 6.598486 237.702113 C 2.999003 237.702113 0.0982072 234.801317 0.0982072 231.201834 C 0.0982072 227.602352 2.999003 224.701556 6.598486 224.701556 L 51.301935 224.701556 C 54.901418 224.701556 57.802214 227.602352 57.802214 231.201834 C 57.902026 234.701504 54.901418 237.702113 51.401748 237.702113 Z M 51.401748 274.202236 L 6.598486 274.202236 C 2.999003 274.202236 0.0982072 271.30144 0.0982072 267.701958 C 0.0982072 264.102476 2.999003 261.20168 6.598486 261.20168 L 51.301935 261.20168 C 54.901418 261.20168 57.802214 264.102476 57.802214 267.701958 C 57.902026 271.30144 54.901418 274.202236 51.401748 274.202236 Z M 51.401748 310.70236 L 6.598486 310.70236 C 2.999003 310.70236 0.0982072 307.801564 0.0982072 304.202081 C 0.0982072 300.602599 2.999003 297.701803 6.598486 297.701803 L 51.301935 297.701803 C 54.901418 297.701803 57.802214 300.602599 57.802214 304.202081 C 57.902026 307.801564 54.901418 310.70236 51.401748 310.70236 Z M 51.401748 347.202483 L 6.598486 347.202483 C 2.999003 347.202483 0.0982072 344.301687 0.0982072 340.702205 C 0.0982072 337.102723 2.999003 334.201927 6.598486 334.201927 L 51.301935 334.201927 C 54.901418 334.201927 57.802214 337.102723 57.802214 340.702205 C 57.902026 344.301687 54.901418 347.202483 51.401748 347.202483 Z M 51.401748 383.702607 L 6.598486 383.702607 C 2.999003 383.702607 0.0982072 380.801811 0.0982072 377.202328 C 0.0982072 373.602846 2.999003 370.70205 6.598486 370.70205 L 51.301935 370.70205 C 54.901418 370.70205 57.802214 373.602846 57.802214 377.202328 C 57.902026 380.801811 54.901418 383.702607 51.401748 383.702607 Z M 51.401748 420.20273 L 6.598486 420.20273 C 2.999003 420.20273 0.0982072 417.301934 0.0982072 413.702452 C 0.0982072 410.10297 2.999003 407.202174 6.598486 407.202174 L 51.301935 407.202174 C 54.901418 407.202174 57.802214 410.10297 57.802214 413.702452 C 57.902026 417.301934 54.901418 420.20273 51.401748 420.20273 Z M 51.401748 456.702854 L 6.598486 456.702854 C 2.999003 456.702854 0.0982072 453.802058 0.0982072 450.202575 C 0.0982072 446.603093 2.999003 443.702297 6.598486 443.702297 L 51.301935 443.702297 C 54.901418 443.702297 57.802214 446.603093 57.802214 450.202575 C 57.902026 453.802058 54.901418 456.702854 51.401748 456.702854 Z M 51.401748 493.202977 L 6.598486 493.202977 C 2.999003 493.202977 0.0982072 490.302181 0.0982072 486.702699 C 0.0982072 483.096978 2.999003 480.202421 6.598486 480.202421 L 51.301935 480.202421 C 54.901418 480.202421 57.802214 483.096978 57.802214 486.702699 C 57.902026 490.302181 54.901418 493.202977 51.401748 493.202977 Z M 51.401748 493.202977 " stroke="#a7a9ac" stroke-width="0.25" stroke-opacity="1" stroke-miterlimit="10"/></g></g></g></g></svg>