<svg xmlns="http://www.w3.org/2000/svg" xmlns:xlink="http://www.w3.org/1999/xlink" width="458" zoomAndPan="magnify" viewBox="0 0 343.5 349.500003" height="466" preserveAspectRatio="xMidYMid meet" version="1.0"><defs><g/><clipPath id="254c43df1e"><path d="M 7.144531 64.777344 L 339 64.777344 L 339 348.984375 L 7.144531 348.984375 Z M 7.144531 64.777344 " clip-rule="nonzero"/></clipPath><clipPath id="d73d0d8655"><path d="M 338.269531 79.753906 L 338.269531 334.007812 C 338.269531 337.976562 336.691406 341.789062 333.882812 344.597656 C 331.074219 347.40625 327.265625 348.984375 323.292969 348.984375 L 22.125 348.984375 C 18.152344 348.984375 14.339844 347.40625 11.53125 344.597656 C 8.722656 341.789062 7.144531 337.976562 7.144531 334.007812 L 7.144531 79.753906 C 7.144531 75.78125 8.722656 71.972656 11.53125 69.164062 C 14.339844 66.355469 18.152344 64.777344 22.125 64.777344 L 323.292969 64.777344 C 327.265625 64.777344 331.074219 66.355469 333.882812 69.164062 C 336.691406 71.972656 338.269531 75.78125 338.269531 79.753906 Z M 338.269531 79.753906 " clip-rule="nonzero"/></clipPath><clipPath id="635008a40b"><path d="M 0.144531 0.777344 L 331 0.777344 L 331 284.984375 L 0.144531 284.984375 Z M 0.144531 0.777344 " clip-rule="nonzero"/></clipPath><clipPath id="e244da2e4f"><path d="M 331.269531 15.753906 L 331.269531 270.007812 C 331.269531 273.976562 329.691406 277.789062 326.882812 280.597656 C 324.074219 283.40625 320.265625 284.984375 316.292969 284.984375 L 15.125 284.984375 C 11.152344 284.984375 7.339844 283.40625 4.53125 280.597656 C 1.722656 277.789062 0.144531 273.976562 0.144531 270.007812 L 0.144531 15.753906 C 0.144531 11.78125 1.722656 7.972656 4.53125 5.164062 C 7.339844 2.355469 11.152344 0.777344 15.125 0.777344 L 316.292969 0.777344 C 320.265625 0.777344 324.074219 2.355469 326.882812 5.164062 C 329.691406 7.972656 331.269531 11.78125 331.269531 15.753906 Z M 331.269531 15.753906 " clip-rule="nonzero"/></clipPath><clipPath id="9094e435a2"><rect x="0" width="332" y="0" height="285"/></clipPath><clipPath id="fda03f6426"><path d="M 7.152344 64.777344 L 338.164062 64.777344 L 338.164062 348.613281 L 7.152344 348.613281 Z M 7.152344 64.777344 " clip-rule="nonzero"/></clipPath><clipPath id="6c8dd4d1ee"><path d="M 338.265625 79.753906 L 338.265625 333.996094 C 338.265625 337.96875 336.6875 341.78125 333.878906 344.589844 C 331.070312 347.398438 327.257812 348.976562 323.285156 348.976562 L 22.128906 348.976562 C 18.15625 348.976562 14.347656 347.398438 11.539062 344.589844 C 8.726562 341.78125 7.152344 337.96875 7.152344 333.996094 L 7.152344 79.753906 C 7.152344 75.78125 8.726562 71.972656 11.539062 69.164062 C 14.347656 66.355469 18.15625 64.777344 22.128906 64.777344 L 323.285156 64.777344 C 327.257812 64.777344 331.070312 66.355469 333.878906 69.164062 C 336.6875 71.972656 338.265625 75.78125 338.265625 79.753906 Z M 338.265625 79.753906 " clip-rule="nonzero"/></clipPath><clipPath id="9d9c1f19cd"><path d="M 7 0.00390625 L 338.339844 0.00390625 L 338.339844 55.3125 L 7 55.3125 Z M 7 0.00390625 " clip-rule="nonzero"/></clipPath><clipPath id="5997358396"><path d="M 338.269531 14.984375 L 338.269531 40.332031 C 338.269531 44.304688 336.691406 48.117188 333.882812 50.925781 C 331.074219 53.734375 327.265625 55.3125 323.292969 55.3125 L 22.125 55.3125 C 18.152344 55.3125 14.339844 53.734375 11.53125 50.925781 C 8.722656 48.117188 7.144531 44.304688 7.144531 40.332031 L 7.144531 14.984375 C 7.144531 11.011719 8.722656 7.199219 11.53125 4.390625 C 14.339844 1.582031 18.152344 0.00390625 22.125 0.00390625 L 323.292969 0.00390625 C 327.265625 0.00390625 331.074219 1.582031 333.882812 4.390625 C 336.691406 7.199219 338.269531 11.011719 338.269531 14.984375 Z M 338.269531 14.984375 " clip-rule="nonzero"/></clipPath><clipPath id="47543808bb"><path d="M 0 0.00390625 L 331.339844 0.00390625 L 331.339844 55.3125 L 0 55.3125 Z M 0 0.00390625 " clip-rule="nonzero"/></clipPath><clipPath id="519b577ed7"><path d="M 331.269531 14.984375 L 331.269531 40.332031 C 331.269531 44.304688 329.691406 48.117188 326.882812 50.925781 C 324.074219 53.734375 320.265625 55.3125 316.292969 55.3125 L 15.125 55.3125 C 11.152344 55.3125 7.339844 53.734375 4.53125 50.925781 C 1.722656 48.117188 0.144531 44.304688 0.144531 40.332031 L 0.144531 14.984375 C 0.144531 11.011719 1.722656 7.199219 4.53125 4.390625 C 7.339844 1.582031 11.152344 0.00390625 15.125 0.00390625 L 316.292969 0.00390625 C 320.265625 0.00390625 324.074219 1.582031 326.882812 4.390625 C 329.691406 7.199219 331.269531 11.011719 331.269531 14.984375 Z M 331.269531 14.984375 " clip-rule="nonzero"/></clipPath><clipPath id="2ce758b8d1"><rect x="0" width="332" y="0" height="56"/></clipPath><clipPath id="783fae6ce9"><path d="M 7.160156 0.00390625 L 338.164062 0.00390625 L 338.164062 55.421875 L 7.160156 55.421875 Z M 7.160156 0.00390625 " clip-rule="nonzero"/></clipPath><clipPath id="ce94862dfe"><path d="M 338.253906 14.980469 L 338.253906 40.328125 C 338.253906 44.300781 336.675781 48.113281 333.867188 50.921875 C 331.058594 53.730469 327.25 55.308594 323.277344 55.308594 L 22.136719 55.308594 C 18.164062 55.308594 14.355469 53.730469 11.546875 50.921875 C 8.738281 48.113281 7.160156 44.300781 7.160156 40.328125 L 7.160156 14.980469 C 7.160156 11.007812 8.738281 7.199219 11.546875 4.390625 C 14.355469 1.582031 18.164062 0.00390625 22.136719 0.00390625 L 323.277344 0.00390625 C 327.25 0.00390625 331.058594 1.582031 333.867188 4.390625 C 336.675781 7.199219 338.253906 11.007812 338.253906 14.980469 Z M 338.253906 14.980469 " clip-rule="nonzero"/></clipPath><clipPath id="2c03aff968"><path d="M 25 40.253906 L 320 40.253906 L 320 77.699219 L 25 77.699219 Z M 25 40.253906 " clip-rule="nonzero"/></clipPath><clipPath id="4f5f4fcbef"><path d="M 1 0.253906 L 294.453125 0.253906 L 294.453125 13 L 1 13 Z M 1 0.253906 " clip-rule="nonzero"/></clipPath><clipPath id="995fbecc11"><path d="M 4 3 L 291 3 L 291 37.324219 L 4 37.324219 Z M 4 3 " clip-rule="nonzero"/></clipPath><clipPath id="0fc3635754"><path d="M 283.238281 7.125 L 283.238281 33.445312 C 283.238281 35.5625 284.941406 37.265625 287.054688 37.265625 C 289.171875 37.265625 290.875 35.5625 290.875 33.445312 L 290.875 7.1875 C 290.875 5.070312 289.171875 3.367188 287.054688 3.367188 C 285 3.308594 283.238281 5.070312 283.238281 7.125 Z M 261.792969 7.125 L 261.792969 33.445312 C 261.792969 35.5625 263.496094 37.265625 265.613281 37.265625 C 267.726562 37.265625 269.429688 35.5625 269.429688 33.445312 L 269.429688 7.1875 C 269.429688 5.070312 267.726562 3.367188 265.613281 3.367188 C 263.554688 3.308594 261.792969 5.070312 261.792969 7.125 Z M 240.351562 7.125 L 240.351562 33.445312 C 240.351562 35.5625 242.054688 37.265625 244.167969 37.265625 C 246.285156 37.265625 247.988281 35.5625 247.988281 33.445312 L 247.988281 7.1875 C 247.988281 5.070312 246.285156 3.367188 244.167969 3.367188 C 242.113281 3.308594 240.351562 5.070312 240.351562 7.125 Z M 218.90625 7.125 L 218.90625 33.445312 C 218.90625 35.5625 220.609375 37.265625 222.726562 37.265625 C 224.839844 37.265625 226.542969 35.5625 226.542969 33.445312 L 226.542969 7.1875 C 226.542969 5.070312 224.839844 3.367188 222.726562 3.367188 C 220.667969 3.308594 218.90625 5.070312 218.90625 7.125 Z M 197.460938 7.125 L 197.460938 33.445312 C 197.460938 35.5625 199.167969 37.265625 201.28125 37.265625 C 203.398438 37.265625 205.101562 35.5625 205.101562 33.445312 L 205.101562 7.1875 C 205.101562 5.070312 203.398438 3.367188 201.28125 3.367188 C 199.226562 3.308594 197.460938 5.070312 197.460938 7.125 Z M 176.019531 7.125 L 176.019531 33.445312 C 176.019531 35.5625 177.722656 37.265625 179.839844 37.265625 C 181.953125 37.265625 183.65625 35.5625 183.65625 33.445312 L 183.65625 7.1875 C 183.65625 5.070312 181.953125 3.367188 179.839844 3.367188 C 177.78125 3.308594 176.019531 5.070312 176.019531 7.125 Z M 154.574219 7.125 L 154.574219 33.445312 C 154.574219 35.5625 156.28125 37.265625 158.394531 37.265625 C 160.507812 37.265625 162.214844 35.5625 162.214844 33.445312 L 162.214844 7.1875 C 162.214844 5.070312 160.507812 3.367188 158.394531 3.367188 C 156.339844 3.308594 154.574219 5.070312 154.574219 7.125 Z M 133.132812 7.125 L 133.132812 33.445312 C 133.132812 35.5625 134.835938 37.265625 136.949219 37.265625 C 139.066406 37.265625 140.769531 35.5625 140.769531 33.445312 L 140.769531 7.1875 C 140.769531 5.070312 139.066406 3.367188 136.949219 3.367188 C 134.835938 3.308594 133.132812 5.070312 133.132812 7.125 Z M 111.6875 7.125 L 111.6875 33.445312 C 111.6875 35.5625 113.390625 37.265625 115.507812 37.265625 C 117.621094 37.265625 119.324219 35.5625 119.324219 33.445312 L 119.324219 7.1875 C 119.324219 5.070312 117.621094 3.367188 115.507812 3.367188 C 113.390625 3.308594 111.6875 5.070312 111.6875 7.125 Z M 90.246094 7.125 L 90.246094 33.445312 C 90.246094 35.5625 91.949219 37.265625 94.0625 37.265625 C 96.179688 37.265625 97.882812 35.5625 97.882812 33.445312 L 97.882812 7.1875 C 97.882812 5.070312 96.179688 3.367188 94.0625 3.367188 C 91.949219 3.308594 90.246094 5.070312 90.246094 7.125 Z M 68.800781 7.125 L 68.800781 33.445312 C 68.800781 35.5625 70.503906 37.265625 72.621094 37.265625 C 74.734375 37.265625 76.4375 35.5625 76.4375 33.445312 L 76.4375 7.1875 C 76.4375 5.070312 74.734375 3.367188 72.621094 3.367188 C 70.503906 3.308594 68.800781 5.070312 68.800781 7.125 Z M 47.359375 7.125 L 47.359375 33.445312 C 47.359375 35.5625 49.0625 37.265625 51.175781 37.265625 C 53.292969 37.265625 54.996094 35.5625 54.996094 33.445312 L 54.996094 7.1875 C 54.996094 5.070312 53.292969 3.367188 51.175781 3.367188 C 49.0625 3.308594 47.359375 5.070312 47.359375 7.125 Z M 25.914062 7.125 L 25.914062 33.445312 C 25.914062 35.5625 27.617188 37.265625 29.734375 37.265625 C 31.847656 37.265625 33.550781 35.5625 33.550781 33.445312 L 33.550781 7.1875 C 33.550781 5.070312 31.847656 3.367188 29.734375 3.367188 C 27.617188 3.308594 25.914062 5.070312 25.914062 7.125 Z M 4.46875 7.125 L 4.46875 33.445312 C 4.46875 35.5625 6.175781 37.265625 8.289062 37.265625 C 10.402344 37.265625 12.109375 35.5625 12.109375 33.445312 L 12.109375 7.1875 C 12.109375 5.070312 10.402344 3.367188 8.289062 3.367188 C 6.175781 3.308594 4.46875 5.070312 4.46875 7.125 Z M 4.46875 7.125 " clip-rule="nonzero"/></clipPath><linearGradient x1="0.0999999" gradientTransform="matrix(0, -0.587497, -0.587497, 0, 294.223556, 37.324253)" y1="249.412" x2="57.900002" gradientUnits="userSpaceOnUse" y2="249.412" id="9a14957751"><stop stop-opacity="1" stop-color="rgb(82.348633%, 82.749939%, 83.529663%)" offset="0"/><stop stop-opacity="1" stop-color="rgb(82.518005%, 82.913208%, 83.683777%)" offset="0.015625"/><stop stop-opacity="1" stop-color="rgb(82.872009%, 83.255005%, 84.004211%)" offset="0.0234375"/><stop stop-opacity="1" stop-color="rgb(83.239746%, 83.612061%, 84.338379%)" offset="0.03125"/><stop stop-opacity="1" stop-color="rgb(83.607483%, 83.969116%, 84.672546%)" offset="0.0390625"/><stop stop-opacity="1" stop-color="rgb(83.97522%, 84.324646%, 85.006714%)" offset="0.046875"/><stop stop-opacity="1" stop-color="rgb(84.342957%, 84.681702%, 85.340881%)" offset="0.0546875"/><stop stop-opacity="1" stop-color="rgb(84.710693%, 85.038757%, 85.675049%)" offset="0.0625"/><stop stop-opacity="1" stop-color="rgb(85.07843%, 85.394287%, 86.009216%)" offset="0.0703125"/><stop stop-opacity="1" stop-color="rgb(85.446167%, 85.751343%, 86.343384%)" offset="0.078125"/><stop stop-opacity="1" stop-color="rgb(85.813904%, 86.108398%, 86.679077%)" offset="0.0859375"/><stop stop-opacity="1" stop-color="rgb(86.181641%, 86.463928%, 87.013245%)" offset="0.09375"/><stop stop-opacity="1" stop-color="rgb(86.550903%, 86.820984%, 87.347412%)" offset="0.101562"/><stop stop-opacity="1" stop-color="rgb(86.91864%, 87.17804%, 87.68158%)" offset="0.109375"/><stop stop-opacity="1" stop-color="rgb(87.286377%, 87.533569%, 88.015747%)" offset="0.117187"/><stop stop-opacity="1" stop-color="rgb(87.654114%, 87.890625%, 88.349915%)" offset="0.125"/><stop stop-opacity="1" stop-color="rgb(88.021851%, 88.246155%, 88.684082%)" offset="0.132812"/><stop stop-opacity="1" stop-color="rgb(88.389587%, 88.60321%, 89.01825%)" offset="0.140625"/><stop stop-opacity="1" stop-color="rgb(88.757324%, 88.960266%, 89.352417%)" offset="0.148438"/><stop stop-opacity="1" stop-color="rgb(89.125061%, 89.315796%, 89.68811%)" offset="0.15625"/><stop stop-opacity="1" stop-color="rgb(89.492798%, 89.672852%, 90.022278%)" offset="0.164062"/><stop stop-opacity="1" stop-color="rgb(89.860535%, 90.029907%, 90.356445%)" offset="0.171875"/><stop stop-opacity="1" stop-color="rgb(90.229797%, 90.385437%, 90.690613%)" offset="0.179687"/><stop stop-opacity="1" stop-color="rgb(90.597534%, 90.742493%, 91.02478%)" offset="0.1875"/><stop stop-opacity="1" stop-color="rgb(90.965271%, 91.099548%, 91.358948%)" offset="0.195313"/><stop stop-opacity="1" stop-color="rgb(91.333008%, 91.455078%, 91.693115%)" offset="0.203125"/><stop stop-opacity="1" stop-color="rgb(91.700745%, 91.812134%, 92.027283%)" offset="0.210938"/><stop stop-opacity="1" stop-color="rgb(92.068481%, 92.167664%, 92.36145%)" offset="0.21875"/><stop stop-opacity="1" stop-color="rgb(92.436218%, 92.524719%, 92.697144%)" offset="0.226562"/><stop stop-opacity="1" stop-color="rgb(92.803955%, 92.881775%, 93.031311%)" offset="0.234375"/><stop stop-opacity="1" stop-color="rgb(93.171692%, 93.237305%, 93.365479%)" offset="0.242188"/><stop stop-opacity="1" stop-color="rgb(93.539429%, 93.59436%, 93.699646%)" offset="0.25"/><stop stop-opacity="1" stop-color="rgb(93.907166%, 93.951416%, 94.033813%)" offset="0.257813"/><stop stop-opacity="1" stop-color="rgb(94.276428%, 94.306946%, 94.367981%)" offset="0.265625"/><stop stop-opacity="1" stop-color="rgb(94.644165%, 94.664001%, 94.702148%)" offset="0.273438"/><stop stop-opacity="1" stop-color="rgb(95.011902%, 95.021057%, 95.036316%)" offset="0.28125"/><stop stop-opacity="1" stop-color="rgb(95.372009%, 95.373535%, 95.376587%)" offset="0.296875"/><stop stop-opacity="1" stop-color="rgb(95.697021%, 95.697021%, 95.697021%)" offset="0.3125"/><stop stop-opacity="1" stop-color="rgb(95.993042%, 95.993042%, 95.993042%)" offset="0.328125"/><stop stop-opacity="1" stop-color="rgb(96.290588%, 96.290588%, 96.290588%)" offset="0.34375"/><stop stop-opacity="1" stop-color="rgb(96.588135%, 96.588135%, 96.588135%)" offset="0.359375"/><stop stop-opacity="1" stop-color="rgb(96.884155%, 96.884155%, 96.884155%)" offset="0.375"/><stop stop-opacity="1" stop-color="rgb(97.181702%, 97.181702%, 97.181702%)" offset="0.390625"/><stop stop-opacity="1" stop-color="rgb(97.477722%, 97.477722%, 97.477722%)" offset="0.40625"/><stop stop-opacity="1" stop-color="rgb(97.775269%, 97.775269%, 97.775269%)" offset="0.421875"/><stop stop-opacity="1" stop-color="rgb(98.072815%, 98.072815%, 98.072815%)" offset="0.4375"/><stop stop-opacity="1" stop-color="rgb(98.368835%, 98.368835%, 98.368835%)" offset="0.453125"/><stop stop-opacity="1" stop-color="rgb(98.666382%, 98.666382%, 98.666382%)" offset="0.46875"/><stop stop-opacity="1" stop-color="rgb(98.963928%, 98.963928%, 98.963928%)" offset="0.484375"/><stop stop-opacity="1" stop-color="rgb(99.259949%, 99.259949%, 99.259949%)" offset="0.5"/><stop stop-opacity="1" stop-color="rgb(99.557495%, 99.557495%, 99.557495%)" offset="0.515625"/><stop stop-opacity="1" stop-color="rgb(99.847412%, 99.848938%, 99.848938%)" offset="0.53125"/><stop stop-opacity="1" stop-color="rgb(99.84436%, 99.847412%, 99.855042%)" offset="0.539062"/><stop stop-opacity="1" stop-color="rgb(99.549866%, 99.560547%, 99.580383%)" offset="0.546875"/><stop stop-opacity="1" stop-color="rgb(99.255371%, 99.272156%, 99.305725%)" offset="0.554688"/><stop stop-opacity="1" stop-color="rgb(98.960876%, 98.985291%, 99.031067%)" offset="0.5625"/><stop stop-opacity="1" stop-color="rgb(98.666382%, 98.696899%, 98.756409%)" offset="0.570312"/><stop stop-opacity="1" stop-color="rgb(98.373413%, 98.410034%, 98.48175%)" offset="0.578125"/><stop stop-opacity="1" stop-color="rgb(98.078918%, 98.121643%, 98.207092%)" offset="0.585938"/><stop stop-opacity="1" stop-color="rgb(97.784424%, 97.834778%, 97.932434%)" offset="0.59375"/><stop stop-opacity="1" stop-color="rgb(97.489929%, 97.547913%, 97.657776%)" offset="0.601562"/><stop stop-opacity="1" stop-color="rgb(97.195435%, 97.259521%, 97.383118%)" offset="0.609375"/><stop stop-opacity="1" stop-color="rgb(96.90094%, 96.972656%, 97.109985%)" offset="0.617188"/><stop stop-opacity="1" stop-color="rgb(96.607971%, 96.684265%, 96.835327%)" offset="0.625"/><stop stop-opacity="1" stop-color="rgb(96.313477%, 96.3974%, 96.560669%)" offset="0.632812"/><stop stop-opacity="1" stop-color="rgb(96.018982%, 96.109009%, 96.286011%)" offset="0.640625"/><stop stop-opacity="1" stop-color="rgb(95.724487%, 95.822144%, 96.011353%)" offset="0.648437"/><stop stop-opacity="1" stop-color="rgb(95.429993%, 95.533752%, 95.736694%)" offset="0.65625"/><stop stop-opacity="1" stop-color="rgb(95.135498%, 95.246887%, 95.462036%)" offset="0.664062"/><stop stop-opacity="1" stop-color="rgb(94.842529%, 94.958496%, 95.187378%)" offset="0.671875"/><stop stop-opacity="1" stop-color="rgb(94.548035%, 94.671631%, 94.91272%)" offset="0.679687"/><stop stop-opacity="1" stop-color="rgb(94.25354%, 94.384766%, 94.638062%)" offset="0.6875"/><stop stop-opacity="1" stop-color="rgb(93.959045%, 94.096375%, 94.363403%)" offset="0.695312"/><stop stop-opacity="1" stop-color="rgb(93.664551%, 93.809509%, 94.088745%)" offset="0.703125"/><stop stop-opacity="1" stop-color="rgb(93.371582%, 93.521118%, 93.814087%)" offset="0.710937"/><stop stop-opacity="1" stop-color="rgb(93.077087%, 93.234253%, 93.539429%)" offset="0.71875"/><stop stop-opacity="1" stop-color="rgb(92.782593%, 92.945862%, 93.264771%)" offset="0.726562"/><stop stop-opacity="1" stop-color="rgb(92.488098%, 92.658997%, 92.991638%)" offset="0.734375"/><stop stop-opacity="1" stop-color="rgb(92.193604%, 92.370605%, 92.71698%)" offset="0.742187"/><stop stop-opacity="1" stop-color="rgb(91.899109%, 92.08374%, 92.442322%)" offset="0.75"/><stop stop-opacity="1" stop-color="rgb(91.60614%, 91.795349%, 92.167664%)" offset="0.757812"/><stop stop-opacity="1" stop-color="rgb(91.311646%, 91.508484%, 91.893005%)" offset="0.765625"/><stop stop-opacity="1" stop-color="rgb(91.017151%, 91.221619%, 91.618347%)" offset="0.773438"/><stop stop-opacity="1" stop-color="rgb(90.722656%, 90.933228%, 91.343689%)" offset="0.78125"/><stop stop-opacity="1" stop-color="rgb(90.428162%, 90.646362%, 91.069031%)" offset="0.789062"/><stop stop-opacity="1" stop-color="rgb(90.135193%, 90.357971%, 90.794373%)" offset="0.796875"/><stop stop-opacity="1" stop-color="rgb(89.840698%, 90.071106%, 90.519714%)" offset="0.804688"/><stop stop-opacity="1" stop-color="rgb(89.546204%, 89.782715%, 90.245056%)" offset="0.8125"/><stop stop-opacity="1" stop-color="rgb(89.251709%, 89.49585%, 89.970398%)" offset="0.820312"/><stop stop-opacity="1" stop-color="rgb(88.957214%, 89.207458%, 89.69574%)" offset="0.828125"/><stop stop-opacity="1" stop-color="rgb(88.66272%, 88.920593%, 89.421082%)" offset="0.835938"/><stop stop-opacity="1" stop-color="rgb(88.369751%, 88.632202%, 89.147949%)" offset="0.84375"/><stop stop-opacity="1" stop-color="rgb(88.075256%, 88.345337%, 88.873291%)" offset="0.851562"/><stop stop-opacity="1" stop-color="rgb(87.780762%, 88.058472%, 88.598633%)" offset="0.859375"/><stop stop-opacity="1" stop-color="rgb(87.486267%, 87.770081%, 88.323975%)" offset="0.867188"/><stop stop-opacity="1" stop-color="rgb(87.191772%, 87.483215%, 88.049316%)" offset="0.875"/><stop stop-opacity="1" stop-color="rgb(86.897278%, 87.194824%, 87.774658%)" offset="0.882812"/><stop stop-opacity="1" stop-color="rgb(86.604309%, 86.907959%, 87.5%)" offset="0.890625"/><stop stop-opacity="1" stop-color="rgb(86.309814%, 86.619568%, 87.225342%)" offset="0.898437"/><stop stop-opacity="1" stop-color="rgb(86.01532%, 86.332703%, 86.950684%)" offset="0.90625"/><stop stop-opacity="1" stop-color="rgb(85.720825%, 86.044312%, 86.676025%)" offset="0.914062"/><stop stop-opacity="1" stop-color="rgb(85.426331%, 85.757446%, 86.401367%)" offset="0.921875"/><stop stop-opacity="1" stop-color="rgb(85.133362%, 85.470581%, 86.126709%)" offset="0.929687"/><stop stop-opacity="1" stop-color="rgb(84.838867%, 85.18219%, 85.852051%)" offset="0.9375"/><stop stop-opacity="1" stop-color="rgb(84.544373%, 84.895325%, 85.577393%)" offset="0.945312"/><stop stop-opacity="1" stop-color="rgb(84.249878%, 84.606934%, 85.302734%)" offset="0.953125"/><stop stop-opacity="1" stop-color="rgb(83.955383%, 84.320068%, 85.029602%)" offset="0.960937"/><stop stop-opacity="1" stop-color="rgb(83.660889%, 84.031677%, 84.754944%)" offset="0.96875"/><stop stop-opacity="1" stop-color="rgb(83.36792%, 83.744812%, 84.480286%)" offset="0.976562"/><stop stop-opacity="1" stop-color="rgb(83.073425%, 83.456421%, 84.205627%)" offset="0.984375"/><stop stop-opacity="1" stop-color="rgb(82.778931%, 83.169556%, 83.930969%)" offset="0.992187"/><stop stop-opacity="1" stop-color="rgb(82.49054%, 82.887268%, 83.660889%)" offset="1"/></linearGradient><clipPath id="80a357988d"><path d="M 2 1 L 293 1 L 293 37.324219 L 2 37.324219 Z M 2 1 " clip-rule="nonzero"/></clipPath><clipPath id="5b892dd119"><rect x="0" width="295" y="0" height="38"/></clipPath></defs><g clip-path="url(#254c43df1e)"><g clip-path="url(#d73d0d8655)"><g transform="matrix(1, 0, 0, 1, 7, 64)"><g clip-path="url(#9094e435a2)"><g clip-path="url(#635008a40b)"><g clip-path="url(#e244da2e4f)"><path fill="#ffffff" d="M 0.144531 0.777344 L 330.980469 0.777344 L 330.980469 284.984375 L 0.144531 284.984375 Z M 0.144531 0.777344 " fill-opacity="1" fill-rule="nonzero"/></g></g></g></g></g></g><g clip-path="url(#fda03f6426)"><g clip-path="url(#6c8dd4d1ee)"><path stroke-linecap="butt" transform="matrix(0.74891, 0, 0, 0.74891, 7.150406, 64.776013)" fill="none" stroke-linejoin="miter" d="M 442.129607 19.999594 L 442.129607 359.482626 C 442.129607 364.787212 440.022378 369.877945 436.272135 373.628187 C 432.521892 377.37843 427.431159 379.48566 422.126574 379.48566 L 20.000405 379.48566 C 14.695819 379.48566 9.610303 377.37843 5.86006 373.628187 C 2.104601 369.877945 0.0025874 364.787212 0.0025874 359.482626 L 0.0025874 19.999594 C 0.0025874 14.695009 2.104601 9.609492 5.86006 5.859249 C 9.610303 2.109007 14.695819 0.00177694 20.000405 0.00177694 L 422.126574 0.00177694 C 427.431159 0.00177694 432.521892 2.109007 436.272135 5.859249 C 440.022378 9.609492 442.129607 14.695009 442.129607 19.999594 Z M 442.129607 19.999594 " stroke="#bac4cc" stroke-width="2" stroke-opacity="1" stroke-miterlimit="4"/></g></g><g clip-path="url(#9d9c1f19cd)"><g clip-path="url(#5997358396)"><g transform="matrix(1, 0, 0, 1, 7, -0.000000000000065664)"><g clip-path="url(#2ce758b8d1)"><g clip-path="url(#47543808bb)"><g clip-path="url(#519b577ed7)"><path fill="#ffffff" d="M 0.144531 0.00390625 L 331.339844 0.00390625 L 331.339844 55.3125 L 0.144531 55.3125 Z M 0.144531 0.00390625 " fill-opacity="1" fill-rule="nonzero"/></g></g></g></g></g></g><g clip-path="url(#783fae6ce9)"><g clip-path="url(#ce94862dfe)"><path stroke-linecap="butt" transform="matrix(0.74891, 0, 0, 0.74891, 7.160332, 0.00437195)" fill="none" stroke-linejoin="miter" d="M 442.100733 19.997197 L 442.100733 53.84327 C 442.100733 59.147856 439.993504 64.238589 436.243261 67.988832 C 432.493018 71.739075 427.4075 73.846305 422.102915 73.846305 L 19.997584 73.846305 C 14.692998 73.846305 9.607481 71.739075 5.857238 67.988832 C 2.106995 64.238589 -0.000235171 59.147856 -0.000235171 53.84327 L -0.000235171 19.997197 C -0.000235171 14.692611 2.106995 9.607094 5.857238 5.856851 C 9.607481 2.106608 14.692998 -0.000621838 19.997584 -0.000621838 L 422.102915 -0.000621838 C 427.4075 -0.000621838 432.493018 2.106608 436.243261 5.856851 C 439.993504 9.607094 442.100733 14.692611 442.100733 19.997197 Z M 442.100733 19.997197 " stroke="#bac4cc" stroke-width="2" stroke-opacity="1" stroke-miterlimit="4"/></g></g><path stroke-linecap="butt" transform="matrix(0.74891, 0, 0, 0.74891, 35.27195, 107.286681)" fill="none" stroke-linejoin="miter" d="M 0.00198636 0.498691 L 367.030265 0.498691 " stroke="#bac4cc" stroke-width="1" stroke-opacity="1" stroke-miterlimit="4"/><path stroke-linecap="butt" transform="matrix(0.74891, 0, 0, 0.74891, 35.27195, 140.359674)" fill="none" stroke-linejoin="miter" d="M 0.00198636 0.500329 L 367.030265 0.500329 " stroke="#bac4cc" stroke-width="1" stroke-opacity="1" stroke-miterlimit="4"/><path stroke-linecap="butt" transform="matrix(0.74891, 0, 0, 0.74891, 35.27195, 173.432659)" fill="none" stroke-linejoin="miter" d="M 0.00198636 0.501975 L 367.030265 0.501975 " stroke="#bac4cc" stroke-width="1" stroke-opacity="1" stroke-miterlimit="4"/><path stroke-linecap="butt" transform="matrix(0.74891, 0, 0, 0.74891, 35.27195, 206.505659)" fill="none" stroke-linejoin="miter" d="M 0.00198636 0.498387 L 367.030265 0.498387 " stroke="#bac4cc" stroke-width="1" stroke-opacity="1" stroke-miterlimit="4"/><path stroke-linecap="butt" transform="matrix(0.74891, 0, 0, 0.74891, 35.27195, 239.578645)" fill="none" stroke-linejoin="miter" d="M 0.00198636 0.500034 L 367.030265 0.500034 " stroke="#bac4cc" stroke-width="1" stroke-opacity="1" stroke-miterlimit="4"/><path stroke-linecap="butt" transform="matrix(0.74891, 0, 0, 0.74891, 35.27195, 272.651616)" fill="none" stroke-linejoin="miter" d="M 0.00198636 0.5017 L 367.030265 0.5017 " stroke="#bac4cc" stroke-width="1" stroke-opacity="1" stroke-miterlimit="4"/><path stroke-linecap="butt" transform="matrix(0.74891, 0, 0, 0.74891, 35.27195, 305.724616)" fill="none" stroke-linejoin="miter" d="M 0.00198636 0.498112 L 367.030265 0.498112 " stroke="#bac4cc" stroke-width="1" stroke-opacity="1" stroke-miterlimit="4"/><g clip-path="url(#2c03aff968)"><g transform="matrix(1, 0, 0, 1, 25, 40)"><g clip-path="url(#5b892dd119)"><g clip-path="url(#4f5f4fcbef)"><path fill="#a7a9ac" d="M 287.113281 0.253906 C 283.179688 0.253906 280.007812 3.015625 280.007812 6.480469 C 280.007812 9.945312 283.179688 12.707031 287.113281 12.707031 C 291.050781 12.707031 294.222656 9.886719 294.222656 6.480469 C 294.222656 3.074219 291.050781 0.253906 287.113281 0.253906 Z M 265.671875 0.253906 C 261.734375 0.253906 258.5625 3.015625 258.5625 6.480469 C 258.5625 9.945312 261.734375 12.707031 265.671875 12.707031 C 269.609375 12.707031 272.78125 9.945312 272.78125 6.480469 C 272.78125 3.015625 269.609375 0.253906 265.671875 0.253906 Z M 244.226562 0.253906 C 240.292969 0.253906 237.117188 3.015625 237.117188 6.480469 C 237.117188 9.945312 240.292969 12.707031 244.226562 12.707031 C 248.164062 12.707031 251.335938 9.886719 251.335938 6.480469 C 251.335938 3.074219 248.164062 0.253906 244.226562 0.253906 Z M 222.785156 0.253906 C 218.847656 0.253906 215.675781 3.015625 215.675781 6.480469 C 215.675781 9.945312 218.847656 12.707031 222.785156 12.707031 C 226.71875 12.707031 229.894531 9.945312 229.894531 6.480469 C 229.894531 3.015625 226.71875 0.253906 222.785156 0.253906 Z M 201.28125 0.253906 C 197.34375 0.253906 194.171875 3.015625 194.171875 6.480469 C 194.171875 9.945312 197.34375 12.707031 201.28125 12.707031 C 205.21875 12.707031 208.449219 9.886719 208.449219 6.480469 C 208.449219 3.074219 205.277344 0.253906 201.28125 0.253906 Z M 179.839844 0.253906 C 175.902344 0.253906 172.730469 3.015625 172.730469 6.480469 C 172.730469 9.945312 175.902344 12.707031 179.839844 12.707031 C 183.773438 12.707031 186.945312 9.945312 186.945312 6.480469 C 186.945312 3.015625 183.773438 0.253906 179.839844 0.253906 Z M 158.394531 0.253906 C 154.457031 0.253906 151.285156 3.015625 151.285156 6.480469 C 151.285156 9.945312 154.457031 12.707031 158.394531 12.707031 C 162.332031 12.707031 165.503906 9.945312 165.503906 6.480469 C 165.503906 3.015625 162.332031 0.253906 158.394531 0.253906 Z M 136.949219 0.253906 C 133.015625 0.253906 129.84375 3.015625 129.84375 6.480469 C 129.84375 9.945312 133.015625 12.707031 136.949219 12.707031 C 140.886719 12.707031 144.058594 9.945312 144.058594 6.480469 C 144.058594 3.015625 140.886719 0.253906 136.949219 0.253906 Z M 115.507812 0.253906 C 111.570312 0.253906 108.398438 3.015625 108.398438 6.480469 C 108.398438 9.945312 111.570312 12.707031 115.507812 12.707031 C 119.441406 12.707031 122.675781 9.886719 122.675781 6.480469 C 122.675781 3.074219 119.441406 0.253906 115.507812 0.253906 Z M 94.0625 0.253906 C 90.128906 0.253906 86.953125 3.015625 86.953125 6.480469 C 86.953125 9.945312 90.128906 12.707031 94.0625 12.707031 C 98 12.707031 101.171875 9.945312 101.171875 6.480469 C 101.171875 3.015625 98 0.253906 94.0625 0.253906 Z M 72.621094 0.253906 C 68.683594 0.253906 65.511719 3.015625 65.511719 6.480469 C 65.511719 9.945312 68.683594 12.707031 72.621094 12.707031 C 76.554688 12.707031 79.726562 9.945312 79.726562 6.480469 C 79.726562 3.015625 76.554688 0.253906 72.621094 0.253906 Z M 51.175781 0.253906 C 47.238281 0.253906 44.066406 3.015625 44.066406 6.480469 C 44.066406 9.945312 47.238281 12.707031 51.175781 12.707031 C 55.113281 12.707031 58.285156 9.945312 58.285156 6.480469 C 58.285156 3.015625 55.113281 0.253906 51.175781 0.253906 Z M 29.734375 0.253906 C 25.796875 0.253906 22.625 3.015625 22.625 6.480469 C 22.625 9.945312 25.796875 12.707031 29.734375 12.707031 C 33.667969 12.707031 36.839844 9.945312 36.839844 6.480469 C 36.839844 3.015625 33.667969 0.253906 29.734375 0.253906 Z M 8.289062 0.253906 C 4.351562 0.253906 1.179688 3.015625 1.179688 6.480469 C 1.179688 9.945312 4.351562 12.707031 8.289062 12.707031 C 12.226562 12.707031 15.398438 9.945312 15.398438 6.480469 C 15.398438 3.015625 12.226562 0.253906 8.289062 0.253906 Z M 8.289062 0.253906 " fill-opacity="1" fill-rule="nonzero"/></g><g clip-path="url(#995fbecc11)"><g clip-path="url(#0fc3635754)"><path fill="url(#9a14957751)" d="M 290.875 37.265625 L 4.46875 37.265625 L 4.46875 3.308594 L 290.875 3.308594 Z M 290.875 37.265625 " fill-rule="nonzero"/></g></g><g clip-path="url(#80a357988d)"><path stroke-linecap="butt" transform="matrix(0, -0.587497, -0.587497, 0, 294.223556, 37.324253)" fill="none" stroke-linejoin="miter" d="M 51.403275 18.698445 L 6.60249 18.698445 C 2.998746 18.698445 0.0997934 15.799492 0.0997934 12.202398 C 0.0997934 8.598654 2.998746 5.699701 6.60249 5.699701 L 51.296891 5.699701 C 54.900635 5.699701 57.799588 8.598654 57.799588 12.202398 C 57.899322 15.699758 54.900635 18.698445 51.403275 18.698445 Z M 51.403275 55.201311 L 6.60249 55.201311 C 2.998746 55.201311 0.0997934 52.302359 0.0997934 48.698615 C 0.0997934 45.10152 2.998746 42.202567 6.60249 42.202567 L 51.296891 42.202567 C 54.900635 42.202567 57.799588 45.10152 57.799588 48.698615 C 57.899322 52.202624 54.900635 55.201311 51.403275 55.201311 Z M 51.403275 91.697528 L 6.60249 91.697528 C 2.998746 91.697528 0.0997934 88.798576 0.0997934 85.201481 C 0.0997934 81.597737 2.998746 78.698784 6.60249 78.698784 L 51.296891 78.698784 C 54.900635 78.698784 57.799588 81.597737 57.799588 85.201481 C 57.899322 88.698841 54.900635 91.697528 51.403275 91.697528 Z M 51.403275 128.200394 L 6.60249 128.200394 C 2.998746 128.200394 0.0997934 125.301442 0.0997934 121.697698 C 0.0997934 118.100603 2.998746 115.20165 6.60249 115.20165 L 51.296891 115.20165 C 54.900635 115.20165 57.799588 118.100603 57.799588 121.697698 C 57.899322 125.201707 54.900635 128.200394 51.403275 128.200394 Z M 51.403275 164.70326 L 6.60249 164.70326 C 2.998746 164.70326 0.0997934 161.797659 0.0997934 158.200564 C 0.0997934 154.59682 2.998746 151.697868 6.60249 151.697868 L 51.296891 151.697868 C 54.900635 151.697868 57.799588 154.59682 57.799588 158.200564 C 57.899322 161.697924 54.900635 164.70326 51.403275 164.70326 Z M 51.403275 201.199477 L 6.60249 201.199477 C 2.998746 201.199477 0.0997934 198.300525 0.0997934 194.696781 C 0.0997934 191.099686 2.998746 188.200734 6.60249 188.200734 L 51.296891 188.200734 C 54.900635 188.200734 57.799588 191.099686 57.799588 194.696781 C 57.899322 198.20079 54.900635 201.199477 51.403275 201.199477 Z M 51.403275 237.702343 L 6.60249 237.702343 C 2.998746 237.702343 0.0997934 234.796742 0.0997934 231.199647 C 0.0997934 227.602552 2.998746 224.696951 6.60249 224.696951 L 51.296891 224.696951 C 54.900635 224.696951 57.799588 227.602552 57.799588 231.199647 C 57.899322 234.697007 54.900635 237.702343 51.403275 237.702343 Z M 51.403275 274.19856 L 6.60249 274.19856 C 2.998746 274.19856 0.0997934 271.299608 0.0997934 267.702513 C 0.0997934 264.098769 2.998746 261.199817 6.60249 261.199817 L 51.296891 261.199817 C 54.900635 261.199817 57.799588 264.098769 57.799588 267.702513 C 57.899322 271.299608 54.900635 274.19856 51.403275 274.19856 Z M 51.403275 310.701426 L 6.60249 310.701426 C 2.998746 310.701426 0.0997934 307.802474 0.0997934 304.19873 C 0.0997934 300.601635 2.998746 297.702683 6.60249 297.702683 L 51.296891 297.702683 C 54.900635 297.702683 57.799588 300.601635 57.799588 304.19873 C 57.899322 307.802474 54.900635 310.701426 51.403275 310.701426 Z M 51.403275 347.197644 L 6.60249 347.197644 C 2.998746 347.197644 0.0997934 344.298691 0.0997934 340.701596 C 0.0997934 337.097852 2.998746 334.1989 6.60249 334.1989 L 51.296891 334.1989 C 54.900635 334.1989 57.799588 337.097852 57.799588 340.701596 C 57.899322 344.298691 54.900635 347.197644 51.403275 347.197644 Z M 51.403275 383.70051 L 6.60249 383.70051 C 2.998746 383.70051 0.0997934 380.801557 0.0997934 377.197813 C 0.0997934 373.600718 2.998746 370.701766 6.60249 370.701766 L 51.296891 370.701766 C 54.900635 370.701766 57.799588 373.600718 57.799588 377.197813 C 57.899322 380.801557 54.900635 383.70051 51.403275 383.70051 Z M 51.403275 420.196727 L 6.60249 420.196727 C 2.998746 420.196727 0.0997934 417.297774 0.0997934 413.700679 C 0.0997934 410.096935 2.998746 407.197983 6.60249 407.197983 L 51.296891 407.197983 C 54.900635 407.197983 57.799588 410.096935 57.799588 413.700679 C 57.899322 417.297774 54.900635 420.196727 51.403275 420.196727 Z M 51.403275 456.699593 L 6.60249 456.699593 C 2.998746 456.699593 0.0997934 453.80064 0.0997934 450.196896 C 0.0997934 446.599802 2.998746 443.700849 6.60249 443.700849 L 51.296891 443.700849 C 54.900635 443.700849 57.799588 446.599802 57.799588 450.196896 C 57.899322 453.80064 54.900635 456.699593 51.403275 456.699593 Z M 51.403275 493.202459 L 6.60249 493.202459 C 2.998746 493.202459 0.0997934 490.296857 0.0997934 486.699762 C 0.0997934 483.102668 2.998746 480.197066 6.60249 480.197066 L 51.296891 480.197066 C 54.900635 480.197066 57.799588 483.102668 57.799588 486.699762 C 57.899322 490.296857 54.900635 493.202459 51.403275 493.202459 Z M 51.403275 493.202459 " stroke="#a7a9ac" stroke-width="0.25" stroke-opacity="1" stroke-miterlimit="10"/></g></g></g></g><g fill="#5289b8" fill-opacity="1"><g transform="translate(108.084098, 32.273308)"><g><path d="M 12.84375 -7.84375 C 12.84375 -7.070312 12.757812 -6.222656 12.59375 -5.296875 C 12.425781 -4.378906 12.144531 -3.523438 11.75 -2.734375 C 11.351562 -1.941406 10.832031 -1.28125 10.1875 -0.75 C 9.550781 -0.226562 8.753906 0.03125 7.796875 0.03125 C 7.546875 0.03125 7.289062 0.015625 7.03125 -0.015625 C 6.769531 -0.0546875 6.519531 -0.117188 6.28125 -0.203125 C 6.039062 -0.296875 5.820312 -0.414062 5.625 -0.5625 C 5.4375 -0.71875 5.289062 -0.914062 5.1875 -1.15625 L 4.953125 2.625 C 4.929688 3.03125 4.914062 3.515625 4.90625 4.078125 C 4.894531 4.640625 4.820312 5.175781 4.6875 5.6875 C 4.5625 6.195312 4.34375 6.628906 4.03125 6.984375 C 3.726562 7.347656 3.289062 7.53125 2.71875 7.53125 C 2.382812 7.53125 2.101562 7.359375 1.875 7.015625 C 1.644531 6.671875 1.460938 6.234375 1.328125 5.703125 C 1.191406 5.179688 1.085938 4.59375 1.015625 3.9375 C 0.953125 3.289062 0.910156 2.671875 0.890625 2.078125 C 0.878906 1.484375 0.875 0.9375 0.875 0.4375 C 0.875 -0.0507812 0.875 -0.40625 0.875 -0.625 C 0.875 -1.800781 0.863281 -2.972656 0.84375 -4.140625 C 0.820312 -5.304688 0.8125 -6.476562 0.8125 -7.65625 C 0.8125 -7.863281 0.8125 -8.191406 0.8125 -8.640625 C 0.8125 -9.085938 0.828125 -9.570312 0.859375 -10.09375 C 0.898438 -10.625 0.957031 -11.171875 1.03125 -11.734375 C 1.113281 -12.296875 1.234375 -12.8125 1.390625 -13.28125 C 1.546875 -13.75 1.75 -14.125 2 -14.40625 C 2.25 -14.695312 2.546875 -14.84375 2.890625 -14.84375 C 3.117188 -14.84375 3.328125 -14.773438 3.515625 -14.640625 C 3.703125 -14.515625 3.859375 -14.347656 3.984375 -14.140625 C 4.117188 -13.941406 4.226562 -13.726562 4.3125 -13.5 C 4.40625 -13.269531 4.476562 -13.0625 4.53125 -12.875 C 5.070312 -13.488281 5.695312 -13.953125 6.40625 -14.265625 C 7.113281 -14.578125 7.875 -14.734375 8.6875 -14.734375 C 9.53125 -14.734375 10.21875 -14.492188 10.75 -14.015625 C 11.289062 -13.546875 11.710938 -12.960938 12.015625 -12.265625 C 12.316406 -11.566406 12.53125 -10.816406 12.65625 -10.015625 C 12.78125 -9.210938 12.84375 -8.488281 12.84375 -7.84375 Z M 9.078125 -8.046875 C 9.078125 -8.316406 9.054688 -8.585938 9.015625 -8.859375 C 8.972656 -9.128906 8.894531 -9.378906 8.78125 -9.609375 C 8.664062 -9.847656 8.5 -10.039062 8.28125 -10.1875 C 8.070312 -10.34375 7.8125 -10.421875 7.5 -10.421875 C 7.082031 -10.421875 6.640625 -10.285156 6.171875 -10.015625 C 5.703125 -9.742188 5.351562 -9.429688 5.125 -9.078125 C 5.039062 -8.941406 4.988281 -8.710938 4.96875 -8.390625 C 4.957031 -8.078125 4.953125 -7.84375 4.953125 -7.6875 C 4.953125 -7.5625 4.953125 -7.394531 4.953125 -7.1875 C 4.960938 -6.988281 4.976562 -6.785156 5 -6.578125 C 5.019531 -6.367188 5.039062 -6.164062 5.0625 -5.96875 C 5.09375 -5.78125 5.132812 -5.632812 5.1875 -5.53125 C 5.238281 -5.375 5.351562 -5.226562 5.53125 -5.09375 C 5.707031 -4.957031 5.898438 -4.835938 6.109375 -4.734375 C 6.316406 -4.628906 6.53125 -4.550781 6.75 -4.5 C 6.96875 -4.445312 7.15625 -4.421875 7.3125 -4.421875 C 7.6875 -4.421875 7.984375 -4.5625 8.203125 -4.84375 C 8.429688 -5.125 8.613281 -5.457031 8.75 -5.84375 C 8.882812 -6.226562 8.972656 -6.625 9.015625 -7.03125 C 9.054688 -7.445312 9.078125 -7.785156 9.078125 -8.046875 Z M 9.078125 -8.046875 "/></g></g></g><g fill="#5289b8" fill-opacity="1"><g transform="translate(125.819843, 32.273308)"><g><path d="M 11.96875 -3.71875 C 11.96875 -3.394531 11.953125 -2.976562 11.921875 -2.46875 C 11.898438 -1.957031 11.828125 -1.460938 11.703125 -0.984375 C 11.585938 -0.503906 11.394531 -0.0859375 11.125 0.265625 C 10.863281 0.617188 10.5 0.796875 10.03125 0.796875 C 9.375 0.796875 8.867188 0.582031 8.515625 0.15625 C 8.171875 -0.257812 8.007812 -0.785156 8.03125 -1.421875 C 7.46875 -0.929688 6.828125 -0.546875 6.109375 -0.265625 C 5.398438 0.015625 4.679688 0.15625 3.953125 0.15625 C 3.441406 0.15625 2.957031 0.0351562 2.5 -0.203125 C 2.039062 -0.453125 1.632812 -0.769531 1.28125 -1.15625 C 0.9375 -1.539062 0.65625 -1.972656 0.4375 -2.453125 C 0.226562 -2.941406 0.125 -3.421875 0.125 -3.890625 C 0.125 -4.734375 0.382812 -5.46875 0.90625 -6.09375 C 1.425781 -6.726562 2.0625 -7.269531 2.8125 -7.71875 C 3.570312 -8.164062 4.375 -8.519531 5.21875 -8.78125 C 6.070312 -9.050781 6.832031 -9.226562 7.5 -9.3125 C 7.5 -9.40625 7.503906 -9.484375 7.515625 -9.546875 C 7.523438 -9.617188 7.53125 -9.703125 7.53125 -9.796875 C 7.53125 -10.335938 7.378906 -10.773438 7.078125 -11.109375 C 6.785156 -11.441406 6.363281 -11.609375 5.8125 -11.609375 C 5.375 -11.609375 5 -11.53125 4.6875 -11.375 C 4.375 -11.226562 4.078125 -11.0625 3.796875 -10.875 C 3.515625 -10.695312 3.234375 -10.53125 2.953125 -10.375 C 2.671875 -10.226562 2.351562 -10.15625 2 -10.15625 C 1.613281 -10.15625 1.285156 -10.273438 1.015625 -10.515625 C 0.742188 -10.765625 0.609375 -11.082031 0.609375 -11.46875 C 0.609375 -12.050781 0.773438 -12.578125 1.109375 -13.046875 C 1.453125 -13.523438 1.882812 -13.925781 2.40625 -14.25 C 2.925781 -14.570312 3.488281 -14.828125 4.09375 -15.015625 C 4.695312 -15.203125 5.253906 -15.296875 5.765625 -15.296875 C 6.234375 -15.296875 6.703125 -15.238281 7.171875 -15.125 C 7.648438 -15.007812 8.097656 -14.832031 8.515625 -14.59375 C 8.941406 -14.351562 9.328125 -14.0625 9.671875 -13.71875 C 10.015625 -13.382812 10.289062 -12.988281 10.5 -12.53125 C 10.8125 -11.882812 11.066406 -11.195312 11.265625 -10.46875 C 11.460938 -9.738281 11.613281 -8.988281 11.71875 -8.21875 C 11.820312 -7.457031 11.890625 -6.695312 11.921875 -5.9375 C 11.953125 -5.175781 11.96875 -4.4375 11.96875 -3.71875 Z M 7.765625 -4.546875 L 7.6875 -6.34375 C 7.65625 -6.34375 7.617188 -6.347656 7.578125 -6.359375 C 7.546875 -6.367188 7.507812 -6.375 7.46875 -6.375 C 7.25 -6.375 6.96875 -6.316406 6.625 -6.203125 C 6.28125 -6.085938 5.945312 -5.925781 5.625 -5.71875 C 5.3125 -5.519531 5.046875 -5.296875 4.828125 -5.046875 C 4.609375 -4.804688 4.5 -4.554688 4.5 -4.296875 C 4.5 -4.046875 4.585938 -3.875 4.765625 -3.78125 C 4.941406 -3.695312 5.144531 -3.65625 5.375 -3.65625 C 5.757812 -3.65625 6.171875 -3.753906 6.609375 -3.953125 C 7.046875 -4.160156 7.429688 -4.359375 7.765625 -4.546875 Z M 7.765625 -4.546875 "/></g></g></g><g fill="#5289b8" fill-opacity="1"><g transform="translate(142.660408, 32.273308)"><g><path d="M 9.921875 -9.84375 C 9.671875 -9.820312 9.457031 -9.84375 9.28125 -9.90625 C 9.113281 -9.96875 8.941406 -10.035156 8.765625 -10.109375 C 8.609375 -10.179688 8.445312 -10.242188 8.28125 -10.296875 C 8.125 -10.359375 7.953125 -10.382812 7.765625 -10.375 C 7.410156 -10.351562 7.097656 -10.253906 6.828125 -10.078125 C 6.554688 -9.898438 6.3125 -9.679688 6.09375 -9.421875 C 5.875 -9.160156 5.6875 -8.863281 5.53125 -8.53125 C 5.375 -8.207031 5.25 -7.890625 5.15625 -7.578125 C 5.101562 -7.367188 5.0625 -7.046875 5.03125 -6.609375 C 5.007812 -6.179688 5 -5.722656 5 -5.234375 C 4.976562 -4.722656 4.96875 -4.238281 4.96875 -3.78125 C 4.96875 -3.332031 4.953125 -2.976562 4.921875 -2.71875 C 4.898438 -2.4375 4.851562 -2.101562 4.78125 -1.71875 C 4.71875 -1.34375 4.609375 -0.988281 4.453125 -0.65625 C 4.304688 -0.320312 4.109375 -0.0390625 3.859375 0.1875 C 3.617188 0.414062 3.304688 0.53125 2.921875 0.53125 C 2.617188 0.53125 2.359375 0.441406 2.140625 0.265625 C 1.921875 0.0859375 1.738281 -0.144531 1.59375 -0.4375 C 1.445312 -0.726562 1.320312 -1.066406 1.21875 -1.453125 C 1.125 -1.835938 1.050781 -2.226562 1 -2.625 C 0.945312 -3.050781 0.90625 -3.472656 0.875 -3.890625 C 0.851562 -4.316406 0.835938 -4.71875 0.828125 -5.09375 C 0.816406 -5.46875 0.816406 -5.8125 0.828125 -6.125 C 0.835938 -6.445312 0.84375 -6.703125 0.84375 -6.890625 C 0.820312 -7.503906 0.789062 -8.125 0.75 -8.75 C 0.707031 -9.375 0.6875 -9.992188 0.6875 -10.609375 C 0.6875 -10.992188 0.703125 -11.421875 0.734375 -11.890625 C 0.773438 -12.367188 0.875 -12.8125 1.03125 -13.21875 C 1.1875 -13.632812 1.414062 -13.984375 1.71875 -14.265625 C 2.03125 -14.546875 2.457031 -14.6875 3 -14.6875 C 3.300781 -14.6875 3.554688 -14.585938 3.765625 -14.390625 C 3.972656 -14.203125 4.140625 -13.96875 4.265625 -13.6875 C 4.398438 -13.40625 4.503906 -13.101562 4.578125 -12.78125 C 4.648438 -12.46875 4.695312 -12.179688 4.71875 -11.921875 C 5.132812 -12.609375 5.601562 -13.164062 6.125 -13.59375 C 6.65625 -14.019531 7.34375 -14.253906 8.1875 -14.296875 C 8.601562 -14.304688 9.019531 -14.265625 9.4375 -14.171875 C 9.851562 -14.078125 10.226562 -13.921875 10.5625 -13.703125 C 10.90625 -13.484375 11.1875 -13.195312 11.40625 -12.84375 C 11.625 -12.488281 11.742188 -12.078125 11.765625 -11.609375 C 11.796875 -11.046875 11.628906 -10.613281 11.265625 -10.3125 C 10.898438 -10.019531 10.453125 -9.863281 9.921875 -9.84375 Z M 9.921875 -9.84375 "/></g></g></g><g fill="#5289b8" fill-opacity="1"><g transform="translate(158.105542, 32.273308)"><g><path d="M 11.96875 -3.71875 C 11.96875 -3.394531 11.953125 -2.976562 11.921875 -2.46875 C 11.898438 -1.957031 11.828125 -1.460938 11.703125 -0.984375 C 11.585938 -0.503906 11.394531 -0.0859375 11.125 0.265625 C 10.863281 0.617188 10.5 0.796875 10.03125 0.796875 C 9.375 0.796875 8.867188 0.582031 8.515625 0.15625 C 8.171875 -0.257812 8.007812 -0.785156 8.03125 -1.421875 C 7.46875 -0.929688 6.828125 -0.546875 6.109375 -0.265625 C 5.398438 0.015625 4.679688 0.15625 3.953125 0.15625 C 3.441406 0.15625 2.957031 0.0351562 2.5 -0.203125 C 2.039062 -0.453125 1.632812 -0.769531 1.28125 -1.15625 C 0.9375 -1.539062 0.65625 -1.972656 0.4375 -2.453125 C 0.226562 -2.941406 0.125 -3.421875 0.125 -3.890625 C 0.125 -4.734375 0.382812 -5.46875 0.90625 -6.09375 C 1.425781 -6.726562 2.0625 -7.269531 2.8125 -7.71875 C 3.570312 -8.164062 4.375 -8.519531 5.21875 -8.78125 C 6.070312 -9.050781 6.832031 -9.226562 7.5 -9.3125 C 7.5 -9.40625 7.503906 -9.484375 7.515625 -9.546875 C 7.523438 -9.617188 7.53125 -9.703125 7.53125 -9.796875 C 7.53125 -10.335938 7.378906 -10.773438 7.078125 -11.109375 C 6.785156 -11.441406 6.363281 -11.609375 5.8125 -11.609375 C 5.375 -11.609375 5 -11.53125 4.6875 -11.375 C 4.375 -11.226562 4.078125 -11.0625 3.796875 -10.875 C 3.515625 -10.695312 3.234375 -10.53125 2.953125 -10.375 C 2.671875 -10.226562 2.351562 -10.15625 2 -10.15625 C 1.613281 -10.15625 1.285156 -10.273438 1.015625 -10.515625 C 0.742188 -10.765625 0.609375 -11.082031 0.609375 -11.46875 C 0.609375 -12.050781 0.773438 -12.578125 1.109375 -13.046875 C 1.453125 -13.523438 1.882812 -13.925781 2.40625 -14.25 C 2.925781 -14.570312 3.488281 -14.828125 4.09375 -15.015625 C 4.695312 -15.203125 5.253906 -15.296875 5.765625 -15.296875 C 6.234375 -15.296875 6.703125 -15.238281 7.171875 -15.125 C 7.648438 -15.007812 8.097656 -14.832031 8.515625 -14.59375 C 8.941406 -14.351562 9.328125 -14.0625 9.671875 -13.71875 C 10.015625 -13.382812 10.289062 -12.988281 10.5 -12.53125 C 10.8125 -11.882812 11.066406 -11.195312 11.265625 -10.46875 C 11.460938 -9.738281 11.613281 -8.988281 11.71875 -8.21875 C 11.820312 -7.457031 11.890625 -6.695312 11.921875 -5.9375 C 11.953125 -5.175781 11.96875 -4.4375 11.96875 -3.71875 Z M 7.765625 -4.546875 L 7.6875 -6.34375 C 7.65625 -6.34375 7.617188 -6.347656 7.578125 -6.359375 C 7.546875 -6.367188 7.507812 -6.375 7.46875 -6.375 C 7.25 -6.375 6.96875 -6.316406 6.625 -6.203125 C 6.28125 -6.085938 5.945312 -5.925781 5.625 -5.71875 C 5.3125 -5.519531 5.046875 -5.296875 4.828125 -5.046875 C 4.609375 -4.804688 4.5 -4.554688 4.5 -4.296875 C 4.5 -4.046875 4.585938 -3.875 4.765625 -3.78125 C 4.941406 -3.695312 5.144531 -3.65625 5.375 -3.65625 C 5.757812 -3.65625 6.171875 -3.753906 6.609375 -3.953125 C 7.046875 -4.160156 7.429688 -4.359375 7.765625 -4.546875 Z M 7.765625 -4.546875 "/></g></g></g><g fill="#5289b8" fill-opacity="1"><g transform="translate(174.946106, 32.273308)"><g><path d="M 13.234375 -8.6875 C 13.234375 -8.175781 13.191406 -7.597656 13.109375 -6.953125 C 13.035156 -6.316406 12.914062 -5.664062 12.75 -5 C 12.582031 -4.332031 12.363281 -3.679688 12.09375 -3.046875 C 11.820312 -2.421875 11.488281 -1.859375 11.09375 -1.359375 C 10.695312 -0.859375 10.238281 -0.457031 9.71875 -0.15625 C 9.207031 0.144531 8.609375 0.296875 7.921875 0.296875 C 7.203125 0.296875 6.546875 0.128906 5.953125 -0.203125 C 5.367188 -0.535156 4.867188 -0.992188 4.453125 -1.578125 C 4.398438 -1.109375 4.207031 -0.691406 3.875 -0.328125 C 3.539062 0.0234375 3.117188 0.203125 2.609375 0.203125 C 2.304688 0.203125 2.050781 0.0546875 1.84375 -0.234375 C 1.644531 -0.535156 1.484375 -0.914062 1.359375 -1.375 C 1.242188 -1.84375 1.15625 -2.359375 1.09375 -2.921875 C 1.03125 -3.484375 0.988281 -4.023438 0.96875 -4.546875 C 0.957031 -5.078125 0.953125 -5.550781 0.953125 -5.96875 C 0.953125 -6.394531 0.953125 -6.695312 0.953125 -6.875 C 0.953125 -7.46875 0.953125 -8.0625 0.953125 -8.65625 C 0.960938 -9.25 0.976562 -9.851562 1 -10.46875 C 1 -10.769531 0.992188 -11.21875 0.984375 -11.8125 C 0.972656 -12.414062 0.976562 -13.078125 1 -13.796875 C 1.019531 -14.523438 1.054688 -15.269531 1.109375 -16.03125 C 1.171875 -16.800781 1.28125 -17.5 1.4375 -18.125 C 1.601562 -18.757812 1.828125 -19.28125 2.109375 -19.6875 C 2.390625 -20.09375 2.75 -20.300781 3.1875 -20.3125 C 3.539062 -20.3125 3.835938 -20.1875 4.078125 -19.9375 C 4.328125 -19.695312 4.535156 -19.375 4.703125 -18.96875 C 4.867188 -18.570312 5 -18.125 5.09375 -17.625 C 5.1875 -17.125 5.253906 -16.625 5.296875 -16.125 C 5.347656 -15.625 5.375 -15.148438 5.375 -14.703125 C 5.382812 -14.253906 5.390625 -13.890625 5.390625 -13.609375 C 5.390625 -13.554688 5.382812 -13.4375 5.375 -13.25 C 5.375 -13.0625 5.375 -12.863281 5.375 -12.65625 C 5.375 -12.445312 5.375 -12.257812 5.375 -12.09375 C 5.375 -11.925781 5.375 -11.832031 5.375 -11.8125 C 5.53125 -12.144531 5.753906 -12.46875 6.046875 -12.78125 C 6.347656 -13.101562 6.679688 -13.382812 7.046875 -13.625 C 7.421875 -13.875 7.804688 -14.078125 8.203125 -14.234375 C 8.609375 -14.398438 9 -14.484375 9.375 -14.484375 C 10.101562 -14.484375 10.71875 -14.289062 11.21875 -13.90625 C 11.71875 -13.53125 12.117188 -13.050781 12.421875 -12.46875 C 12.722656 -11.894531 12.929688 -11.269531 13.046875 -10.59375 C 13.171875 -9.914062 13.234375 -9.28125 13.234375 -8.6875 Z M 9.375 -7.890625 C 9.375 -8.109375 9.359375 -8.335938 9.328125 -8.578125 C 9.304688 -8.828125 9.242188 -9.054688 9.140625 -9.265625 C 9.046875 -9.472656 8.914062 -9.644531 8.75 -9.78125 C 8.582031 -9.925781 8.367188 -10 8.109375 -10 C 7.828125 -10 7.550781 -9.9375 7.28125 -9.8125 C 7.007812 -9.695312 6.75 -9.539062 6.5 -9.34375 C 6.257812 -9.144531 6.03125 -8.9375 5.8125 -8.71875 C 5.601562 -8.5 5.421875 -8.285156 5.265625 -8.078125 L 5 -5.734375 C 5.28125 -5.328125 5.625 -5.003906 6.03125 -4.765625 C 6.4375 -4.535156 6.890625 -4.421875 7.390625 -4.421875 C 7.773438 -4.421875 8.09375 -4.539062 8.34375 -4.78125 C 8.601562 -5.03125 8.804688 -5.332031 8.953125 -5.6875 C 9.109375 -6.050781 9.21875 -6.4375 9.28125 -6.84375 C 9.34375 -7.25 9.375 -7.597656 9.375 -7.890625 Z M 9.375 -7.890625 "/></g></g></g><g fill="#5289b8" fill-opacity="1"><g transform="translate(193.076784, 32.273308)"><g><path d="M 11.8125 -4.6875 C 11.8125 -4.09375 11.625 -3.507812 11.25 -2.9375 C 10.875 -2.363281 10.398438 -1.851562 9.828125 -1.40625 C 9.253906 -0.957031 8.644531 -0.597656 8 -0.328125 C 7.351562 -0.0546875 6.757812 0.078125 6.21875 0.078125 C 5.28125 0.078125 4.445312 -0.148438 3.71875 -0.609375 C 2.988281 -1.078125 2.378906 -1.671875 1.890625 -2.390625 C 1.398438 -3.109375 1.023438 -3.898438 0.765625 -4.765625 C 0.515625 -5.640625 0.390625 -6.488281 0.390625 -7.3125 C 0.390625 -8.195312 0.507812 -9.140625 0.75 -10.140625 C 1 -11.140625 1.375 -12.054688 1.875 -12.890625 C 2.375 -13.734375 3.003906 -14.4375 3.765625 -15 C 4.535156 -15.5625 5.445312 -15.84375 6.5 -15.84375 C 7.09375 -15.84375 7.660156 -15.738281 8.203125 -15.53125 C 8.753906 -15.332031 9.226562 -15.050781 9.625 -14.6875 C 10.03125 -14.320312 10.351562 -13.882812 10.59375 -13.375 C 10.84375 -12.863281 10.96875 -12.289062 10.96875 -11.65625 C 10.96875 -10.832031 10.789062 -10.0625 10.4375 -9.34375 C 10.09375 -8.625 9.628906 -8 9.046875 -7.46875 C 8.472656 -6.945312 7.804688 -6.523438 7.046875 -6.203125 C 6.296875 -5.878906 5.523438 -5.695312 4.734375 -5.65625 C 4.804688 -5.144531 5.015625 -4.773438 5.359375 -4.546875 C 5.703125 -4.328125 6.109375 -4.21875 6.578125 -4.21875 C 6.929688 -4.21875 7.273438 -4.300781 7.609375 -4.46875 C 7.941406 -4.644531 8.265625 -4.84375 8.578125 -5.0625 C 8.890625 -5.28125 9.195312 -5.476562 9.5 -5.65625 C 9.8125 -5.832031 10.128906 -5.921875 10.453125 -5.921875 C 10.796875 -5.921875 11.109375 -5.804688 11.390625 -5.578125 C 11.671875 -5.347656 11.8125 -5.050781 11.8125 -4.6875 Z M 7.546875 -11.140625 C 7.546875 -11.359375 7.484375 -11.59375 7.359375 -11.84375 C 7.242188 -12.09375 7.054688 -12.21875 6.796875 -12.21875 C 6.410156 -12.21875 6.082031 -12.113281 5.8125 -11.90625 C 5.550781 -11.707031 5.332031 -11.453125 5.15625 -11.140625 C 4.976562 -10.835938 4.84375 -10.507812 4.75 -10.15625 C 4.65625 -9.8125 4.597656 -9.488281 4.578125 -9.1875 C 4.828125 -9.238281 5.117188 -9.304688 5.453125 -9.390625 C 5.796875 -9.484375 6.117188 -9.601562 6.421875 -9.75 C 6.734375 -9.894531 7 -10.082031 7.21875 -10.3125 C 7.4375 -10.539062 7.546875 -10.816406 7.546875 -11.140625 Z M 9.03125 -20.484375 C 9.03125 -20.285156 8.972656 -20.09375 8.859375 -19.90625 C 8.753906 -19.726562 8.628906 -19.554688 8.484375 -19.390625 C 8.335938 -19.234375 8.175781 -19.085938 8 -18.953125 C 7.820312 -18.828125 7.664062 -18.710938 7.53125 -18.609375 C 7.40625 -18.523438 7.265625 -18.425781 7.109375 -18.3125 C 6.960938 -18.195312 6.804688 -18.085938 6.640625 -17.984375 C 6.472656 -17.890625 6.304688 -17.804688 6.140625 -17.734375 C 5.972656 -17.671875 5.8125 -17.640625 5.65625 -17.640625 C 5.507812 -17.640625 5.382812 -17.675781 5.28125 -17.75 C 5.175781 -17.832031 5.125 -17.953125 5.125 -18.109375 C 5.125 -18.367188 5.222656 -18.6875 5.421875 -19.0625 C 5.628906 -19.445312 5.878906 -19.816406 6.171875 -20.171875 C 6.472656 -20.535156 6.789062 -20.84375 7.125 -21.09375 C 7.457031 -21.351562 7.765625 -21.484375 8.046875 -21.484375 C 8.296875 -21.484375 8.519531 -21.378906 8.71875 -21.171875 C 8.925781 -20.972656 9.03125 -20.742188 9.03125 -20.484375 Z M 9.03125 -20.484375 "/></g></g></g><g fill="#5289b8" fill-opacity="1"><g transform="translate(209.232798, 32.273308)"><g><path d="M 8.265625 0.734375 C 7.960938 0.734375 7.722656 0.597656 7.546875 0.328125 C 7.378906 0.0546875 7.25 -0.25 7.15625 -0.59375 C 7.070312 -0.945312 7.015625 -1.304688 6.984375 -1.671875 C 6.960938 -2.035156 6.953125 -2.3125 6.953125 -2.5 C 6.953125 -3.03125 6.984375 -3.554688 7.046875 -4.078125 C 7.109375 -4.609375 7.175781 -5.132812 7.25 -5.65625 C 7.332031 -6.1875 7.398438 -6.710938 7.453125 -7.234375 C 7.515625 -7.765625 7.546875 -8.289062 7.546875 -8.8125 C 7.546875 -9.03125 7.535156 -9.257812 7.515625 -9.5 C 7.503906 -9.75 7.46875 -9.984375 7.40625 -10.203125 C 7.34375 -10.421875 7.238281 -10.597656 7.09375 -10.734375 C 6.957031 -10.878906 6.773438 -10.953125 6.546875 -10.953125 C 6.390625 -10.953125 6.210938 -10.820312 6.015625 -10.5625 C 5.828125 -10.3125 5.648438 -10.023438 5.484375 -9.703125 C 5.316406 -9.378906 5.175781 -9.050781 5.0625 -8.71875 C 4.945312 -8.394531 4.890625 -8.15625 4.890625 -8 C 4.890625 -7.613281 4.894531 -7.222656 4.90625 -6.828125 C 4.914062 -6.429688 4.921875 -6.03125 4.921875 -5.625 L 4.921875 -4.109375 C 4.898438 -3.785156 4.875 -3.457031 4.84375 -3.125 C 4.8125 -2.789062 4.757812 -2.46875 4.6875 -2.15625 C 4.632812 -1.84375 4.554688 -1.539062 4.453125 -1.25 C 4.347656 -0.957031 4.210938 -0.703125 4.046875 -0.484375 C 3.878906 -0.265625 3.679688 -0.0859375 3.453125 0.046875 C 3.222656 0.191406 2.945312 0.265625 2.625 0.265625 C 2.28125 0.265625 1.992188 0.148438 1.765625 -0.078125 C 1.535156 -0.304688 1.347656 -0.597656 1.203125 -0.953125 C 1.066406 -1.316406 0.96875 -1.722656 0.90625 -2.171875 C 0.84375 -2.617188 0.796875 -3.054688 0.765625 -3.484375 C 0.742188 -3.910156 0.738281 -4.304688 0.75 -4.671875 C 0.757812 -5.035156 0.765625 -5.320312 0.765625 -5.53125 L 0.765625 -6.765625 C 0.765625 -7.429688 0.75 -8.085938 0.71875 -8.734375 C 0.695312 -9.390625 0.6875 -10.039062 0.6875 -10.6875 C 0.6875 -11.039062 0.6875 -11.488281 0.6875 -12.03125 C 0.695312 -12.570312 0.765625 -13.097656 0.890625 -13.609375 C 1.015625 -14.128906 1.21875 -14.570312 1.5 -14.9375 C 1.78125 -15.3125 2.191406 -15.5 2.734375 -15.5 C 2.984375 -15.5 3.203125 -15.421875 3.390625 -15.265625 C 3.585938 -15.109375 3.757812 -14.914062 3.90625 -14.6875 C 4.050781 -14.457031 4.171875 -14.210938 4.265625 -13.953125 C 4.367188 -13.691406 4.445312 -13.460938 4.5 -13.265625 C 4.675781 -13.515625 4.878906 -13.75 5.109375 -13.96875 C 5.347656 -14.195312 5.617188 -14.398438 5.921875 -14.578125 C 6.222656 -14.753906 6.554688 -14.894531 6.921875 -15 C 7.285156 -15.101562 7.707031 -15.15625 8.1875 -15.15625 C 9.082031 -15.15625 9.78125 -14.941406 10.28125 -14.515625 C 10.78125 -14.085938 11.144531 -13.550781 11.375 -12.90625 C 11.613281 -12.269531 11.757812 -11.582031 11.8125 -10.84375 C 11.863281 -10.101562 11.890625 -9.4375 11.890625 -8.84375 C 11.890625 -8.539062 11.863281 -8.097656 11.8125 -7.515625 C 11.757812 -6.929688 11.675781 -6.28125 11.5625 -5.5625 C 11.445312 -4.851562 11.289062 -4.125 11.09375 -3.375 C 10.90625 -2.632812 10.679688 -1.957031 10.421875 -1.34375 C 10.160156 -0.726562 9.847656 -0.226562 9.484375 0.15625 C 9.128906 0.539062 8.722656 0.734375 8.265625 0.734375 Z M 8.265625 0.734375 "/></g></g></g><g fill="#5289b8" fill-opacity="1"><g transform="translate(225.88906, 32.273308)"><g><path d="M 8.5 -14.484375 C 8.5 -13.972656 8.328125 -13.59375 7.984375 -13.34375 C 7.640625 -13.09375 7.257812 -12.859375 6.84375 -12.640625 C 6.425781 -12.421875 6.046875 -12.160156 5.703125 -11.859375 C 5.359375 -11.566406 5.1875 -11.125 5.1875 -10.53125 C 5.1875 -10.21875 5.257812 -9.945312 5.40625 -9.71875 C 5.550781 -9.488281 5.734375 -9.28125 5.953125 -9.09375 C 6.179688 -8.90625 6.425781 -8.710938 6.6875 -8.515625 C 6.945312 -8.328125 7.1875 -8.109375 7.40625 -7.859375 C 7.625 -7.617188 7.804688 -7.320312 7.953125 -6.96875 C 8.109375 -6.625 8.1875 -6.195312 8.1875 -5.6875 C 8.1875 -4.945312 7.992188 -4.222656 7.609375 -3.515625 C 7.234375 -2.804688 6.753906 -2.175781 6.171875 -1.625 C 5.585938 -1.070312 4.925781 -0.628906 4.1875 -0.296875 C 3.445312 0.0351562 2.71875 0.203125 2 0.203125 C 1.695312 0.203125 1.394531 0.179688 1.09375 0.140625 C 0.800781 0.0976562 0.535156 0.015625 0.296875 -0.109375 C 0.0664062 -0.234375 -0.125 -0.40625 -0.28125 -0.625 C -0.445312 -0.84375 -0.53125 -1.125 -0.53125 -1.46875 C -0.53125 -1.96875 -0.429688 -2.351562 -0.234375 -2.625 C -0.046875 -2.894531 0.195312 -3.109375 0.5 -3.265625 C 0.800781 -3.421875 1.117188 -3.539062 1.453125 -3.625 C 1.796875 -3.71875 2.117188 -3.828125 2.421875 -3.953125 C 2.722656 -4.085938 2.96875 -4.257812 3.15625 -4.46875 C 3.351562 -4.6875 3.453125 -4.988281 3.453125 -5.375 C 3.453125 -5.738281 3.304688 -6.117188 3.015625 -6.515625 C 2.722656 -6.910156 2.398438 -7.332031 2.046875 -7.78125 C 1.703125 -8.226562 1.382812 -8.703125 1.09375 -9.203125 C 0.800781 -9.710938 0.65625 -10.273438 0.65625 -10.890625 C 0.65625 -11.648438 0.804688 -12.347656 1.109375 -12.984375 C 1.421875 -13.628906 1.832031 -14.1875 2.34375 -14.65625 C 2.863281 -15.132812 3.457031 -15.507812 4.125 -15.78125 C 4.789062 -16.050781 5.492188 -16.1875 6.234375 -16.1875 C 6.515625 -16.1875 6.789062 -16.160156 7.0625 -16.109375 C 7.332031 -16.054688 7.570312 -15.960938 7.78125 -15.828125 C 8 -15.703125 8.171875 -15.53125 8.296875 -15.3125 C 8.429688 -15.09375 8.5 -14.816406 8.5 -14.484375 Z M 8.5 -14.484375 "/></g></g></g></svg>