<svg xmlns="http://www.w3.org/2000/svg" xmlns:xlink="http://www.w3.org/1999/xlink" width="239" zoomAndPan="magnify" viewBox="0 0 179.25 46.499999" height="62" preserveAspectRatio="xMidYMid meet" version="1.0"><defs><g/><clipPath id="d3440956d9"><path d="M 0.582031 0.113281 L 177.609375 0.113281 L 177.609375 45.480469 L 0.582031 45.480469 Z M 0.582031 0.113281 " clip-rule="nonzero"/></clipPath><clipPath id="8ec271ee89"><path d="M 23.265625 0.113281 L 154.832031 0.113281 C 160.847656 0.113281 166.617188 2.503906 170.871094 6.757812 C 175.125 11.011719 177.515625 16.78125 177.515625 22.796875 C 177.515625 28.8125 175.125 34.582031 170.871094 38.835938 C 166.617188 43.089844 160.847656 45.480469 154.832031 45.480469 L 23.265625 45.480469 C 17.25 45.480469 11.480469 43.089844 7.226562 38.835938 C 2.972656 34.582031 0.582031 28.8125 0.582031 22.796875 C 0.582031 16.78125 2.972656 11.011719 7.226562 6.757812 C 11.480469 2.503906 17.25 0.113281 23.265625 0.113281 Z M 23.265625 0.113281 " clip-rule="nonzero"/></clipPath><clipPath id="1fa8e22b30"><path d="M 0.582031 0.113281 L 177.609375 0.113281 L 177.609375 45.480469 L 0.582031 45.480469 Z M 0.582031 0.113281 " clip-rule="nonzero"/></clipPath><clipPath id="3a77fb0379"><path d="M 23.265625 0.113281 L 154.832031 0.113281 C 160.847656 0.113281 166.617188 2.503906 170.871094 6.757812 C 175.125 11.011719 177.515625 16.78125 177.515625 22.796875 C 177.515625 28.8125 175.125 34.582031 170.871094 38.835938 C 166.617188 43.089844 160.847656 45.480469 154.832031 45.480469 L 23.265625 45.480469 C 17.25 45.480469 11.480469 43.089844 7.226562 38.835938 C 2.972656 34.582031 0.582031 28.8125 0.582031 22.796875 C 0.582031 16.78125 2.972656 11.011719 7.226562 6.757812 C 11.480469 2.503906 17.25 0.113281 23.265625 0.113281 Z M 23.265625 0.113281 " clip-rule="nonzero"/></clipPath><clipPath id="b9ef01ae68"><rect x="0" width="178" y="0" height="46"/></clipPath></defs><g clip-path="url(#d3440956d9)"><g clip-path="url(#8ec271ee89)"><g transform="matrix(1, 0, 0, 1, 0.000000000000000111, 0)"><g clip-path="url(#b9ef01ae68)"><g clip-path="url(#1fa8e22b30)"><g clip-path="url(#3a77fb0379)"><path fill="#e8f0f6" d="M 0.582031 0.113281 L 177.433594 0.113281 L 177.433594 45.480469 L 0.582031 45.480469 Z M 0.582031 0.113281 " fill-opacity="1" fill-rule="nonzero"/></g></g></g></g></g></g><g fill="#5289b8" fill-opacity="1"><g transform="translate(28.274563, 31.70019)"><g><path d="M 8.421875 -14.34375 C 8.421875 -13.84375 8.25 -13.46875 7.90625 -13.21875 C 7.570312 -12.976562 7.195312 -12.75 6.78125 -12.53125 C 6.363281 -12.320312 5.984375 -12.066406 5.640625 -11.765625 C 5.304688 -11.472656 5.140625 -11.03125 5.140625 -10.4375 C 5.140625 -10.125 5.210938 -9.851562 5.359375 -9.625 C 5.503906 -9.394531 5.6875 -9.1875 5.90625 -9 C 6.125 -8.820312 6.363281 -8.640625 6.625 -8.453125 C 6.882812 -8.265625 7.125 -8.046875 7.34375 -7.796875 C 7.5625 -7.554688 7.742188 -7.257812 7.890625 -6.90625 C 8.035156 -6.5625 8.109375 -6.140625 8.109375 -5.640625 C 8.109375 -4.910156 7.921875 -4.191406 7.546875 -3.484375 C 7.179688 -2.773438 6.707031 -2.144531 6.125 -1.59375 C 5.539062 -1.050781 4.878906 -0.613281 4.140625 -0.28125 C 3.410156 0.0390625 2.691406 0.203125 1.984375 0.203125 C 1.691406 0.203125 1.394531 0.179688 1.09375 0.140625 C 0.800781 0.0976562 0.535156 0.0195312 0.296875 -0.09375 C 0.0664062 -0.21875 -0.125 -0.390625 -0.28125 -0.609375 C -0.4375 -0.828125 -0.515625 -1.113281 -0.515625 -1.46875 C -0.515625 -1.945312 -0.421875 -2.320312 -0.234375 -2.59375 C -0.046875 -2.863281 0.191406 -3.078125 0.484375 -3.234375 C 0.785156 -3.390625 1.101562 -3.507812 1.4375 -3.59375 C 1.78125 -3.6875 2.097656 -3.796875 2.390625 -3.921875 C 2.691406 -4.054688 2.9375 -4.226562 3.125 -4.4375 C 3.320312 -4.644531 3.421875 -4.941406 3.421875 -5.328125 C 3.421875 -5.691406 3.273438 -6.066406 2.984375 -6.453125 C 2.703125 -6.847656 2.382812 -7.265625 2.03125 -7.703125 C 1.6875 -8.148438 1.367188 -8.625 1.078125 -9.125 C 0.796875 -9.632812 0.65625 -10.191406 0.65625 -10.796875 C 0.65625 -11.546875 0.804688 -12.238281 1.109375 -12.875 C 1.410156 -13.507812 1.816406 -14.0625 2.328125 -14.53125 C 2.847656 -15 3.4375 -15.367188 4.09375 -15.640625 C 4.757812 -15.910156 5.457031 -16.046875 6.1875 -16.046875 C 6.457031 -16.046875 6.726562 -16.019531 7 -15.96875 C 7.269531 -15.914062 7.507812 -15.820312 7.71875 -15.6875 C 7.925781 -15.5625 8.09375 -15.390625 8.21875 -15.171875 C 8.351562 -14.953125 8.421875 -14.675781 8.421875 -14.34375 Z M 8.421875 -14.34375 "/></g></g></g><g fill="#5289b8" fill-opacity="1"><g transform="translate(38.991593, 31.70019)"><g><path d="M 6.859375 0.9375 C 5.628906 0.9375 4.671875 0.773438 3.984375 0.453125 C 3.296875 0.128906 2.78125 -0.320312 2.4375 -0.90625 C 2.101562 -1.5 1.898438 -2.210938 1.828125 -3.046875 C 1.753906 -3.890625 1.71875 -4.820312 1.71875 -5.84375 C 1.71875 -6.664062 1.742188 -7.488281 1.796875 -8.3125 C 1.847656 -9.132812 1.925781 -10.015625 2.03125 -10.953125 C 1.789062 -10.953125 1.597656 -10.945312 1.453125 -10.9375 C 1.316406 -10.9375 1.207031 -10.9375 1.125 -10.9375 C 0.5625 -10.9375 0.078125 -11.054688 -0.328125 -11.296875 C -0.734375 -11.535156 -0.9375 -11.910156 -0.9375 -12.421875 C -0.9375 -12.734375 -0.816406 -13.007812 -0.578125 -13.25 C -0.347656 -13.5 -0.0507812 -13.707031 0.3125 -13.875 C 0.675781 -14.050781 1.070312 -14.191406 1.5 -14.296875 C 1.925781 -14.398438 2.332031 -14.46875 2.71875 -14.5 C 2.71875 -14.988281 2.75 -15.53125 2.8125 -16.125 C 2.882812 -16.71875 3.007812 -17.269531 3.1875 -17.78125 C 3.375 -18.289062 3.625 -18.71875 3.9375 -19.0625 C 4.25 -19.414062 4.648438 -19.59375 5.140625 -19.59375 C 5.421875 -19.59375 5.664062 -19.507812 5.875 -19.34375 C 6.09375 -19.175781 6.269531 -18.96875 6.40625 -18.71875 C 6.550781 -18.46875 6.660156 -18.1875 6.734375 -17.875 C 6.804688 -17.5625 6.84375 -17.253906 6.84375 -16.953125 C 6.84375 -16.609375 6.816406 -16.253906 6.765625 -15.890625 C 6.710938 -15.523438 6.613281 -15.070312 6.46875 -14.53125 C 6.769531 -14.5625 6.972656 -14.582031 7.078125 -14.59375 C 7.179688 -14.601562 7.273438 -14.609375 7.359375 -14.609375 C 7.648438 -14.609375 7.957031 -14.582031 8.28125 -14.53125 C 8.601562 -14.476562 8.898438 -14.390625 9.171875 -14.265625 C 9.441406 -14.148438 9.660156 -13.988281 9.828125 -13.78125 C 10.003906 -13.582031 10.09375 -13.347656 10.09375 -13.078125 C 10.09375 -12.765625 9.96875 -12.484375 9.71875 -12.234375 C 9.46875 -11.992188 9.148438 -11.785156 8.765625 -11.609375 C 8.378906 -11.429688 7.96875 -11.296875 7.53125 -11.203125 C 7.101562 -11.109375 6.695312 -11.046875 6.3125 -11.015625 C 6.207031 -10.296875 6.132812 -9.632812 6.09375 -9.03125 C 6.050781 -8.4375 6.003906 -7.835938 5.953125 -7.234375 C 5.910156 -6.929688 5.875 -6.628906 5.84375 -6.328125 C 5.820312 -6.023438 5.8125 -5.71875 5.8125 -5.40625 C 5.8125 -5.175781 5.820312 -4.910156 5.84375 -4.609375 C 5.863281 -4.304688 5.925781 -4.015625 6.03125 -3.734375 C 6.132812 -3.453125 6.296875 -3.210938 6.515625 -3.015625 C 6.742188 -2.816406 7.0625 -2.71875 7.46875 -2.71875 C 7.707031 -2.71875 7.957031 -2.738281 8.21875 -2.78125 C 8.476562 -2.820312 8.738281 -2.84375 9 -2.84375 C 9.457031 -2.84375 9.785156 -2.6875 9.984375 -2.375 C 10.179688 -2.0625 10.28125 -1.660156 10.28125 -1.171875 C 10.28125 -0.804688 10.171875 -0.488281 9.953125 -0.21875 C 9.734375 0.0507812 9.457031 0.265625 9.125 0.421875 C 8.800781 0.585938 8.429688 0.710938 8.015625 0.796875 C 7.609375 0.890625 7.222656 0.9375 6.859375 0.9375 Z M 6.859375 0.9375 "/></g></g></g><g fill="#5289b8" fill-opacity="1"><g transform="translate(51.039044, 31.70019)"><g><path d="M 9.84375 -9.765625 C 9.59375 -9.742188 9.378906 -9.765625 9.203125 -9.828125 C 9.035156 -9.890625 8.863281 -9.953125 8.6875 -10.015625 C 8.53125 -10.085938 8.375 -10.15625 8.21875 -10.21875 C 8.0625 -10.28125 7.890625 -10.300781 7.703125 -10.28125 C 7.347656 -10.257812 7.035156 -10.160156 6.765625 -9.984375 C 6.492188 -9.816406 6.25 -9.601562 6.03125 -9.34375 C 5.820312 -9.082031 5.640625 -8.789062 5.484375 -8.46875 C 5.328125 -8.144531 5.203125 -7.828125 5.109375 -7.515625 C 5.054688 -7.304688 5.015625 -6.988281 4.984375 -6.5625 C 4.960938 -6.132812 4.953125 -5.675781 4.953125 -5.1875 C 4.941406 -4.6875 4.9375 -4.207031 4.9375 -3.75 C 4.9375 -3.300781 4.914062 -2.945312 4.875 -2.6875 C 4.863281 -2.40625 4.820312 -2.078125 4.75 -1.703125 C 4.675781 -1.328125 4.566406 -0.972656 4.421875 -0.640625 C 4.273438 -0.316406 4.078125 -0.046875 3.828125 0.171875 C 3.585938 0.398438 3.273438 0.515625 2.890625 0.515625 C 2.597656 0.515625 2.34375 0.425781 2.125 0.25 C 1.90625 0.0820312 1.722656 -0.140625 1.578125 -0.421875 C 1.429688 -0.710938 1.304688 -1.050781 1.203125 -1.4375 C 1.109375 -1.820312 1.035156 -2.210938 0.984375 -2.609375 C 0.929688 -3.023438 0.890625 -3.441406 0.859375 -3.859375 C 0.835938 -4.273438 0.820312 -4.671875 0.8125 -5.046875 C 0.8125 -5.421875 0.8125 -5.765625 0.8125 -6.078125 C 0.820312 -6.390625 0.828125 -6.644531 0.828125 -6.84375 C 0.816406 -7.445312 0.785156 -8.054688 0.734375 -8.671875 C 0.691406 -9.296875 0.671875 -9.910156 0.671875 -10.515625 C 0.671875 -10.898438 0.6875 -11.328125 0.71875 -11.796875 C 0.757812 -12.265625 0.859375 -12.703125 1.015625 -13.109375 C 1.171875 -13.515625 1.398438 -13.859375 1.703125 -14.140625 C 2.015625 -14.421875 2.4375 -14.5625 2.96875 -14.5625 C 3.269531 -14.5625 3.523438 -14.460938 3.734375 -14.265625 C 3.941406 -14.078125 4.109375 -13.84375 4.234375 -13.5625 C 4.367188 -13.289062 4.46875 -13 4.53125 -12.6875 C 4.601562 -12.375 4.648438 -12.082031 4.671875 -11.8125 C 5.085938 -12.5 5.554688 -13.050781 6.078125 -13.46875 C 6.597656 -13.894531 7.273438 -14.128906 8.109375 -14.171875 C 8.523438 -14.179688 8.9375 -14.140625 9.34375 -14.046875 C 9.757812 -13.953125 10.132812 -13.796875 10.46875 -13.578125 C 10.8125 -13.359375 11.09375 -13.078125 11.3125 -12.734375 C 11.53125 -12.390625 11.644531 -11.976562 11.65625 -11.5 C 11.695312 -10.945312 11.535156 -10.519531 11.171875 -10.21875 C 10.804688 -9.925781 10.363281 -9.773438 9.84375 -9.765625 Z M 9.84375 -9.765625 "/></g></g></g><g fill="#5289b8" fill-opacity="1"><g transform="translate(64.338655, 31.70019)"><g><path d="M 11.875 -3.671875 C 11.875 -3.359375 11.859375 -2.953125 11.828125 -2.453125 C 11.804688 -1.953125 11.734375 -1.460938 11.609375 -0.984375 C 11.484375 -0.503906 11.289062 -0.09375 11.03125 0.25 C 10.769531 0.601562 10.40625 0.78125 9.9375 0.78125 C 9.289062 0.78125 8.796875 0.570312 8.453125 0.15625 C 8.109375 -0.257812 7.941406 -0.78125 7.953125 -1.40625 C 7.398438 -0.914062 6.769531 -0.53125 6.0625 -0.25 C 5.363281 0.0195312 4.644531 0.15625 3.90625 0.15625 C 3.40625 0.15625 2.925781 0.0351562 2.46875 -0.203125 C 2.019531 -0.453125 1.617188 -0.765625 1.265625 -1.140625 C 0.921875 -1.523438 0.644531 -1.957031 0.4375 -2.4375 C 0.226562 -2.914062 0.125 -3.390625 0.125 -3.859375 C 0.125 -4.691406 0.378906 -5.421875 0.890625 -6.046875 C 1.410156 -6.679688 2.039062 -7.21875 2.78125 -7.65625 C 3.53125 -8.101562 4.328125 -8.457031 5.171875 -8.71875 C 6.015625 -8.976562 6.769531 -9.148438 7.4375 -9.234375 C 7.4375 -9.328125 7.441406 -9.40625 7.453125 -9.46875 C 7.460938 -9.539062 7.46875 -9.617188 7.46875 -9.703125 C 7.46875 -10.242188 7.316406 -10.675781 7.015625 -11 C 6.722656 -11.332031 6.304688 -11.5 5.765625 -11.5 C 5.328125 -11.5 4.953125 -11.425781 4.640625 -11.28125 C 4.328125 -11.132812 4.03125 -10.96875 3.75 -10.78125 C 3.476562 -10.601562 3.203125 -10.441406 2.921875 -10.296875 C 2.640625 -10.148438 2.328125 -10.078125 1.984375 -10.078125 C 1.597656 -10.078125 1.269531 -10.195312 1 -10.4375 C 0.726562 -10.675781 0.59375 -10.988281 0.59375 -11.375 C 0.59375 -11.945312 0.765625 -12.46875 1.109375 -12.9375 C 1.453125 -13.40625 1.878906 -13.800781 2.390625 -14.125 C 2.898438 -14.445312 3.453125 -14.695312 4.046875 -14.875 C 4.648438 -15.0625 5.207031 -15.15625 5.71875 -15.15625 C 6.1875 -15.15625 6.65625 -15.097656 7.125 -14.984375 C 7.59375 -14.878906 8.035156 -14.707031 8.453125 -14.46875 C 8.867188 -14.226562 9.242188 -13.9375 9.578125 -13.59375 C 9.921875 -13.257812 10.195312 -12.867188 10.40625 -12.421875 C 10.71875 -11.773438 10.96875 -11.085938 11.15625 -10.359375 C 11.351562 -9.640625 11.503906 -8.898438 11.609375 -8.140625 C 11.710938 -7.390625 11.78125 -6.632812 11.8125 -5.875 C 11.851562 -5.125 11.875 -4.390625 11.875 -3.671875 Z M 7.703125 -4.515625 L 7.625 -6.28125 C 7.582031 -6.28125 7.546875 -6.285156 7.515625 -6.296875 C 7.484375 -6.304688 7.445312 -6.3125 7.40625 -6.3125 C 7.1875 -6.3125 6.90625 -6.253906 6.5625 -6.140625 C 6.21875 -6.023438 5.890625 -5.867188 5.578125 -5.671875 C 5.265625 -5.472656 5 -5.25 4.78125 -5 C 4.570312 -4.757812 4.46875 -4.507812 4.46875 -4.25 C 4.46875 -4.007812 4.550781 -3.84375 4.71875 -3.75 C 4.894531 -3.664062 5.097656 -3.625 5.328125 -3.625 C 5.703125 -3.625 6.109375 -3.722656 6.546875 -3.921875 C 6.984375 -4.128906 7.367188 -4.328125 7.703125 -4.515625 Z M 7.703125 -4.515625 "/></g></g></g><g fill="#5289b8" fill-opacity="1"><g transform="translate(79.020862, 31.70019)"><g><path d="M 6.4375 7.59375 C 6.019531 7.59375 5.546875 7.523438 5.015625 7.390625 C 4.492188 7.265625 3.992188 7.078125 3.515625 6.828125 C 3.046875 6.585938 2.648438 6.289062 2.328125 5.9375 C 2.015625 5.59375 1.859375 5.195312 1.859375 4.75 C 1.859375 4.570312 1.898438 4.394531 1.984375 4.21875 C 2.066406 4.050781 2.179688 3.898438 2.328125 3.765625 C 2.484375 3.640625 2.644531 3.535156 2.8125 3.453125 C 2.988281 3.378906 3.171875 3.34375 3.359375 3.34375 C 3.566406 3.34375 3.769531 3.367188 3.96875 3.421875 C 4.175781 3.484375 4.382812 3.5625 4.59375 3.65625 C 4.820312 3.738281 5.039062 3.8125 5.25 3.875 C 5.46875 3.945312 5.703125 3.984375 5.953125 3.984375 C 6.378906 3.984375 6.753906 3.835938 7.078125 3.546875 C 7.398438 3.253906 7.675781 2.867188 7.90625 2.390625 C 8.132812 1.910156 8.316406 1.378906 8.453125 0.796875 C 8.585938 0.210938 8.691406 -0.363281 8.765625 -0.9375 C 8.847656 -1.507812 8.90625 -2.046875 8.9375 -2.546875 C 8.976562 -3.054688 9.007812 -3.46875 9.03125 -3.78125 C 8.414062 -2.863281 7.804688 -2.15625 7.203125 -1.65625 C 6.609375 -1.15625 5.878906 -0.90625 5.015625 -0.90625 C 4.347656 -0.90625 3.765625 -1.046875 3.265625 -1.328125 C 2.773438 -1.609375 2.351562 -1.972656 2 -2.421875 C 1.65625 -2.878906 1.367188 -3.398438 1.140625 -3.984375 C 0.921875 -4.566406 0.753906 -5.171875 0.640625 -5.796875 C 0.523438 -6.421875 0.445312 -7.03125 0.40625 -7.625 C 0.375 -8.226562 0.378906 -8.78125 0.421875 -9.28125 C 0.429688 -9.664062 0.472656 -10.164062 0.546875 -10.78125 C 0.628906 -11.40625 0.757812 -12.007812 0.9375 -12.59375 C 1.113281 -13.1875 1.359375 -13.6875 1.671875 -14.09375 C 1.984375 -14.507812 2.390625 -14.695312 2.890625 -14.65625 C 3.222656 -14.644531 3.492188 -14.503906 3.703125 -14.234375 C 3.910156 -13.960938 4.078125 -13.625 4.203125 -13.21875 C 4.335938 -12.820312 4.4375 -12.382812 4.5 -11.90625 C 4.5625 -11.425781 4.597656 -10.953125 4.609375 -10.484375 C 4.628906 -10.015625 4.632812 -9.582031 4.625 -9.1875 C 4.625 -8.800781 4.625 -8.503906 4.625 -8.296875 C 4.625 -8.003906 4.628906 -7.707031 4.640625 -7.40625 C 4.660156 -7.113281 4.722656 -6.847656 4.828125 -6.609375 C 4.929688 -6.378906 5.09375 -6.191406 5.3125 -6.046875 C 5.53125 -5.910156 5.835938 -5.84375 6.234375 -5.84375 C 6.691406 -5.84375 7.050781 -5.953125 7.3125 -6.171875 C 7.582031 -6.398438 7.78125 -6.6875 7.90625 -7.03125 C 8.039062 -7.375 8.125 -7.738281 8.15625 -8.125 C 8.195312 -8.519531 8.21875 -8.890625 8.21875 -9.234375 C 8.21875 -9.484375 8.21875 -9.78125 8.21875 -10.125 C 8.21875 -10.46875 8.222656 -10.832031 8.234375 -11.21875 C 8.242188 -11.601562 8.273438 -11.984375 8.328125 -12.359375 C 8.390625 -12.734375 8.484375 -13.070312 8.609375 -13.375 C 8.742188 -13.675781 8.921875 -13.921875 9.140625 -14.109375 C 9.359375 -14.304688 9.644531 -14.40625 10 -14.40625 C 10.425781 -14.40625 10.796875 -14.234375 11.109375 -13.890625 C 11.421875 -13.554688 11.6875 -13.113281 11.90625 -12.5625 C 12.125 -12.007812 12.296875 -11.40625 12.421875 -10.75 C 12.554688 -10.09375 12.660156 -9.4375 12.734375 -8.78125 C 12.804688 -8.125 12.851562 -7.519531 12.875 -6.96875 C 12.90625 -6.425781 12.921875 -6 12.921875 -5.6875 C 12.921875 -4.957031 12.894531 -4.125 12.84375 -3.1875 C 12.789062 -2.257812 12.6875 -1.304688 12.53125 -0.328125 C 12.382812 0.648438 12.160156 1.613281 11.859375 2.5625 C 11.566406 3.507812 11.179688 4.359375 10.703125 5.109375 C 10.234375 5.859375 9.648438 6.457031 8.953125 6.90625 C 8.253906 7.363281 7.414062 7.59375 6.4375 7.59375 Z M 6.4375 7.59375 "/></g></g></g><g fill="#5289b8" fill-opacity="1"><g transform="translate(94.876968, 31.70019)"><g/></g></g><g fill="#5289b8" fill-opacity="1"><g transform="translate(103.194024, 31.70019)"><g><path d="M 12.375 -14.03125 C 12.375 -13.550781 12.242188 -13.054688 11.984375 -12.546875 C 11.734375 -12.046875 11.429688 -11.546875 11.078125 -11.046875 C 10.722656 -10.554688 10.347656 -10.085938 9.953125 -9.640625 C 9.566406 -9.191406 9.222656 -8.785156 8.921875 -8.421875 C 9.160156 -8.046875 9.460938 -7.539062 9.828125 -6.90625 C 10.203125 -6.269531 10.550781 -5.59375 10.875 -4.875 C 11.207031 -4.164062 11.488281 -3.472656 11.71875 -2.796875 C 11.957031 -2.117188 12.078125 -1.550781 12.078125 -1.09375 C 12.078125 -0.726562 11.960938 -0.394531 11.734375 -0.09375 C 11.515625 0.207031 11.203125 0.359375 10.796875 0.359375 C 10.503906 0.359375 10.207031 0.234375 9.90625 -0.015625 C 9.601562 -0.265625 9.296875 -0.59375 8.984375 -1 C 8.679688 -1.414062 8.390625 -1.875 8.109375 -2.375 C 7.835938 -2.875 7.582031 -3.367188 7.34375 -3.859375 C 7.113281 -4.347656 6.90625 -4.804688 6.71875 -5.234375 C 6.53125 -5.660156 6.382812 -6.003906 6.28125 -6.265625 C 6.0625 -6.035156 5.820312 -5.847656 5.5625 -5.703125 C 5.3125 -5.554688 5.066406 -5.382812 4.828125 -5.1875 C 4.828125 -4.820312 4.8125 -4.304688 4.78125 -3.640625 C 4.757812 -2.984375 4.679688 -2.332031 4.546875 -1.6875 C 4.421875 -1.050781 4.207031 -0.492188 3.90625 -0.015625 C 3.613281 0.460938 3.179688 0.703125 2.609375 0.703125 C 2.160156 0.703125 1.8125 0.5 1.5625 0.09375 C 1.320312 -0.3125 1.144531 -0.789062 1.03125 -1.34375 C 0.914062 -1.894531 0.847656 -2.453125 0.828125 -3.015625 C 0.816406 -3.578125 0.8125 -4.007812 0.8125 -4.3125 C 0.8125 -5.59375 0.84375 -6.875 0.90625 -8.15625 C 0.976562 -9.445312 1.023438 -10.738281 1.046875 -12.03125 C 1.046875 -12.320312 1.046875 -12.707031 1.046875 -13.1875 C 1.054688 -13.664062 1.085938 -14.179688 1.140625 -14.734375 C 1.191406 -15.296875 1.269531 -15.863281 1.375 -16.4375 C 1.488281 -17.007812 1.640625 -17.523438 1.828125 -17.984375 C 2.015625 -18.453125 2.257812 -18.828125 2.5625 -19.109375 C 2.875 -19.398438 3.242188 -19.546875 3.671875 -19.546875 C 3.992188 -19.546875 4.257812 -19.425781 4.46875 -19.1875 C 4.6875 -18.957031 4.859375 -18.660156 4.984375 -18.296875 C 5.117188 -17.929688 5.21875 -17.519531 5.28125 -17.0625 C 5.34375 -16.613281 5.382812 -16.164062 5.40625 -15.71875 C 5.4375 -15.28125 5.453125 -14.867188 5.453125 -14.484375 C 5.453125 -14.097656 5.453125 -13.789062 5.453125 -13.5625 C 5.453125 -13.40625 5.445312 -13.175781 5.4375 -12.875 C 5.425781 -12.570312 5.414062 -12.253906 5.40625 -11.921875 C 5.40625 -11.585938 5.40625 -11.28125 5.40625 -11 C 5.40625 -10.726562 5.421875 -10.53125 5.453125 -10.40625 C 5.578125 -10.40625 5.757812 -10.519531 6 -10.75 C 6.238281 -10.988281 6.519531 -11.289062 6.84375 -11.65625 C 7.164062 -12.03125 7.515625 -12.421875 7.890625 -12.828125 C 8.265625 -13.234375 8.644531 -13.617188 9.03125 -13.984375 C 9.425781 -14.347656 9.816406 -14.644531 10.203125 -14.875 C 10.585938 -15.113281 10.941406 -15.234375 11.265625 -15.234375 C 11.617188 -15.234375 11.890625 -15.109375 12.078125 -14.859375 C 12.273438 -14.617188 12.375 -14.34375 12.375 -14.03125 Z M 12.375 -14.03125 "/></g></g></g><g fill="#5289b8" fill-opacity="1"><g transform="translate(117.719709, 31.70019)"><g><path d="M 5.09375 -18.21875 C 5.09375 -17.96875 5.023438 -17.742188 4.890625 -17.546875 C 4.765625 -17.359375 4.597656 -17.191406 4.390625 -17.046875 C 4.179688 -16.898438 3.953125 -16.785156 3.703125 -16.703125 C 3.460938 -16.628906 3.238281 -16.59375 3.03125 -16.59375 C 2.675781 -16.59375 2.367188 -16.675781 2.109375 -16.84375 C 1.847656 -17.019531 1.71875 -17.296875 1.71875 -17.671875 C 1.71875 -17.929688 1.78125 -18.160156 1.90625 -18.359375 C 2.039062 -18.554688 2.203125 -18.71875 2.390625 -18.84375 C 2.585938 -18.976562 2.804688 -19.078125 3.046875 -19.140625 C 3.296875 -19.210938 3.53125 -19.25 3.75 -19.25 C 4.082031 -19.25 4.390625 -19.171875 4.671875 -19.015625 C 4.953125 -18.859375 5.09375 -18.59375 5.09375 -18.21875 Z M 5.296875 -9.34375 C 5.296875 -9.09375 5.296875 -8.832031 5.296875 -8.5625 C 5.296875 -8.300781 5.285156 -8.046875 5.265625 -7.796875 C 5.253906 -7.503906 5.25 -7.109375 5.25 -6.609375 C 5.25 -6.117188 5.226562 -5.585938 5.1875 -5.015625 C 5.15625 -4.441406 5.097656 -3.859375 5.015625 -3.265625 C 4.941406 -2.671875 4.816406 -2.128906 4.640625 -1.640625 C 4.472656 -1.148438 4.242188 -0.753906 3.953125 -0.453125 C 3.660156 -0.148438 3.300781 0.0078125 2.875 0.03125 C 2.539062 0.0390625 2.257812 -0.0859375 2.03125 -0.359375 C 1.8125 -0.640625 1.625 -1 1.46875 -1.4375 C 1.320312 -1.882812 1.210938 -2.378906 1.140625 -2.921875 C 1.078125 -3.472656 1.023438 -4.003906 0.984375 -4.515625 C 0.953125 -5.035156 0.9375 -5.507812 0.9375 -5.9375 C 0.9375 -6.375 0.9375 -6.703125 0.9375 -6.921875 C 0.9375 -7.191406 0.9375 -7.582031 0.9375 -8.09375 C 0.9375 -8.613281 0.953125 -9.164062 0.984375 -9.75 C 1.023438 -10.34375 1.09375 -10.941406 1.1875 -11.546875 C 1.28125 -12.160156 1.414062 -12.71875 1.59375 -13.21875 C 1.78125 -13.726562 2.019531 -14.140625 2.3125 -14.453125 C 2.613281 -14.765625 2.988281 -14.921875 3.4375 -14.921875 C 3.914062 -14.921875 4.273438 -14.6875 4.515625 -14.21875 C 4.753906 -13.75 4.9375 -13.203125 5.0625 -12.578125 C 5.1875 -11.953125 5.253906 -11.328125 5.265625 -10.703125 C 5.285156 -10.085938 5.296875 -9.632812 5.296875 -9.34375 Z M 5.296875 -9.34375 "/></g></g></g><g fill="#5289b8" fill-opacity="1"><g transform="translate(126.115025, 31.70019)"><g><path d="M 12.03125 -17.171875 C 12.03125 -15.898438 11.976562 -14.632812 11.875 -13.375 C 11.78125 -12.125 11.734375 -10.867188 11.734375 -9.609375 C 11.734375 -8.578125 11.765625 -7.554688 11.828125 -6.546875 C 11.890625 -5.535156 11.921875 -4.519531 11.921875 -3.5 C 11.921875 -3.21875 11.910156 -2.878906 11.890625 -2.484375 C 11.878906 -2.097656 11.820312 -1.722656 11.71875 -1.359375 C 11.625 -0.992188 11.46875 -0.679688 11.25 -0.421875 C 11.039062 -0.160156 10.734375 -0.03125 10.328125 -0.03125 C 9.804688 -0.03125 9.375 -0.222656 9.03125 -0.609375 C 8.695312 -1.003906 8.488281 -1.445312 8.40625 -1.9375 C 8.070312 -1.300781 7.59375 -0.765625 6.96875 -0.328125 C 6.34375 0.0976562 5.664062 0.3125 4.9375 0.3125 C 4.144531 0.3125 3.46875 0.046875 2.90625 -0.484375 C 2.34375 -1.023438 1.875 -1.675781 1.5 -2.4375 C 1.125 -3.207031 0.84375 -4.007812 0.65625 -4.84375 C 0.476562 -5.6875 0.390625 -6.410156 0.390625 -7.015625 C 0.390625 -7.453125 0.414062 -7.945312 0.46875 -8.5 C 0.519531 -9.0625 0.609375 -9.628906 0.734375 -10.203125 C 0.867188 -10.773438 1.039062 -11.332031 1.25 -11.875 C 1.457031 -12.425781 1.722656 -12.921875 2.046875 -13.359375 C 2.367188 -13.796875 2.75 -14.144531 3.1875 -14.40625 C 3.632812 -14.664062 4.144531 -14.796875 4.71875 -14.796875 C 5.34375 -14.796875 5.941406 -14.613281 6.515625 -14.25 C 7.097656 -13.882812 7.535156 -13.429688 7.828125 -12.890625 L 8.0625 -17.03125 C 8.082031 -17.363281 8.109375 -17.75 8.140625 -18.1875 C 8.171875 -18.632812 8.242188 -19.054688 8.359375 -19.453125 C 8.472656 -19.859375 8.648438 -20.203125 8.890625 -20.484375 C 9.140625 -20.765625 9.5 -20.90625 9.96875 -20.90625 C 10.46875 -20.90625 10.859375 -20.78125 11.140625 -20.53125 C 11.421875 -20.289062 11.625 -19.984375 11.75 -19.609375 C 11.882812 -19.234375 11.960938 -18.828125 11.984375 -18.390625 C 12.015625 -17.960938 12.03125 -17.554688 12.03125 -17.171875 Z M 7.78125 -5.578125 C 7.78125 -5.984375 7.769531 -6.375 7.75 -6.75 C 7.726562 -7.132812 7.726562 -7.53125 7.75 -7.9375 C 7.644531 -8.15625 7.519531 -8.398438 7.375 -8.671875 C 7.238281 -8.941406 7.070312 -9.191406 6.875 -9.421875 C 6.675781 -9.660156 6.453125 -9.859375 6.203125 -10.015625 C 5.960938 -10.171875 5.703125 -10.25 5.421875 -10.25 C 5.109375 -10.25 4.859375 -10.15625 4.671875 -9.96875 C 4.484375 -9.78125 4.34375 -9.550781 4.25 -9.28125 C 4.164062 -9.007812 4.109375 -8.71875 4.078125 -8.40625 C 4.054688 -8.09375 4.046875 -7.820312 4.046875 -7.59375 C 4.046875 -7.382812 4.0625 -7.070312 4.09375 -6.65625 C 4.132812 -6.25 4.203125 -5.835938 4.296875 -5.421875 C 4.390625 -5.003906 4.519531 -4.640625 4.6875 -4.328125 C 4.863281 -4.015625 5.101562 -3.859375 5.40625 -3.859375 C 5.625 -3.859375 5.847656 -3.90625 6.078125 -4 C 6.304688 -4.101562 6.519531 -4.226562 6.71875 -4.375 C 6.914062 -4.519531 7.101562 -4.679688 7.28125 -4.859375 C 7.46875 -5.046875 7.632812 -5.21875 7.78125 -5.375 Z M 7.78125 -5.578125 "/></g></g></g><g fill="#5289b8" fill-opacity="1"><g transform="translate(141.110271, 31.70019)"><g><path d="M 8.421875 -14.34375 C 8.421875 -13.84375 8.25 -13.46875 7.90625 -13.21875 C 7.570312 -12.976562 7.195312 -12.75 6.78125 -12.53125 C 6.363281 -12.320312 5.984375 -12.066406 5.640625 -11.765625 C 5.304688 -11.472656 5.140625 -11.03125 5.140625 -10.4375 C 5.140625 -10.125 5.210938 -9.851562 5.359375 -9.625 C 5.503906 -9.394531 5.6875 -9.1875 5.90625 -9 C 6.125 -8.820312 6.363281 -8.640625 6.625 -8.453125 C 6.882812 -8.265625 7.125 -8.046875 7.34375 -7.796875 C 7.5625 -7.554688 7.742188 -7.257812 7.890625 -6.90625 C 8.035156 -6.5625 8.109375 -6.140625 8.109375 -5.640625 C 8.109375 -4.910156 7.921875 -4.191406 7.546875 -3.484375 C 7.179688 -2.773438 6.707031 -2.144531 6.125 -1.59375 C 5.539062 -1.050781 4.878906 -0.613281 4.140625 -0.28125 C 3.410156 0.0390625 2.691406 0.203125 1.984375 0.203125 C 1.691406 0.203125 1.394531 0.179688 1.09375 0.140625 C 0.800781 0.0976562 0.535156 0.0195312 0.296875 -0.09375 C 0.0664062 -0.21875 -0.125 -0.390625 -0.28125 -0.609375 C -0.4375 -0.828125 -0.515625 -1.113281 -0.515625 -1.46875 C -0.515625 -1.945312 -0.421875 -2.320312 -0.234375 -2.59375 C -0.046875 -2.863281 0.191406 -3.078125 0.484375 -3.234375 C 0.785156 -3.390625 1.101562 -3.507812 1.4375 -3.59375 C 1.78125 -3.6875 2.097656 -3.796875 2.390625 -3.921875 C 2.691406 -4.054688 2.9375 -4.226562 3.125 -4.4375 C 3.320312 -4.644531 3.421875 -4.941406 3.421875 -5.328125 C 3.421875 -5.691406 3.273438 -6.066406 2.984375 -6.453125 C 2.703125 -6.847656 2.382812 -7.265625 2.03125 -7.703125 C 1.6875 -8.148438 1.367188 -8.625 1.078125 -9.125 C 0.796875 -9.632812 0.65625 -10.191406 0.65625 -10.796875 C 0.65625 -11.546875 0.804688 -12.238281 1.109375 -12.875 C 1.410156 -13.507812 1.816406 -14.0625 2.328125 -14.53125 C 2.847656 -15 3.4375 -15.367188 4.09375 -15.640625 C 4.757812 -15.910156 5.457031 -16.046875 6.1875 -16.046875 C 6.457031 -16.046875 6.726562 -16.019531 7 -15.96875 C 7.269531 -15.914062 7.507812 -15.820312 7.71875 -15.6875 C 7.925781 -15.5625 8.09375 -15.390625 8.21875 -15.171875 C 8.351562 -14.953125 8.421875 -14.675781 8.421875 -14.34375 Z M 8.421875 -14.34375 "/></g></g></g></svg>