<svg xmlns="http://www.w3.org/2000/svg" xmlns:xlink="http://www.w3.org/1999/xlink" width="239" zoomAndPan="magnify" viewBox="0 0 179.25 46.499999" height="62" preserveAspectRatio="xMidYMid meet" version="1.0"><defs><g/><clipPath id="46879a08a2"><path d="M 0.582031 0.113281 L 177.609375 0.113281 L 177.609375 45.480469 L 0.582031 45.480469 Z M 0.582031 0.113281 " clip-rule="nonzero"/></clipPath><clipPath id="9c93036a88"><path d="M 23.265625 0.113281 L 154.832031 0.113281 C 160.847656 0.113281 166.617188 2.503906 170.871094 6.757812 C 175.125 11.011719 177.515625 16.78125 177.515625 22.796875 C 177.515625 28.8125 175.125 34.582031 170.871094 38.835938 C 166.617188 43.089844 160.847656 45.480469 154.832031 45.480469 L 23.265625 45.480469 C 17.25 45.480469 11.480469 43.089844 7.226562 38.835938 C 2.972656 34.582031 0.582031 28.8125 0.582031 22.796875 C 0.582031 16.78125 2.972656 11.011719 7.226562 6.757812 C 11.480469 2.503906 17.25 0.113281 23.265625 0.113281 Z M 23.265625 0.113281 " clip-rule="nonzero"/></clipPath><clipPath id="0f10edbd9d"><path d="M 0.582031 0.113281 L 177.609375 0.113281 L 177.609375 45.480469 L 0.582031 45.480469 Z M 0.582031 0.113281 " clip-rule="nonzero"/></clipPath><clipPath id="7c6baf6506"><path d="M 23.265625 0.113281 L 154.832031 0.113281 C 160.847656 0.113281 166.617188 2.503906 170.871094 6.757812 C 175.125 11.011719 177.515625 16.78125 177.515625 22.796875 C 177.515625 28.8125 175.125 34.582031 170.871094 38.835938 C 166.617188 43.089844 160.847656 45.480469 154.832031 45.480469 L 23.265625 45.480469 C 17.25 45.480469 11.480469 43.089844 7.226562 38.835938 C 2.972656 34.582031 0.582031 28.8125 0.582031 22.796875 C 0.582031 16.78125 2.972656 11.011719 7.226562 6.757812 C 11.480469 2.503906 17.25 0.113281 23.265625 0.113281 Z M 23.265625 0.113281 " clip-rule="nonzero"/></clipPath><clipPath id="3a2ffc53ff"><rect x="0" width="178" y="0" height="46"/></clipPath></defs><g clip-path="url(#46879a08a2)"><g clip-path="url(#9c93036a88)"><g transform="matrix(1, 0, 0, 1, 0.000000000000000111, 0)"><g clip-path="url(#3a2ffc53ff)"><g clip-path="url(#0f10edbd9d)"><g clip-path="url(#7c6baf6506)"><path fill="#e8f0f6" d="M 0.582031 0.113281 L 177.433594 0.113281 L 177.433594 45.480469 L 0.582031 45.480469 Z M 0.582031 0.113281 " fill-opacity="1" fill-rule="nonzero"/></g></g></g></g></g></g><g fill="#5289b8" fill-opacity="1"><g transform="translate(56.610498, 31.70019)"><g><path d="M 13.78125 0.34375 C 13.21875 0.34375 12.710938 0.046875 12.265625 -0.546875 C 11.828125 -1.140625 11.441406 -1.847656 11.109375 -2.671875 C 10.785156 -3.492188 10.515625 -4.335938 10.296875 -5.203125 C 10.078125 -6.078125 9.914062 -6.804688 9.8125 -7.390625 C 9.675781 -7.035156 9.488281 -6.601562 9.25 -6.09375 C 9.007812 -5.59375 8.738281 -5.0625 8.4375 -4.5 C 8.132812 -3.945312 7.804688 -3.390625 7.453125 -2.828125 C 7.109375 -2.265625 6.75 -1.753906 6.375 -1.296875 C 6 -0.847656 5.625 -0.484375 5.25 -0.203125 C 4.882812 0.0664062 4.523438 0.203125 4.171875 0.203125 C 3.703125 0.203125 3.289062 -0.0195312 2.9375 -0.46875 C 2.582031 -0.914062 2.28125 -1.503906 2.03125 -2.234375 C 1.789062 -2.972656 1.585938 -3.785156 1.421875 -4.671875 C 1.253906 -5.554688 1.125 -6.441406 1.03125 -7.328125 C 0.945312 -8.210938 0.890625 -9.035156 0.859375 -9.796875 C 0.828125 -10.566406 0.8125 -11.1875 0.8125 -11.65625 C 0.8125 -12.09375 0.832031 -12.507812 0.875 -12.90625 C 0.914062 -13.3125 1 -13.671875 1.125 -13.984375 C 1.257812 -14.296875 1.453125 -14.539062 1.703125 -14.71875 C 1.960938 -14.90625 2.300781 -15 2.71875 -15 C 3.113281 -15 3.453125 -14.847656 3.734375 -14.546875 C 4.023438 -14.253906 4.265625 -13.867188 4.453125 -13.390625 C 4.648438 -12.921875 4.804688 -12.382812 4.921875 -11.78125 C 5.046875 -11.175781 5.144531 -10.566406 5.21875 -9.953125 C 5.289062 -9.335938 5.335938 -8.738281 5.359375 -8.15625 C 5.390625 -7.570312 5.410156 -7.070312 5.421875 -6.65625 C 5.523438 -7.019531 5.671875 -7.46875 5.859375 -8 C 6.054688 -8.53125 6.269531 -9.09375 6.5 -9.6875 C 6.726562 -10.289062 6.972656 -10.890625 7.234375 -11.484375 C 7.503906 -12.078125 7.773438 -12.609375 8.046875 -13.078125 C 8.316406 -13.546875 8.582031 -13.925781 8.84375 -14.21875 C 9.101562 -14.507812 9.359375 -14.65625 9.609375 -14.65625 L 9.625 -14.65625 C 9.9375 -14.65625 10.238281 -14.507812 10.53125 -14.21875 C 10.832031 -13.925781 11.117188 -13.546875 11.390625 -13.078125 C 11.671875 -12.609375 11.929688 -12.070312 12.171875 -11.46875 C 12.421875 -10.863281 12.648438 -10.253906 12.859375 -9.640625 C 13.066406 -9.023438 13.25 -8.425781 13.40625 -7.84375 C 13.5625 -7.257812 13.691406 -6.757812 13.796875 -6.34375 C 13.816406 -6.84375 13.84375 -7.410156 13.875 -8.046875 C 13.914062 -8.679688 13.984375 -9.320312 14.078125 -9.96875 C 14.171875 -10.613281 14.300781 -11.238281 14.46875 -11.84375 C 14.632812 -12.457031 14.835938 -13 15.078125 -13.46875 C 15.328125 -13.945312 15.628906 -14.332031 15.984375 -14.625 C 16.335938 -14.914062 16.75 -15.0625 17.21875 -15.0625 C 17.707031 -15.0625 18.066406 -14.890625 18.296875 -14.546875 C 18.535156 -14.203125 18.65625 -13.789062 18.65625 -13.3125 C 18.65625 -12.789062 18.585938 -12.09375 18.453125 -11.21875 C 18.328125 -10.351562 18.148438 -9.410156 17.921875 -8.390625 C 17.703125 -7.367188 17.4375 -6.335938 17.125 -5.296875 C 16.820312 -4.265625 16.488281 -3.332031 16.125 -2.5 C 15.757812 -1.664062 15.375 -0.984375 14.96875 -0.453125 C 14.570312 0.078125 14.175781 0.34375 13.78125 0.34375 Z M 13.78125 0.34375 "/></g></g></g><g fill="#5289b8" fill-opacity="1"><g transform="translate(77.944808, 31.70019)"><g><path d="M 11.875 -3.671875 C 11.875 -3.359375 11.859375 -2.953125 11.828125 -2.453125 C 11.804688 -1.953125 11.734375 -1.460938 11.609375 -0.984375 C 11.484375 -0.503906 11.289062 -0.09375 11.03125 0.25 C 10.769531 0.601562 10.40625 0.78125 9.9375 0.78125 C 9.289062 0.78125 8.796875 0.570312 8.453125 0.15625 C 8.109375 -0.257812 7.941406 -0.78125 7.953125 -1.40625 C 7.398438 -0.914062 6.769531 -0.53125 6.0625 -0.25 C 5.363281 0.0195312 4.644531 0.15625 3.90625 0.15625 C 3.40625 0.15625 2.925781 0.0351562 2.46875 -0.203125 C 2.019531 -0.453125 1.617188 -0.765625 1.265625 -1.140625 C 0.921875 -1.523438 0.644531 -1.957031 0.4375 -2.4375 C 0.226562 -2.914062 0.125 -3.390625 0.125 -3.859375 C 0.125 -4.691406 0.378906 -5.421875 0.890625 -6.046875 C 1.410156 -6.679688 2.039062 -7.21875 2.78125 -7.65625 C 3.53125 -8.101562 4.328125 -8.457031 5.171875 -8.71875 C 6.015625 -8.976562 6.769531 -9.148438 7.4375 -9.234375 C 7.4375 -9.328125 7.441406 -9.40625 7.453125 -9.46875 C 7.460938 -9.539062 7.46875 -9.617188 7.46875 -9.703125 C 7.46875 -10.242188 7.316406 -10.675781 7.015625 -11 C 6.722656 -11.332031 6.304688 -11.5 5.765625 -11.5 C 5.328125 -11.5 4.953125 -11.425781 4.640625 -11.28125 C 4.328125 -11.132812 4.03125 -10.96875 3.75 -10.78125 C 3.476562 -10.601562 3.203125 -10.441406 2.921875 -10.296875 C 2.640625 -10.148438 2.328125 -10.078125 1.984375 -10.078125 C 1.597656 -10.078125 1.269531 -10.195312 1 -10.4375 C 0.726562 -10.675781 0.59375 -10.988281 0.59375 -11.375 C 0.59375 -11.945312 0.765625 -12.46875 1.109375 -12.9375 C 1.453125 -13.40625 1.878906 -13.800781 2.390625 -14.125 C 2.898438 -14.445312 3.453125 -14.695312 4.046875 -14.875 C 4.648438 -15.0625 5.207031 -15.15625 5.71875 -15.15625 C 6.1875 -15.15625 6.65625 -15.097656 7.125 -14.984375 C 7.59375 -14.878906 8.035156 -14.707031 8.453125 -14.46875 C 8.867188 -14.226562 9.242188 -13.9375 9.578125 -13.59375 C 9.921875 -13.257812 10.195312 -12.867188 10.40625 -12.421875 C 10.71875 -11.773438 10.96875 -11.085938 11.15625 -10.359375 C 11.351562 -9.640625 11.503906 -8.898438 11.609375 -8.140625 C 11.710938 -7.390625 11.78125 -6.632812 11.8125 -5.875 C 11.851562 -5.125 11.875 -4.390625 11.875 -3.671875 Z M 7.703125 -4.515625 L 7.625 -6.28125 C 7.582031 -6.28125 7.546875 -6.285156 7.515625 -6.296875 C 7.484375 -6.304688 7.445312 -6.3125 7.40625 -6.3125 C 7.1875 -6.3125 6.90625 -6.253906 6.5625 -6.140625 C 6.21875 -6.023438 5.890625 -5.867188 5.578125 -5.671875 C 5.265625 -5.472656 5 -5.25 4.78125 -5 C 4.570312 -4.757812 4.46875 -4.507812 4.46875 -4.25 C 4.46875 -4.007812 4.550781 -3.84375 4.71875 -3.75 C 4.894531 -3.664062 5.097656 -3.625 5.328125 -3.625 C 5.703125 -3.625 6.109375 -3.722656 6.546875 -3.921875 C 6.984375 -4.128906 7.367188 -4.328125 7.703125 -4.515625 Z M 7.703125 -4.515625 "/></g></g></g><g fill="#5289b8" fill-opacity="1"><g transform="translate(92.627015, 31.70019)"><g><path d="M 6.4375 7.59375 C 6.019531 7.59375 5.546875 7.523438 5.015625 7.390625 C 4.492188 7.265625 3.992188 7.078125 3.515625 6.828125 C 3.046875 6.585938 2.648438 6.289062 2.328125 5.9375 C 2.015625 5.59375 1.859375 5.195312 1.859375 4.75 C 1.859375 4.570312 1.898438 4.394531 1.984375 4.21875 C 2.066406 4.050781 2.179688 3.898438 2.328125 3.765625 C 2.484375 3.640625 2.644531 3.535156 2.8125 3.453125 C 2.988281 3.378906 3.171875 3.34375 3.359375 3.34375 C 3.566406 3.34375 3.769531 3.367188 3.96875 3.421875 C 4.175781 3.484375 4.382812 3.5625 4.59375 3.65625 C 4.820312 3.738281 5.039062 3.8125 5.25 3.875 C 5.46875 3.945312 5.703125 3.984375 5.953125 3.984375 C 6.378906 3.984375 6.753906 3.835938 7.078125 3.546875 C 7.398438 3.253906 7.675781 2.867188 7.90625 2.390625 C 8.132812 1.910156 8.316406 1.378906 8.453125 0.796875 C 8.585938 0.210938 8.691406 -0.363281 8.765625 -0.9375 C 8.847656 -1.507812 8.90625 -2.046875 8.9375 -2.546875 C 8.976562 -3.054688 9.007812 -3.46875 9.03125 -3.78125 C 8.414062 -2.863281 7.804688 -2.15625 7.203125 -1.65625 C 6.609375 -1.15625 5.878906 -0.90625 5.015625 -0.90625 C 4.347656 -0.90625 3.765625 -1.046875 3.265625 -1.328125 C 2.773438 -1.609375 2.351562 -1.972656 2 -2.421875 C 1.65625 -2.878906 1.367188 -3.398438 1.140625 -3.984375 C 0.921875 -4.566406 0.753906 -5.171875 0.640625 -5.796875 C 0.523438 -6.421875 0.445312 -7.03125 0.40625 -7.625 C 0.375 -8.226562 0.378906 -8.78125 0.421875 -9.28125 C 0.429688 -9.664062 0.472656 -10.164062 0.546875 -10.78125 C 0.628906 -11.40625 0.757812 -12.007812 0.9375 -12.59375 C 1.113281 -13.1875 1.359375 -13.6875 1.671875 -14.09375 C 1.984375 -14.507812 2.390625 -14.695312 2.890625 -14.65625 C 3.222656 -14.644531 3.492188 -14.503906 3.703125 -14.234375 C 3.910156 -13.960938 4.078125 -13.625 4.203125 -13.21875 C 4.335938 -12.820312 4.4375 -12.382812 4.5 -11.90625 C 4.5625 -11.425781 4.597656 -10.953125 4.609375 -10.484375 C 4.628906 -10.015625 4.632812 -9.582031 4.625 -9.1875 C 4.625 -8.800781 4.625 -8.503906 4.625 -8.296875 C 4.625 -8.003906 4.628906 -7.707031 4.640625 -7.40625 C 4.660156 -7.113281 4.722656 -6.847656 4.828125 -6.609375 C 4.929688 -6.378906 5.09375 -6.191406 5.3125 -6.046875 C 5.53125 -5.910156 5.835938 -5.84375 6.234375 -5.84375 C 6.691406 -5.84375 7.050781 -5.953125 7.3125 -6.171875 C 7.582031 -6.398438 7.78125 -6.6875 7.90625 -7.03125 C 8.039062 -7.375 8.125 -7.738281 8.15625 -8.125 C 8.195312 -8.519531 8.21875 -8.890625 8.21875 -9.234375 C 8.21875 -9.484375 8.21875 -9.78125 8.21875 -10.125 C 8.21875 -10.46875 8.222656 -10.832031 8.234375 -11.21875 C 8.242188 -11.601562 8.273438 -11.984375 8.328125 -12.359375 C 8.390625 -12.734375 8.484375 -13.070312 8.609375 -13.375 C 8.742188 -13.675781 8.921875 -13.921875 9.140625 -14.109375 C 9.359375 -14.304688 9.644531 -14.40625 10 -14.40625 C 10.425781 -14.40625 10.796875 -14.234375 11.109375 -13.890625 C 11.421875 -13.554688 11.6875 -13.113281 11.90625 -12.5625 C 12.125 -12.007812 12.296875 -11.40625 12.421875 -10.75 C 12.554688 -10.09375 12.660156 -9.4375 12.734375 -8.78125 C 12.804688 -8.125 12.851562 -7.519531 12.875 -6.96875 C 12.90625 -6.425781 12.921875 -6 12.921875 -5.6875 C 12.921875 -4.957031 12.894531 -4.125 12.84375 -3.1875 C 12.789062 -2.257812 12.6875 -1.304688 12.53125 -0.328125 C 12.382812 0.648438 12.160156 1.613281 11.859375 2.5625 C 11.566406 3.507812 11.179688 4.359375 10.703125 5.109375 C 10.234375 5.859375 9.648438 6.457031 8.953125 6.90625 C 8.253906 7.363281 7.414062 7.59375 6.4375 7.59375 Z M 6.4375 7.59375 "/></g></g></g><g fill="#5289b8" fill-opacity="1"><g transform="translate(108.483121, 31.70019)"><g><path d="M 12.03125 -9.34375 C 11.570312 -8.144531 11.070312 -6.890625 10.53125 -5.578125 C 10 -4.273438 9.421875 -3.0625 8.796875 -1.9375 C 8.410156 -1.238281 7.984375 -0.65625 7.515625 -0.1875 C 7.046875 0.269531 6.503906 0.5 5.890625 0.5 C 5.410156 0.5 4.9375 0.253906 4.46875 -0.234375 C 4.007812 -0.734375 3.582031 -1.328125 3.1875 -2.015625 C 2.800781 -2.703125 2.460938 -3.398438 2.171875 -4.109375 C 1.890625 -4.816406 1.679688 -5.378906 1.546875 -5.796875 C 1.398438 -6.265625 1.238281 -6.765625 1.0625 -7.296875 C 0.894531 -7.835938 0.738281 -8.390625 0.59375 -8.953125 C 0.457031 -9.503906 0.34375 -10.050781 0.25 -10.59375 C 0.164062 -11.144531 0.125 -11.664062 0.125 -12.15625 C 0.125 -12.832031 0.242188 -13.390625 0.484375 -13.828125 C 0.734375 -14.265625 1.21875 -14.484375 1.9375 -14.484375 C 2.207031 -14.484375 2.457031 -14.398438 2.6875 -14.234375 C 2.914062 -14.066406 3.125 -13.832031 3.3125 -13.53125 C 3.5 -13.238281 3.679688 -12.894531 3.859375 -12.5 C 4.035156 -12.113281 4.203125 -11.6875 4.359375 -11.21875 C 4.515625 -10.769531 4.660156 -10.300781 4.796875 -9.8125 C 4.941406 -9.320312 5.082031 -8.851562 5.21875 -8.40625 C 5.351562 -7.945312 5.492188 -7.503906 5.640625 -7.078125 C 5.796875 -6.648438 5.992188 -6.226562 6.234375 -5.8125 C 6.359375 -6.125 6.5 -6.476562 6.65625 -6.875 C 6.8125 -7.28125 6.976562 -7.707031 7.15625 -8.15625 C 7.34375 -8.613281 7.539062 -9.082031 7.75 -9.5625 C 7.957031 -10.039062 8.179688 -10.503906 8.421875 -10.953125 C 8.890625 -11.898438 9.390625 -12.703125 9.921875 -13.359375 C 10.453125 -14.015625 10.976562 -14.34375 11.5 -14.34375 C 11.988281 -14.34375 12.335938 -14.195312 12.546875 -13.90625 C 12.753906 -13.613281 12.859375 -13.234375 12.859375 -12.765625 C 12.859375 -12.296875 12.78125 -11.765625 12.625 -11.171875 C 12.46875 -10.578125 12.269531 -9.96875 12.03125 -9.34375 Z M 12.03125 -9.34375 "/></g></g></g></svg>