<svg xmlns="http://www.w3.org/2000/svg" xmlns:xlink="http://www.w3.org/1999/xlink" width="239" zoomAndPan="magnify" viewBox="0 0 179.25 46.499999" height="62" preserveAspectRatio="xMidYMid meet" version="1.0"><defs><g/><clipPath id="d823408cc2"><path d="M 0.582031 0.113281 L 177.609375 0.113281 L 177.609375 45.480469 L 0.582031 45.480469 Z M 0.582031 0.113281 " clip-rule="nonzero"/></clipPath><clipPath id="2b5afae42f"><path d="M 23.265625 0.113281 L 154.832031 0.113281 C 160.847656 0.113281 166.617188 2.503906 170.871094 6.757812 C 175.125 11.011719 177.515625 16.78125 177.515625 22.796875 C 177.515625 28.8125 175.125 34.582031 170.871094 38.835938 C 166.617188 43.089844 160.847656 45.480469 154.832031 45.480469 L 23.265625 45.480469 C 17.25 45.480469 11.480469 43.089844 7.226562 38.835938 C 2.972656 34.582031 0.582031 28.8125 0.582031 22.796875 C 0.582031 16.78125 2.972656 11.011719 7.226562 6.757812 C 11.480469 2.503906 17.25 0.113281 23.265625 0.113281 Z M 23.265625 0.113281 " clip-rule="nonzero"/></clipPath><clipPath id="d179d61dbb"><path d="M 0.582031 0.113281 L 177.609375 0.113281 L 177.609375 45.480469 L 0.582031 45.480469 Z M 0.582031 0.113281 " clip-rule="nonzero"/></clipPath><clipPath id="10c0ff4c11"><path d="M 23.265625 0.113281 L 154.832031 0.113281 C 160.847656 0.113281 166.617188 2.503906 170.871094 6.757812 C 175.125 11.011719 177.515625 16.78125 177.515625 22.796875 C 177.515625 28.8125 175.125 34.582031 170.871094 38.835938 C 166.617188 43.089844 160.847656 45.480469 154.832031 45.480469 L 23.265625 45.480469 C 17.25 45.480469 11.480469 43.089844 7.226562 38.835938 C 2.972656 34.582031 0.582031 28.8125 0.582031 22.796875 C 0.582031 16.78125 2.972656 11.011719 7.226562 6.757812 C 11.480469 2.503906 17.25 0.113281 23.265625 0.113281 Z M 23.265625 0.113281 " clip-rule="nonzero"/></clipPath><clipPath id="88a54f2377"><rect x="0" width="178" y="0" height="46"/></clipPath></defs><g clip-path="url(#d823408cc2)"><g clip-path="url(#2b5afae42f)"><g transform="matrix(1, 0, 0, 1, 0.000000000000000111, 0)"><g clip-path="url(#88a54f2377)"><g clip-path="url(#d179d61dbb)"><g clip-path="url(#10c0ff4c11)"><path fill="#e8f0f6" d="M 0.582031 0.113281 L 177.433594 0.113281 L 177.433594 45.480469 L 0.582031 45.480469 Z M 0.582031 0.113281 " fill-opacity="1" fill-rule="nonzero"/></g></g></g></g></g></g><g fill="#5289b8" fill-opacity="1"><g transform="translate(57.433678, 31.70019)"><g><path d="M 9.84375 -9.765625 C 9.59375 -9.742188 9.378906 -9.765625 9.203125 -9.828125 C 9.035156 -9.890625 8.863281 -9.953125 8.6875 -10.015625 C 8.53125 -10.085938 8.375 -10.15625 8.21875 -10.21875 C 8.0625 -10.28125 7.890625 -10.300781 7.703125 -10.28125 C 7.347656 -10.257812 7.035156 -10.160156 6.765625 -9.984375 C 6.492188 -9.816406 6.25 -9.601562 6.03125 -9.34375 C 5.820312 -9.082031 5.640625 -8.789062 5.484375 -8.46875 C 5.328125 -8.144531 5.203125 -7.828125 5.109375 -7.515625 C 5.054688 -7.304688 5.015625 -6.988281 4.984375 -6.5625 C 4.960938 -6.132812 4.953125 -5.675781 4.953125 -5.1875 C 4.941406 -4.6875 4.9375 -4.207031 4.9375 -3.75 C 4.9375 -3.300781 4.914062 -2.945312 4.875 -2.6875 C 4.863281 -2.40625 4.820312 -2.078125 4.75 -1.703125 C 4.675781 -1.328125 4.566406 -0.972656 4.421875 -0.640625 C 4.273438 -0.316406 4.078125 -0.046875 3.828125 0.171875 C 3.585938 0.398438 3.273438 0.515625 2.890625 0.515625 C 2.597656 0.515625 2.34375 0.425781 2.125 0.25 C 1.90625 0.0820312 1.722656 -0.140625 1.578125 -0.421875 C 1.429688 -0.710938 1.304688 -1.050781 1.203125 -1.4375 C 1.109375 -1.820312 1.035156 -2.210938 0.984375 -2.609375 C 0.929688 -3.023438 0.890625 -3.441406 0.859375 -3.859375 C 0.835938 -4.273438 0.820312 -4.671875 0.8125 -5.046875 C 0.8125 -5.421875 0.8125 -5.765625 0.8125 -6.078125 C 0.820312 -6.390625 0.828125 -6.644531 0.828125 -6.84375 C 0.816406 -7.445312 0.785156 -8.054688 0.734375 -8.671875 C 0.691406 -9.296875 0.671875 -9.910156 0.671875 -10.515625 C 0.671875 -10.898438 0.6875 -11.328125 0.71875 -11.796875 C 0.757812 -12.265625 0.859375 -12.703125 1.015625 -13.109375 C 1.171875 -13.515625 1.398438 -13.859375 1.703125 -14.140625 C 2.015625 -14.421875 2.4375 -14.5625 2.96875 -14.5625 C 3.269531 -14.5625 3.523438 -14.460938 3.734375 -14.265625 C 3.941406 -14.078125 4.109375 -13.84375 4.234375 -13.5625 C 4.367188 -13.289062 4.46875 -13 4.53125 -12.6875 C 4.601562 -12.375 4.648438 -12.082031 4.671875 -11.8125 C 5.085938 -12.5 5.554688 -13.050781 6.078125 -13.46875 C 6.597656 -13.894531 7.273438 -14.128906 8.109375 -14.171875 C 8.523438 -14.179688 8.9375 -14.140625 9.34375 -14.046875 C 9.757812 -13.953125 10.132812 -13.796875 10.46875 -13.578125 C 10.8125 -13.359375 11.09375 -13.078125 11.3125 -12.734375 C 11.53125 -12.390625 11.644531 -11.976562 11.65625 -11.5 C 11.695312 -10.945312 11.535156 -10.519531 11.171875 -10.21875 C 10.804688 -9.925781 10.363281 -9.773438 9.84375 -9.765625 Z M 9.84375 -9.765625 "/></g></g></g><g fill="#5289b8" fill-opacity="1"><g transform="translate(70.73329, 31.70019)"><g><path d="M 5.09375 -18.21875 C 5.09375 -17.96875 5.023438 -17.742188 4.890625 -17.546875 C 4.765625 -17.359375 4.597656 -17.191406 4.390625 -17.046875 C 4.179688 -16.898438 3.953125 -16.785156 3.703125 -16.703125 C 3.460938 -16.628906 3.238281 -16.59375 3.03125 -16.59375 C 2.675781 -16.59375 2.367188 -16.675781 2.109375 -16.84375 C 1.847656 -17.019531 1.71875 -17.296875 1.71875 -17.671875 C 1.71875 -17.929688 1.78125 -18.160156 1.90625 -18.359375 C 2.039062 -18.554688 2.203125 -18.71875 2.390625 -18.84375 C 2.585938 -18.976562 2.804688 -19.078125 3.046875 -19.140625 C 3.296875 -19.210938 3.53125 -19.25 3.75 -19.25 C 4.082031 -19.25 4.390625 -19.171875 4.671875 -19.015625 C 4.953125 -18.859375 5.09375 -18.59375 5.09375 -18.21875 Z M 5.296875 -9.34375 C 5.296875 -9.09375 5.296875 -8.832031 5.296875 -8.5625 C 5.296875 -8.300781 5.285156 -8.046875 5.265625 -7.796875 C 5.253906 -7.503906 5.25 -7.109375 5.25 -6.609375 C 5.25 -6.117188 5.226562 -5.585938 5.1875 -5.015625 C 5.15625 -4.441406 5.097656 -3.859375 5.015625 -3.265625 C 4.941406 -2.671875 4.816406 -2.128906 4.640625 -1.640625 C 4.472656 -1.148438 4.242188 -0.753906 3.953125 -0.453125 C 3.660156 -0.148438 3.300781 0.0078125 2.875 0.03125 C 2.539062 0.0390625 2.257812 -0.0859375 2.03125 -0.359375 C 1.8125 -0.640625 1.625 -1 1.46875 -1.4375 C 1.320312 -1.882812 1.210938 -2.378906 1.140625 -2.921875 C 1.078125 -3.472656 1.023438 -4.003906 0.984375 -4.515625 C 0.953125 -5.035156 0.9375 -5.507812 0.9375 -5.9375 C 0.9375 -6.375 0.9375 -6.703125 0.9375 -6.921875 C 0.9375 -7.191406 0.9375 -7.582031 0.9375 -8.09375 C 0.9375 -8.613281 0.953125 -9.164062 0.984375 -9.75 C 1.023438 -10.34375 1.09375 -10.941406 1.1875 -11.546875 C 1.28125 -12.160156 1.414062 -12.71875 1.59375 -13.21875 C 1.78125 -13.726562 2.019531 -14.140625 2.3125 -14.453125 C 2.613281 -14.765625 2.988281 -14.921875 3.4375 -14.921875 C 3.914062 -14.921875 4.273438 -14.6875 4.515625 -14.21875 C 4.753906 -13.75 4.9375 -13.203125 5.0625 -12.578125 C 5.1875 -11.953125 5.253906 -11.328125 5.265625 -10.703125 C 5.285156 -10.085938 5.296875 -9.632812 5.296875 -9.34375 Z M 5.296875 -9.34375 "/></g></g></g><g fill="#5289b8" fill-opacity="1"><g transform="translate(79.128605, 31.70019)"><g><path d="M 10.46875 -10.015625 C 10.46875 -9.929688 10.457031 -9.84375 10.4375 -9.75 C 10.414062 -9.65625 10.390625 -9.5625 10.359375 -9.46875 C 10.203125 -9.070312 9.957031 -8.738281 9.625 -8.46875 C 9.289062 -8.195312 8.898438 -8.0625 8.453125 -8.0625 C 7.773438 -8.0625 7.316406 -8.398438 7.078125 -9.078125 C 7.035156 -9.160156 7.015625 -9.257812 7.015625 -9.375 C 7.015625 -9.488281 7.007812 -9.609375 7 -9.734375 L 7 -10.484375 C 6.957031 -10.734375 6.894531 -10.925781 6.8125 -11.0625 C 6.726562 -11.195312 6.578125 -11.265625 6.359375 -11.265625 C 6.066406 -11.265625 5.785156 -11.078125 5.515625 -10.703125 C 5.242188 -10.335938 5.007812 -9.894531 4.8125 -9.375 C 4.613281 -8.863281 4.453125 -8.335938 4.328125 -7.796875 C 4.210938 -7.265625 4.15625 -6.832031 4.15625 -6.5 C 4.15625 -6.238281 4.171875 -5.921875 4.203125 -5.546875 C 4.234375 -5.171875 4.300781 -4.804688 4.40625 -4.453125 C 4.507812 -4.109375 4.648438 -3.8125 4.828125 -3.5625 C 5.015625 -3.3125 5.257812 -3.1875 5.5625 -3.1875 C 5.851562 -3.1875 6.125 -3.273438 6.375 -3.453125 C 6.632812 -3.640625 6.882812 -3.851562 7.125 -4.09375 C 7.351562 -4.300781 7.597656 -4.519531 7.859375 -4.75 C 8.128906 -4.976562 8.441406 -5.09375 8.796875 -5.09375 C 9.234375 -5.09375 9.578125 -4.9375 9.828125 -4.625 C 10.078125 -4.3125 10.203125 -3.953125 10.203125 -3.546875 C 10.203125 -2.953125 10.046875 -2.398438 9.734375 -1.890625 C 9.421875 -1.378906 9.03125 -0.9375 8.5625 -0.5625 C 8.09375 -0.1875 7.566406 0.109375 6.984375 0.328125 C 6.410156 0.546875 5.863281 0.65625 5.34375 0.65625 C 4.40625 0.65625 3.609375 0.421875 2.953125 -0.046875 C 2.304688 -0.515625 1.78125 -1.109375 1.375 -1.828125 C 0.976562 -2.554688 0.691406 -3.347656 0.515625 -4.203125 C 0.347656 -5.054688 0.265625 -5.863281 0.265625 -6.625 C 0.265625 -7.507812 0.382812 -8.46875 0.625 -9.5 C 0.863281 -10.539062 1.234375 -11.503906 1.734375 -12.390625 C 2.242188 -13.273438 2.894531 -14.015625 3.6875 -14.609375 C 4.476562 -15.203125 5.421875 -15.5 6.515625 -15.5 C 7.203125 -15.5 7.789062 -15.347656 8.28125 -15.046875 C 8.78125 -14.753906 9.191406 -14.367188 9.515625 -13.890625 C 9.835938 -13.410156 10.078125 -12.875 10.234375 -12.28125 C 10.398438 -11.695312 10.484375 -11.117188 10.484375 -10.546875 C 10.484375 -10.453125 10.484375 -10.363281 10.484375 -10.28125 C 10.484375 -10.195312 10.476562 -10.109375 10.46875 -10.015625 Z M 10.46875 -10.015625 "/></g></g></g><g fill="#5289b8" fill-opacity="1"><g transform="translate(92.297783, 31.70019)"><g><path d="M 12.375 -14.03125 C 12.375 -13.550781 12.242188 -13.054688 11.984375 -12.546875 C 11.734375 -12.046875 11.429688 -11.546875 11.078125 -11.046875 C 10.722656 -10.554688 10.347656 -10.085938 9.953125 -9.640625 C 9.566406 -9.191406 9.222656 -8.785156 8.921875 -8.421875 C 9.160156 -8.046875 9.460938 -7.539062 9.828125 -6.90625 C 10.203125 -6.269531 10.550781 -5.59375 10.875 -4.875 C 11.207031 -4.164062 11.488281 -3.472656 11.71875 -2.796875 C 11.957031 -2.117188 12.078125 -1.550781 12.078125 -1.09375 C 12.078125 -0.726562 11.960938 -0.394531 11.734375 -0.09375 C 11.515625 0.207031 11.203125 0.359375 10.796875 0.359375 C 10.503906 0.359375 10.207031 0.234375 9.90625 -0.015625 C 9.601562 -0.265625 9.296875 -0.59375 8.984375 -1 C 8.679688 -1.414062 8.390625 -1.875 8.109375 -2.375 C 7.835938 -2.875 7.582031 -3.367188 7.34375 -3.859375 C 7.113281 -4.347656 6.90625 -4.804688 6.71875 -5.234375 C 6.53125 -5.660156 6.382812 -6.003906 6.28125 -6.265625 C 6.0625 -6.035156 5.820312 -5.847656 5.5625 -5.703125 C 5.3125 -5.554688 5.066406 -5.382812 4.828125 -5.1875 C 4.828125 -4.820312 4.8125 -4.304688 4.78125 -3.640625 C 4.757812 -2.984375 4.679688 -2.332031 4.546875 -1.6875 C 4.421875 -1.050781 4.207031 -0.492188 3.90625 -0.015625 C 3.613281 0.460938 3.179688 0.703125 2.609375 0.703125 C 2.160156 0.703125 1.8125 0.5 1.5625 0.09375 C 1.320312 -0.3125 1.144531 -0.789062 1.03125 -1.34375 C 0.914062 -1.894531 0.847656 -2.453125 0.828125 -3.015625 C 0.816406 -3.578125 0.8125 -4.007812 0.8125 -4.3125 C 0.8125 -5.59375 0.84375 -6.875 0.90625 -8.15625 C 0.976562 -9.445312 1.023438 -10.738281 1.046875 -12.03125 C 1.046875 -12.320312 1.046875 -12.707031 1.046875 -13.1875 C 1.054688 -13.664062 1.085938 -14.179688 1.140625 -14.734375 C 1.191406 -15.296875 1.269531 -15.863281 1.375 -16.4375 C 1.488281 -17.007812 1.640625 -17.523438 1.828125 -17.984375 C 2.015625 -18.453125 2.257812 -18.828125 2.5625 -19.109375 C 2.875 -19.398438 3.242188 -19.546875 3.671875 -19.546875 C 3.992188 -19.546875 4.257812 -19.425781 4.46875 -19.1875 C 4.6875 -18.957031 4.859375 -18.660156 4.984375 -18.296875 C 5.117188 -17.929688 5.21875 -17.519531 5.28125 -17.0625 C 5.34375 -16.613281 5.382812 -16.164062 5.40625 -15.71875 C 5.4375 -15.28125 5.453125 -14.867188 5.453125 -14.484375 C 5.453125 -14.097656 5.453125 -13.789062 5.453125 -13.5625 C 5.453125 -13.40625 5.445312 -13.175781 5.4375 -12.875 C 5.425781 -12.570312 5.414062 -12.253906 5.40625 -11.921875 C 5.40625 -11.585938 5.40625 -11.28125 5.40625 -11 C 5.40625 -10.726562 5.421875 -10.53125 5.453125 -10.40625 C 5.578125 -10.40625 5.757812 -10.519531 6 -10.75 C 6.238281 -10.988281 6.519531 -11.289062 6.84375 -11.65625 C 7.164062 -12.03125 7.515625 -12.421875 7.890625 -12.828125 C 8.265625 -13.234375 8.644531 -13.617188 9.03125 -13.984375 C 9.425781 -14.347656 9.816406 -14.644531 10.203125 -14.875 C 10.585938 -15.113281 10.941406 -15.234375 11.265625 -15.234375 C 11.617188 -15.234375 11.890625 -15.109375 12.078125 -14.859375 C 12.273438 -14.617188 12.375 -14.34375 12.375 -14.03125 Z M 12.375 -14.03125 "/></g></g></g><g fill="#5289b8" fill-opacity="1"><g transform="translate(106.823469, 31.70019)"><g><path d="M 6.4375 7.59375 C 6.019531 7.59375 5.546875 7.523438 5.015625 7.390625 C 4.492188 7.265625 3.992188 7.078125 3.515625 6.828125 C 3.046875 6.585938 2.648438 6.289062 2.328125 5.9375 C 2.015625 5.59375 1.859375 5.195312 1.859375 4.75 C 1.859375 4.570312 1.898438 4.394531 1.984375 4.21875 C 2.066406 4.050781 2.179688 3.898438 2.328125 3.765625 C 2.484375 3.640625 2.644531 3.535156 2.8125 3.453125 C 2.988281 3.378906 3.171875 3.34375 3.359375 3.34375 C 3.566406 3.34375 3.769531 3.367188 3.96875 3.421875 C 4.175781 3.484375 4.382812 3.5625 4.59375 3.65625 C 4.820312 3.738281 5.039062 3.8125 5.25 3.875 C 5.46875 3.945312 5.703125 3.984375 5.953125 3.984375 C 6.378906 3.984375 6.753906 3.835938 7.078125 3.546875 C 7.398438 3.253906 7.675781 2.867188 7.90625 2.390625 C 8.132812 1.910156 8.316406 1.378906 8.453125 0.796875 C 8.585938 0.210938 8.691406 -0.363281 8.765625 -0.9375 C 8.847656 -1.507812 8.90625 -2.046875 8.9375 -2.546875 C 8.976562 -3.054688 9.007812 -3.46875 9.03125 -3.78125 C 8.414062 -2.863281 7.804688 -2.15625 7.203125 -1.65625 C 6.609375 -1.15625 5.878906 -0.90625 5.015625 -0.90625 C 4.347656 -0.90625 3.765625 -1.046875 3.265625 -1.328125 C 2.773438 -1.609375 2.351562 -1.972656 2 -2.421875 C 1.65625 -2.878906 1.367188 -3.398438 1.140625 -3.984375 C 0.921875 -4.566406 0.753906 -5.171875 0.640625 -5.796875 C 0.523438 -6.421875 0.445312 -7.03125 0.40625 -7.625 C 0.375 -8.226562 0.378906 -8.78125 0.421875 -9.28125 C 0.429688 -9.664062 0.472656 -10.164062 0.546875 -10.78125 C 0.628906 -11.40625 0.757812 -12.007812 0.9375 -12.59375 C 1.113281 -13.1875 1.359375 -13.6875 1.671875 -14.09375 C 1.984375 -14.507812 2.390625 -14.695312 2.890625 -14.65625 C 3.222656 -14.644531 3.492188 -14.503906 3.703125 -14.234375 C 3.910156 -13.960938 4.078125 -13.625 4.203125 -13.21875 C 4.335938 -12.820312 4.4375 -12.382812 4.5 -11.90625 C 4.5625 -11.425781 4.597656 -10.953125 4.609375 -10.484375 C 4.628906 -10.015625 4.632812 -9.582031 4.625 -9.1875 C 4.625 -8.800781 4.625 -8.503906 4.625 -8.296875 C 4.625 -8.003906 4.628906 -7.707031 4.640625 -7.40625 C 4.660156 -7.113281 4.722656 -6.847656 4.828125 -6.609375 C 4.929688 -6.378906 5.09375 -6.191406 5.3125 -6.046875 C 5.53125 -5.910156 5.835938 -5.84375 6.234375 -5.84375 C 6.691406 -5.84375 7.050781 -5.953125 7.3125 -6.171875 C 7.582031 -6.398438 7.78125 -6.6875 7.90625 -7.03125 C 8.039062 -7.375 8.125 -7.738281 8.15625 -8.125 C 8.195312 -8.519531 8.21875 -8.890625 8.21875 -9.234375 C 8.21875 -9.484375 8.21875 -9.78125 8.21875 -10.125 C 8.21875 -10.46875 8.222656 -10.832031 8.234375 -11.21875 C 8.242188 -11.601562 8.273438 -11.984375 8.328125 -12.359375 C 8.390625 -12.734375 8.484375 -13.070312 8.609375 -13.375 C 8.742188 -13.675781 8.921875 -13.921875 9.140625 -14.109375 C 9.359375 -14.304688 9.644531 -14.40625 10 -14.40625 C 10.425781 -14.40625 10.796875 -14.234375 11.109375 -13.890625 C 11.421875 -13.554688 11.6875 -13.113281 11.90625 -12.5625 C 12.125 -12.007812 12.296875 -11.40625 12.421875 -10.75 C 12.554688 -10.09375 12.660156 -9.4375 12.734375 -8.78125 C 12.804688 -8.125 12.851562 -7.519531 12.875 -6.96875 C 12.90625 -6.425781 12.921875 -6 12.921875 -5.6875 C 12.921875 -4.957031 12.894531 -4.125 12.84375 -3.1875 C 12.789062 -2.257812 12.6875 -1.304688 12.53125 -0.328125 C 12.382812 0.648438 12.160156 1.613281 11.859375 2.5625 C 11.566406 3.507812 11.179688 4.359375 10.703125 5.109375 C 10.234375 5.859375 9.648438 6.457031 8.953125 6.90625 C 8.253906 7.363281 7.414062 7.59375 6.4375 7.59375 Z M 6.4375 7.59375 "/></g></g></g></svg>