<svg xmlns="http://www.w3.org/2000/svg" xmlns:xlink="http://www.w3.org/1999/xlink" width="239" zoomAndPan="magnify" viewBox="0 0 179.25 46.499999" height="62" preserveAspectRatio="xMidYMid meet" version="1.0"><defs><g/><clipPath id="c48b0f8564"><path d="M 0.582031 0.113281 L 177.609375 0.113281 L 177.609375 45.480469 L 0.582031 45.480469 Z M 0.582031 0.113281 " clip-rule="nonzero"/></clipPath><clipPath id="bf7679d77b"><path d="M 23.265625 0.113281 L 154.832031 0.113281 C 160.847656 0.113281 166.617188 2.503906 170.871094 6.757812 C 175.125 11.011719 177.515625 16.78125 177.515625 22.796875 C 177.515625 28.8125 175.125 34.582031 170.871094 38.835938 C 166.617188 43.089844 160.847656 45.480469 154.832031 45.480469 L 23.265625 45.480469 C 17.25 45.480469 11.480469 43.089844 7.226562 38.835938 C 2.972656 34.582031 0.582031 28.8125 0.582031 22.796875 C 0.582031 16.78125 2.972656 11.011719 7.226562 6.757812 C 11.480469 2.503906 17.25 0.113281 23.265625 0.113281 Z M 23.265625 0.113281 " clip-rule="nonzero"/></clipPath><clipPath id="fe22a28155"><path d="M 0.582031 0.113281 L 177.609375 0.113281 L 177.609375 45.480469 L 0.582031 45.480469 Z M 0.582031 0.113281 " clip-rule="nonzero"/></clipPath><clipPath id="acaaf66912"><path d="M 23.265625 0.113281 L 154.832031 0.113281 C 160.847656 0.113281 166.617188 2.503906 170.871094 6.757812 C 175.125 11.011719 177.515625 16.78125 177.515625 22.796875 C 177.515625 28.8125 175.125 34.582031 170.871094 38.835938 C 166.617188 43.089844 160.847656 45.480469 154.832031 45.480469 L 23.265625 45.480469 C 17.25 45.480469 11.480469 43.089844 7.226562 38.835938 C 2.972656 34.582031 0.582031 28.8125 0.582031 22.796875 C 0.582031 16.78125 2.972656 11.011719 7.226562 6.757812 C 11.480469 2.503906 17.25 0.113281 23.265625 0.113281 Z M 23.265625 0.113281 " clip-rule="nonzero"/></clipPath><clipPath id="9e7ee1c03c"><rect x="0" width="178" y="0" height="46"/></clipPath></defs><g clip-path="url(#c48b0f8564)"><g clip-path="url(#bf7679d77b)"><g transform="matrix(1, 0, 0, 1, 0.000000000000000111, 0)"><g clip-path="url(#9e7ee1c03c)"><g clip-path="url(#fe22a28155)"><g clip-path="url(#acaaf66912)"><path fill="#e8f0f6" d="M 0.582031 0.113281 L 177.433594 0.113281 L 177.433594 45.480469 L 0.582031 45.480469 Z M 0.582031 0.113281 " fill-opacity="1" fill-rule="nonzero"/></g></g></g></g></g></g><g fill="#5289b8" fill-opacity="1"><g transform="translate(28.783497, 31.70019)"><g><path d="M 8.1875 0.734375 C 7.894531 0.734375 7.660156 0.597656 7.484375 0.328125 C 7.316406 0.0546875 7.1875 -0.25 7.09375 -0.59375 C 7.007812 -0.945312 6.953125 -1.300781 6.921875 -1.65625 C 6.898438 -2.007812 6.890625 -2.285156 6.890625 -2.484375 C 6.890625 -3.003906 6.921875 -3.523438 6.984375 -4.046875 C 7.046875 -4.566406 7.113281 -5.085938 7.1875 -5.609375 C 7.269531 -6.128906 7.335938 -6.648438 7.390625 -7.171875 C 7.453125 -7.691406 7.484375 -8.210938 7.484375 -8.734375 C 7.484375 -8.941406 7.472656 -9.164062 7.453125 -9.40625 C 7.441406 -9.65625 7.40625 -9.890625 7.34375 -10.109375 C 7.28125 -10.328125 7.179688 -10.503906 7.046875 -10.640625 C 6.910156 -10.785156 6.726562 -10.859375 6.5 -10.859375 C 6.34375 -10.859375 6.164062 -10.726562 5.96875 -10.46875 C 5.78125 -10.21875 5.601562 -9.929688 5.4375 -9.609375 C 5.269531 -9.285156 5.128906 -8.960938 5.015625 -8.640625 C 4.910156 -8.328125 4.859375 -8.09375 4.859375 -7.9375 C 4.859375 -7.550781 4.859375 -7.160156 4.859375 -6.765625 C 4.867188 -6.378906 4.875 -5.984375 4.875 -5.578125 L 4.875 -4.078125 C 4.863281 -3.753906 4.835938 -3.425781 4.796875 -3.09375 C 4.765625 -2.769531 4.710938 -2.453125 4.640625 -2.140625 C 4.585938 -1.828125 4.507812 -1.523438 4.40625 -1.234375 C 4.300781 -0.953125 4.164062 -0.703125 4 -0.484375 C 3.832031 -0.265625 3.632812 -0.0859375 3.40625 0.046875 C 3.1875 0.191406 2.921875 0.265625 2.609375 0.265625 C 2.265625 0.265625 1.976562 0.148438 1.75 -0.078125 C 1.519531 -0.304688 1.332031 -0.597656 1.1875 -0.953125 C 1.050781 -1.304688 0.953125 -1.703125 0.890625 -2.140625 C 0.835938 -2.585938 0.796875 -3.023438 0.765625 -3.453125 C 0.742188 -3.878906 0.734375 -4.269531 0.734375 -4.625 C 0.742188 -4.988281 0.75 -5.273438 0.75 -5.484375 L 0.75 -6.703125 C 0.75 -7.367188 0.734375 -8.019531 0.703125 -8.65625 C 0.679688 -9.300781 0.671875 -9.945312 0.671875 -10.59375 C 0.671875 -10.9375 0.675781 -11.378906 0.6875 -11.921875 C 0.695312 -12.460938 0.757812 -12.988281 0.875 -13.5 C 1 -14.007812 1.203125 -14.445312 1.484375 -14.8125 C 1.765625 -15.1875 2.175781 -15.375 2.71875 -15.375 C 2.957031 -15.375 3.171875 -15.296875 3.359375 -15.140625 C 3.554688 -14.984375 3.726562 -14.789062 3.875 -14.5625 C 4.019531 -14.332031 4.140625 -14.085938 4.234375 -13.828125 C 4.335938 -13.566406 4.414062 -13.34375 4.46875 -13.15625 C 4.632812 -13.394531 4.832031 -13.625 5.0625 -13.84375 C 5.300781 -14.070312 5.566406 -14.273438 5.859375 -14.453125 C 6.160156 -14.628906 6.492188 -14.769531 6.859375 -14.875 C 7.222656 -14.976562 7.640625 -15.03125 8.109375 -15.03125 C 9.003906 -15.03125 9.695312 -14.816406 10.1875 -14.390625 C 10.6875 -13.960938 11.050781 -13.429688 11.28125 -12.796875 C 11.519531 -12.160156 11.664062 -11.476562 11.71875 -10.75 C 11.769531 -10.019531 11.796875 -9.359375 11.796875 -8.765625 C 11.796875 -8.472656 11.769531 -8.035156 11.71875 -7.453125 C 11.664062 -6.867188 11.582031 -6.222656 11.46875 -5.515625 C 11.351562 -4.816406 11.195312 -4.097656 11 -3.359375 C 10.8125 -2.617188 10.585938 -1.941406 10.328125 -1.328125 C 10.066406 -0.722656 9.757812 -0.226562 9.40625 0.15625 C 9.050781 0.539062 8.644531 0.734375 8.1875 0.734375 Z M 8.1875 0.734375 "/></g></g></g><g fill="#5289b8" fill-opacity="1"><g transform="translate(45.900947, 31.70019)"><g><path d="M 10.46875 -10.015625 C 10.46875 -9.929688 10.457031 -9.84375 10.4375 -9.75 C 10.414062 -9.65625 10.390625 -9.5625 10.359375 -9.46875 C 10.203125 -9.070312 9.957031 -8.738281 9.625 -8.46875 C 9.289062 -8.195312 8.898438 -8.0625 8.453125 -8.0625 C 7.773438 -8.0625 7.316406 -8.398438 7.078125 -9.078125 C 7.035156 -9.160156 7.015625 -9.257812 7.015625 -9.375 C 7.015625 -9.488281 7.007812 -9.609375 7 -9.734375 L 7 -10.484375 C 6.957031 -10.734375 6.894531 -10.925781 6.8125 -11.0625 C 6.726562 -11.195312 6.578125 -11.265625 6.359375 -11.265625 C 6.066406 -11.265625 5.785156 -11.078125 5.515625 -10.703125 C 5.242188 -10.335938 5.007812 -9.894531 4.8125 -9.375 C 4.613281 -8.863281 4.453125 -8.335938 4.328125 -7.796875 C 4.210938 -7.265625 4.15625 -6.832031 4.15625 -6.5 C 4.15625 -6.238281 4.171875 -5.921875 4.203125 -5.546875 C 4.234375 -5.171875 4.300781 -4.804688 4.40625 -4.453125 C 4.507812 -4.109375 4.648438 -3.8125 4.828125 -3.5625 C 5.015625 -3.3125 5.257812 -3.1875 5.5625 -3.1875 C 5.851562 -3.1875 6.125 -3.273438 6.375 -3.453125 C 6.632812 -3.640625 6.882812 -3.851562 7.125 -4.09375 C 7.351562 -4.300781 7.597656 -4.519531 7.859375 -4.75 C 8.128906 -4.976562 8.441406 -5.09375 8.796875 -5.09375 C 9.234375 -5.09375 9.578125 -4.9375 9.828125 -4.625 C 10.078125 -4.3125 10.203125 -3.953125 10.203125 -3.546875 C 10.203125 -2.953125 10.046875 -2.398438 9.734375 -1.890625 C 9.421875 -1.378906 9.03125 -0.9375 8.5625 -0.5625 C 8.09375 -0.1875 7.566406 0.109375 6.984375 0.328125 C 6.410156 0.546875 5.863281 0.65625 5.34375 0.65625 C 4.40625 0.65625 3.609375 0.421875 2.953125 -0.046875 C 2.304688 -0.515625 1.78125 -1.109375 1.375 -1.828125 C 0.976562 -2.554688 0.691406 -3.347656 0.515625 -4.203125 C 0.347656 -5.054688 0.265625 -5.863281 0.265625 -6.625 C 0.265625 -7.507812 0.382812 -8.46875 0.625 -9.5 C 0.863281 -10.539062 1.234375 -11.503906 1.734375 -12.390625 C 2.242188 -13.273438 2.894531 -14.015625 3.6875 -14.609375 C 4.476562 -15.203125 5.421875 -15.5 6.515625 -15.5 C 7.203125 -15.5 7.789062 -15.347656 8.28125 -15.046875 C 8.78125 -14.753906 9.191406 -14.367188 9.515625 -13.890625 C 9.835938 -13.410156 10.078125 -12.875 10.234375 -12.28125 C 10.398438 -11.695312 10.484375 -11.117188 10.484375 -10.546875 C 10.484375 -10.453125 10.484375 -10.363281 10.484375 -10.28125 C 10.484375 -10.195312 10.476562 -10.109375 10.46875 -10.015625 Z M 10.46875 -10.015625 "/></g></g></g><g fill="#5289b8" fill-opacity="1"><g transform="translate(61.687976, 31.70019)"><g><path d="M 6.859375 0.9375 C 5.628906 0.9375 4.671875 0.773438 3.984375 0.453125 C 3.296875 0.128906 2.78125 -0.320312 2.4375 -0.90625 C 2.101562 -1.5 1.898438 -2.210938 1.828125 -3.046875 C 1.753906 -3.890625 1.71875 -4.820312 1.71875 -5.84375 C 1.71875 -6.664062 1.742188 -7.488281 1.796875 -8.3125 C 1.847656 -9.132812 1.925781 -10.015625 2.03125 -10.953125 C 1.789062 -10.953125 1.597656 -10.945312 1.453125 -10.9375 C 1.316406 -10.9375 1.207031 -10.9375 1.125 -10.9375 C 0.5625 -10.9375 0.078125 -11.054688 -0.328125 -11.296875 C -0.734375 -11.535156 -0.9375 -11.910156 -0.9375 -12.421875 C -0.9375 -12.734375 -0.816406 -13.007812 -0.578125 -13.25 C -0.347656 -13.5 -0.0507812 -13.707031 0.3125 -13.875 C 0.675781 -14.050781 1.070312 -14.191406 1.5 -14.296875 C 1.925781 -14.398438 2.332031 -14.46875 2.71875 -14.5 C 2.71875 -14.988281 2.75 -15.53125 2.8125 -16.125 C 2.882812 -16.71875 3.007812 -17.269531 3.1875 -17.78125 C 3.375 -18.289062 3.625 -18.71875 3.9375 -19.0625 C 4.25 -19.414062 4.648438 -19.59375 5.140625 -19.59375 C 5.421875 -19.59375 5.664062 -19.507812 5.875 -19.34375 C 6.09375 -19.175781 6.269531 -18.96875 6.40625 -18.71875 C 6.550781 -18.46875 6.660156 -18.1875 6.734375 -17.875 C 6.804688 -17.5625 6.84375 -17.253906 6.84375 -16.953125 C 6.84375 -16.609375 6.816406 -16.253906 6.765625 -15.890625 C 6.710938 -15.523438 6.613281 -15.070312 6.46875 -14.53125 C 6.769531 -14.5625 6.972656 -14.582031 7.078125 -14.59375 C 7.179688 -14.601562 7.273438 -14.609375 7.359375 -14.609375 C 7.648438 -14.609375 7.957031 -14.582031 8.28125 -14.53125 C 8.601562 -14.476562 8.898438 -14.390625 9.171875 -14.265625 C 9.441406 -14.148438 9.660156 -13.988281 9.828125 -13.78125 C 10.003906 -13.582031 10.09375 -13.347656 10.09375 -13.078125 C 10.09375 -12.765625 9.96875 -12.484375 9.71875 -12.234375 C 9.46875 -11.992188 9.148438 -11.785156 8.765625 -11.609375 C 8.378906 -11.429688 7.96875 -11.296875 7.53125 -11.203125 C 7.101562 -11.109375 6.695312 -11.046875 6.3125 -11.015625 C 6.207031 -10.296875 6.132812 -9.632812 6.09375 -9.03125 C 6.050781 -8.4375 6.003906 -7.835938 5.953125 -7.234375 C 5.910156 -6.929688 5.875 -6.628906 5.84375 -6.328125 C 5.820312 -6.023438 5.8125 -5.71875 5.8125 -5.40625 C 5.8125 -5.175781 5.820312 -4.910156 5.84375 -4.609375 C 5.863281 -4.304688 5.925781 -4.015625 6.03125 -3.734375 C 6.132812 -3.453125 6.296875 -3.210938 6.515625 -3.015625 C 6.742188 -2.816406 7.0625 -2.71875 7.46875 -2.71875 C 7.707031 -2.71875 7.957031 -2.738281 8.21875 -2.78125 C 8.476562 -2.820312 8.738281 -2.84375 9 -2.84375 C 9.457031 -2.84375 9.785156 -2.6875 9.984375 -2.375 C 10.179688 -2.0625 10.28125 -1.660156 10.28125 -1.171875 C 10.28125 -0.804688 10.171875 -0.488281 9.953125 -0.21875 C 9.734375 0.0507812 9.457031 0.265625 9.125 0.421875 C 8.800781 0.585938 8.429688 0.710938 8.015625 0.796875 C 7.609375 0.890625 7.222656 0.9375 6.859375 0.9375 Z M 6.859375 0.9375 "/></g></g></g><g fill="#5289b8" fill-opacity="1"><g transform="translate(76.353278, 31.70019)"><g/></g></g><g fill="#5289b8" fill-opacity="1"><g transform="translate(87.288184, 31.70019)"><g><path d="M 13.78125 0.34375 C 13.21875 0.34375 12.710938 0.046875 12.265625 -0.546875 C 11.828125 -1.140625 11.441406 -1.847656 11.109375 -2.671875 C 10.785156 -3.492188 10.515625 -4.335938 10.296875 -5.203125 C 10.078125 -6.078125 9.914062 -6.804688 9.8125 -7.390625 C 9.675781 -7.035156 9.488281 -6.601562 9.25 -6.09375 C 9.007812 -5.59375 8.738281 -5.0625 8.4375 -4.5 C 8.132812 -3.945312 7.804688 -3.390625 7.453125 -2.828125 C 7.109375 -2.265625 6.75 -1.753906 6.375 -1.296875 C 6 -0.847656 5.625 -0.484375 5.25 -0.203125 C 4.882812 0.0664062 4.523438 0.203125 4.171875 0.203125 C 3.703125 0.203125 3.289062 -0.0195312 2.9375 -0.46875 C 2.582031 -0.914062 2.28125 -1.503906 2.03125 -2.234375 C 1.789062 -2.972656 1.585938 -3.785156 1.421875 -4.671875 C 1.253906 -5.554688 1.125 -6.441406 1.03125 -7.328125 C 0.945312 -8.210938 0.890625 -9.035156 0.859375 -9.796875 C 0.828125 -10.566406 0.8125 -11.1875 0.8125 -11.65625 C 0.8125 -12.09375 0.832031 -12.507812 0.875 -12.90625 C 0.914062 -13.3125 1 -13.671875 1.125 -13.984375 C 1.257812 -14.296875 1.453125 -14.539062 1.703125 -14.71875 C 1.960938 -14.90625 2.300781 -15 2.71875 -15 C 3.113281 -15 3.453125 -14.847656 3.734375 -14.546875 C 4.023438 -14.253906 4.265625 -13.867188 4.453125 -13.390625 C 4.648438 -12.921875 4.804688 -12.382812 4.921875 -11.78125 C 5.046875 -11.175781 5.144531 -10.566406 5.21875 -9.953125 C 5.289062 -9.335938 5.335938 -8.738281 5.359375 -8.15625 C 5.390625 -7.570312 5.410156 -7.070312 5.421875 -6.65625 C 5.523438 -7.019531 5.671875 -7.46875 5.859375 -8 C 6.054688 -8.53125 6.269531 -9.09375 6.5 -9.6875 C 6.726562 -10.289062 6.972656 -10.890625 7.234375 -11.484375 C 7.503906 -12.078125 7.773438 -12.609375 8.046875 -13.078125 C 8.316406 -13.546875 8.582031 -13.925781 8.84375 -14.21875 C 9.101562 -14.507812 9.359375 -14.65625 9.609375 -14.65625 L 9.625 -14.65625 C 9.9375 -14.65625 10.238281 -14.507812 10.53125 -14.21875 C 10.832031 -13.925781 11.117188 -13.546875 11.390625 -13.078125 C 11.671875 -12.609375 11.929688 -12.070312 12.171875 -11.46875 C 12.421875 -10.863281 12.648438 -10.253906 12.859375 -9.640625 C 13.066406 -9.023438 13.25 -8.425781 13.40625 -7.84375 C 13.5625 -7.257812 13.691406 -6.757812 13.796875 -6.34375 C 13.816406 -6.84375 13.84375 -7.410156 13.875 -8.046875 C 13.914062 -8.679688 13.984375 -9.320312 14.078125 -9.96875 C 14.171875 -10.613281 14.300781 -11.238281 14.46875 -11.84375 C 14.632812 -12.457031 14.835938 -13 15.078125 -13.46875 C 15.328125 -13.945312 15.628906 -14.332031 15.984375 -14.625 C 16.335938 -14.914062 16.75 -15.0625 17.21875 -15.0625 C 17.707031 -15.0625 18.066406 -14.890625 18.296875 -14.546875 C 18.535156 -14.203125 18.65625 -13.789062 18.65625 -13.3125 C 18.65625 -12.789062 18.585938 -12.09375 18.453125 -11.21875 C 18.328125 -10.351562 18.148438 -9.410156 17.921875 -8.390625 C 17.703125 -7.367188 17.4375 -6.335938 17.125 -5.296875 C 16.820312 -4.265625 16.488281 -3.332031 16.125 -2.5 C 15.757812 -1.664062 15.375 -0.984375 14.96875 -0.453125 C 14.570312 0.078125 14.175781 0.34375 13.78125 0.34375 Z M 13.78125 0.34375 "/></g></g></g><g fill="#5289b8" fill-opacity="1"><g transform="translate(111.240345, 31.70019)"><g><path d="M 5.09375 -18.21875 C 5.09375 -17.96875 5.023438 -17.742188 4.890625 -17.546875 C 4.765625 -17.359375 4.597656 -17.191406 4.390625 -17.046875 C 4.179688 -16.898438 3.953125 -16.785156 3.703125 -16.703125 C 3.460938 -16.628906 3.238281 -16.59375 3.03125 -16.59375 C 2.675781 -16.59375 2.367188 -16.675781 2.109375 -16.84375 C 1.847656 -17.019531 1.71875 -17.296875 1.71875 -17.671875 C 1.71875 -17.929688 1.78125 -18.160156 1.90625 -18.359375 C 2.039062 -18.554688 2.203125 -18.71875 2.390625 -18.84375 C 2.585938 -18.976562 2.804688 -19.078125 3.046875 -19.140625 C 3.296875 -19.210938 3.53125 -19.25 3.75 -19.25 C 4.082031 -19.25 4.390625 -19.171875 4.671875 -19.015625 C 4.953125 -18.859375 5.09375 -18.59375 5.09375 -18.21875 Z M 5.296875 -9.34375 C 5.296875 -9.09375 5.296875 -8.832031 5.296875 -8.5625 C 5.296875 -8.300781 5.285156 -8.046875 5.265625 -7.796875 C 5.253906 -7.503906 5.25 -7.109375 5.25 -6.609375 C 5.25 -6.117188 5.226562 -5.585938 5.1875 -5.015625 C 5.15625 -4.441406 5.097656 -3.859375 5.015625 -3.265625 C 4.941406 -2.671875 4.816406 -2.128906 4.640625 -1.640625 C 4.472656 -1.148438 4.242188 -0.753906 3.953125 -0.453125 C 3.660156 -0.148438 3.300781 0.0078125 2.875 0.03125 C 2.539062 0.0390625 2.257812 -0.0859375 2.03125 -0.359375 C 1.8125 -0.640625 1.625 -1 1.46875 -1.4375 C 1.320312 -1.882812 1.210938 -2.378906 1.140625 -2.921875 C 1.078125 -3.472656 1.023438 -4.003906 0.984375 -4.515625 C 0.953125 -5.035156 0.9375 -5.507812 0.9375 -5.9375 C 0.9375 -6.375 0.9375 -6.703125 0.9375 -6.921875 C 0.9375 -7.191406 0.9375 -7.582031 0.9375 -8.09375 C 0.9375 -8.613281 0.953125 -9.164062 0.984375 -9.75 C 1.023438 -10.34375 1.09375 -10.941406 1.1875 -11.546875 C 1.28125 -12.160156 1.414062 -12.71875 1.59375 -13.21875 C 1.78125 -13.726562 2.019531 -14.140625 2.3125 -14.453125 C 2.613281 -14.765625 2.988281 -14.921875 3.4375 -14.921875 C 3.914062 -14.921875 4.273438 -14.6875 4.515625 -14.21875 C 4.753906 -13.75 4.9375 -13.203125 5.0625 -12.578125 C 5.1875 -11.953125 5.253906 -11.328125 5.265625 -10.703125 C 5.285156 -10.085938 5.296875 -9.632812 5.296875 -9.34375 Z M 5.296875 -9.34375 "/></g></g></g><g fill="#5289b8" fill-opacity="1"><g transform="translate(122.253511, 31.70019)"><g><path d="M 8.421875 -14.34375 C 8.421875 -13.84375 8.25 -13.46875 7.90625 -13.21875 C 7.570312 -12.976562 7.195312 -12.75 6.78125 -12.53125 C 6.363281 -12.320312 5.984375 -12.066406 5.640625 -11.765625 C 5.304688 -11.472656 5.140625 -11.03125 5.140625 -10.4375 C 5.140625 -10.125 5.210938 -9.851562 5.359375 -9.625 C 5.503906 -9.394531 5.6875 -9.1875 5.90625 -9 C 6.125 -8.820312 6.363281 -8.640625 6.625 -8.453125 C 6.882812 -8.265625 7.125 -8.046875 7.34375 -7.796875 C 7.5625 -7.554688 7.742188 -7.257812 7.890625 -6.90625 C 8.035156 -6.5625 8.109375 -6.140625 8.109375 -5.640625 C 8.109375 -4.910156 7.921875 -4.191406 7.546875 -3.484375 C 7.179688 -2.773438 6.707031 -2.144531 6.125 -1.59375 C 5.539062 -1.050781 4.878906 -0.613281 4.140625 -0.28125 C 3.410156 0.0390625 2.691406 0.203125 1.984375 0.203125 C 1.691406 0.203125 1.394531 0.179688 1.09375 0.140625 C 0.800781 0.0976562 0.535156 0.0195312 0.296875 -0.09375 C 0.0664062 -0.21875 -0.125 -0.390625 -0.28125 -0.609375 C -0.4375 -0.828125 -0.515625 -1.113281 -0.515625 -1.46875 C -0.515625 -1.945312 -0.421875 -2.320312 -0.234375 -2.59375 C -0.046875 -2.863281 0.191406 -3.078125 0.484375 -3.234375 C 0.785156 -3.390625 1.101562 -3.507812 1.4375 -3.59375 C 1.78125 -3.6875 2.097656 -3.796875 2.390625 -3.921875 C 2.691406 -4.054688 2.9375 -4.226562 3.125 -4.4375 C 3.320312 -4.644531 3.421875 -4.941406 3.421875 -5.328125 C 3.421875 -5.691406 3.273438 -6.066406 2.984375 -6.453125 C 2.703125 -6.847656 2.382812 -7.265625 2.03125 -7.703125 C 1.6875 -8.148438 1.367188 -8.625 1.078125 -9.125 C 0.796875 -9.632812 0.65625 -10.191406 0.65625 -10.796875 C 0.65625 -11.546875 0.804688 -12.238281 1.109375 -12.875 C 1.410156 -13.507812 1.816406 -14.0625 2.328125 -14.53125 C 2.847656 -15 3.4375 -15.367188 4.09375 -15.640625 C 4.757812 -15.910156 5.457031 -16.046875 6.1875 -16.046875 C 6.457031 -16.046875 6.726562 -16.019531 7 -15.96875 C 7.269531 -15.914062 7.507812 -15.820312 7.71875 -15.6875 C 7.925781 -15.5625 8.09375 -15.390625 8.21875 -15.171875 C 8.351562 -14.953125 8.421875 -14.675781 8.421875 -14.34375 Z M 8.421875 -14.34375 "/></g></g></g><g fill="#5289b8" fill-opacity="1"><g transform="translate(135.588392, 31.70019)"><g><path d="M 12.625 -6.765625 C 12.625 -6.460938 12.617188 -6.019531 12.609375 -5.4375 C 12.609375 -4.851562 12.582031 -4.242188 12.53125 -3.609375 C 12.488281 -2.972656 12.429688 -2.375 12.359375 -1.8125 C 12.296875 -1.25 12.210938 -0.835938 12.109375 -0.578125 C 11.960938 -0.242188 11.773438 0.0390625 11.546875 0.28125 C 11.328125 0.53125 11.023438 0.65625 10.640625 0.65625 C 10.054688 0.65625 9.628906 0.421875 9.359375 -0.046875 C 9.097656 -0.515625 8.925781 -1.097656 8.84375 -1.796875 C 8.757812 -2.492188 8.722656 -3.25 8.734375 -4.0625 C 8.753906 -4.882812 8.742188 -5.644531 8.703125 -6.34375 C 8.671875 -7.039062 8.578125 -7.625 8.421875 -8.09375 C 8.265625 -8.5625 7.976562 -8.796875 7.5625 -8.796875 C 6.988281 -8.796875 6.550781 -8.703125 6.25 -8.515625 C 5.945312 -8.335938 5.726562 -8.097656 5.59375 -7.796875 C 5.46875 -7.503906 5.390625 -7.164062 5.359375 -6.78125 C 5.335938 -6.394531 5.304688 -5.992188 5.265625 -5.578125 C 5.234375 -5.179688 5.207031 -4.644531 5.1875 -3.96875 C 5.175781 -3.289062 5.097656 -2.617188 4.953125 -1.953125 C 4.816406 -1.296875 4.585938 -0.726562 4.265625 -0.25 C 3.941406 0.226562 3.46875 0.46875 2.84375 0.46875 C 2.457031 0.46875 2.144531 0.316406 1.90625 0.015625 C 1.675781 -0.273438 1.488281 -0.65625 1.34375 -1.125 C 1.207031 -1.59375 1.109375 -2.113281 1.046875 -2.6875 C 0.992188 -3.257812 0.960938 -3.816406 0.953125 -4.359375 C 0.941406 -4.910156 0.941406 -5.410156 0.953125 -5.859375 C 0.960938 -6.316406 0.96875 -6.660156 0.96875 -6.890625 C 0.96875 -7.234375 0.976562 -7.804688 1 -8.609375 C 1.03125 -9.410156 1.085938 -10.300781 1.171875 -11.28125 C 1.253906 -12.269531 1.363281 -13.285156 1.5 -14.328125 C 1.644531 -15.367188 1.832031 -16.316406 2.0625 -17.171875 C 2.289062 -18.035156 2.5625 -18.738281 2.875 -19.28125 C 3.195312 -19.820312 3.578125 -20.082031 4.015625 -20.0625 C 4.296875 -20.050781 4.535156 -19.929688 4.734375 -19.703125 C 4.929688 -19.472656 5.09375 -19.179688 5.21875 -18.828125 C 5.351562 -18.472656 5.460938 -18.082031 5.546875 -17.65625 C 5.640625 -17.238281 5.707031 -16.828125 5.75 -16.421875 C 5.789062 -16.015625 5.816406 -15.632812 5.828125 -15.28125 C 5.835938 -14.9375 5.84375 -14.671875 5.84375 -14.484375 C 5.84375 -14.023438 5.832031 -13.570312 5.8125 -13.125 C 5.800781 -12.675781 5.773438 -12.222656 5.734375 -11.765625 C 6.140625 -12.304688 6.675781 -12.75 7.34375 -13.09375 C 8.007812 -13.445312 8.6875 -13.625 9.375 -13.625 C 10.238281 -13.625 10.890625 -13.382812 11.328125 -12.90625 C 11.773438 -12.425781 12.09375 -11.832031 12.28125 -11.125 C 12.476562 -10.425781 12.582031 -9.679688 12.59375 -8.890625 C 12.613281 -8.097656 12.625 -7.390625 12.625 -6.765625 Z M 12.625 -6.765625 "/></g></g></g></svg>