<svg xmlns="http://www.w3.org/2000/svg" xmlns:xlink="http://www.w3.org/1999/xlink" width="239" zoomAndPan="magnify" viewBox="0 0 179.25 46.499999" height="62" preserveAspectRatio="xMidYMid meet" version="1.0"><defs><g/><clipPath id="4988c900e0"><path d="M 0.582031 0.113281 L 177.609375 0.113281 L 177.609375 45.480469 L 0.582031 45.480469 Z M 0.582031 0.113281 " clip-rule="nonzero"/></clipPath><clipPath id="477b48df6d"><path d="M 23.265625 0.113281 L 154.832031 0.113281 C 160.847656 0.113281 166.617188 2.503906 170.871094 6.757812 C 175.125 11.011719 177.515625 16.78125 177.515625 22.796875 C 177.515625 28.8125 175.125 34.582031 170.871094 38.835938 C 166.617188 43.089844 160.847656 45.480469 154.832031 45.480469 L 23.265625 45.480469 C 17.25 45.480469 11.480469 43.089844 7.226562 38.835938 C 2.972656 34.582031 0.582031 28.8125 0.582031 22.796875 C 0.582031 16.78125 2.972656 11.011719 7.226562 6.757812 C 11.480469 2.503906 17.25 0.113281 23.265625 0.113281 Z M 23.265625 0.113281 " clip-rule="nonzero"/></clipPath><clipPath id="c36753c8a8"><path d="M 0.582031 0.113281 L 177.609375 0.113281 L 177.609375 45.480469 L 0.582031 45.480469 Z M 0.582031 0.113281 " clip-rule="nonzero"/></clipPath><clipPath id="91593dcfaf"><path d="M 23.265625 0.113281 L 154.832031 0.113281 C 160.847656 0.113281 166.617188 2.503906 170.871094 6.757812 C 175.125 11.011719 177.515625 16.78125 177.515625 22.796875 C 177.515625 28.8125 175.125 34.582031 170.871094 38.835938 C 166.617188 43.089844 160.847656 45.480469 154.832031 45.480469 L 23.265625 45.480469 C 17.25 45.480469 11.480469 43.089844 7.226562 38.835938 C 2.972656 34.582031 0.582031 28.8125 0.582031 22.796875 C 0.582031 16.78125 2.972656 11.011719 7.226562 6.757812 C 11.480469 2.503906 17.25 0.113281 23.265625 0.113281 Z M 23.265625 0.113281 " clip-rule="nonzero"/></clipPath><clipPath id="8752bbcb5e"><rect x="0" width="178" y="0" height="46"/></clipPath></defs><g clip-path="url(#4988c900e0)"><g clip-path="url(#477b48df6d)"><g transform="matrix(1, 0, 0, 1, 0.000000000000000111, 0)"><g clip-path="url(#8752bbcb5e)"><g clip-path="url(#c36753c8a8)"><g clip-path="url(#91593dcfaf)"><path fill="#e8f0f6" d="M 0.582031 0.113281 L 177.433594 0.113281 L 177.433594 45.480469 L 0.582031 45.480469 Z M 0.582031 0.113281 " fill-opacity="1" fill-rule="nonzero"/></g></g></g></g></g></g><g fill="#5289b8" fill-opacity="1"><g transform="translate(67.601688, 31.70019)"><g><path d="M 12.625 -6.765625 C 12.625 -6.460938 12.617188 -6.019531 12.609375 -5.4375 C 12.609375 -4.851562 12.582031 -4.242188 12.53125 -3.609375 C 12.488281 -2.972656 12.429688 -2.375 12.359375 -1.8125 C 12.296875 -1.25 12.210938 -0.835938 12.109375 -0.578125 C 11.960938 -0.242188 11.773438 0.0390625 11.546875 0.28125 C 11.328125 0.53125 11.023438 0.65625 10.640625 0.65625 C 10.054688 0.65625 9.628906 0.421875 9.359375 -0.046875 C 9.097656 -0.515625 8.925781 -1.097656 8.84375 -1.796875 C 8.757812 -2.492188 8.722656 -3.25 8.734375 -4.0625 C 8.753906 -4.882812 8.742188 -5.644531 8.703125 -6.34375 C 8.671875 -7.039062 8.578125 -7.625 8.421875 -8.09375 C 8.265625 -8.5625 7.976562 -8.796875 7.5625 -8.796875 C 6.988281 -8.796875 6.550781 -8.703125 6.25 -8.515625 C 5.945312 -8.335938 5.726562 -8.097656 5.59375 -7.796875 C 5.46875 -7.503906 5.390625 -7.164062 5.359375 -6.78125 C 5.335938 -6.394531 5.304688 -5.992188 5.265625 -5.578125 C 5.234375 -5.179688 5.207031 -4.644531 5.1875 -3.96875 C 5.175781 -3.289062 5.097656 -2.617188 4.953125 -1.953125 C 4.816406 -1.296875 4.585938 -0.726562 4.265625 -0.25 C 3.941406 0.226562 3.46875 0.46875 2.84375 0.46875 C 2.457031 0.46875 2.144531 0.316406 1.90625 0.015625 C 1.675781 -0.273438 1.488281 -0.65625 1.34375 -1.125 C 1.207031 -1.59375 1.109375 -2.113281 1.046875 -2.6875 C 0.992188 -3.257812 0.960938 -3.816406 0.953125 -4.359375 C 0.941406 -4.910156 0.941406 -5.410156 0.953125 -5.859375 C 0.960938 -6.316406 0.96875 -6.660156 0.96875 -6.890625 C 0.96875 -7.234375 0.976562 -7.804688 1 -8.609375 C 1.03125 -9.410156 1.085938 -10.300781 1.171875 -11.28125 C 1.253906 -12.269531 1.363281 -13.285156 1.5 -14.328125 C 1.644531 -15.367188 1.832031 -16.316406 2.0625 -17.171875 C 2.289062 -18.035156 2.5625 -18.738281 2.875 -19.28125 C 3.195312 -19.820312 3.578125 -20.082031 4.015625 -20.0625 C 4.296875 -20.050781 4.535156 -19.929688 4.734375 -19.703125 C 4.929688 -19.472656 5.09375 -19.179688 5.21875 -18.828125 C 5.351562 -18.472656 5.460938 -18.082031 5.546875 -17.65625 C 5.640625 -17.238281 5.707031 -16.828125 5.75 -16.421875 C 5.789062 -16.015625 5.816406 -15.632812 5.828125 -15.28125 C 5.835938 -14.9375 5.84375 -14.671875 5.84375 -14.484375 C 5.84375 -14.023438 5.832031 -13.570312 5.8125 -13.125 C 5.800781 -12.675781 5.773438 -12.222656 5.734375 -11.765625 C 6.140625 -12.304688 6.675781 -12.75 7.34375 -13.09375 C 8.007812 -13.445312 8.6875 -13.625 9.375 -13.625 C 10.238281 -13.625 10.890625 -13.382812 11.328125 -12.90625 C 11.773438 -12.425781 12.09375 -11.832031 12.28125 -11.125 C 12.476562 -10.425781 12.582031 -9.679688 12.59375 -8.890625 C 12.613281 -8.097656 12.625 -7.390625 12.625 -6.765625 Z M 12.625 -6.765625 "/></g></g></g><g fill="#5289b8" fill-opacity="1"><g transform="translate(83.327361, 31.70019)"><g><path d="M 11.875 -3.671875 C 11.875 -3.359375 11.859375 -2.953125 11.828125 -2.453125 C 11.804688 -1.953125 11.734375 -1.460938 11.609375 -0.984375 C 11.484375 -0.503906 11.289062 -0.09375 11.03125 0.25 C 10.769531 0.601562 10.40625 0.78125 9.9375 0.78125 C 9.289062 0.78125 8.796875 0.570312 8.453125 0.15625 C 8.109375 -0.257812 7.941406 -0.78125 7.953125 -1.40625 C 7.398438 -0.914062 6.769531 -0.53125 6.0625 -0.25 C 5.363281 0.0195312 4.644531 0.15625 3.90625 0.15625 C 3.40625 0.15625 2.925781 0.0351562 2.46875 -0.203125 C 2.019531 -0.453125 1.617188 -0.765625 1.265625 -1.140625 C 0.921875 -1.523438 0.644531 -1.957031 0.4375 -2.4375 C 0.226562 -2.914062 0.125 -3.390625 0.125 -3.859375 C 0.125 -4.691406 0.378906 -5.421875 0.890625 -6.046875 C 1.410156 -6.679688 2.039062 -7.21875 2.78125 -7.65625 C 3.53125 -8.101562 4.328125 -8.457031 5.171875 -8.71875 C 6.015625 -8.976562 6.769531 -9.148438 7.4375 -9.234375 C 7.4375 -9.328125 7.441406 -9.40625 7.453125 -9.46875 C 7.460938 -9.539062 7.46875 -9.617188 7.46875 -9.703125 C 7.46875 -10.242188 7.316406 -10.675781 7.015625 -11 C 6.722656 -11.332031 6.304688 -11.5 5.765625 -11.5 C 5.328125 -11.5 4.953125 -11.425781 4.640625 -11.28125 C 4.328125 -11.132812 4.03125 -10.96875 3.75 -10.78125 C 3.476562 -10.601562 3.203125 -10.441406 2.921875 -10.296875 C 2.640625 -10.148438 2.328125 -10.078125 1.984375 -10.078125 C 1.597656 -10.078125 1.269531 -10.195312 1 -10.4375 C 0.726562 -10.675781 0.59375 -10.988281 0.59375 -11.375 C 0.59375 -11.945312 0.765625 -12.46875 1.109375 -12.9375 C 1.453125 -13.40625 1.878906 -13.800781 2.390625 -14.125 C 2.898438 -14.445312 3.453125 -14.695312 4.046875 -14.875 C 4.648438 -15.0625 5.207031 -15.15625 5.71875 -15.15625 C 6.1875 -15.15625 6.65625 -15.097656 7.125 -14.984375 C 7.59375 -14.878906 8.035156 -14.707031 8.453125 -14.46875 C 8.867188 -14.226562 9.242188 -13.9375 9.578125 -13.59375 C 9.921875 -13.257812 10.195312 -12.867188 10.40625 -12.421875 C 10.71875 -11.773438 10.96875 -11.085938 11.15625 -10.359375 C 11.351562 -9.640625 11.503906 -8.898438 11.609375 -8.140625 C 11.710938 -7.390625 11.78125 -6.632812 11.8125 -5.875 C 11.851562 -5.125 11.875 -4.390625 11.875 -3.671875 Z M 7.703125 -4.515625 L 7.625 -6.28125 C 7.582031 -6.28125 7.546875 -6.285156 7.515625 -6.296875 C 7.484375 -6.304688 7.445312 -6.3125 7.40625 -6.3125 C 7.1875 -6.3125 6.90625 -6.253906 6.5625 -6.140625 C 6.21875 -6.023438 5.890625 -5.867188 5.578125 -5.671875 C 5.265625 -5.472656 5 -5.25 4.78125 -5 C 4.570312 -4.757812 4.46875 -4.507812 4.46875 -4.25 C 4.46875 -4.007812 4.550781 -3.84375 4.71875 -3.75 C 4.894531 -3.664062 5.097656 -3.625 5.328125 -3.625 C 5.703125 -3.625 6.109375 -3.722656 6.546875 -3.921875 C 6.984375 -4.128906 7.367188 -4.328125 7.703125 -4.515625 Z M 7.703125 -4.515625 "/></g></g></g><g fill="#5289b8" fill-opacity="1"><g transform="translate(98.009568, 31.70019)"><g><path d="M 8.1875 0.734375 C 7.894531 0.734375 7.660156 0.597656 7.484375 0.328125 C 7.316406 0.0546875 7.1875 -0.25 7.09375 -0.59375 C 7.007812 -0.945312 6.953125 -1.300781 6.921875 -1.65625 C 6.898438 -2.007812 6.890625 -2.285156 6.890625 -2.484375 C 6.890625 -3.003906 6.921875 -3.523438 6.984375 -4.046875 C 7.046875 -4.566406 7.113281 -5.085938 7.1875 -5.609375 C 7.269531 -6.128906 7.335938 -6.648438 7.390625 -7.171875 C 7.453125 -7.691406 7.484375 -8.210938 7.484375 -8.734375 C 7.484375 -8.941406 7.472656 -9.164062 7.453125 -9.40625 C 7.441406 -9.65625 7.40625 -9.890625 7.34375 -10.109375 C 7.28125 -10.328125 7.179688 -10.503906 7.046875 -10.640625 C 6.910156 -10.785156 6.726562 -10.859375 6.5 -10.859375 C 6.34375 -10.859375 6.164062 -10.726562 5.96875 -10.46875 C 5.78125 -10.21875 5.601562 -9.929688 5.4375 -9.609375 C 5.269531 -9.285156 5.128906 -8.960938 5.015625 -8.640625 C 4.910156 -8.328125 4.859375 -8.09375 4.859375 -7.9375 C 4.859375 -7.550781 4.859375 -7.160156 4.859375 -6.765625 C 4.867188 -6.378906 4.875 -5.984375 4.875 -5.578125 L 4.875 -4.078125 C 4.863281 -3.753906 4.835938 -3.425781 4.796875 -3.09375 C 4.765625 -2.769531 4.710938 -2.453125 4.640625 -2.140625 C 4.585938 -1.828125 4.507812 -1.523438 4.40625 -1.234375 C 4.300781 -0.953125 4.164062 -0.703125 4 -0.484375 C 3.832031 -0.265625 3.632812 -0.0859375 3.40625 0.046875 C 3.1875 0.191406 2.921875 0.265625 2.609375 0.265625 C 2.265625 0.265625 1.976562 0.148438 1.75 -0.078125 C 1.519531 -0.304688 1.332031 -0.597656 1.1875 -0.953125 C 1.050781 -1.304688 0.953125 -1.703125 0.890625 -2.140625 C 0.835938 -2.585938 0.796875 -3.023438 0.765625 -3.453125 C 0.742188 -3.878906 0.734375 -4.269531 0.734375 -4.625 C 0.742188 -4.988281 0.75 -5.273438 0.75 -5.484375 L 0.75 -6.703125 C 0.75 -7.367188 0.734375 -8.019531 0.703125 -8.65625 C 0.679688 -9.300781 0.671875 -9.945312 0.671875 -10.59375 C 0.671875 -10.9375 0.675781 -11.378906 0.6875 -11.921875 C 0.695312 -12.460938 0.757812 -12.988281 0.875 -13.5 C 1 -14.007812 1.203125 -14.445312 1.484375 -14.8125 C 1.765625 -15.1875 2.175781 -15.375 2.71875 -15.375 C 2.957031 -15.375 3.171875 -15.296875 3.359375 -15.140625 C 3.554688 -14.984375 3.726562 -14.789062 3.875 -14.5625 C 4.019531 -14.332031 4.140625 -14.085938 4.234375 -13.828125 C 4.335938 -13.566406 4.414062 -13.34375 4.46875 -13.15625 C 4.632812 -13.394531 4.832031 -13.625 5.0625 -13.84375 C 5.300781 -14.070312 5.566406 -14.273438 5.859375 -14.453125 C 6.160156 -14.628906 6.492188 -14.769531 6.859375 -14.875 C 7.222656 -14.976562 7.640625 -15.03125 8.109375 -15.03125 C 9.003906 -15.03125 9.695312 -14.816406 10.1875 -14.390625 C 10.6875 -13.960938 11.050781 -13.429688 11.28125 -12.796875 C 11.519531 -12.160156 11.664062 -11.476562 11.71875 -10.75 C 11.769531 -10.019531 11.796875 -9.359375 11.796875 -8.765625 C 11.796875 -8.472656 11.769531 -8.035156 11.71875 -7.453125 C 11.664062 -6.867188 11.582031 -6.222656 11.46875 -5.515625 C 11.351562 -4.816406 11.195312 -4.097656 11 -3.359375 C 10.8125 -2.617188 10.585938 -1.941406 10.328125 -1.328125 C 10.066406 -0.722656 9.757812 -0.226562 9.40625 0.15625 C 9.050781 0.539062 8.644531 0.734375 8.1875 0.734375 Z M 8.1875 0.734375 "/></g></g></g></svg>