<svg xmlns="http://www.w3.org/2000/svg" xmlns:xlink="http://www.w3.org/1999/xlink" width="239" zoomAndPan="magnify" viewBox="0 0 179.25 46.499999" height="62" preserveAspectRatio="xMidYMid meet" version="1.0"><defs><g/><clipPath id="ef1f1ce561"><path d="M 0.582031 0.113281 L 177.609375 0.113281 L 177.609375 45.480469 L 0.582031 45.480469 Z M 0.582031 0.113281 " clip-rule="nonzero"/></clipPath><clipPath id="daccc112f0"><path d="M 23.265625 0.113281 L 154.832031 0.113281 C 160.847656 0.113281 166.617188 2.503906 170.871094 6.757812 C 175.125 11.011719 177.515625 16.78125 177.515625 22.796875 C 177.515625 28.8125 175.125 34.582031 170.871094 38.835938 C 166.617188 43.089844 160.847656 45.480469 154.832031 45.480469 L 23.265625 45.480469 C 17.25 45.480469 11.480469 43.089844 7.226562 38.835938 C 2.972656 34.582031 0.582031 28.8125 0.582031 22.796875 C 0.582031 16.78125 2.972656 11.011719 7.226562 6.757812 C 11.480469 2.503906 17.25 0.113281 23.265625 0.113281 Z M 23.265625 0.113281 " clip-rule="nonzero"/></clipPath><clipPath id="b12d3fb0e0"><path d="M 0.582031 0.113281 L 177.609375 0.113281 L 177.609375 45.480469 L 0.582031 45.480469 Z M 0.582031 0.113281 " clip-rule="nonzero"/></clipPath><clipPath id="5900b5fb1d"><path d="M 23.265625 0.113281 L 154.832031 0.113281 C 160.847656 0.113281 166.617188 2.503906 170.871094 6.757812 C 175.125 11.011719 177.515625 16.78125 177.515625 22.796875 C 177.515625 28.8125 175.125 34.582031 170.871094 38.835938 C 166.617188 43.089844 160.847656 45.480469 154.832031 45.480469 L 23.265625 45.480469 C 17.25 45.480469 11.480469 43.089844 7.226562 38.835938 C 2.972656 34.582031 0.582031 28.8125 0.582031 22.796875 C 0.582031 16.78125 2.972656 11.011719 7.226562 6.757812 C 11.480469 2.503906 17.25 0.113281 23.265625 0.113281 Z M 23.265625 0.113281 " clip-rule="nonzero"/></clipPath><clipPath id="57d37096ac"><rect x="0" width="178" y="0" height="46"/></clipPath></defs><g clip-path="url(#ef1f1ce561)"><g clip-path="url(#daccc112f0)"><g transform="matrix(1, 0, 0, 1, 0.000000000000000111, 0)"><g clip-path="url(#57d37096ac)"><g clip-path="url(#b12d3fb0e0)"><g clip-path="url(#5900b5fb1d)"><path fill="#e8f0f6" d="M 0.582031 0.113281 L 177.433594 0.113281 L 177.433594 45.480469 L 0.582031 45.480469 Z M 0.582031 0.113281 " fill-opacity="1" fill-rule="nonzero"/></g></g></g></g></g></g><g fill="#5289b8" fill-opacity="1"><g transform="translate(35.277388, 31.70019)"><g><path d="M 5.65625 -15.8125 C 5.65625 -14.875 5.613281 -13.929688 5.53125 -12.984375 C 5.457031 -12.035156 5.421875 -11.082031 5.421875 -10.125 C 5.421875 -8.882812 5.457031 -7.644531 5.53125 -6.40625 C 5.613281 -5.175781 5.65625 -3.9375 5.65625 -2.6875 C 5.65625 -2.375 5.640625 -2.019531 5.609375 -1.625 C 5.578125 -1.238281 5.492188 -0.878906 5.359375 -0.546875 C 5.234375 -0.210938 5.039062 0.0625 4.78125 0.28125 C 4.519531 0.507812 4.171875 0.625 3.734375 0.625 C 3.316406 0.625 2.953125 0.421875 2.640625 0.015625 C 2.335938 -0.390625 2.085938 -0.910156 1.890625 -1.546875 C 1.691406 -2.179688 1.523438 -2.890625 1.390625 -3.671875 C 1.265625 -4.460938 1.171875 -5.226562 1.109375 -5.96875 C 1.046875 -6.707031 1 -7.382812 0.96875 -8 C 0.945312 -8.613281 0.9375 -9.070312 0.9375 -9.375 C 0.9375 -9.695312 0.945312 -10.171875 0.96875 -10.796875 C 1 -11.421875 1.054688 -12.097656 1.140625 -12.828125 C 1.234375 -13.566406 1.351562 -14.3125 1.5 -15.0625 C 1.644531 -15.820312 1.835938 -16.507812 2.078125 -17.125 C 2.328125 -17.75 2.617188 -18.253906 2.953125 -18.640625 C 3.296875 -19.035156 3.703125 -19.234375 4.171875 -19.234375 C 4.554688 -19.234375 4.847656 -19.101562 5.046875 -18.84375 C 5.242188 -18.59375 5.382812 -18.289062 5.46875 -17.9375 C 5.5625 -17.582031 5.613281 -17.207031 5.625 -16.8125 C 5.644531 -16.425781 5.65625 -16.09375 5.65625 -15.8125 Z M 5.65625 -15.8125 "/></g></g></g><g fill="#5289b8" fill-opacity="1"><g transform="translate(44.16835, 31.70019)"><g><path d="M 11.71875 -4.640625 C 11.71875 -4.046875 11.53125 -3.46875 11.15625 -2.90625 C 10.78125 -2.34375 10.304688 -1.835938 9.734375 -1.390625 C 9.171875 -0.953125 8.566406 -0.597656 7.921875 -0.328125 C 7.285156 -0.0546875 6.695312 0.078125 6.15625 0.078125 C 5.238281 0.078125 4.414062 -0.148438 3.6875 -0.609375 C 2.96875 -1.066406 2.363281 -1.648438 1.875 -2.359375 C 1.382812 -3.078125 1.015625 -3.867188 0.765625 -4.734375 C 0.515625 -5.597656 0.390625 -6.4375 0.390625 -7.25 C 0.390625 -8.125 0.507812 -9.054688 0.75 -10.046875 C 1 -11.035156 1.367188 -11.945312 1.859375 -12.78125 C 2.359375 -13.613281 2.984375 -14.304688 3.734375 -14.859375 C 4.492188 -15.421875 5.394531 -15.703125 6.4375 -15.703125 C 7.03125 -15.703125 7.597656 -15.601562 8.140625 -15.40625 C 8.679688 -15.207031 9.148438 -14.925781 9.546875 -14.5625 C 9.953125 -14.195312 10.273438 -13.757812 10.515625 -13.25 C 10.753906 -12.75 10.875 -12.1875 10.875 -11.5625 C 10.875 -10.738281 10.703125 -9.96875 10.359375 -9.25 C 10.015625 -8.539062 9.550781 -7.925781 8.96875 -7.40625 C 8.394531 -6.882812 7.734375 -6.460938 6.984375 -6.140625 C 6.242188 -5.816406 5.484375 -5.640625 4.703125 -5.609375 C 4.765625 -5.109375 4.960938 -4.742188 5.296875 -4.515625 C 5.640625 -4.285156 6.046875 -4.171875 6.515625 -4.171875 C 6.867188 -4.171875 7.207031 -4.257812 7.53125 -4.4375 C 7.863281 -4.613281 8.1875 -4.804688 8.5 -5.015625 C 8.8125 -5.234375 9.117188 -5.429688 9.421875 -5.609375 C 9.734375 -5.785156 10.046875 -5.875 10.359375 -5.875 C 10.703125 -5.875 11.015625 -5.757812 11.296875 -5.53125 C 11.578125 -5.300781 11.71875 -5.003906 11.71875 -4.640625 Z M 7.484375 -11.03125 C 7.484375 -11.257812 7.421875 -11.492188 7.296875 -11.734375 C 7.179688 -11.984375 6.992188 -12.109375 6.734375 -12.109375 C 6.347656 -12.109375 6.023438 -12.003906 5.765625 -11.796875 C 5.503906 -11.597656 5.285156 -11.347656 5.109375 -11.046875 C 4.941406 -10.742188 4.804688 -10.414062 4.703125 -10.0625 C 4.609375 -9.71875 4.554688 -9.398438 4.546875 -9.109375 C 4.785156 -9.160156 5.070312 -9.226562 5.40625 -9.3125 C 5.75 -9.40625 6.070312 -9.523438 6.375 -9.671875 C 6.6875 -9.816406 6.945312 -10 7.15625 -10.21875 C 7.375 -10.445312 7.484375 -10.71875 7.484375 -11.03125 Z M 7.484375 -11.03125 "/></g></g></g><g fill="#5289b8" fill-opacity="1"><g transform="translate(58.172302, 31.70019)"><g><path d="M 11.71875 -4.640625 C 11.71875 -4.046875 11.53125 -3.46875 11.15625 -2.90625 C 10.78125 -2.34375 10.304688 -1.835938 9.734375 -1.390625 C 9.171875 -0.953125 8.566406 -0.597656 7.921875 -0.328125 C 7.285156 -0.0546875 6.695312 0.078125 6.15625 0.078125 C 5.238281 0.078125 4.414062 -0.148438 3.6875 -0.609375 C 2.96875 -1.066406 2.363281 -1.648438 1.875 -2.359375 C 1.382812 -3.078125 1.015625 -3.867188 0.765625 -4.734375 C 0.515625 -5.597656 0.390625 -6.4375 0.390625 -7.25 C 0.390625 -8.125 0.507812 -9.054688 0.75 -10.046875 C 1 -11.035156 1.367188 -11.945312 1.859375 -12.78125 C 2.359375 -13.613281 2.984375 -14.304688 3.734375 -14.859375 C 4.492188 -15.421875 5.394531 -15.703125 6.4375 -15.703125 C 7.03125 -15.703125 7.597656 -15.601562 8.140625 -15.40625 C 8.679688 -15.207031 9.148438 -14.925781 9.546875 -14.5625 C 9.953125 -14.195312 10.273438 -13.757812 10.515625 -13.25 C 10.753906 -12.75 10.875 -12.1875 10.875 -11.5625 C 10.875 -10.738281 10.703125 -9.96875 10.359375 -9.25 C 10.015625 -8.539062 9.550781 -7.925781 8.96875 -7.40625 C 8.394531 -6.882812 7.734375 -6.460938 6.984375 -6.140625 C 6.242188 -5.816406 5.484375 -5.640625 4.703125 -5.609375 C 4.765625 -5.109375 4.960938 -4.742188 5.296875 -4.515625 C 5.640625 -4.285156 6.046875 -4.171875 6.515625 -4.171875 C 6.867188 -4.171875 7.207031 -4.257812 7.53125 -4.4375 C 7.863281 -4.613281 8.1875 -4.804688 8.5 -5.015625 C 8.8125 -5.234375 9.117188 -5.429688 9.421875 -5.609375 C 9.734375 -5.785156 10.046875 -5.875 10.359375 -5.875 C 10.703125 -5.875 11.015625 -5.757812 11.296875 -5.53125 C 11.578125 -5.300781 11.71875 -5.003906 11.71875 -4.640625 Z M 7.484375 -11.03125 C 7.484375 -11.257812 7.421875 -11.492188 7.296875 -11.734375 C 7.179688 -11.984375 6.992188 -12.109375 6.734375 -12.109375 C 6.347656 -12.109375 6.023438 -12.003906 5.765625 -11.796875 C 5.503906 -11.597656 5.285156 -11.347656 5.109375 -11.046875 C 4.941406 -10.742188 4.804688 -10.414062 4.703125 -10.0625 C 4.609375 -9.71875 4.554688 -9.398438 4.546875 -9.109375 C 4.785156 -9.160156 5.070312 -9.226562 5.40625 -9.3125 C 5.75 -9.40625 6.070312 -9.523438 6.375 -9.671875 C 6.6875 -9.816406 6.945312 -10 7.15625 -10.21875 C 7.375 -10.445312 7.484375 -10.71875 7.484375 -11.03125 Z M 7.484375 -11.03125 "/></g></g></g><g fill="#5289b8" fill-opacity="1"><g transform="translate(72.176255, 31.70019)"><g/></g></g><g fill="#5289b8" fill-opacity="1"><g transform="translate(80.49331, 31.70019)"><g><path d="M 12.375 -14.03125 C 12.375 -13.550781 12.242188 -13.054688 11.984375 -12.546875 C 11.734375 -12.046875 11.429688 -11.546875 11.078125 -11.046875 C 10.722656 -10.554688 10.347656 -10.085938 9.953125 -9.640625 C 9.566406 -9.191406 9.222656 -8.785156 8.921875 -8.421875 C 9.160156 -8.046875 9.460938 -7.539062 9.828125 -6.90625 C 10.203125 -6.269531 10.550781 -5.59375 10.875 -4.875 C 11.207031 -4.164062 11.488281 -3.472656 11.71875 -2.796875 C 11.957031 -2.117188 12.078125 -1.550781 12.078125 -1.09375 C 12.078125 -0.726562 11.960938 -0.394531 11.734375 -0.09375 C 11.515625 0.207031 11.203125 0.359375 10.796875 0.359375 C 10.503906 0.359375 10.207031 0.234375 9.90625 -0.015625 C 9.601562 -0.265625 9.296875 -0.59375 8.984375 -1 C 8.679688 -1.414062 8.390625 -1.875 8.109375 -2.375 C 7.835938 -2.875 7.582031 -3.367188 7.34375 -3.859375 C 7.113281 -4.347656 6.90625 -4.804688 6.71875 -5.234375 C 6.53125 -5.660156 6.382812 -6.003906 6.28125 -6.265625 C 6.0625 -6.035156 5.820312 -5.847656 5.5625 -5.703125 C 5.3125 -5.554688 5.066406 -5.382812 4.828125 -5.1875 C 4.828125 -4.820312 4.8125 -4.304688 4.78125 -3.640625 C 4.757812 -2.984375 4.679688 -2.332031 4.546875 -1.6875 C 4.421875 -1.050781 4.207031 -0.492188 3.90625 -0.015625 C 3.613281 0.460938 3.179688 0.703125 2.609375 0.703125 C 2.160156 0.703125 1.8125 0.5 1.5625 0.09375 C 1.320312 -0.3125 1.144531 -0.789062 1.03125 -1.34375 C 0.914062 -1.894531 0.847656 -2.453125 0.828125 -3.015625 C 0.816406 -3.578125 0.8125 -4.007812 0.8125 -4.3125 C 0.8125 -5.59375 0.84375 -6.875 0.90625 -8.15625 C 0.976562 -9.445312 1.023438 -10.738281 1.046875 -12.03125 C 1.046875 -12.320312 1.046875 -12.707031 1.046875 -13.1875 C 1.054688 -13.664062 1.085938 -14.179688 1.140625 -14.734375 C 1.191406 -15.296875 1.269531 -15.863281 1.375 -16.4375 C 1.488281 -17.007812 1.640625 -17.523438 1.828125 -17.984375 C 2.015625 -18.453125 2.257812 -18.828125 2.5625 -19.109375 C 2.875 -19.398438 3.242188 -19.546875 3.671875 -19.546875 C 3.992188 -19.546875 4.257812 -19.425781 4.46875 -19.1875 C 4.6875 -18.957031 4.859375 -18.660156 4.984375 -18.296875 C 5.117188 -17.929688 5.21875 -17.519531 5.28125 -17.0625 C 5.34375 -16.613281 5.382812 -16.164062 5.40625 -15.71875 C 5.4375 -15.28125 5.453125 -14.867188 5.453125 -14.484375 C 5.453125 -14.097656 5.453125 -13.789062 5.453125 -13.5625 C 5.453125 -13.40625 5.445312 -13.175781 5.4375 -12.875 C 5.425781 -12.570312 5.414062 -12.253906 5.40625 -11.921875 C 5.40625 -11.585938 5.40625 -11.28125 5.40625 -11 C 5.40625 -10.726562 5.421875 -10.53125 5.453125 -10.40625 C 5.578125 -10.40625 5.757812 -10.519531 6 -10.75 C 6.238281 -10.988281 6.519531 -11.289062 6.84375 -11.65625 C 7.164062 -12.03125 7.515625 -12.421875 7.890625 -12.828125 C 8.265625 -13.234375 8.644531 -13.617188 9.03125 -13.984375 C 9.425781 -14.347656 9.816406 -14.644531 10.203125 -14.875 C 10.585938 -15.113281 10.941406 -15.234375 11.265625 -15.234375 C 11.617188 -15.234375 11.890625 -15.109375 12.078125 -14.859375 C 12.273438 -14.617188 12.375 -14.34375 12.375 -14.03125 Z M 12.375 -14.03125 "/></g></g></g><g fill="#5289b8" fill-opacity="1"><g transform="translate(95.018996, 31.70019)"><g><path d="M 8.1875 0.734375 C 7.894531 0.734375 7.660156 0.597656 7.484375 0.328125 C 7.316406 0.0546875 7.1875 -0.25 7.09375 -0.59375 C 7.007812 -0.945312 6.953125 -1.300781 6.921875 -1.65625 C 6.898438 -2.007812 6.890625 -2.285156 6.890625 -2.484375 C 6.890625 -3.003906 6.921875 -3.523438 6.984375 -4.046875 C 7.046875 -4.566406 7.113281 -5.085938 7.1875 -5.609375 C 7.269531 -6.128906 7.335938 -6.648438 7.390625 -7.171875 C 7.453125 -7.691406 7.484375 -8.210938 7.484375 -8.734375 C 7.484375 -8.941406 7.472656 -9.164062 7.453125 -9.40625 C 7.441406 -9.65625 7.40625 -9.890625 7.34375 -10.109375 C 7.28125 -10.328125 7.179688 -10.503906 7.046875 -10.640625 C 6.910156 -10.785156 6.726562 -10.859375 6.5 -10.859375 C 6.34375 -10.859375 6.164062 -10.726562 5.96875 -10.46875 C 5.78125 -10.21875 5.601562 -9.929688 5.4375 -9.609375 C 5.269531 -9.285156 5.128906 -8.960938 5.015625 -8.640625 C 4.910156 -8.328125 4.859375 -8.09375 4.859375 -7.9375 C 4.859375 -7.550781 4.859375 -7.160156 4.859375 -6.765625 C 4.867188 -6.378906 4.875 -5.984375 4.875 -5.578125 L 4.875 -4.078125 C 4.863281 -3.753906 4.835938 -3.425781 4.796875 -3.09375 C 4.765625 -2.769531 4.710938 -2.453125 4.640625 -2.140625 C 4.585938 -1.828125 4.507812 -1.523438 4.40625 -1.234375 C 4.300781 -0.953125 4.164062 -0.703125 4 -0.484375 C 3.832031 -0.265625 3.632812 -0.0859375 3.40625 0.046875 C 3.1875 0.191406 2.921875 0.265625 2.609375 0.265625 C 2.265625 0.265625 1.976562 0.148438 1.75 -0.078125 C 1.519531 -0.304688 1.332031 -0.597656 1.1875 -0.953125 C 1.050781 -1.304688 0.953125 -1.703125 0.890625 -2.140625 C 0.835938 -2.585938 0.796875 -3.023438 0.765625 -3.453125 C 0.742188 -3.878906 0.734375 -4.269531 0.734375 -4.625 C 0.742188 -4.988281 0.75 -5.273438 0.75 -5.484375 L 0.75 -6.703125 C 0.75 -7.367188 0.734375 -8.019531 0.703125 -8.65625 C 0.679688 -9.300781 0.671875 -9.945312 0.671875 -10.59375 C 0.671875 -10.9375 0.675781 -11.378906 0.6875 -11.921875 C 0.695312 -12.460938 0.757812 -12.988281 0.875 -13.5 C 1 -14.007812 1.203125 -14.445312 1.484375 -14.8125 C 1.765625 -15.1875 2.175781 -15.375 2.71875 -15.375 C 2.957031 -15.375 3.171875 -15.296875 3.359375 -15.140625 C 3.554688 -14.984375 3.726562 -14.789062 3.875 -14.5625 C 4.019531 -14.332031 4.140625 -14.085938 4.234375 -13.828125 C 4.335938 -13.566406 4.414062 -13.34375 4.46875 -13.15625 C 4.632812 -13.394531 4.832031 -13.625 5.0625 -13.84375 C 5.300781 -14.070312 5.566406 -14.273438 5.859375 -14.453125 C 6.160156 -14.628906 6.492188 -14.769531 6.859375 -14.875 C 7.222656 -14.976562 7.640625 -15.03125 8.109375 -15.03125 C 9.003906 -15.03125 9.695312 -14.816406 10.1875 -14.390625 C 10.6875 -13.960938 11.050781 -13.429688 11.28125 -12.796875 C 11.519531 -12.160156 11.664062 -11.476562 11.71875 -10.75 C 11.769531 -10.019531 11.796875 -9.359375 11.796875 -8.765625 C 11.796875 -8.472656 11.769531 -8.035156 11.71875 -7.453125 C 11.664062 -6.867188 11.582031 -6.222656 11.46875 -5.515625 C 11.351562 -4.816406 11.195312 -4.097656 11 -3.359375 C 10.8125 -2.617188 10.585938 -1.941406 10.328125 -1.328125 C 10.066406 -0.722656 9.757812 -0.226562 9.40625 0.15625 C 9.050781 0.539062 8.644531 0.734375 8.1875 0.734375 Z M 8.1875 0.734375 "/></g></g></g><g fill="#5289b8" fill-opacity="1"><g transform="translate(109.518595, 31.70019)"><g><path d="M 5.734375 0.75 C 4.847656 0.75 4.070312 0.515625 3.40625 0.046875 C 2.75 -0.421875 2.191406 -1.019531 1.734375 -1.75 C 1.285156 -2.476562 0.945312 -3.289062 0.71875 -4.1875 C 0.5 -5.082031 0.390625 -5.96875 0.390625 -6.84375 C 0.390625 -7.757812 0.5 -8.707031 0.71875 -9.6875 C 0.945312 -10.675781 1.296875 -11.570312 1.765625 -12.375 C 2.242188 -13.1875 2.847656 -13.847656 3.578125 -14.359375 C 4.304688 -14.878906 5.175781 -15.140625 6.1875 -15.140625 C 7.15625 -15.140625 7.984375 -14.875 8.671875 -14.34375 C 9.359375 -13.8125 9.910156 -13.148438 10.328125 -12.359375 C 10.742188 -11.566406 11.039062 -10.695312 11.21875 -9.75 C 11.394531 -8.8125 11.457031 -7.925781 11.40625 -7.09375 C 11.351562 -6.175781 11.207031 -5.242188 10.96875 -4.296875 C 10.738281 -3.359375 10.394531 -2.515625 9.9375 -1.765625 C 9.488281 -1.023438 8.914062 -0.421875 8.21875 0.046875 C 7.519531 0.515625 6.691406 0.75 5.734375 0.75 Z M 6 -11.03125 C 5.738281 -11.03125 5.507812 -10.890625 5.3125 -10.609375 C 5.113281 -10.335938 4.945312 -10 4.8125 -9.59375 C 4.6875 -9.195312 4.585938 -8.773438 4.515625 -8.328125 C 4.441406 -7.890625 4.40625 -7.503906 4.40625 -7.171875 C 4.40625 -6.753906 4.441406 -6.300781 4.515625 -5.8125 C 4.597656 -5.332031 4.707031 -4.882812 4.84375 -4.46875 C 4.988281 -4.0625 5.160156 -3.722656 5.359375 -3.453125 C 5.554688 -3.179688 5.785156 -3.046875 6.046875 -3.046875 C 6.328125 -3.046875 6.566406 -3.175781 6.765625 -3.4375 C 6.972656 -3.695312 7.132812 -4.023438 7.25 -4.421875 C 7.375 -4.828125 7.460938 -5.269531 7.515625 -5.75 C 7.566406 -6.226562 7.59375 -6.675781 7.59375 -7.09375 C 7.59375 -7.476562 7.554688 -7.898438 7.484375 -8.359375 C 7.421875 -8.816406 7.320312 -9.242188 7.1875 -9.640625 C 7.0625 -10.046875 6.894531 -10.378906 6.6875 -10.640625 C 6.488281 -10.898438 6.257812 -11.03125 6 -11.03125 Z M 6 -11.03125 "/></g></g></g><g fill="#5289b8" fill-opacity="1"><g transform="translate(123.49646, 31.70019)"><g><path d="M 13.78125 0.34375 C 13.21875 0.34375 12.710938 0.046875 12.265625 -0.546875 C 11.828125 -1.140625 11.441406 -1.847656 11.109375 -2.671875 C 10.785156 -3.492188 10.515625 -4.335938 10.296875 -5.203125 C 10.078125 -6.078125 9.914062 -6.804688 9.8125 -7.390625 C 9.675781 -7.035156 9.488281 -6.601562 9.25 -6.09375 C 9.007812 -5.59375 8.738281 -5.0625 8.4375 -4.5 C 8.132812 -3.945312 7.804688 -3.390625 7.453125 -2.828125 C 7.109375 -2.265625 6.75 -1.753906 6.375 -1.296875 C 6 -0.847656 5.625 -0.484375 5.25 -0.203125 C 4.882812 0.0664062 4.523438 0.203125 4.171875 0.203125 C 3.703125 0.203125 3.289062 -0.0195312 2.9375 -0.46875 C 2.582031 -0.914062 2.28125 -1.503906 2.03125 -2.234375 C 1.789062 -2.972656 1.585938 -3.785156 1.421875 -4.671875 C 1.253906 -5.554688 1.125 -6.441406 1.03125 -7.328125 C 0.945312 -8.210938 0.890625 -9.035156 0.859375 -9.796875 C 0.828125 -10.566406 0.8125 -11.1875 0.8125 -11.65625 C 0.8125 -12.09375 0.832031 -12.507812 0.875 -12.90625 C 0.914062 -13.3125 1 -13.671875 1.125 -13.984375 C 1.257812 -14.296875 1.453125 -14.539062 1.703125 -14.71875 C 1.960938 -14.90625 2.300781 -15 2.71875 -15 C 3.113281 -15 3.453125 -14.847656 3.734375 -14.546875 C 4.023438 -14.253906 4.265625 -13.867188 4.453125 -13.390625 C 4.648438 -12.921875 4.804688 -12.382812 4.921875 -11.78125 C 5.046875 -11.175781 5.144531 -10.566406 5.21875 -9.953125 C 5.289062 -9.335938 5.335938 -8.738281 5.359375 -8.15625 C 5.390625 -7.570312 5.410156 -7.070312 5.421875 -6.65625 C 5.523438 -7.019531 5.671875 -7.46875 5.859375 -8 C 6.054688 -8.53125 6.269531 -9.09375 6.5 -9.6875 C 6.726562 -10.289062 6.972656 -10.890625 7.234375 -11.484375 C 7.503906 -12.078125 7.773438 -12.609375 8.046875 -13.078125 C 8.316406 -13.546875 8.582031 -13.925781 8.84375 -14.21875 C 9.101562 -14.507812 9.359375 -14.65625 9.609375 -14.65625 L 9.625 -14.65625 C 9.9375 -14.65625 10.238281 -14.507812 10.53125 -14.21875 C 10.832031 -13.925781 11.117188 -13.546875 11.390625 -13.078125 C 11.671875 -12.609375 11.929688 -12.070312 12.171875 -11.46875 C 12.421875 -10.863281 12.648438 -10.253906 12.859375 -9.640625 C 13.066406 -9.023438 13.25 -8.425781 13.40625 -7.84375 C 13.5625 -7.257812 13.691406 -6.757812 13.796875 -6.34375 C 13.816406 -6.84375 13.84375 -7.410156 13.875 -8.046875 C 13.914062 -8.679688 13.984375 -9.320312 14.078125 -9.96875 C 14.171875 -10.613281 14.300781 -11.238281 14.46875 -11.84375 C 14.632812 -12.457031 14.835938 -13 15.078125 -13.46875 C 15.328125 -13.945312 15.628906 -14.332031 15.984375 -14.625 C 16.335938 -14.914062 16.75 -15.0625 17.21875 -15.0625 C 17.707031 -15.0625 18.066406 -14.890625 18.296875 -14.546875 C 18.535156 -14.203125 18.65625 -13.789062 18.65625 -13.3125 C 18.65625 -12.789062 18.585938 -12.09375 18.453125 -11.21875 C 18.328125 -10.351562 18.148438 -9.410156 17.921875 -8.390625 C 17.703125 -7.367188 17.4375 -6.335938 17.125 -5.296875 C 16.820312 -4.265625 16.488281 -3.332031 16.125 -2.5 C 15.757812 -1.664062 15.375 -0.984375 14.96875 -0.453125 C 14.570312 0.078125 14.175781 0.34375 13.78125 0.34375 Z M 13.78125 0.34375 "/></g></g></g></svg>