<svg xmlns="http://www.w3.org/2000/svg" xmlns:xlink="http://www.w3.org/1999/xlink" width="370" zoomAndPan="magnify" viewBox="0 0 277.5 46.499999" height="62" preserveAspectRatio="xMidYMid meet" version="1.2"><defs><clipPath id="c5532b0632"><path d="M 1.230469 0.113281 L 275.351562 0.113281 L 275.351562 45.476562 L 1.230469 45.476562 Z M 1.230469 0.113281 "/></clipPath><clipPath id="71828ecc5c"><path d="M 23.910156 0.113281 L 252.585938 0.113281 C 258.601562 0.113281 264.371094 2.503906 268.625 6.757812 C 272.878906 11.011719 275.269531 16.78125 275.269531 22.796875 C 275.269531 28.8125 272.878906 34.582031 268.625 38.835938 C 264.371094 43.085938 258.601562 45.476562 252.585938 45.476562 L 23.910156 45.476562 C 17.894531 45.476562 12.125 43.085938 7.871094 38.835938 C 3.617188 34.582031 1.230469 28.8125 1.230469 22.796875 C 1.230469 16.78125 3.617188 11.011719 7.871094 6.757812 C 12.125 2.503906 17.894531 0.113281 23.910156 0.113281 Z M 23.910156 0.113281 "/></clipPath><clipPath id="473a989cc1"><path d="M 0.230469 0.113281 L 274.351562 0.113281 L 274.351562 45.476562 L 0.230469 45.476562 Z M 0.230469 0.113281 "/></clipPath><clipPath id="0c2b12ee9d"><path d="M 22.910156 0.113281 L 251.585938 0.113281 C 257.601562 0.113281 263.371094 2.503906 267.625 6.757812 C 271.878906 11.011719 274.269531 16.78125 274.269531 22.796875 C 274.269531 28.8125 271.878906 34.582031 267.625 38.835938 C 263.371094 43.085938 257.601562 45.476562 251.585938 45.476562 L 22.910156 45.476562 C 16.894531 45.476562 11.125 43.085938 6.871094 38.835938 C 2.617188 34.582031 0.230469 28.8125 0.230469 22.796875 C 0.230469 16.78125 2.617188 11.011719 6.871094 6.757812 C 11.125 2.503906 16.894531 0.113281 22.910156 0.113281 Z M 22.910156 0.113281 "/></clipPath><clipPath id="e0747a2d00"><rect x="0" width="275" y="0" height="46"/></clipPath></defs><g id="cdd8e73964"><g clip-rule="nonzero" clip-path="url(#c5532b0632)"><g clip-rule="nonzero" clip-path="url(#71828ecc5c)"><g transform="matrix(1,0,0,1,1,0)"><g clip-path="url(#e0747a2d00)"><g clip-rule="nonzero" clip-path="url(#473a989cc1)"><g clip-rule="nonzero" clip-path="url(#0c2b12ee9d)"><path style=" stroke:none;fill-rule:nonzero;fill:#e8f0f6;fill-opacity:1;" d="M 0.230469 0.113281 L 274.351562 0.113281 L 274.351562 45.476562 L 0.230469 45.476562 Z M 0.230469 0.113281 "/></g></g></g></g></g></g><g style="fill:#5289b8;fill-opacity:1;"><g transform="translate(25.899391, 31.70019)"><path style="stroke:none" d="M 12.734375 -7.78125 C 12.734375 -7.007812 12.648438 -6.164062 12.484375 -5.25 C 12.316406 -4.34375 12.035156 -3.5 11.640625 -2.71875 C 11.253906 -1.9375 10.742188 -1.28125 10.109375 -0.75 C 9.472656 -0.226562 8.675781 0.03125 7.71875 0.03125 C 7.476562 0.03125 7.226562 0.015625 6.96875 -0.015625 C 6.707031 -0.0546875 6.457031 -0.117188 6.21875 -0.203125 C 5.988281 -0.296875 5.773438 -0.414062 5.578125 -0.5625 C 5.390625 -0.707031 5.242188 -0.898438 5.140625 -1.140625 L 4.90625 2.609375 C 4.882812 3.003906 4.867188 3.476562 4.859375 4.03125 C 4.859375 4.59375 4.789062 5.125 4.65625 5.625 C 4.53125 6.132812 4.3125 6.566406 4 6.921875 C 3.695312 7.285156 3.257812 7.46875 2.6875 7.46875 C 2.351562 7.46875 2.070312 7.296875 1.84375 6.953125 C 1.625 6.609375 1.445312 6.175781 1.3125 5.65625 C 1.1875 5.132812 1.085938 4.550781 1.015625 3.90625 C 0.941406 3.269531 0.894531 2.65625 0.875 2.0625 C 0.863281 1.46875 0.859375 0.925781 0.859375 0.4375 C 0.859375 -0.0390625 0.859375 -0.394531 0.859375 -0.625 C 0.859375 -1.789062 0.847656 -2.953125 0.828125 -4.109375 C 0.816406 -5.265625 0.8125 -6.425781 0.8125 -7.59375 C 0.8125 -7.800781 0.8125 -8.125 0.8125 -8.5625 C 0.8125 -9.007812 0.828125 -9.492188 0.859375 -10.015625 C 0.890625 -10.535156 0.941406 -11.070312 1.015625 -11.625 C 1.097656 -12.1875 1.21875 -12.695312 1.375 -13.15625 C 1.539062 -13.625 1.742188 -14 1.984375 -14.28125 C 2.222656 -14.570312 2.519531 -14.71875 2.875 -14.71875 C 3.09375 -14.71875 3.289062 -14.648438 3.46875 -14.515625 C 3.65625 -14.390625 3.816406 -14.222656 3.953125 -14.015625 C 4.085938 -13.816406 4.195312 -13.601562 4.28125 -13.375 C 4.363281 -13.15625 4.429688 -12.953125 4.484375 -12.765625 C 5.023438 -13.367188 5.644531 -13.828125 6.34375 -14.140625 C 7.050781 -14.453125 7.804688 -14.609375 8.609375 -14.609375 C 9.441406 -14.609375 10.125 -14.375 10.65625 -13.90625 C 11.1875 -13.4375 11.601562 -12.851562 11.90625 -12.15625 C 12.21875 -11.457031 12.429688 -10.710938 12.546875 -9.921875 C 12.671875 -9.128906 12.734375 -8.414062 12.734375 -7.78125 Z M 9 -7.984375 C 9 -8.242188 8.976562 -8.507812 8.9375 -8.78125 C 8.894531 -9.050781 8.816406 -9.300781 8.703125 -9.53125 C 8.585938 -9.769531 8.425781 -9.960938 8.21875 -10.109375 C 8.007812 -10.253906 7.75 -10.328125 7.4375 -10.328125 C 7.019531 -10.328125 6.578125 -10.191406 6.109375 -9.921875 C 5.648438 -9.660156 5.3125 -9.351562 5.09375 -9 C 5 -8.863281 4.941406 -8.640625 4.921875 -8.328125 C 4.910156 -8.015625 4.90625 -7.78125 4.90625 -7.625 C 4.90625 -7.5 4.910156 -7.335938 4.921875 -7.140625 C 4.929688 -6.941406 4.941406 -6.734375 4.953125 -6.515625 C 4.972656 -6.304688 4.992188 -6.109375 5.015625 -5.921875 C 5.046875 -5.734375 5.085938 -5.585938 5.140625 -5.484375 C 5.191406 -5.328125 5.300781 -5.179688 5.46875 -5.046875 C 5.644531 -4.921875 5.835938 -4.804688 6.046875 -4.703125 C 6.253906 -4.597656 6.46875 -4.519531 6.6875 -4.46875 C 6.90625 -4.414062 7.09375 -4.390625 7.25 -4.390625 C 7.613281 -4.390625 7.910156 -4.523438 8.140625 -4.796875 C 8.367188 -5.078125 8.546875 -5.40625 8.671875 -5.78125 C 8.804688 -6.164062 8.894531 -6.5625 8.9375 -6.96875 C 8.976562 -7.382812 9 -7.722656 9 -7.984375 Z M 9 -7.984375 "/></g></g><g style="fill:#5289b8;fill-opacity:1;"><g transform="translate(41.468544, 31.70019)"><path style="stroke:none" d="M 11.875 -3.671875 C 11.875 -3.359375 11.859375 -2.953125 11.828125 -2.453125 C 11.804688 -1.953125 11.734375 -1.460938 11.609375 -0.984375 C 11.484375 -0.503906 11.289062 -0.09375 11.03125 0.25 C 10.769531 0.601562 10.40625 0.78125 9.9375 0.78125 C 9.289062 0.78125 8.796875 0.570312 8.453125 0.15625 C 8.109375 -0.257812 7.941406 -0.78125 7.953125 -1.40625 C 7.398438 -0.914062 6.769531 -0.53125 6.0625 -0.25 C 5.363281 0.0195312 4.644531 0.15625 3.90625 0.15625 C 3.40625 0.15625 2.925781 0.0351562 2.46875 -0.203125 C 2.019531 -0.453125 1.617188 -0.765625 1.265625 -1.140625 C 0.921875 -1.523438 0.644531 -1.957031 0.4375 -2.4375 C 0.226562 -2.914062 0.125 -3.390625 0.125 -3.859375 C 0.125 -4.691406 0.378906 -5.421875 0.890625 -6.046875 C 1.410156 -6.679688 2.039062 -7.21875 2.78125 -7.65625 C 3.53125 -8.101562 4.328125 -8.457031 5.171875 -8.71875 C 6.015625 -8.976562 6.769531 -9.148438 7.4375 -9.234375 C 7.4375 -9.328125 7.441406 -9.40625 7.453125 -9.46875 C 7.460938 -9.539062 7.46875 -9.617188 7.46875 -9.703125 C 7.46875 -10.242188 7.316406 -10.675781 7.015625 -11 C 6.722656 -11.332031 6.304688 -11.5 5.765625 -11.5 C 5.328125 -11.5 4.953125 -11.425781 4.640625 -11.28125 C 4.328125 -11.132812 4.03125 -10.96875 3.75 -10.78125 C 3.476562 -10.601562 3.203125 -10.441406 2.921875 -10.296875 C 2.640625 -10.148438 2.328125 -10.078125 1.984375 -10.078125 C 1.597656 -10.078125 1.269531 -10.195312 1 -10.4375 C 0.726562 -10.675781 0.59375 -10.988281 0.59375 -11.375 C 0.59375 -11.945312 0.765625 -12.46875 1.109375 -12.9375 C 1.453125 -13.40625 1.878906 -13.800781 2.390625 -14.125 C 2.898438 -14.445312 3.453125 -14.695312 4.046875 -14.875 C 4.648438 -15.0625 5.207031 -15.15625 5.71875 -15.15625 C 6.1875 -15.15625 6.65625 -15.097656 7.125 -14.984375 C 7.59375 -14.878906 8.035156 -14.707031 8.453125 -14.46875 C 8.867188 -14.226562 9.242188 -13.9375 9.578125 -13.59375 C 9.921875 -13.257812 10.195312 -12.867188 10.40625 -12.421875 C 10.71875 -11.773438 10.96875 -11.085938 11.15625 -10.359375 C 11.351562 -9.640625 11.503906 -8.898438 11.609375 -8.140625 C 11.710938 -7.390625 11.78125 -6.632812 11.8125 -5.875 C 11.851562 -5.125 11.875 -4.390625 11.875 -3.671875 Z M 7.703125 -4.515625 L 7.625 -6.28125 C 7.582031 -6.28125 7.546875 -6.285156 7.515625 -6.296875 C 7.484375 -6.304688 7.445312 -6.3125 7.40625 -6.3125 C 7.1875 -6.3125 6.90625 -6.253906 6.5625 -6.140625 C 6.21875 -6.023438 5.890625 -5.867188 5.578125 -5.671875 C 5.265625 -5.472656 5 -5.25 4.78125 -5 C 4.570312 -4.757812 4.46875 -4.507812 4.46875 -4.25 C 4.46875 -4.007812 4.550781 -3.84375 4.71875 -3.75 C 4.894531 -3.664062 5.097656 -3.625 5.328125 -3.625 C 5.703125 -3.625 6.109375 -3.722656 6.546875 -3.921875 C 6.984375 -4.128906 7.367188 -4.328125 7.703125 -4.515625 Z M 7.703125 -4.515625 "/></g></g><g style="fill:#5289b8;fill-opacity:1;"><g transform="translate(56.15075, 31.70019)"><path style="stroke:none" d="M 5.65625 -15.8125 C 5.65625 -14.875 5.613281 -13.929688 5.53125 -12.984375 C 5.457031 -12.035156 5.421875 -11.082031 5.421875 -10.125 C 5.421875 -8.882812 5.457031 -7.644531 5.53125 -6.40625 C 5.613281 -5.175781 5.65625 -3.9375 5.65625 -2.6875 C 5.65625 -2.375 5.640625 -2.019531 5.609375 -1.625 C 5.578125 -1.238281 5.492188 -0.878906 5.359375 -0.546875 C 5.234375 -0.210938 5.039062 0.0625 4.78125 0.28125 C 4.519531 0.507812 4.171875 0.625 3.734375 0.625 C 3.316406 0.625 2.953125 0.421875 2.640625 0.015625 C 2.335938 -0.390625 2.085938 -0.910156 1.890625 -1.546875 C 1.691406 -2.179688 1.523438 -2.890625 1.390625 -3.671875 C 1.265625 -4.460938 1.171875 -5.226562 1.109375 -5.96875 C 1.046875 -6.707031 1 -7.382812 0.96875 -8 C 0.945312 -8.613281 0.9375 -9.070312 0.9375 -9.375 C 0.9375 -9.695312 0.945312 -10.171875 0.96875 -10.796875 C 1 -11.421875 1.054688 -12.097656 1.140625 -12.828125 C 1.234375 -13.566406 1.351562 -14.3125 1.5 -15.0625 C 1.644531 -15.820312 1.835938 -16.507812 2.078125 -17.125 C 2.328125 -17.75 2.617188 -18.253906 2.953125 -18.640625 C 3.296875 -19.035156 3.703125 -19.234375 4.171875 -19.234375 C 4.554688 -19.234375 4.847656 -19.101562 5.046875 -18.84375 C 5.242188 -18.59375 5.382812 -18.289062 5.46875 -17.9375 C 5.5625 -17.582031 5.613281 -17.207031 5.625 -16.8125 C 5.644531 -16.425781 5.65625 -16.09375 5.65625 -15.8125 Z M 5.65625 -15.8125 "/></g></g><g style="fill:#5289b8;fill-opacity:1;"><g transform="translate(65.041712, 31.70019)"><path style="stroke:none" d="M 11.875 -3.671875 C 11.875 -3.359375 11.859375 -2.953125 11.828125 -2.453125 C 11.804688 -1.953125 11.734375 -1.460938 11.609375 -0.984375 C 11.484375 -0.503906 11.289062 -0.09375 11.03125 0.25 C 10.769531 0.601562 10.40625 0.78125 9.9375 0.78125 C 9.289062 0.78125 8.796875 0.570312 8.453125 0.15625 C 8.109375 -0.257812 7.941406 -0.78125 7.953125 -1.40625 C 7.398438 -0.914062 6.769531 -0.53125 6.0625 -0.25 C 5.363281 0.0195312 4.644531 0.15625 3.90625 0.15625 C 3.40625 0.15625 2.925781 0.0351562 2.46875 -0.203125 C 2.019531 -0.453125 1.617188 -0.765625 1.265625 -1.140625 C 0.921875 -1.523438 0.644531 -1.957031 0.4375 -2.4375 C 0.226562 -2.914062 0.125 -3.390625 0.125 -3.859375 C 0.125 -4.691406 0.378906 -5.421875 0.890625 -6.046875 C 1.410156 -6.679688 2.039062 -7.21875 2.78125 -7.65625 C 3.53125 -8.101562 4.328125 -8.457031 5.171875 -8.71875 C 6.015625 -8.976562 6.769531 -9.148438 7.4375 -9.234375 C 7.4375 -9.328125 7.441406 -9.40625 7.453125 -9.46875 C 7.460938 -9.539062 7.46875 -9.617188 7.46875 -9.703125 C 7.46875 -10.242188 7.316406 -10.675781 7.015625 -11 C 6.722656 -11.332031 6.304688 -11.5 5.765625 -11.5 C 5.328125 -11.5 4.953125 -11.425781 4.640625 -11.28125 C 4.328125 -11.132812 4.03125 -10.96875 3.75 -10.78125 C 3.476562 -10.601562 3.203125 -10.441406 2.921875 -10.296875 C 2.640625 -10.148438 2.328125 -10.078125 1.984375 -10.078125 C 1.597656 -10.078125 1.269531 -10.195312 1 -10.4375 C 0.726562 -10.675781 0.59375 -10.988281 0.59375 -11.375 C 0.59375 -11.945312 0.765625 -12.46875 1.109375 -12.9375 C 1.453125 -13.40625 1.878906 -13.800781 2.390625 -14.125 C 2.898438 -14.445312 3.453125 -14.695312 4.046875 -14.875 C 4.648438 -15.0625 5.207031 -15.15625 5.71875 -15.15625 C 6.1875 -15.15625 6.65625 -15.097656 7.125 -14.984375 C 7.59375 -14.878906 8.035156 -14.707031 8.453125 -14.46875 C 8.867188 -14.226562 9.242188 -13.9375 9.578125 -13.59375 C 9.921875 -13.257812 10.195312 -12.867188 10.40625 -12.421875 C 10.71875 -11.773438 10.96875 -11.085938 11.15625 -10.359375 C 11.351562 -9.640625 11.503906 -8.898438 11.609375 -8.140625 C 11.710938 -7.390625 11.78125 -6.632812 11.8125 -5.875 C 11.851562 -5.125 11.875 -4.390625 11.875 -3.671875 Z M 7.703125 -4.515625 L 7.625 -6.28125 C 7.582031 -6.28125 7.546875 -6.285156 7.515625 -6.296875 C 7.484375 -6.304688 7.445312 -6.3125 7.40625 -6.3125 C 7.1875 -6.3125 6.90625 -6.253906 6.5625 -6.140625 C 6.21875 -6.023438 5.890625 -5.867188 5.578125 -5.671875 C 5.265625 -5.472656 5 -5.25 4.78125 -5 C 4.570312 -4.757812 4.46875 -4.507812 4.46875 -4.25 C 4.46875 -4.007812 4.550781 -3.84375 4.71875 -3.75 C 4.894531 -3.664062 5.097656 -3.625 5.328125 -3.625 C 5.703125 -3.625 6.109375 -3.722656 6.546875 -3.921875 C 6.984375 -4.128906 7.367188 -4.328125 7.703125 -4.515625 Z M 7.703125 -4.515625 "/></g></g><g style="fill:#5289b8;fill-opacity:1;"><g transform="translate(79.723918, 31.70019)"><path style="stroke:none" d="M 12.03125 -9.34375 C 11.570312 -8.144531 11.070312 -6.890625 10.53125 -5.578125 C 10 -4.273438 9.421875 -3.0625 8.796875 -1.9375 C 8.410156 -1.238281 7.984375 -0.65625 7.515625 -0.1875 C 7.046875 0.269531 6.503906 0.5 5.890625 0.5 C 5.410156 0.5 4.9375 0.253906 4.46875 -0.234375 C 4.007812 -0.734375 3.582031 -1.328125 3.1875 -2.015625 C 2.800781 -2.703125 2.460938 -3.398438 2.171875 -4.109375 C 1.890625 -4.816406 1.679688 -5.378906 1.546875 -5.796875 C 1.398438 -6.265625 1.238281 -6.765625 1.0625 -7.296875 C 0.894531 -7.835938 0.738281 -8.390625 0.59375 -8.953125 C 0.457031 -9.503906 0.34375 -10.050781 0.25 -10.59375 C 0.164062 -11.144531 0.125 -11.664062 0.125 -12.15625 C 0.125 -12.832031 0.242188 -13.390625 0.484375 -13.828125 C 0.734375 -14.265625 1.21875 -14.484375 1.9375 -14.484375 C 2.207031 -14.484375 2.457031 -14.398438 2.6875 -14.234375 C 2.914062 -14.066406 3.125 -13.832031 3.3125 -13.53125 C 3.5 -13.238281 3.679688 -12.894531 3.859375 -12.5 C 4.035156 -12.113281 4.203125 -11.6875 4.359375 -11.21875 C 4.515625 -10.769531 4.660156 -10.300781 4.796875 -9.8125 C 4.941406 -9.320312 5.082031 -8.851562 5.21875 -8.40625 C 5.351562 -7.945312 5.492188 -7.503906 5.640625 -7.078125 C 5.796875 -6.648438 5.992188 -6.226562 6.234375 -5.8125 C 6.359375 -6.125 6.5 -6.476562 6.65625 -6.875 C 6.8125 -7.28125 6.976562 -7.707031 7.15625 -8.15625 C 7.34375 -8.613281 7.539062 -9.082031 7.75 -9.5625 C 7.957031 -10.039062 8.179688 -10.503906 8.421875 -10.953125 C 8.890625 -11.898438 9.390625 -12.703125 9.921875 -13.359375 C 10.453125 -14.015625 10.976562 -14.34375 11.5 -14.34375 C 11.988281 -14.34375 12.335938 -14.195312 12.546875 -13.90625 C 12.753906 -13.613281 12.859375 -13.234375 12.859375 -12.765625 C 12.859375 -12.296875 12.78125 -11.765625 12.625 -11.171875 C 12.46875 -10.578125 12.269531 -9.96875 12.03125 -9.34375 Z M 12.03125 -9.34375 "/></g></g><g style="fill:#5289b8;fill-opacity:1;"><g transform="translate(94.745251, 31.70019)"><path style="stroke:none" d="M 9.84375 -9.765625 C 9.59375 -9.742188 9.378906 -9.765625 9.203125 -9.828125 C 9.035156 -9.890625 8.863281 -9.953125 8.6875 -10.015625 C 8.53125 -10.085938 8.375 -10.15625 8.21875 -10.21875 C 8.0625 -10.28125 7.890625 -10.300781 7.703125 -10.28125 C 7.347656 -10.257812 7.035156 -10.160156 6.765625 -9.984375 C 6.492188 -9.816406 6.25 -9.601562 6.03125 -9.34375 C 5.820312 -9.082031 5.640625 -8.789062 5.484375 -8.46875 C 5.328125 -8.144531 5.203125 -7.828125 5.109375 -7.515625 C 5.054688 -7.304688 5.015625 -6.988281 4.984375 -6.5625 C 4.960938 -6.132812 4.953125 -5.675781 4.953125 -5.1875 C 4.941406 -4.6875 4.9375 -4.207031 4.9375 -3.75 C 4.9375 -3.300781 4.914062 -2.945312 4.875 -2.6875 C 4.863281 -2.40625 4.820312 -2.078125 4.75 -1.703125 C 4.675781 -1.328125 4.566406 -0.972656 4.421875 -0.640625 C 4.273438 -0.316406 4.078125 -0.046875 3.828125 0.171875 C 3.585938 0.398438 3.273438 0.515625 2.890625 0.515625 C 2.597656 0.515625 2.34375 0.425781 2.125 0.25 C 1.90625 0.0820312 1.722656 -0.140625 1.578125 -0.421875 C 1.429688 -0.710938 1.304688 -1.050781 1.203125 -1.4375 C 1.109375 -1.820312 1.035156 -2.210938 0.984375 -2.609375 C 0.929688 -3.023438 0.890625 -3.441406 0.859375 -3.859375 C 0.835938 -4.273438 0.820312 -4.671875 0.8125 -5.046875 C 0.8125 -5.421875 0.8125 -5.765625 0.8125 -6.078125 C 0.820312 -6.390625 0.828125 -6.644531 0.828125 -6.84375 C 0.816406 -7.445312 0.785156 -8.054688 0.734375 -8.671875 C 0.691406 -9.296875 0.671875 -9.910156 0.671875 -10.515625 C 0.671875 -10.898438 0.6875 -11.328125 0.71875 -11.796875 C 0.757812 -12.265625 0.859375 -12.703125 1.015625 -13.109375 C 1.171875 -13.515625 1.398438 -13.859375 1.703125 -14.140625 C 2.015625 -14.421875 2.4375 -14.5625 2.96875 -14.5625 C 3.269531 -14.5625 3.523438 -14.460938 3.734375 -14.265625 C 3.941406 -14.078125 4.109375 -13.84375 4.234375 -13.5625 C 4.367188 -13.289062 4.46875 -13 4.53125 -12.6875 C 4.601562 -12.375 4.648438 -12.082031 4.671875 -11.8125 C 5.085938 -12.5 5.554688 -13.050781 6.078125 -13.46875 C 6.597656 -13.894531 7.273438 -14.128906 8.109375 -14.171875 C 8.523438 -14.179688 8.9375 -14.140625 9.34375 -14.046875 C 9.757812 -13.953125 10.132812 -13.796875 10.46875 -13.578125 C 10.8125 -13.359375 11.09375 -13.078125 11.3125 -12.734375 C 11.53125 -12.390625 11.644531 -11.976562 11.65625 -11.5 C 11.695312 -10.945312 11.535156 -10.519531 11.171875 -10.21875 C 10.804688 -9.925781 10.363281 -9.773438 9.84375 -9.765625 Z M 9.84375 -9.765625 "/></g></g><g style="fill:#5289b8;fill-opacity:1;"><g transform="translate(108.044863, 31.70019)"><path style="stroke:none" d="M 11.875 -3.671875 C 11.875 -3.359375 11.859375 -2.953125 11.828125 -2.453125 C 11.804688 -1.953125 11.734375 -1.460938 11.609375 -0.984375 C 11.484375 -0.503906 11.289062 -0.09375 11.03125 0.25 C 10.769531 0.601562 10.40625 0.78125 9.9375 0.78125 C 9.289062 0.78125 8.796875 0.570312 8.453125 0.15625 C 8.109375 -0.257812 7.941406 -0.78125 7.953125 -1.40625 C 7.398438 -0.914062 6.769531 -0.53125 6.0625 -0.25 C 5.363281 0.0195312 4.644531 0.15625 3.90625 0.15625 C 3.40625 0.15625 2.925781 0.0351562 2.46875 -0.203125 C 2.019531 -0.453125 1.617188 -0.765625 1.265625 -1.140625 C 0.921875 -1.523438 0.644531 -1.957031 0.4375 -2.4375 C 0.226562 -2.914062 0.125 -3.390625 0.125 -3.859375 C 0.125 -4.691406 0.378906 -5.421875 0.890625 -6.046875 C 1.410156 -6.679688 2.039062 -7.21875 2.78125 -7.65625 C 3.53125 -8.101562 4.328125 -8.457031 5.171875 -8.71875 C 6.015625 -8.976562 6.769531 -9.148438 7.4375 -9.234375 C 7.4375 -9.328125 7.441406 -9.40625 7.453125 -9.46875 C 7.460938 -9.539062 7.46875 -9.617188 7.46875 -9.703125 C 7.46875 -10.242188 7.316406 -10.675781 7.015625 -11 C 6.722656 -11.332031 6.304688 -11.5 5.765625 -11.5 C 5.328125 -11.5 4.953125 -11.425781 4.640625 -11.28125 C 4.328125 -11.132812 4.03125 -10.96875 3.75 -10.78125 C 3.476562 -10.601562 3.203125 -10.441406 2.921875 -10.296875 C 2.640625 -10.148438 2.328125 -10.078125 1.984375 -10.078125 C 1.597656 -10.078125 1.269531 -10.195312 1 -10.4375 C 0.726562 -10.675781 0.59375 -10.988281 0.59375 -11.375 C 0.59375 -11.945312 0.765625 -12.46875 1.109375 -12.9375 C 1.453125 -13.40625 1.878906 -13.800781 2.390625 -14.125 C 2.898438 -14.445312 3.453125 -14.695312 4.046875 -14.875 C 4.648438 -15.0625 5.207031 -15.15625 5.71875 -15.15625 C 6.1875 -15.15625 6.65625 -15.097656 7.125 -14.984375 C 7.59375 -14.878906 8.035156 -14.707031 8.453125 -14.46875 C 8.867188 -14.226562 9.242188 -13.9375 9.578125 -13.59375 C 9.921875 -13.257812 10.195312 -12.867188 10.40625 -12.421875 C 10.71875 -11.773438 10.96875 -11.085938 11.15625 -10.359375 C 11.351562 -9.640625 11.503906 -8.898438 11.609375 -8.140625 C 11.710938 -7.390625 11.78125 -6.632812 11.8125 -5.875 C 11.851562 -5.125 11.875 -4.390625 11.875 -3.671875 Z M 7.703125 -4.515625 L 7.625 -6.28125 C 7.582031 -6.28125 7.546875 -6.285156 7.515625 -6.296875 C 7.484375 -6.304688 7.445312 -6.3125 7.40625 -6.3125 C 7.1875 -6.3125 6.90625 -6.253906 6.5625 -6.140625 C 6.21875 -6.023438 5.890625 -5.867188 5.578125 -5.671875 C 5.265625 -5.472656 5 -5.25 4.78125 -5 C 4.570312 -4.757812 4.46875 -4.507812 4.46875 -4.25 C 4.46875 -4.007812 4.550781 -3.84375 4.71875 -3.75 C 4.894531 -3.664062 5.097656 -3.625 5.328125 -3.625 C 5.703125 -3.625 6.109375 -3.722656 6.546875 -3.921875 C 6.984375 -4.128906 7.367188 -4.328125 7.703125 -4.515625 Z M 7.703125 -4.515625 "/></g></g><g style="fill:#5289b8;fill-opacity:1;"><g transform="translate(122.727069, 31.70019)"><path style="stroke:none" d="M 8.421875 -14.34375 C 8.421875 -13.84375 8.25 -13.46875 7.90625 -13.21875 C 7.570312 -12.976562 7.195312 -12.75 6.78125 -12.53125 C 6.363281 -12.320312 5.984375 -12.066406 5.640625 -11.765625 C 5.304688 -11.472656 5.140625 -11.03125 5.140625 -10.4375 C 5.140625 -10.125 5.210938 -9.851562 5.359375 -9.625 C 5.503906 -9.394531 5.6875 -9.1875 5.90625 -9 C 6.125 -8.820312 6.363281 -8.640625 6.625 -8.453125 C 6.882812 -8.265625 7.125 -8.046875 7.34375 -7.796875 C 7.5625 -7.554688 7.742188 -7.257812 7.890625 -6.90625 C 8.035156 -6.5625 8.109375 -6.140625 8.109375 -5.640625 C 8.109375 -4.910156 7.921875 -4.191406 7.546875 -3.484375 C 7.179688 -2.773438 6.707031 -2.144531 6.125 -1.59375 C 5.539062 -1.050781 4.878906 -0.613281 4.140625 -0.28125 C 3.410156 0.0390625 2.691406 0.203125 1.984375 0.203125 C 1.691406 0.203125 1.394531 0.179688 1.09375 0.140625 C 0.800781 0.0976562 0.535156 0.0195312 0.296875 -0.09375 C 0.0664062 -0.21875 -0.125 -0.390625 -0.28125 -0.609375 C -0.4375 -0.828125 -0.515625 -1.113281 -0.515625 -1.46875 C -0.515625 -1.945312 -0.421875 -2.320312 -0.234375 -2.59375 C -0.046875 -2.863281 0.191406 -3.078125 0.484375 -3.234375 C 0.785156 -3.390625 1.101562 -3.507812 1.4375 -3.59375 C 1.78125 -3.6875 2.097656 -3.796875 2.390625 -3.921875 C 2.691406 -4.054688 2.9375 -4.226562 3.125 -4.4375 C 3.320312 -4.644531 3.421875 -4.941406 3.421875 -5.328125 C 3.421875 -5.691406 3.273438 -6.066406 2.984375 -6.453125 C 2.703125 -6.847656 2.382812 -7.265625 2.03125 -7.703125 C 1.6875 -8.148438 1.367188 -8.625 1.078125 -9.125 C 0.796875 -9.632812 0.65625 -10.191406 0.65625 -10.796875 C 0.65625 -11.546875 0.804688 -12.238281 1.109375 -12.875 C 1.410156 -13.507812 1.816406 -14.0625 2.328125 -14.53125 C 2.847656 -15 3.4375 -15.367188 4.09375 -15.640625 C 4.757812 -15.910156 5.457031 -16.046875 6.1875 -16.046875 C 6.457031 -16.046875 6.726562 -16.019531 7 -15.96875 C 7.269531 -15.914062 7.507812 -15.820312 7.71875 -15.6875 C 7.925781 -15.5625 8.09375 -15.390625 8.21875 -15.171875 C 8.351562 -14.953125 8.421875 -14.675781 8.421875 -14.34375 Z M 8.421875 -14.34375 "/></g></g><g style="fill:#5289b8;fill-opacity:1;"><g transform="translate(133.444099, 31.70019)"><path style="stroke:none" d=""/></g></g><g style="fill:#5289b8;fill-opacity:1;"><g transform="translate(141.761154, 31.70019)"><path style="stroke:none" d="M 10.46875 -10.015625 C 10.46875 -9.929688 10.457031 -9.84375 10.4375 -9.75 C 10.414062 -9.65625 10.390625 -9.5625 10.359375 -9.46875 C 10.203125 -9.070312 9.957031 -8.738281 9.625 -8.46875 C 9.289062 -8.195312 8.898438 -8.0625 8.453125 -8.0625 C 7.773438 -8.0625 7.316406 -8.398438 7.078125 -9.078125 C 7.035156 -9.160156 7.015625 -9.257812 7.015625 -9.375 C 7.015625 -9.488281 7.007812 -9.609375 7 -9.734375 L 7 -10.484375 C 6.957031 -10.734375 6.894531 -10.925781 6.8125 -11.0625 C 6.726562 -11.195312 6.578125 -11.265625 6.359375 -11.265625 C 6.066406 -11.265625 5.785156 -11.078125 5.515625 -10.703125 C 5.242188 -10.335938 5.007812 -9.894531 4.8125 -9.375 C 4.613281 -8.863281 4.453125 -8.335938 4.328125 -7.796875 C 4.210938 -7.265625 4.15625 -6.832031 4.15625 -6.5 C 4.15625 -6.238281 4.171875 -5.921875 4.203125 -5.546875 C 4.234375 -5.171875 4.300781 -4.804688 4.40625 -4.453125 C 4.507812 -4.109375 4.648438 -3.8125 4.828125 -3.5625 C 5.015625 -3.3125 5.257812 -3.1875 5.5625 -3.1875 C 5.851562 -3.1875 6.125 -3.273438 6.375 -3.453125 C 6.632812 -3.640625 6.882812 -3.851562 7.125 -4.09375 C 7.351562 -4.300781 7.597656 -4.519531 7.859375 -4.75 C 8.128906 -4.976562 8.441406 -5.09375 8.796875 -5.09375 C 9.234375 -5.09375 9.578125 -4.9375 9.828125 -4.625 C 10.078125 -4.3125 10.203125 -3.953125 10.203125 -3.546875 C 10.203125 -2.953125 10.046875 -2.398438 9.734375 -1.890625 C 9.421875 -1.378906 9.03125 -0.9375 8.5625 -0.5625 C 8.09375 -0.1875 7.566406 0.109375 6.984375 0.328125 C 6.410156 0.546875 5.863281 0.65625 5.34375 0.65625 C 4.40625 0.65625 3.609375 0.421875 2.953125 -0.046875 C 2.304688 -0.515625 1.78125 -1.109375 1.375 -1.828125 C 0.976562 -2.554688 0.691406 -3.347656 0.515625 -4.203125 C 0.347656 -5.054688 0.265625 -5.863281 0.265625 -6.625 C 0.265625 -7.507812 0.382812 -8.46875 0.625 -9.5 C 0.863281 -10.539062 1.234375 -11.503906 1.734375 -12.390625 C 2.242188 -13.273438 2.894531 -14.015625 3.6875 -14.609375 C 4.476562 -15.203125 5.421875 -15.5 6.515625 -15.5 C 7.203125 -15.5 7.789062 -15.347656 8.28125 -15.046875 C 8.78125 -14.753906 9.191406 -14.367188 9.515625 -13.890625 C 9.835938 -13.410156 10.078125 -12.875 10.234375 -12.28125 C 10.398438 -11.695312 10.484375 -11.117188 10.484375 -10.546875 C 10.484375 -10.453125 10.484375 -10.363281 10.484375 -10.28125 C 10.484375 -10.195312 10.476562 -10.109375 10.46875 -10.015625 Z M 10.46875 -10.015625 "/></g></g><g style="fill:#5289b8;fill-opacity:1;"><g transform="translate(154.930333, 31.70019)"><path style="stroke:none" d="M 9.84375 -9.765625 C 9.59375 -9.742188 9.378906 -9.765625 9.203125 -9.828125 C 9.035156 -9.890625 8.863281 -9.953125 8.6875 -10.015625 C 8.53125 -10.085938 8.375 -10.15625 8.21875 -10.21875 C 8.0625 -10.28125 7.890625 -10.300781 7.703125 -10.28125 C 7.347656 -10.257812 7.035156 -10.160156 6.765625 -9.984375 C 6.492188 -9.816406 6.25 -9.601562 6.03125 -9.34375 C 5.820312 -9.082031 5.640625 -8.789062 5.484375 -8.46875 C 5.328125 -8.144531 5.203125 -7.828125 5.109375 -7.515625 C 5.054688 -7.304688 5.015625 -6.988281 4.984375 -6.5625 C 4.960938 -6.132812 4.953125 -5.675781 4.953125 -5.1875 C 4.941406 -4.6875 4.9375 -4.207031 4.9375 -3.75 C 4.9375 -3.300781 4.914062 -2.945312 4.875 -2.6875 C 4.863281 -2.40625 4.820312 -2.078125 4.75 -1.703125 C 4.675781 -1.328125 4.566406 -0.972656 4.421875 -0.640625 C 4.273438 -0.316406 4.078125 -0.046875 3.828125 0.171875 C 3.585938 0.398438 3.273438 0.515625 2.890625 0.515625 C 2.597656 0.515625 2.34375 0.425781 2.125 0.25 C 1.90625 0.0820312 1.722656 -0.140625 1.578125 -0.421875 C 1.429688 -0.710938 1.304688 -1.050781 1.203125 -1.4375 C 1.109375 -1.820312 1.035156 -2.210938 0.984375 -2.609375 C 0.929688 -3.023438 0.890625 -3.441406 0.859375 -3.859375 C 0.835938 -4.273438 0.820312 -4.671875 0.8125 -5.046875 C 0.8125 -5.421875 0.8125 -5.765625 0.8125 -6.078125 C 0.820312 -6.390625 0.828125 -6.644531 0.828125 -6.84375 C 0.816406 -7.445312 0.785156 -8.054688 0.734375 -8.671875 C 0.691406 -9.296875 0.671875 -9.910156 0.671875 -10.515625 C 0.671875 -10.898438 0.6875 -11.328125 0.71875 -11.796875 C 0.757812 -12.265625 0.859375 -12.703125 1.015625 -13.109375 C 1.171875 -13.515625 1.398438 -13.859375 1.703125 -14.140625 C 2.015625 -14.421875 2.4375 -14.5625 2.96875 -14.5625 C 3.269531 -14.5625 3.523438 -14.460938 3.734375 -14.265625 C 3.941406 -14.078125 4.109375 -13.84375 4.234375 -13.5625 C 4.367188 -13.289062 4.46875 -13 4.53125 -12.6875 C 4.601562 -12.375 4.648438 -12.082031 4.671875 -11.8125 C 5.085938 -12.5 5.554688 -13.050781 6.078125 -13.46875 C 6.597656 -13.894531 7.273438 -14.128906 8.109375 -14.171875 C 8.523438 -14.179688 8.9375 -14.140625 9.34375 -14.046875 C 9.757812 -13.953125 10.132812 -13.796875 10.46875 -13.578125 C 10.8125 -13.359375 11.09375 -13.078125 11.3125 -12.734375 C 11.53125 -12.390625 11.644531 -11.976562 11.65625 -11.5 C 11.695312 -10.945312 11.535156 -10.519531 11.171875 -10.21875 C 10.804688 -9.925781 10.363281 -9.773438 9.84375 -9.765625 Z M 9.84375 -9.765625 "/></g></g><g style="fill:#5289b8;fill-opacity:1;"><g transform="translate(168.229944, 31.70019)"><path style="stroke:none" d="M 12.21875 -7.46875 C 12.21875 -6.507812 12.117188 -5.554688 11.921875 -4.609375 C 11.734375 -3.671875 11.410156 -2.832031 10.953125 -2.09375 C 10.503906 -1.351562 9.898438 -0.757812 9.140625 -0.3125 C 8.390625 0.132812 7.445312 0.359375 6.3125 0.359375 C 5.195312 0.359375 4.265625 0.140625 3.515625 -0.296875 C 2.773438 -0.742188 2.179688 -1.332031 1.734375 -2.0625 C 1.285156 -2.789062 0.96875 -3.613281 0.78125 -4.53125 C 0.601562 -5.457031 0.515625 -6.398438 0.515625 -7.359375 C 0.515625 -8.398438 0.640625 -9.4375 0.890625 -10.46875 C 0.941406 -10.738281 1.039062 -11.125 1.1875 -11.625 C 1.332031 -12.125 1.519531 -12.609375 1.75 -13.078125 C 1.988281 -13.554688 2.257812 -13.96875 2.5625 -14.3125 C 2.875 -14.664062 3.210938 -14.84375 3.578125 -14.84375 C 3.921875 -14.84375 4.195312 -14.742188 4.40625 -14.546875 C 4.613281 -14.359375 4.78125 -14.117188 4.90625 -13.828125 C 5.03125 -13.546875 5.109375 -13.242188 5.140625 -12.921875 C 5.171875 -12.609375 5.1875 -12.320312 5.1875 -12.0625 C 5.1875 -11.65625 5.15625 -11.257812 5.09375 -10.875 C 5.039062 -10.5 4.976562 -10.117188 4.90625 -9.734375 C 4.832031 -9.210938 4.765625 -8.691406 4.703125 -8.171875 C 4.648438 -7.648438 4.625 -7.125 4.625 -6.59375 C 4.625 -6.332031 4.632812 -6.039062 4.65625 -5.71875 C 4.6875 -5.40625 4.753906 -5.097656 4.859375 -4.796875 C 4.960938 -4.503906 5.109375 -4.253906 5.296875 -4.046875 C 5.484375 -3.847656 5.753906 -3.75 6.109375 -3.75 C 6.554688 -3.75 6.914062 -3.867188 7.1875 -4.109375 C 7.457031 -4.359375 7.65625 -4.664062 7.78125 -5.03125 C 7.914062 -5.394531 8 -5.785156 8.03125 -6.203125 C 8.070312 -6.628906 8.09375 -7.015625 8.09375 -7.359375 C 8.09375 -8.117188 8.039062 -8.867188 7.9375 -9.609375 C 7.832031 -10.347656 7.734375 -11.101562 7.640625 -11.875 C 7.628906 -11.957031 7.625 -12.078125 7.625 -12.234375 C 7.625 -12.492188 7.664062 -12.753906 7.75 -13.015625 C 7.832031 -13.273438 7.953125 -13.507812 8.109375 -13.71875 C 8.265625 -13.925781 8.457031 -14.09375 8.6875 -14.21875 C 8.914062 -14.351562 9.171875 -14.421875 9.453125 -14.421875 C 9.828125 -14.421875 10.160156 -14.285156 10.453125 -14.015625 C 10.753906 -13.753906 11.003906 -13.410156 11.203125 -12.984375 C 11.398438 -12.554688 11.5625 -12.078125 11.6875 -11.546875 C 11.820312 -11.015625 11.929688 -10.488281 12.015625 -9.96875 C 12.097656 -9.457031 12.148438 -8.976562 12.171875 -8.53125 C 12.203125 -8.082031 12.21875 -7.726562 12.21875 -7.46875 Z M 12.21875 -7.46875 "/></g></g><g style="fill:#5289b8;fill-opacity:1;"><g transform="translate(183.277364, 31.70019)"><path style="stroke:none" d="M 12.5 -2.453125 C 12.5 -2.109375 12.351562 -1.800781 12.0625 -1.53125 C 11.78125 -1.269531 11.414062 -1.035156 10.96875 -0.828125 C 10.53125 -0.617188 10.023438 -0.445312 9.453125 -0.3125 C 8.890625 -0.175781 8.332031 -0.0664062 7.78125 0.015625 C 7.238281 0.109375 6.722656 0.175781 6.234375 0.21875 C 5.742188 0.257812 5.351562 0.28125 5.0625 0.28125 C 4.769531 0.28125 4.359375 0.269531 3.828125 0.25 C 3.296875 0.238281 2.769531 0.175781 2.25 0.0625 C 1.726562 -0.0507812 1.273438 -0.234375 0.890625 -0.484375 C 0.503906 -0.734375 0.3125 -1.085938 0.3125 -1.546875 C 0.3125 -1.890625 0.429688 -2.3125 0.671875 -2.8125 C 0.921875 -3.320312 1.234375 -3.867188 1.609375 -4.453125 C 1.992188 -5.046875 2.421875 -5.648438 2.890625 -6.265625 C 3.359375 -6.890625 3.816406 -7.488281 4.265625 -8.0625 C 4.722656 -8.632812 5.148438 -9.160156 5.546875 -9.640625 C 5.953125 -10.117188 6.269531 -10.515625 6.5 -10.828125 C 6.25 -10.773438 5.9375 -10.703125 5.5625 -10.609375 C 5.195312 -10.515625 4.8125 -10.421875 4.40625 -10.328125 C 4.007812 -10.242188 3.625 -10.171875 3.25 -10.109375 C 2.875 -10.046875 2.554688 -10.015625 2.296875 -10.015625 C 2.085938 -10.015625 1.851562 -10.050781 1.59375 -10.125 C 1.332031 -10.207031 1.082031 -10.316406 0.84375 -10.453125 C 0.613281 -10.597656 0.414062 -10.765625 0.25 -10.953125 C 0.0820312 -11.148438 0 -11.367188 0 -11.609375 C 0 -11.921875 0.132812 -12.210938 0.40625 -12.484375 C 0.6875 -12.753906 1.050781 -13 1.5 -13.21875 C 1.957031 -13.4375 2.460938 -13.625 3.015625 -13.78125 C 3.578125 -13.945312 4.128906 -14.085938 4.671875 -14.203125 C 5.210938 -14.316406 5.722656 -14.398438 6.203125 -14.453125 C 6.691406 -14.503906 7.085938 -14.53125 7.390625 -14.53125 C 7.710938 -14.53125 8.109375 -14.492188 8.578125 -14.421875 C 9.046875 -14.359375 9.503906 -14.238281 9.953125 -14.0625 C 10.398438 -13.882812 10.78125 -13.648438 11.09375 -13.359375 C 11.40625 -13.066406 11.5625 -12.691406 11.5625 -12.234375 C 11.5625 -12.097656 11.546875 -11.972656 11.515625 -11.859375 C 11.492188 -11.742188 11.460938 -11.617188 11.421875 -11.484375 C 11.390625 -11.359375 11.238281 -11.082031 10.96875 -10.65625 C 10.695312 -10.226562 10.363281 -9.722656 9.96875 -9.140625 C 9.582031 -8.554688 9.160156 -7.929688 8.703125 -7.265625 C 8.242188 -6.597656 7.804688 -5.96875 7.390625 -5.375 C 6.972656 -4.78125 6.601562 -4.253906 6.28125 -3.796875 C 5.96875 -3.347656 5.757812 -3.046875 5.65625 -2.890625 C 6.375 -3.085938 7.101562 -3.25 7.84375 -3.375 C 8.582031 -3.507812 9.316406 -3.578125 10.046875 -3.578125 C 10.222656 -3.578125 10.445312 -3.566406 10.71875 -3.546875 C 11 -3.523438 11.269531 -3.472656 11.53125 -3.390625 C 11.789062 -3.316406 12.015625 -3.207031 12.203125 -3.0625 C 12.398438 -2.914062 12.5 -2.710938 12.5 -2.453125 Z M 12.5 -2.453125 "/></g></g><g style="fill:#5289b8;fill-opacity:1;"><g transform="translate(197.542183, 31.70019)"><path style="stroke:none" d="M 11.875 -3.671875 C 11.875 -3.359375 11.859375 -2.953125 11.828125 -2.453125 C 11.804688 -1.953125 11.734375 -1.460938 11.609375 -0.984375 C 11.484375 -0.503906 11.289062 -0.09375 11.03125 0.25 C 10.769531 0.601562 10.40625 0.78125 9.9375 0.78125 C 9.289062 0.78125 8.796875 0.570312 8.453125 0.15625 C 8.109375 -0.257812 7.941406 -0.78125 7.953125 -1.40625 C 7.398438 -0.914062 6.769531 -0.53125 6.0625 -0.25 C 5.363281 0.0195312 4.644531 0.15625 3.90625 0.15625 C 3.40625 0.15625 2.925781 0.0351562 2.46875 -0.203125 C 2.019531 -0.453125 1.617188 -0.765625 1.265625 -1.140625 C 0.921875 -1.523438 0.644531 -1.957031 0.4375 -2.4375 C 0.226562 -2.914062 0.125 -3.390625 0.125 -3.859375 C 0.125 -4.691406 0.378906 -5.421875 0.890625 -6.046875 C 1.410156 -6.679688 2.039062 -7.21875 2.78125 -7.65625 C 3.53125 -8.101562 4.328125 -8.457031 5.171875 -8.71875 C 6.015625 -8.976562 6.769531 -9.148438 7.4375 -9.234375 C 7.4375 -9.328125 7.441406 -9.40625 7.453125 -9.46875 C 7.460938 -9.539062 7.46875 -9.617188 7.46875 -9.703125 C 7.46875 -10.242188 7.316406 -10.675781 7.015625 -11 C 6.722656 -11.332031 6.304688 -11.5 5.765625 -11.5 C 5.328125 -11.5 4.953125 -11.425781 4.640625 -11.28125 C 4.328125 -11.132812 4.03125 -10.96875 3.75 -10.78125 C 3.476562 -10.601562 3.203125 -10.441406 2.921875 -10.296875 C 2.640625 -10.148438 2.328125 -10.078125 1.984375 -10.078125 C 1.597656 -10.078125 1.269531 -10.195312 1 -10.4375 C 0.726562 -10.675781 0.59375 -10.988281 0.59375 -11.375 C 0.59375 -11.945312 0.765625 -12.46875 1.109375 -12.9375 C 1.453125 -13.40625 1.878906 -13.800781 2.390625 -14.125 C 2.898438 -14.445312 3.453125 -14.695312 4.046875 -14.875 C 4.648438 -15.0625 5.207031 -15.15625 5.71875 -15.15625 C 6.1875 -15.15625 6.65625 -15.097656 7.125 -14.984375 C 7.59375 -14.878906 8.035156 -14.707031 8.453125 -14.46875 C 8.867188 -14.226562 9.242188 -13.9375 9.578125 -13.59375 C 9.921875 -13.257812 10.195312 -12.867188 10.40625 -12.421875 C 10.71875 -11.773438 10.96875 -11.085938 11.15625 -10.359375 C 11.351562 -9.640625 11.503906 -8.898438 11.609375 -8.140625 C 11.710938 -7.390625 11.78125 -6.632812 11.8125 -5.875 C 11.851562 -5.125 11.875 -4.390625 11.875 -3.671875 Z M 7.703125 -4.515625 L 7.625 -6.28125 C 7.582031 -6.28125 7.546875 -6.285156 7.515625 -6.296875 C 7.484375 -6.304688 7.445312 -6.3125 7.40625 -6.3125 C 7.1875 -6.3125 6.90625 -6.253906 6.5625 -6.140625 C 6.21875 -6.023438 5.890625 -5.867188 5.578125 -5.671875 C 5.265625 -5.472656 5 -5.25 4.78125 -5 C 4.570312 -4.757812 4.46875 -4.507812 4.46875 -4.25 C 4.46875 -4.007812 4.550781 -3.84375 4.71875 -3.75 C 4.894531 -3.664062 5.097656 -3.625 5.328125 -3.625 C 5.703125 -3.625 6.109375 -3.722656 6.546875 -3.921875 C 6.984375 -4.128906 7.367188 -4.328125 7.703125 -4.515625 Z M 7.703125 -4.515625 "/></g></g><g style="fill:#5289b8;fill-opacity:1;"><g transform="translate(212.224389, 31.70019)"><path style="stroke:none" d="M 12.03125 -17.171875 C 12.03125 -15.898438 11.976562 -14.632812 11.875 -13.375 C 11.78125 -12.125 11.734375 -10.867188 11.734375 -9.609375 C 11.734375 -8.578125 11.765625 -7.554688 11.828125 -6.546875 C 11.890625 -5.535156 11.921875 -4.519531 11.921875 -3.5 C 11.921875 -3.21875 11.910156 -2.878906 11.890625 -2.484375 C 11.878906 -2.097656 11.820312 -1.722656 11.71875 -1.359375 C 11.625 -0.992188 11.46875 -0.679688 11.25 -0.421875 C 11.039062 -0.160156 10.734375 -0.03125 10.328125 -0.03125 C 9.804688 -0.03125 9.375 -0.222656 9.03125 -0.609375 C 8.695312 -1.003906 8.488281 -1.445312 8.40625 -1.9375 C 8.070312 -1.300781 7.59375 -0.765625 6.96875 -0.328125 C 6.34375 0.0976562 5.664062 0.3125 4.9375 0.3125 C 4.144531 0.3125 3.46875 0.046875 2.90625 -0.484375 C 2.34375 -1.023438 1.875 -1.675781 1.5 -2.4375 C 1.125 -3.207031 0.84375 -4.007812 0.65625 -4.84375 C 0.476562 -5.6875 0.390625 -6.410156 0.390625 -7.015625 C 0.390625 -7.453125 0.414062 -7.945312 0.46875 -8.5 C 0.519531 -9.0625 0.609375 -9.628906 0.734375 -10.203125 C 0.867188 -10.773438 1.039062 -11.332031 1.25 -11.875 C 1.457031 -12.425781 1.722656 -12.921875 2.046875 -13.359375 C 2.367188 -13.796875 2.75 -14.144531 3.1875 -14.40625 C 3.632812 -14.664062 4.144531 -14.796875 4.71875 -14.796875 C 5.34375 -14.796875 5.941406 -14.613281 6.515625 -14.25 C 7.097656 -13.882812 7.535156 -13.429688 7.828125 -12.890625 L 8.0625 -17.03125 C 8.082031 -17.363281 8.109375 -17.75 8.140625 -18.1875 C 8.171875 -18.632812 8.242188 -19.054688 8.359375 -19.453125 C 8.472656 -19.859375 8.648438 -20.203125 8.890625 -20.484375 C 9.140625 -20.765625 9.5 -20.90625 9.96875 -20.90625 C 10.46875 -20.90625 10.859375 -20.78125 11.140625 -20.53125 C 11.421875 -20.289062 11.625 -19.984375 11.75 -19.609375 C 11.882812 -19.234375 11.960938 -18.828125 11.984375 -18.390625 C 12.015625 -17.960938 12.03125 -17.554688 12.03125 -17.171875 Z M 7.78125 -5.578125 C 7.78125 -5.984375 7.769531 -6.375 7.75 -6.75 C 7.726562 -7.132812 7.726562 -7.53125 7.75 -7.9375 C 7.644531 -8.15625 7.519531 -8.398438 7.375 -8.671875 C 7.238281 -8.941406 7.070312 -9.191406 6.875 -9.421875 C 6.675781 -9.660156 6.453125 -9.859375 6.203125 -10.015625 C 5.960938 -10.171875 5.703125 -10.25 5.421875 -10.25 C 5.109375 -10.25 4.859375 -10.15625 4.671875 -9.96875 C 4.484375 -9.78125 4.34375 -9.550781 4.25 -9.28125 C 4.164062 -9.007812 4.109375 -8.71875 4.078125 -8.40625 C 4.054688 -8.09375 4.046875 -7.820312 4.046875 -7.59375 C 4.046875 -7.382812 4.0625 -7.070312 4.09375 -6.65625 C 4.132812 -6.25 4.203125 -5.835938 4.296875 -5.421875 C 4.390625 -5.003906 4.519531 -4.640625 4.6875 -4.328125 C 4.863281 -4.015625 5.101562 -3.859375 5.40625 -3.859375 C 5.625 -3.859375 5.847656 -3.90625 6.078125 -4 C 6.304688 -4.101562 6.519531 -4.226562 6.71875 -4.375 C 6.914062 -4.519531 7.101562 -4.679688 7.28125 -4.859375 C 7.46875 -5.046875 7.632812 -5.21875 7.78125 -5.375 Z M 7.78125 -5.578125 "/></g></g><g style="fill:#5289b8;fill-opacity:1;"><g transform="translate(227.219636, 31.70019)"><path style="stroke:none" d="M 11.875 -3.671875 C 11.875 -3.359375 11.859375 -2.953125 11.828125 -2.453125 C 11.804688 -1.953125 11.734375 -1.460938 11.609375 -0.984375 C 11.484375 -0.503906 11.289062 -0.09375 11.03125 0.25 C 10.769531 0.601562 10.40625 0.78125 9.9375 0.78125 C 9.289062 0.78125 8.796875 0.570312 8.453125 0.15625 C 8.109375 -0.257812 7.941406 -0.78125 7.953125 -1.40625 C 7.398438 -0.914062 6.769531 -0.53125 6.0625 -0.25 C 5.363281 0.0195312 4.644531 0.15625 3.90625 0.15625 C 3.40625 0.15625 2.925781 0.0351562 2.46875 -0.203125 C 2.019531 -0.453125 1.617188 -0.765625 1.265625 -1.140625 C 0.921875 -1.523438 0.644531 -1.957031 0.4375 -2.4375 C 0.226562 -2.914062 0.125 -3.390625 0.125 -3.859375 C 0.125 -4.691406 0.378906 -5.421875 0.890625 -6.046875 C 1.410156 -6.679688 2.039062 -7.21875 2.78125 -7.65625 C 3.53125 -8.101562 4.328125 -8.457031 5.171875 -8.71875 C 6.015625 -8.976562 6.769531 -9.148438 7.4375 -9.234375 C 7.4375 -9.328125 7.441406 -9.40625 7.453125 -9.46875 C 7.460938 -9.539062 7.46875 -9.617188 7.46875 -9.703125 C 7.46875 -10.242188 7.316406 -10.675781 7.015625 -11 C 6.722656 -11.332031 6.304688 -11.5 5.765625 -11.5 C 5.328125 -11.5 4.953125 -11.425781 4.640625 -11.28125 C 4.328125 -11.132812 4.03125 -10.96875 3.75 -10.78125 C 3.476562 -10.601562 3.203125 -10.441406 2.921875 -10.296875 C 2.640625 -10.148438 2.328125 -10.078125 1.984375 -10.078125 C 1.597656 -10.078125 1.269531 -10.195312 1 -10.4375 C 0.726562 -10.675781 0.59375 -10.988281 0.59375 -11.375 C 0.59375 -11.945312 0.765625 -12.46875 1.109375 -12.9375 C 1.453125 -13.40625 1.878906 -13.800781 2.390625 -14.125 C 2.898438 -14.445312 3.453125 -14.695312 4.046875 -14.875 C 4.648438 -15.0625 5.207031 -15.15625 5.71875 -15.15625 C 6.1875 -15.15625 6.65625 -15.097656 7.125 -14.984375 C 7.59375 -14.878906 8.035156 -14.707031 8.453125 -14.46875 C 8.867188 -14.226562 9.242188 -13.9375 9.578125 -13.59375 C 9.921875 -13.257812 10.195312 -12.867188 10.40625 -12.421875 C 10.71875 -11.773438 10.96875 -11.085938 11.15625 -10.359375 C 11.351562 -9.640625 11.503906 -8.898438 11.609375 -8.140625 C 11.710938 -7.390625 11.78125 -6.632812 11.8125 -5.875 C 11.851562 -5.125 11.875 -4.390625 11.875 -3.671875 Z M 7.703125 -4.515625 L 7.625 -6.28125 C 7.582031 -6.28125 7.546875 -6.285156 7.515625 -6.296875 C 7.484375 -6.304688 7.445312 -6.3125 7.40625 -6.3125 C 7.1875 -6.3125 6.90625 -6.253906 6.5625 -6.140625 C 6.21875 -6.023438 5.890625 -5.867188 5.578125 -5.671875 C 5.265625 -5.472656 5 -5.25 4.78125 -5 C 4.570312 -4.757812 4.46875 -4.507812 4.46875 -4.25 C 4.46875 -4.007812 4.550781 -3.84375 4.71875 -3.75 C 4.894531 -3.664062 5.097656 -3.625 5.328125 -3.625 C 5.703125 -3.625 6.109375 -3.722656 6.546875 -3.921875 C 6.984375 -4.128906 7.367188 -4.328125 7.703125 -4.515625 Z M 7.703125 -4.515625 "/></g></g><g style="fill:#5289b8;fill-opacity:1;"><g transform="translate(241.901842, 31.70019)"><path style="stroke:none" d="M 8.421875 -14.34375 C 8.421875 -13.84375 8.25 -13.46875 7.90625 -13.21875 C 7.570312 -12.976562 7.195312 -12.75 6.78125 -12.53125 C 6.363281 -12.320312 5.984375 -12.066406 5.640625 -11.765625 C 5.304688 -11.472656 5.140625 -11.03125 5.140625 -10.4375 C 5.140625 -10.125 5.210938 -9.851562 5.359375 -9.625 C 5.503906 -9.394531 5.6875 -9.1875 5.90625 -9 C 6.125 -8.820312 6.363281 -8.640625 6.625 -8.453125 C 6.882812 -8.265625 7.125 -8.046875 7.34375 -7.796875 C 7.5625 -7.554688 7.742188 -7.257812 7.890625 -6.90625 C 8.035156 -6.5625 8.109375 -6.140625 8.109375 -5.640625 C 8.109375 -4.910156 7.921875 -4.191406 7.546875 -3.484375 C 7.179688 -2.773438 6.707031 -2.144531 6.125 -1.59375 C 5.539062 -1.050781 4.878906 -0.613281 4.140625 -0.28125 C 3.410156 0.0390625 2.691406 0.203125 1.984375 0.203125 C 1.691406 0.203125 1.394531 0.179688 1.09375 0.140625 C 0.800781 0.0976562 0.535156 0.0195312 0.296875 -0.09375 C 0.0664062 -0.21875 -0.125 -0.390625 -0.28125 -0.609375 C -0.4375 -0.828125 -0.515625 -1.113281 -0.515625 -1.46875 C -0.515625 -1.945312 -0.421875 -2.320312 -0.234375 -2.59375 C -0.046875 -2.863281 0.191406 -3.078125 0.484375 -3.234375 C 0.785156 -3.390625 1.101562 -3.507812 1.4375 -3.59375 C 1.78125 -3.6875 2.097656 -3.796875 2.390625 -3.921875 C 2.691406 -4.054688 2.9375 -4.226562 3.125 -4.4375 C 3.320312 -4.644531 3.421875 -4.941406 3.421875 -5.328125 C 3.421875 -5.691406 3.273438 -6.066406 2.984375 -6.453125 C 2.703125 -6.847656 2.382812 -7.265625 2.03125 -7.703125 C 1.6875 -8.148438 1.367188 -8.625 1.078125 -9.125 C 0.796875 -9.632812 0.65625 -10.191406 0.65625 -10.796875 C 0.65625 -11.546875 0.804688 -12.238281 1.109375 -12.875 C 1.410156 -13.507812 1.816406 -14.0625 2.328125 -14.53125 C 2.847656 -15 3.4375 -15.367188 4.09375 -15.640625 C 4.757812 -15.910156 5.457031 -16.046875 6.1875 -16.046875 C 6.457031 -16.046875 6.726562 -16.019531 7 -15.96875 C 7.269531 -15.914062 7.507812 -15.820312 7.71875 -15.6875 C 7.925781 -15.5625 8.09375 -15.390625 8.21875 -15.171875 C 8.351562 -14.953125 8.421875 -14.675781 8.421875 -14.34375 Z M 8.421875 -14.34375 "/></g></g></g></svg>