<svg xmlns="http://www.w3.org/2000/svg" xmlns:xlink="http://www.w3.org/1999/xlink" width="370" zoomAndPan="magnify" viewBox="0 0 277.5 46.499999" height="62" preserveAspectRatio="xMidYMid meet" version="1.0"><defs><g/><clipPath id="9bdf33011f"><path d="M 1.230469 0.113281 L 275.351562 0.113281 L 275.351562 45.476562 L 1.230469 45.476562 Z M 1.230469 0.113281 " clip-rule="nonzero"/></clipPath><clipPath id="adf9f3441c"><path d="M 23.910156 0.113281 L 252.585938 0.113281 C 258.601562 0.113281 264.371094 2.503906 268.625 6.757812 C 272.878906 11.011719 275.269531 16.78125 275.269531 22.796875 C 275.269531 28.8125 272.878906 34.582031 268.625 38.835938 C 264.371094 43.085938 258.601562 45.476562 252.585938 45.476562 L 23.910156 45.476562 C 17.894531 45.476562 12.125 43.085938 7.871094 38.835938 C 3.617188 34.582031 1.230469 28.8125 1.230469 22.796875 C 1.230469 16.78125 3.617188 11.011719 7.871094 6.757812 C 12.125 2.503906 17.894531 0.113281 23.910156 0.113281 Z M 23.910156 0.113281 " clip-rule="nonzero"/></clipPath><clipPath id="2b30d0d888"><path d="M 0.230469 0.113281 L 274.351562 0.113281 L 274.351562 45.476562 L 0.230469 45.476562 Z M 0.230469 0.113281 " clip-rule="nonzero"/></clipPath><clipPath id="7080e7396a"><path d="M 22.910156 0.113281 L 251.585938 0.113281 C 257.601562 0.113281 263.371094 2.503906 267.625 6.757812 C 271.878906 11.011719 274.269531 16.78125 274.269531 22.796875 C 274.269531 28.8125 271.878906 34.582031 267.625 38.835938 C 263.371094 43.085938 257.601562 45.476562 251.585938 45.476562 L 22.910156 45.476562 C 16.894531 45.476562 11.125 43.085938 6.871094 38.835938 C 2.617188 34.582031 0.230469 28.8125 0.230469 22.796875 C 0.230469 16.78125 2.617188 11.011719 6.871094 6.757812 C 11.125 2.503906 16.894531 0.113281 22.910156 0.113281 Z M 22.910156 0.113281 " clip-rule="nonzero"/></clipPath><clipPath id="11e14db3fc"><rect x="0" width="275" y="0" height="46"/></clipPath></defs><g clip-path="url(#9bdf33011f)"><g clip-path="url(#adf9f3441c)"><g transform="matrix(1, 0, 0, 1, 1, 0)"><g clip-path="url(#11e14db3fc)"><g clip-path="url(#2b30d0d888)"><g clip-path="url(#7080e7396a)"><path fill="#e8f0f6" d="M 0.230469 0.113281 L 274.351562 0.113281 L 274.351562 45.476562 L 0.230469 45.476562 Z M 0.230469 0.113281 " fill-opacity="1" fill-rule="nonzero"/></g></g></g></g></g></g><g fill="#5289b8" fill-opacity="1"><g transform="translate(35.835519, 31.70019)"><g><path d="M 11.71875 -15.609375 C 11.71875 -15.273438 11.6875 -14.953125 11.625 -14.640625 C 11.5625 -14.335938 11.453125 -14.070312 11.296875 -13.84375 C 11.140625 -13.625 10.929688 -13.445312 10.671875 -13.3125 C 10.410156 -13.1875 10.085938 -13.125 9.703125 -13.125 C 9.265625 -13.125 8.941406 -13.207031 8.734375 -13.375 C 8.523438 -13.550781 8.378906 -13.765625 8.296875 -14.015625 C 8.222656 -14.273438 8.1875 -14.550781 8.1875 -14.84375 C 8.1875 -15.144531 8.171875 -15.421875 8.140625 -15.671875 C 8.117188 -15.921875 8.054688 -16.128906 7.953125 -16.296875 C 7.847656 -16.472656 7.660156 -16.5625 7.390625 -16.5625 C 7.128906 -16.5625 6.914062 -16.363281 6.75 -15.96875 C 6.582031 -15.570312 6.445312 -15.109375 6.34375 -14.578125 C 6.238281 -14.054688 6.164062 -13.546875 6.125 -13.046875 C 6.09375 -12.554688 6.078125 -12.226562 6.078125 -12.0625 C 6.304688 -12.09375 6.523438 -12.117188 6.734375 -12.140625 C 6.941406 -12.171875 7.164062 -12.1875 7.40625 -12.1875 C 7.65625 -12.1875 7.910156 -12.160156 8.171875 -12.109375 C 8.429688 -12.054688 8.671875 -11.972656 8.890625 -11.859375 C 9.117188 -11.742188 9.300781 -11.585938 9.4375 -11.390625 C 9.582031 -11.191406 9.65625 -10.941406 9.65625 -10.640625 C 9.65625 -10.328125 9.519531 -10.050781 9.25 -9.8125 C 8.976562 -9.570312 8.65625 -9.367188 8.28125 -9.203125 C 7.90625 -9.035156 7.523438 -8.898438 7.140625 -8.796875 C 6.765625 -8.691406 6.460938 -8.617188 6.234375 -8.578125 C 6.285156 -7.378906 6.3125 -6.171875 6.3125 -4.953125 C 6.3125 -3.804688 6.285156 -2.675781 6.234375 -1.5625 C 6.203125 -1.019531 6.015625 -0.578125 5.671875 -0.234375 C 5.335938 0.109375 4.898438 0.28125 4.359375 0.28125 C 4.054688 0.28125 3.800781 0.222656 3.59375 0.109375 C 3.382812 0.00390625 3.210938 -0.140625 3.078125 -0.328125 C 2.941406 -0.523438 2.832031 -0.742188 2.75 -0.984375 C 2.675781 -1.234375 2.628906 -1.488281 2.609375 -1.75 C 2.523438 -2.789062 2.457031 -3.835938 2.40625 -4.890625 C 2.351562 -5.941406 2.332031 -7 2.34375 -8.0625 C 2.226562 -8.039062 2.113281 -8.03125 2 -8.03125 C 1.882812 -8.03125 1.765625 -8.03125 1.640625 -8.03125 C 1.429688 -8.03125 1.175781 -8.054688 0.875 -8.109375 C 0.582031 -8.160156 0.300781 -8.25 0.03125 -8.375 C -0.226562 -8.507812 -0.453125 -8.671875 -0.640625 -8.859375 C -0.835938 -9.054688 -0.9375 -9.304688 -0.9375 -9.609375 C -0.9375 -9.984375 -0.8125 -10.300781 -0.5625 -10.5625 C -0.3125 -10.820312 -0.0078125 -11.035156 0.34375 -11.203125 C 0.707031 -11.367188 1.082031 -11.484375 1.46875 -11.546875 C 1.863281 -11.617188 2.207031 -11.675781 2.5 -11.71875 L 2.5 -12.140625 C 2.5 -12.984375 2.578125 -13.890625 2.734375 -14.859375 C 2.890625 -15.835938 3.164062 -16.742188 3.5625 -17.578125 C 3.96875 -18.421875 4.519531 -19.113281 5.21875 -19.65625 C 5.914062 -20.207031 6.800781 -20.484375 7.875 -20.484375 C 8.550781 -20.484375 9.132812 -20.335938 9.625 -20.046875 C 10.113281 -19.765625 10.515625 -19.390625 10.828125 -18.921875 C 11.140625 -18.460938 11.363281 -17.941406 11.5 -17.359375 C 11.644531 -16.773438 11.71875 -16.191406 11.71875 -15.609375 Z M 11.71875 -15.609375 "/></g></g></g><g fill="#5289b8" fill-opacity="1"><g transform="translate(47.830796, 31.70019)"><g><path d="M 11.71875 -4.640625 C 11.71875 -4.046875 11.53125 -3.46875 11.15625 -2.90625 C 10.78125 -2.34375 10.304688 -1.835938 9.734375 -1.390625 C 9.171875 -0.953125 8.566406 -0.597656 7.921875 -0.328125 C 7.285156 -0.0546875 6.695312 0.078125 6.15625 0.078125 C 5.238281 0.078125 4.414062 -0.148438 3.6875 -0.609375 C 2.96875 -1.066406 2.363281 -1.648438 1.875 -2.359375 C 1.382812 -3.078125 1.015625 -3.867188 0.765625 -4.734375 C 0.515625 -5.597656 0.390625 -6.4375 0.390625 -7.25 C 0.390625 -8.125 0.507812 -9.054688 0.75 -10.046875 C 1 -11.035156 1.367188 -11.945312 1.859375 -12.78125 C 2.359375 -13.613281 2.984375 -14.304688 3.734375 -14.859375 C 4.492188 -15.421875 5.394531 -15.703125 6.4375 -15.703125 C 7.03125 -15.703125 7.597656 -15.601562 8.140625 -15.40625 C 8.679688 -15.207031 9.148438 -14.925781 9.546875 -14.5625 C 9.953125 -14.195312 10.273438 -13.757812 10.515625 -13.25 C 10.753906 -12.75 10.875 -12.1875 10.875 -11.5625 C 10.875 -10.738281 10.703125 -9.96875 10.359375 -9.25 C 10.015625 -8.539062 9.550781 -7.925781 8.96875 -7.40625 C 8.394531 -6.882812 7.734375 -6.460938 6.984375 -6.140625 C 6.242188 -5.816406 5.484375 -5.640625 4.703125 -5.609375 C 4.765625 -5.109375 4.960938 -4.742188 5.296875 -4.515625 C 5.640625 -4.285156 6.046875 -4.171875 6.515625 -4.171875 C 6.867188 -4.171875 7.207031 -4.257812 7.53125 -4.4375 C 7.863281 -4.613281 8.1875 -4.804688 8.5 -5.015625 C 8.8125 -5.234375 9.117188 -5.429688 9.421875 -5.609375 C 9.734375 -5.785156 10.046875 -5.875 10.359375 -5.875 C 10.703125 -5.875 11.015625 -5.757812 11.296875 -5.53125 C 11.578125 -5.300781 11.71875 -5.003906 11.71875 -4.640625 Z M 7.484375 -11.03125 C 7.484375 -11.257812 7.421875 -11.492188 7.296875 -11.734375 C 7.179688 -11.984375 6.992188 -12.109375 6.734375 -12.109375 C 6.347656 -12.109375 6.023438 -12.003906 5.765625 -11.796875 C 5.503906 -11.597656 5.285156 -11.347656 5.109375 -11.046875 C 4.941406 -10.742188 4.804688 -10.414062 4.703125 -10.0625 C 4.609375 -9.71875 4.554688 -9.398438 4.546875 -9.109375 C 4.785156 -9.160156 5.070312 -9.226562 5.40625 -9.3125 C 5.75 -9.40625 6.070312 -9.523438 6.375 -9.671875 C 6.6875 -9.816406 6.945312 -10 7.15625 -10.21875 C 7.375 -10.445312 7.484375 -10.71875 7.484375 -11.03125 Z M 7.484375 -11.03125 "/></g></g></g><g fill="#5289b8" fill-opacity="1"><g transform="translate(61.834748, 31.70019)"><g><path d="M 5.65625 -15.8125 C 5.65625 -14.875 5.613281 -13.929688 5.53125 -12.984375 C 5.457031 -12.035156 5.421875 -11.082031 5.421875 -10.125 C 5.421875 -8.882812 5.457031 -7.644531 5.53125 -6.40625 C 5.613281 -5.175781 5.65625 -3.9375 5.65625 -2.6875 C 5.65625 -2.375 5.640625 -2.019531 5.609375 -1.625 C 5.578125 -1.238281 5.492188 -0.878906 5.359375 -0.546875 C 5.234375 -0.210938 5.039062 0.0625 4.78125 0.28125 C 4.519531 0.507812 4.171875 0.625 3.734375 0.625 C 3.316406 0.625 2.953125 0.421875 2.640625 0.015625 C 2.335938 -0.390625 2.085938 -0.910156 1.890625 -1.546875 C 1.691406 -2.179688 1.523438 -2.890625 1.390625 -3.671875 C 1.265625 -4.460938 1.171875 -5.226562 1.109375 -5.96875 C 1.046875 -6.707031 1 -7.382812 0.96875 -8 C 0.945312 -8.613281 0.9375 -9.070312 0.9375 -9.375 C 0.9375 -9.695312 0.945312 -10.171875 0.96875 -10.796875 C 1 -11.421875 1.054688 -12.097656 1.140625 -12.828125 C 1.234375 -13.566406 1.351562 -14.3125 1.5 -15.0625 C 1.644531 -15.820312 1.835938 -16.507812 2.078125 -17.125 C 2.328125 -17.75 2.617188 -18.253906 2.953125 -18.640625 C 3.296875 -19.035156 3.703125 -19.234375 4.171875 -19.234375 C 4.554688 -19.234375 4.847656 -19.101562 5.046875 -18.84375 C 5.242188 -18.59375 5.382812 -18.289062 5.46875 -17.9375 C 5.5625 -17.582031 5.613281 -17.207031 5.625 -16.8125 C 5.644531 -16.425781 5.65625 -16.09375 5.65625 -15.8125 Z M 5.65625 -15.8125 "/></g></g></g><g fill="#5289b8" fill-opacity="1"><g transform="translate(70.725711, 31.70019)"><g><path d="M 5.09375 -18.21875 C 5.09375 -17.96875 5.023438 -17.742188 4.890625 -17.546875 C 4.765625 -17.359375 4.597656 -17.191406 4.390625 -17.046875 C 4.179688 -16.898438 3.953125 -16.785156 3.703125 -16.703125 C 3.460938 -16.628906 3.238281 -16.59375 3.03125 -16.59375 C 2.675781 -16.59375 2.367188 -16.675781 2.109375 -16.84375 C 1.847656 -17.019531 1.71875 -17.296875 1.71875 -17.671875 C 1.71875 -17.929688 1.78125 -18.160156 1.90625 -18.359375 C 2.039062 -18.554688 2.203125 -18.71875 2.390625 -18.84375 C 2.585938 -18.976562 2.804688 -19.078125 3.046875 -19.140625 C 3.296875 -19.210938 3.53125 -19.25 3.75 -19.25 C 4.082031 -19.25 4.390625 -19.171875 4.671875 -19.015625 C 4.953125 -18.859375 5.09375 -18.59375 5.09375 -18.21875 Z M 5.296875 -9.34375 C 5.296875 -9.09375 5.296875 -8.832031 5.296875 -8.5625 C 5.296875 -8.300781 5.285156 -8.046875 5.265625 -7.796875 C 5.253906 -7.503906 5.25 -7.109375 5.25 -6.609375 C 5.25 -6.117188 5.226562 -5.585938 5.1875 -5.015625 C 5.15625 -4.441406 5.097656 -3.859375 5.015625 -3.265625 C 4.941406 -2.671875 4.816406 -2.128906 4.640625 -1.640625 C 4.472656 -1.148438 4.242188 -0.753906 3.953125 -0.453125 C 3.660156 -0.148438 3.300781 0.0078125 2.875 0.03125 C 2.539062 0.0390625 2.257812 -0.0859375 2.03125 -0.359375 C 1.8125 -0.640625 1.625 -1 1.46875 -1.4375 C 1.320312 -1.882812 1.210938 -2.378906 1.140625 -2.921875 C 1.078125 -3.472656 1.023438 -4.003906 0.984375 -4.515625 C 0.953125 -5.035156 0.9375 -5.507812 0.9375 -5.9375 C 0.9375 -6.375 0.9375 -6.703125 0.9375 -6.921875 C 0.9375 -7.191406 0.9375 -7.582031 0.9375 -8.09375 C 0.9375 -8.613281 0.953125 -9.164062 0.984375 -9.75 C 1.023438 -10.34375 1.09375 -10.941406 1.1875 -11.546875 C 1.28125 -12.160156 1.414062 -12.71875 1.59375 -13.21875 C 1.78125 -13.726562 2.019531 -14.140625 2.3125 -14.453125 C 2.613281 -14.765625 2.988281 -14.921875 3.4375 -14.921875 C 3.914062 -14.921875 4.273438 -14.6875 4.515625 -14.21875 C 4.753906 -13.75 4.9375 -13.203125 5.0625 -12.578125 C 5.1875 -11.953125 5.253906 -11.328125 5.265625 -10.703125 C 5.285156 -10.085938 5.296875 -9.632812 5.296875 -9.34375 Z M 5.296875 -9.34375 "/></g></g></g><g fill="#5289b8" fill-opacity="1"><g transform="translate(79.121026, 31.70019)"><g><path d="M 12.5 -2.453125 C 12.5 -2.109375 12.351562 -1.800781 12.0625 -1.53125 C 11.78125 -1.269531 11.414062 -1.035156 10.96875 -0.828125 C 10.53125 -0.617188 10.023438 -0.445312 9.453125 -0.3125 C 8.890625 -0.175781 8.332031 -0.0664062 7.78125 0.015625 C 7.238281 0.109375 6.722656 0.175781 6.234375 0.21875 C 5.742188 0.257812 5.351562 0.28125 5.0625 0.28125 C 4.769531 0.28125 4.359375 0.269531 3.828125 0.25 C 3.296875 0.238281 2.769531 0.175781 2.25 0.0625 C 1.726562 -0.0507812 1.273438 -0.234375 0.890625 -0.484375 C 0.503906 -0.734375 0.3125 -1.085938 0.3125 -1.546875 C 0.3125 -1.890625 0.429688 -2.3125 0.671875 -2.8125 C 0.921875 -3.320312 1.234375 -3.867188 1.609375 -4.453125 C 1.992188 -5.046875 2.421875 -5.648438 2.890625 -6.265625 C 3.359375 -6.890625 3.816406 -7.488281 4.265625 -8.0625 C 4.722656 -8.632812 5.148438 -9.160156 5.546875 -9.640625 C 5.953125 -10.117188 6.269531 -10.515625 6.5 -10.828125 C 6.25 -10.773438 5.9375 -10.703125 5.5625 -10.609375 C 5.195312 -10.515625 4.8125 -10.421875 4.40625 -10.328125 C 4.007812 -10.242188 3.625 -10.171875 3.25 -10.109375 C 2.875 -10.046875 2.554688 -10.015625 2.296875 -10.015625 C 2.085938 -10.015625 1.851562 -10.050781 1.59375 -10.125 C 1.332031 -10.207031 1.082031 -10.316406 0.84375 -10.453125 C 0.613281 -10.597656 0.414062 -10.765625 0.25 -10.953125 C 0.0820312 -11.148438 0 -11.367188 0 -11.609375 C 0 -11.921875 0.132812 -12.210938 0.40625 -12.484375 C 0.6875 -12.753906 1.050781 -13 1.5 -13.21875 C 1.957031 -13.4375 2.460938 -13.625 3.015625 -13.78125 C 3.578125 -13.945312 4.128906 -14.085938 4.671875 -14.203125 C 5.210938 -14.316406 5.722656 -14.398438 6.203125 -14.453125 C 6.691406 -14.503906 7.085938 -14.53125 7.390625 -14.53125 C 7.710938 -14.53125 8.109375 -14.492188 8.578125 -14.421875 C 9.046875 -14.359375 9.503906 -14.238281 9.953125 -14.0625 C 10.398438 -13.882812 10.78125 -13.648438 11.09375 -13.359375 C 11.40625 -13.066406 11.5625 -12.691406 11.5625 -12.234375 C 11.5625 -12.097656 11.546875 -11.972656 11.515625 -11.859375 C 11.492188 -11.742188 11.460938 -11.617188 11.421875 -11.484375 C 11.390625 -11.359375 11.238281 -11.082031 10.96875 -10.65625 C 10.695312 -10.226562 10.363281 -9.722656 9.96875 -9.140625 C 9.582031 -8.554688 9.160156 -7.929688 8.703125 -7.265625 C 8.242188 -6.597656 7.804688 -5.96875 7.390625 -5.375 C 6.972656 -4.78125 6.601562 -4.253906 6.28125 -3.796875 C 5.96875 -3.347656 5.757812 -3.046875 5.65625 -2.890625 C 6.375 -3.085938 7.101562 -3.25 7.84375 -3.375 C 8.582031 -3.507812 9.316406 -3.578125 10.046875 -3.578125 C 10.222656 -3.578125 10.445312 -3.566406 10.71875 -3.546875 C 11 -3.523438 11.269531 -3.472656 11.53125 -3.390625 C 11.789062 -3.316406 12.015625 -3.207031 12.203125 -3.0625 C 12.398438 -2.914062 12.5 -2.710938 12.5 -2.453125 Z M 12.5 -2.453125 "/></g></g></g><g fill="#5289b8" fill-opacity="1"><g transform="translate(93.385845, 31.70019)"><g/></g></g><g fill="#5289b8" fill-opacity="1"><g transform="translate(101.7029, 31.70019)"><g><path d="M 11.875 -3.671875 C 11.875 -3.359375 11.859375 -2.953125 11.828125 -2.453125 C 11.804688 -1.953125 11.734375 -1.460938 11.609375 -0.984375 C 11.484375 -0.503906 11.289062 -0.09375 11.03125 0.25 C 10.769531 0.601562 10.40625 0.78125 9.9375 0.78125 C 9.289062 0.78125 8.796875 0.570312 8.453125 0.15625 C 8.109375 -0.257812 7.941406 -0.78125 7.953125 -1.40625 C 7.398438 -0.914062 6.769531 -0.53125 6.0625 -0.25 C 5.363281 0.0195312 4.644531 0.15625 3.90625 0.15625 C 3.40625 0.15625 2.925781 0.0351562 2.46875 -0.203125 C 2.019531 -0.453125 1.617188 -0.765625 1.265625 -1.140625 C 0.921875 -1.523438 0.644531 -1.957031 0.4375 -2.4375 C 0.226562 -2.914062 0.125 -3.390625 0.125 -3.859375 C 0.125 -4.691406 0.378906 -5.421875 0.890625 -6.046875 C 1.410156 -6.679688 2.039062 -7.21875 2.78125 -7.65625 C 3.53125 -8.101562 4.328125 -8.457031 5.171875 -8.71875 C 6.015625 -8.976562 6.769531 -9.148438 7.4375 -9.234375 C 7.4375 -9.328125 7.441406 -9.40625 7.453125 -9.46875 C 7.460938 -9.539062 7.46875 -9.617188 7.46875 -9.703125 C 7.46875 -10.242188 7.316406 -10.675781 7.015625 -11 C 6.722656 -11.332031 6.304688 -11.5 5.765625 -11.5 C 5.328125 -11.5 4.953125 -11.425781 4.640625 -11.28125 C 4.328125 -11.132812 4.03125 -10.96875 3.75 -10.78125 C 3.476562 -10.601562 3.203125 -10.441406 2.921875 -10.296875 C 2.640625 -10.148438 2.328125 -10.078125 1.984375 -10.078125 C 1.597656 -10.078125 1.269531 -10.195312 1 -10.4375 C 0.726562 -10.675781 0.59375 -10.988281 0.59375 -11.375 C 0.59375 -11.945312 0.765625 -12.46875 1.109375 -12.9375 C 1.453125 -13.40625 1.878906 -13.800781 2.390625 -14.125 C 2.898438 -14.445312 3.453125 -14.695312 4.046875 -14.875 C 4.648438 -15.0625 5.207031 -15.15625 5.71875 -15.15625 C 6.1875 -15.15625 6.65625 -15.097656 7.125 -14.984375 C 7.59375 -14.878906 8.035156 -14.707031 8.453125 -14.46875 C 8.867188 -14.226562 9.242188 -13.9375 9.578125 -13.59375 C 9.921875 -13.257812 10.195312 -12.867188 10.40625 -12.421875 C 10.71875 -11.773438 10.96875 -11.085938 11.15625 -10.359375 C 11.351562 -9.640625 11.503906 -8.898438 11.609375 -8.140625 C 11.710938 -7.390625 11.78125 -6.632812 11.8125 -5.875 C 11.851562 -5.125 11.875 -4.390625 11.875 -3.671875 Z M 7.703125 -4.515625 L 7.625 -6.28125 C 7.582031 -6.28125 7.546875 -6.285156 7.515625 -6.296875 C 7.484375 -6.304688 7.445312 -6.3125 7.40625 -6.3125 C 7.1875 -6.3125 6.90625 -6.253906 6.5625 -6.140625 C 6.21875 -6.023438 5.890625 -5.867188 5.578125 -5.671875 C 5.265625 -5.472656 5 -5.25 4.78125 -5 C 4.570312 -4.757812 4.46875 -4.507812 4.46875 -4.25 C 4.46875 -4.007812 4.550781 -3.84375 4.71875 -3.75 C 4.894531 -3.664062 5.097656 -3.625 5.328125 -3.625 C 5.703125 -3.625 6.109375 -3.722656 6.546875 -3.921875 C 6.984375 -4.128906 7.367188 -4.328125 7.703125 -4.515625 Z M 7.703125 -4.515625 "/></g></g></g><g fill="#5289b8" fill-opacity="1"><g transform="translate(116.385107, 31.70019)"><g><path d="M 8.1875 0.734375 C 7.894531 0.734375 7.660156 0.597656 7.484375 0.328125 C 7.316406 0.0546875 7.1875 -0.25 7.09375 -0.59375 C 7.007812 -0.945312 6.953125 -1.300781 6.921875 -1.65625 C 6.898438 -2.007812 6.890625 -2.285156 6.890625 -2.484375 C 6.890625 -3.003906 6.921875 -3.523438 6.984375 -4.046875 C 7.046875 -4.566406 7.113281 -5.085938 7.1875 -5.609375 C 7.269531 -6.128906 7.335938 -6.648438 7.390625 -7.171875 C 7.453125 -7.691406 7.484375 -8.210938 7.484375 -8.734375 C 7.484375 -8.941406 7.472656 -9.164062 7.453125 -9.40625 C 7.441406 -9.65625 7.40625 -9.890625 7.34375 -10.109375 C 7.28125 -10.328125 7.179688 -10.503906 7.046875 -10.640625 C 6.910156 -10.785156 6.726562 -10.859375 6.5 -10.859375 C 6.34375 -10.859375 6.164062 -10.726562 5.96875 -10.46875 C 5.78125 -10.21875 5.601562 -9.929688 5.4375 -9.609375 C 5.269531 -9.285156 5.128906 -8.960938 5.015625 -8.640625 C 4.910156 -8.328125 4.859375 -8.09375 4.859375 -7.9375 C 4.859375 -7.550781 4.859375 -7.160156 4.859375 -6.765625 C 4.867188 -6.378906 4.875 -5.984375 4.875 -5.578125 L 4.875 -4.078125 C 4.863281 -3.753906 4.835938 -3.425781 4.796875 -3.09375 C 4.765625 -2.769531 4.710938 -2.453125 4.640625 -2.140625 C 4.585938 -1.828125 4.507812 -1.523438 4.40625 -1.234375 C 4.300781 -0.953125 4.164062 -0.703125 4 -0.484375 C 3.832031 -0.265625 3.632812 -0.0859375 3.40625 0.046875 C 3.1875 0.191406 2.921875 0.265625 2.609375 0.265625 C 2.265625 0.265625 1.976562 0.148438 1.75 -0.078125 C 1.519531 -0.304688 1.332031 -0.597656 1.1875 -0.953125 C 1.050781 -1.304688 0.953125 -1.703125 0.890625 -2.140625 C 0.835938 -2.585938 0.796875 -3.023438 0.765625 -3.453125 C 0.742188 -3.878906 0.734375 -4.269531 0.734375 -4.625 C 0.742188 -4.988281 0.75 -5.273438 0.75 -5.484375 L 0.75 -6.703125 C 0.75 -7.367188 0.734375 -8.019531 0.703125 -8.65625 C 0.679688 -9.300781 0.671875 -9.945312 0.671875 -10.59375 C 0.671875 -10.9375 0.675781 -11.378906 0.6875 -11.921875 C 0.695312 -12.460938 0.757812 -12.988281 0.875 -13.5 C 1 -14.007812 1.203125 -14.445312 1.484375 -14.8125 C 1.765625 -15.1875 2.175781 -15.375 2.71875 -15.375 C 2.957031 -15.375 3.171875 -15.296875 3.359375 -15.140625 C 3.554688 -14.984375 3.726562 -14.789062 3.875 -14.5625 C 4.019531 -14.332031 4.140625 -14.085938 4.234375 -13.828125 C 4.335938 -13.566406 4.414062 -13.34375 4.46875 -13.15625 C 4.632812 -13.394531 4.832031 -13.625 5.0625 -13.84375 C 5.300781 -14.070312 5.566406 -14.273438 5.859375 -14.453125 C 6.160156 -14.628906 6.492188 -14.769531 6.859375 -14.875 C 7.222656 -14.976562 7.640625 -15.03125 8.109375 -15.03125 C 9.003906 -15.03125 9.695312 -14.816406 10.1875 -14.390625 C 10.6875 -13.960938 11.050781 -13.429688 11.28125 -12.796875 C 11.519531 -12.160156 11.664062 -11.476562 11.71875 -10.75 C 11.769531 -10.019531 11.796875 -9.359375 11.796875 -8.765625 C 11.796875 -8.472656 11.769531 -8.035156 11.71875 -7.453125 C 11.664062 -6.867188 11.582031 -6.222656 11.46875 -5.515625 C 11.351562 -4.816406 11.195312 -4.097656 11 -3.359375 C 10.8125 -2.617188 10.585938 -1.941406 10.328125 -1.328125 C 10.066406 -0.722656 9.757812 -0.226562 9.40625 0.15625 C 9.050781 0.539062 8.644531 0.734375 8.1875 0.734375 Z M 8.1875 0.734375 "/></g></g></g><g fill="#5289b8" fill-opacity="1"><g transform="translate(130.884706, 31.70019)"><g><path d="M 5.09375 -18.21875 C 5.09375 -17.96875 5.023438 -17.742188 4.890625 -17.546875 C 4.765625 -17.359375 4.597656 -17.191406 4.390625 -17.046875 C 4.179688 -16.898438 3.953125 -16.785156 3.703125 -16.703125 C 3.460938 -16.628906 3.238281 -16.59375 3.03125 -16.59375 C 2.675781 -16.59375 2.367188 -16.675781 2.109375 -16.84375 C 1.847656 -17.019531 1.71875 -17.296875 1.71875 -17.671875 C 1.71875 -17.929688 1.78125 -18.160156 1.90625 -18.359375 C 2.039062 -18.554688 2.203125 -18.71875 2.390625 -18.84375 C 2.585938 -18.976562 2.804688 -19.078125 3.046875 -19.140625 C 3.296875 -19.210938 3.53125 -19.25 3.75 -19.25 C 4.082031 -19.25 4.390625 -19.171875 4.671875 -19.015625 C 4.953125 -18.859375 5.09375 -18.59375 5.09375 -18.21875 Z M 5.296875 -9.34375 C 5.296875 -9.09375 5.296875 -8.832031 5.296875 -8.5625 C 5.296875 -8.300781 5.285156 -8.046875 5.265625 -7.796875 C 5.253906 -7.503906 5.25 -7.109375 5.25 -6.609375 C 5.25 -6.117188 5.226562 -5.585938 5.1875 -5.015625 C 5.15625 -4.441406 5.097656 -3.859375 5.015625 -3.265625 C 4.941406 -2.671875 4.816406 -2.128906 4.640625 -1.640625 C 4.472656 -1.148438 4.242188 -0.753906 3.953125 -0.453125 C 3.660156 -0.148438 3.300781 0.0078125 2.875 0.03125 C 2.539062 0.0390625 2.257812 -0.0859375 2.03125 -0.359375 C 1.8125 -0.640625 1.625 -1 1.46875 -1.4375 C 1.320312 -1.882812 1.210938 -2.378906 1.140625 -2.921875 C 1.078125 -3.472656 1.023438 -4.003906 0.984375 -4.515625 C 0.953125 -5.035156 0.9375 -5.507812 0.9375 -5.9375 C 0.9375 -6.375 0.9375 -6.703125 0.9375 -6.921875 C 0.9375 -7.191406 0.9375 -7.582031 0.9375 -8.09375 C 0.9375 -8.613281 0.953125 -9.164062 0.984375 -9.75 C 1.023438 -10.34375 1.09375 -10.941406 1.1875 -11.546875 C 1.28125 -12.160156 1.414062 -12.71875 1.59375 -13.21875 C 1.78125 -13.726562 2.019531 -14.140625 2.3125 -14.453125 C 2.613281 -14.765625 2.988281 -14.921875 3.4375 -14.921875 C 3.914062 -14.921875 4.273438 -14.6875 4.515625 -14.21875 C 4.753906 -13.75 4.9375 -13.203125 5.0625 -12.578125 C 5.1875 -11.953125 5.253906 -11.328125 5.265625 -10.703125 C 5.285156 -10.085938 5.296875 -9.632812 5.296875 -9.34375 Z M 5.296875 -9.34375 "/></g></g></g><g fill="#5289b8" fill-opacity="1"><g transform="translate(139.280021, 31.70019)"><g><path d="M 12.03125 -9.34375 C 11.570312 -8.144531 11.070312 -6.890625 10.53125 -5.578125 C 10 -4.273438 9.421875 -3.0625 8.796875 -1.9375 C 8.410156 -1.238281 7.984375 -0.65625 7.515625 -0.1875 C 7.046875 0.269531 6.503906 0.5 5.890625 0.5 C 5.410156 0.5 4.9375 0.253906 4.46875 -0.234375 C 4.007812 -0.734375 3.582031 -1.328125 3.1875 -2.015625 C 2.800781 -2.703125 2.460938 -3.398438 2.171875 -4.109375 C 1.890625 -4.816406 1.679688 -5.378906 1.546875 -5.796875 C 1.398438 -6.265625 1.238281 -6.765625 1.0625 -7.296875 C 0.894531 -7.835938 0.738281 -8.390625 0.59375 -8.953125 C 0.457031 -9.503906 0.34375 -10.050781 0.25 -10.59375 C 0.164062 -11.144531 0.125 -11.664062 0.125 -12.15625 C 0.125 -12.832031 0.242188 -13.390625 0.484375 -13.828125 C 0.734375 -14.265625 1.21875 -14.484375 1.9375 -14.484375 C 2.207031 -14.484375 2.457031 -14.398438 2.6875 -14.234375 C 2.914062 -14.066406 3.125 -13.832031 3.3125 -13.53125 C 3.5 -13.238281 3.679688 -12.894531 3.859375 -12.5 C 4.035156 -12.113281 4.203125 -11.6875 4.359375 -11.21875 C 4.515625 -10.769531 4.660156 -10.300781 4.796875 -9.8125 C 4.941406 -9.320312 5.082031 -8.851562 5.21875 -8.40625 C 5.351562 -7.945312 5.492188 -7.503906 5.640625 -7.078125 C 5.796875 -6.648438 5.992188 -6.226562 6.234375 -5.8125 C 6.359375 -6.125 6.5 -6.476562 6.65625 -6.875 C 6.8125 -7.28125 6.976562 -7.707031 7.15625 -8.15625 C 7.34375 -8.613281 7.539062 -9.082031 7.75 -9.5625 C 7.957031 -10.039062 8.179688 -10.503906 8.421875 -10.953125 C 8.890625 -11.898438 9.390625 -12.703125 9.921875 -13.359375 C 10.453125 -14.015625 10.976562 -14.34375 11.5 -14.34375 C 11.988281 -14.34375 12.335938 -14.195312 12.546875 -13.90625 C 12.753906 -13.613281 12.859375 -13.234375 12.859375 -12.765625 C 12.859375 -12.296875 12.78125 -11.765625 12.625 -11.171875 C 12.46875 -10.578125 12.269531 -9.96875 12.03125 -9.34375 Z M 12.03125 -9.34375 "/></g></g></g><g fill="#5289b8" fill-opacity="1"><g transform="translate(154.301354, 31.70019)"><g><path d="M 11.71875 -4.640625 C 11.71875 -4.046875 11.53125 -3.46875 11.15625 -2.90625 C 10.78125 -2.34375 10.304688 -1.835938 9.734375 -1.390625 C 9.171875 -0.953125 8.566406 -0.597656 7.921875 -0.328125 C 7.285156 -0.0546875 6.695312 0.078125 6.15625 0.078125 C 5.238281 0.078125 4.414062 -0.148438 3.6875 -0.609375 C 2.96875 -1.066406 2.363281 -1.648438 1.875 -2.359375 C 1.382812 -3.078125 1.015625 -3.867188 0.765625 -4.734375 C 0.515625 -5.597656 0.390625 -6.4375 0.390625 -7.25 C 0.390625 -8.125 0.507812 -9.054688 0.75 -10.046875 C 1 -11.035156 1.367188 -11.945312 1.859375 -12.78125 C 2.359375 -13.613281 2.984375 -14.304688 3.734375 -14.859375 C 4.492188 -15.421875 5.394531 -15.703125 6.4375 -15.703125 C 7.03125 -15.703125 7.597656 -15.601562 8.140625 -15.40625 C 8.679688 -15.207031 9.148438 -14.925781 9.546875 -14.5625 C 9.953125 -14.195312 10.273438 -13.757812 10.515625 -13.25 C 10.753906 -12.75 10.875 -12.1875 10.875 -11.5625 C 10.875 -10.738281 10.703125 -9.96875 10.359375 -9.25 C 10.015625 -8.539062 9.550781 -7.925781 8.96875 -7.40625 C 8.394531 -6.882812 7.734375 -6.460938 6.984375 -6.140625 C 6.242188 -5.816406 5.484375 -5.640625 4.703125 -5.609375 C 4.765625 -5.109375 4.960938 -4.742188 5.296875 -4.515625 C 5.640625 -4.285156 6.046875 -4.171875 6.515625 -4.171875 C 6.867188 -4.171875 7.207031 -4.257812 7.53125 -4.4375 C 7.863281 -4.613281 8.1875 -4.804688 8.5 -5.015625 C 8.8125 -5.234375 9.117188 -5.429688 9.421875 -5.609375 C 9.734375 -5.785156 10.046875 -5.875 10.359375 -5.875 C 10.703125 -5.875 11.015625 -5.757812 11.296875 -5.53125 C 11.578125 -5.300781 11.71875 -5.003906 11.71875 -4.640625 Z M 7.484375 -11.03125 C 7.484375 -11.257812 7.421875 -11.492188 7.296875 -11.734375 C 7.179688 -11.984375 6.992188 -12.109375 6.734375 -12.109375 C 6.347656 -12.109375 6.023438 -12.003906 5.765625 -11.796875 C 5.503906 -11.597656 5.285156 -11.347656 5.109375 -11.046875 C 4.941406 -10.742188 4.804688 -10.414062 4.703125 -10.0625 C 4.609375 -9.71875 4.554688 -9.398438 4.546875 -9.109375 C 4.785156 -9.160156 5.070312 -9.226562 5.40625 -9.3125 C 5.75 -9.40625 6.070312 -9.523438 6.375 -9.671875 C 6.6875 -9.816406 6.945312 -10 7.15625 -10.21875 C 7.375 -10.445312 7.484375 -10.71875 7.484375 -11.03125 Z M 7.484375 -11.03125 "/></g></g></g><g fill="#5289b8" fill-opacity="1"><g transform="translate(168.305306, 31.70019)"><g><path d="M 9.84375 -9.765625 C 9.59375 -9.742188 9.378906 -9.765625 9.203125 -9.828125 C 9.035156 -9.890625 8.863281 -9.953125 8.6875 -10.015625 C 8.53125 -10.085938 8.375 -10.15625 8.21875 -10.21875 C 8.0625 -10.28125 7.890625 -10.300781 7.703125 -10.28125 C 7.347656 -10.257812 7.035156 -10.160156 6.765625 -9.984375 C 6.492188 -9.816406 6.25 -9.601562 6.03125 -9.34375 C 5.820312 -9.082031 5.640625 -8.789062 5.484375 -8.46875 C 5.328125 -8.144531 5.203125 -7.828125 5.109375 -7.515625 C 5.054688 -7.304688 5.015625 -6.988281 4.984375 -6.5625 C 4.960938 -6.132812 4.953125 -5.675781 4.953125 -5.1875 C 4.941406 -4.6875 4.9375 -4.207031 4.9375 -3.75 C 4.9375 -3.300781 4.914062 -2.945312 4.875 -2.6875 C 4.863281 -2.40625 4.820312 -2.078125 4.75 -1.703125 C 4.675781 -1.328125 4.566406 -0.972656 4.421875 -0.640625 C 4.273438 -0.316406 4.078125 -0.046875 3.828125 0.171875 C 3.585938 0.398438 3.273438 0.515625 2.890625 0.515625 C 2.597656 0.515625 2.34375 0.425781 2.125 0.25 C 1.90625 0.0820312 1.722656 -0.140625 1.578125 -0.421875 C 1.429688 -0.710938 1.304688 -1.050781 1.203125 -1.4375 C 1.109375 -1.820312 1.035156 -2.210938 0.984375 -2.609375 C 0.929688 -3.023438 0.890625 -3.441406 0.859375 -3.859375 C 0.835938 -4.273438 0.820312 -4.671875 0.8125 -5.046875 C 0.8125 -5.421875 0.8125 -5.765625 0.8125 -6.078125 C 0.820312 -6.390625 0.828125 -6.644531 0.828125 -6.84375 C 0.816406 -7.445312 0.785156 -8.054688 0.734375 -8.671875 C 0.691406 -9.296875 0.671875 -9.910156 0.671875 -10.515625 C 0.671875 -10.898438 0.6875 -11.328125 0.71875 -11.796875 C 0.757812 -12.265625 0.859375 -12.703125 1.015625 -13.109375 C 1.171875 -13.515625 1.398438 -13.859375 1.703125 -14.140625 C 2.015625 -14.421875 2.4375 -14.5625 2.96875 -14.5625 C 3.269531 -14.5625 3.523438 -14.460938 3.734375 -14.265625 C 3.941406 -14.078125 4.109375 -13.84375 4.234375 -13.5625 C 4.367188 -13.289062 4.46875 -13 4.53125 -12.6875 C 4.601562 -12.375 4.648438 -12.082031 4.671875 -11.8125 C 5.085938 -12.5 5.554688 -13.050781 6.078125 -13.46875 C 6.597656 -13.894531 7.273438 -14.128906 8.109375 -14.171875 C 8.523438 -14.179688 8.9375 -14.140625 9.34375 -14.046875 C 9.757812 -13.953125 10.132812 -13.796875 10.46875 -13.578125 C 10.8125 -13.359375 11.09375 -13.078125 11.3125 -12.734375 C 11.53125 -12.390625 11.644531 -11.976562 11.65625 -11.5 C 11.695312 -10.945312 11.535156 -10.519531 11.171875 -10.21875 C 10.804688 -9.925781 10.363281 -9.773438 9.84375 -9.765625 Z M 9.84375 -9.765625 "/></g></g></g><g fill="#5289b8" fill-opacity="1"><g transform="translate(181.604918, 31.70019)"><g><path d="M 8.421875 -14.34375 C 8.421875 -13.84375 8.25 -13.46875 7.90625 -13.21875 C 7.570312 -12.976562 7.195312 -12.75 6.78125 -12.53125 C 6.363281 -12.320312 5.984375 -12.066406 5.640625 -11.765625 C 5.304688 -11.472656 5.140625 -11.03125 5.140625 -10.4375 C 5.140625 -10.125 5.210938 -9.851562 5.359375 -9.625 C 5.503906 -9.394531 5.6875 -9.1875 5.90625 -9 C 6.125 -8.820312 6.363281 -8.640625 6.625 -8.453125 C 6.882812 -8.265625 7.125 -8.046875 7.34375 -7.796875 C 7.5625 -7.554688 7.742188 -7.257812 7.890625 -6.90625 C 8.035156 -6.5625 8.109375 -6.140625 8.109375 -5.640625 C 8.109375 -4.910156 7.921875 -4.191406 7.546875 -3.484375 C 7.179688 -2.773438 6.707031 -2.144531 6.125 -1.59375 C 5.539062 -1.050781 4.878906 -0.613281 4.140625 -0.28125 C 3.410156 0.0390625 2.691406 0.203125 1.984375 0.203125 C 1.691406 0.203125 1.394531 0.179688 1.09375 0.140625 C 0.800781 0.0976562 0.535156 0.0195312 0.296875 -0.09375 C 0.0664062 -0.21875 -0.125 -0.390625 -0.28125 -0.609375 C -0.4375 -0.828125 -0.515625 -1.113281 -0.515625 -1.46875 C -0.515625 -1.945312 -0.421875 -2.320312 -0.234375 -2.59375 C -0.046875 -2.863281 0.191406 -3.078125 0.484375 -3.234375 C 0.785156 -3.390625 1.101562 -3.507812 1.4375 -3.59375 C 1.78125 -3.6875 2.097656 -3.796875 2.390625 -3.921875 C 2.691406 -4.054688 2.9375 -4.226562 3.125 -4.4375 C 3.320312 -4.644531 3.421875 -4.941406 3.421875 -5.328125 C 3.421875 -5.691406 3.273438 -6.066406 2.984375 -6.453125 C 2.703125 -6.847656 2.382812 -7.265625 2.03125 -7.703125 C 1.6875 -8.148438 1.367188 -8.625 1.078125 -9.125 C 0.796875 -9.632812 0.65625 -10.191406 0.65625 -10.796875 C 0.65625 -11.546875 0.804688 -12.238281 1.109375 -12.875 C 1.410156 -13.507812 1.816406 -14.0625 2.328125 -14.53125 C 2.847656 -15 3.4375 -15.367188 4.09375 -15.640625 C 4.757812 -15.910156 5.457031 -16.046875 6.1875 -16.046875 C 6.457031 -16.046875 6.726562 -16.019531 7 -15.96875 C 7.269531 -15.914062 7.507812 -15.820312 7.71875 -15.6875 C 7.925781 -15.5625 8.09375 -15.390625 8.21875 -15.171875 C 8.351562 -14.953125 8.421875 -14.675781 8.421875 -14.34375 Z M 8.421875 -14.34375 "/></g></g></g><g fill="#5289b8" fill-opacity="1"><g transform="translate(192.321948, 31.70019)"><g><path d="M 11.875 -3.671875 C 11.875 -3.359375 11.859375 -2.953125 11.828125 -2.453125 C 11.804688 -1.953125 11.734375 -1.460938 11.609375 -0.984375 C 11.484375 -0.503906 11.289062 -0.09375 11.03125 0.25 C 10.769531 0.601562 10.40625 0.78125 9.9375 0.78125 C 9.289062 0.78125 8.796875 0.570312 8.453125 0.15625 C 8.109375 -0.257812 7.941406 -0.78125 7.953125 -1.40625 C 7.398438 -0.914062 6.769531 -0.53125 6.0625 -0.25 C 5.363281 0.0195312 4.644531 0.15625 3.90625 0.15625 C 3.40625 0.15625 2.925781 0.0351562 2.46875 -0.203125 C 2.019531 -0.453125 1.617188 -0.765625 1.265625 -1.140625 C 0.921875 -1.523438 0.644531 -1.957031 0.4375 -2.4375 C 0.226562 -2.914062 0.125 -3.390625 0.125 -3.859375 C 0.125 -4.691406 0.378906 -5.421875 0.890625 -6.046875 C 1.410156 -6.679688 2.039062 -7.21875 2.78125 -7.65625 C 3.53125 -8.101562 4.328125 -8.457031 5.171875 -8.71875 C 6.015625 -8.976562 6.769531 -9.148438 7.4375 -9.234375 C 7.4375 -9.328125 7.441406 -9.40625 7.453125 -9.46875 C 7.460938 -9.539062 7.46875 -9.617188 7.46875 -9.703125 C 7.46875 -10.242188 7.316406 -10.675781 7.015625 -11 C 6.722656 -11.332031 6.304688 -11.5 5.765625 -11.5 C 5.328125 -11.5 4.953125 -11.425781 4.640625 -11.28125 C 4.328125 -11.132812 4.03125 -10.96875 3.75 -10.78125 C 3.476562 -10.601562 3.203125 -10.441406 2.921875 -10.296875 C 2.640625 -10.148438 2.328125 -10.078125 1.984375 -10.078125 C 1.597656 -10.078125 1.269531 -10.195312 1 -10.4375 C 0.726562 -10.675781 0.59375 -10.988281 0.59375 -11.375 C 0.59375 -11.945312 0.765625 -12.46875 1.109375 -12.9375 C 1.453125 -13.40625 1.878906 -13.800781 2.390625 -14.125 C 2.898438 -14.445312 3.453125 -14.695312 4.046875 -14.875 C 4.648438 -15.0625 5.207031 -15.15625 5.71875 -15.15625 C 6.1875 -15.15625 6.65625 -15.097656 7.125 -14.984375 C 7.59375 -14.878906 8.035156 -14.707031 8.453125 -14.46875 C 8.867188 -14.226562 9.242188 -13.9375 9.578125 -13.59375 C 9.921875 -13.257812 10.195312 -12.867188 10.40625 -12.421875 C 10.71875 -11.773438 10.96875 -11.085938 11.15625 -10.359375 C 11.351562 -9.640625 11.503906 -8.898438 11.609375 -8.140625 C 11.710938 -7.390625 11.78125 -6.632812 11.8125 -5.875 C 11.851562 -5.125 11.875 -4.390625 11.875 -3.671875 Z M 7.703125 -4.515625 L 7.625 -6.28125 C 7.582031 -6.28125 7.546875 -6.285156 7.515625 -6.296875 C 7.484375 -6.304688 7.445312 -6.3125 7.40625 -6.3125 C 7.1875 -6.3125 6.90625 -6.253906 6.5625 -6.140625 C 6.21875 -6.023438 5.890625 -5.867188 5.578125 -5.671875 C 5.265625 -5.472656 5 -5.25 4.78125 -5 C 4.570312 -4.757812 4.46875 -4.507812 4.46875 -4.25 C 4.46875 -4.007812 4.550781 -3.84375 4.71875 -3.75 C 4.894531 -3.664062 5.097656 -3.625 5.328125 -3.625 C 5.703125 -3.625 6.109375 -3.722656 6.546875 -3.921875 C 6.984375 -4.128906 7.367188 -4.328125 7.703125 -4.515625 Z M 8.953125 -19.75 C 8.953125 -19.550781 8.898438 -19.359375 8.796875 -19.171875 C 8.691406 -18.992188 8.5625 -18.828125 8.40625 -18.671875 C 8.257812 -18.515625 8.097656 -18.367188 7.921875 -18.234375 C 7.753906 -18.109375 7.601562 -17.992188 7.46875 -17.890625 C 7.34375 -17.804688 7.207031 -17.707031 7.0625 -17.59375 C 6.914062 -17.476562 6.757812 -17.375 6.59375 -17.28125 C 6.425781 -17.1875 6.257812 -17.101562 6.09375 -17.03125 C 5.925781 -16.957031 5.765625 -16.921875 5.609375 -16.921875 C 5.472656 -16.921875 5.351562 -16.957031 5.25 -17.03125 C 5.144531 -17.113281 5.09375 -17.234375 5.09375 -17.390625 C 5.09375 -17.648438 5.191406 -17.96875 5.390625 -18.34375 C 5.585938 -18.71875 5.832031 -19.082031 6.125 -19.4375 C 6.425781 -19.800781 6.738281 -20.109375 7.0625 -20.359375 C 7.394531 -20.609375 7.703125 -20.734375 7.984375 -20.734375 C 8.234375 -20.734375 8.457031 -20.632812 8.65625 -20.4375 C 8.851562 -20.238281 8.953125 -20.007812 8.953125 -19.75 Z M 8.953125 -19.75 "/></g></g></g><g fill="#5289b8" fill-opacity="1"><g transform="translate(207.004154, 31.70019)"><g><path d="M 9.84375 -9.765625 C 9.59375 -9.742188 9.378906 -9.765625 9.203125 -9.828125 C 9.035156 -9.890625 8.863281 -9.953125 8.6875 -10.015625 C 8.53125 -10.085938 8.375 -10.15625 8.21875 -10.21875 C 8.0625 -10.28125 7.890625 -10.300781 7.703125 -10.28125 C 7.347656 -10.257812 7.035156 -10.160156 6.765625 -9.984375 C 6.492188 -9.816406 6.25 -9.601562 6.03125 -9.34375 C 5.820312 -9.082031 5.640625 -8.789062 5.484375 -8.46875 C 5.328125 -8.144531 5.203125 -7.828125 5.109375 -7.515625 C 5.054688 -7.304688 5.015625 -6.988281 4.984375 -6.5625 C 4.960938 -6.132812 4.953125 -5.675781 4.953125 -5.1875 C 4.941406 -4.6875 4.9375 -4.207031 4.9375 -3.75 C 4.9375 -3.300781 4.914062 -2.945312 4.875 -2.6875 C 4.863281 -2.40625 4.820312 -2.078125 4.75 -1.703125 C 4.675781 -1.328125 4.566406 -0.972656 4.421875 -0.640625 C 4.273438 -0.316406 4.078125 -0.046875 3.828125 0.171875 C 3.585938 0.398438 3.273438 0.515625 2.890625 0.515625 C 2.597656 0.515625 2.34375 0.425781 2.125 0.25 C 1.90625 0.0820312 1.722656 -0.140625 1.578125 -0.421875 C 1.429688 -0.710938 1.304688 -1.050781 1.203125 -1.4375 C 1.109375 -1.820312 1.035156 -2.210938 0.984375 -2.609375 C 0.929688 -3.023438 0.890625 -3.441406 0.859375 -3.859375 C 0.835938 -4.273438 0.820312 -4.671875 0.8125 -5.046875 C 0.8125 -5.421875 0.8125 -5.765625 0.8125 -6.078125 C 0.820312 -6.390625 0.828125 -6.644531 0.828125 -6.84375 C 0.816406 -7.445312 0.785156 -8.054688 0.734375 -8.671875 C 0.691406 -9.296875 0.671875 -9.910156 0.671875 -10.515625 C 0.671875 -10.898438 0.6875 -11.328125 0.71875 -11.796875 C 0.757812 -12.265625 0.859375 -12.703125 1.015625 -13.109375 C 1.171875 -13.515625 1.398438 -13.859375 1.703125 -14.140625 C 2.015625 -14.421875 2.4375 -14.5625 2.96875 -14.5625 C 3.269531 -14.5625 3.523438 -14.460938 3.734375 -14.265625 C 3.941406 -14.078125 4.109375 -13.84375 4.234375 -13.5625 C 4.367188 -13.289062 4.46875 -13 4.53125 -12.6875 C 4.601562 -12.375 4.648438 -12.082031 4.671875 -11.8125 C 5.085938 -12.5 5.554688 -13.050781 6.078125 -13.46875 C 6.597656 -13.894531 7.273438 -14.128906 8.109375 -14.171875 C 8.523438 -14.179688 8.9375 -14.140625 9.34375 -14.046875 C 9.757812 -13.953125 10.132812 -13.796875 10.46875 -13.578125 C 10.8125 -13.359375 11.09375 -13.078125 11.3125 -12.734375 C 11.53125 -12.390625 11.644531 -11.976562 11.65625 -11.5 C 11.695312 -10.945312 11.535156 -10.519531 11.171875 -10.21875 C 10.804688 -9.925781 10.363281 -9.773438 9.84375 -9.765625 Z M 9.84375 -9.765625 "/></g></g></g><g fill="#5289b8" fill-opacity="1"><g transform="translate(220.303765, 31.70019)"><g><path d="M 5.09375 -18.21875 C 5.09375 -17.96875 5.023438 -17.742188 4.890625 -17.546875 C 4.765625 -17.359375 4.597656 -17.191406 4.390625 -17.046875 C 4.179688 -16.898438 3.953125 -16.785156 3.703125 -16.703125 C 3.460938 -16.628906 3.238281 -16.59375 3.03125 -16.59375 C 2.675781 -16.59375 2.367188 -16.675781 2.109375 -16.84375 C 1.847656 -17.019531 1.71875 -17.296875 1.71875 -17.671875 C 1.71875 -17.929688 1.78125 -18.160156 1.90625 -18.359375 C 2.039062 -18.554688 2.203125 -18.71875 2.390625 -18.84375 C 2.585938 -18.976562 2.804688 -19.078125 3.046875 -19.140625 C 3.296875 -19.210938 3.53125 -19.25 3.75 -19.25 C 4.082031 -19.25 4.390625 -19.171875 4.671875 -19.015625 C 4.953125 -18.859375 5.09375 -18.59375 5.09375 -18.21875 Z M 5.296875 -9.34375 C 5.296875 -9.09375 5.296875 -8.832031 5.296875 -8.5625 C 5.296875 -8.300781 5.285156 -8.046875 5.265625 -7.796875 C 5.253906 -7.503906 5.25 -7.109375 5.25 -6.609375 C 5.25 -6.117188 5.226562 -5.585938 5.1875 -5.015625 C 5.15625 -4.441406 5.097656 -3.859375 5.015625 -3.265625 C 4.941406 -2.671875 4.816406 -2.128906 4.640625 -1.640625 C 4.472656 -1.148438 4.242188 -0.753906 3.953125 -0.453125 C 3.660156 -0.148438 3.300781 0.0078125 2.875 0.03125 C 2.539062 0.0390625 2.257812 -0.0859375 2.03125 -0.359375 C 1.8125 -0.640625 1.625 -1 1.46875 -1.4375 C 1.320312 -1.882812 1.210938 -2.378906 1.140625 -2.921875 C 1.078125 -3.472656 1.023438 -4.003906 0.984375 -4.515625 C 0.953125 -5.035156 0.9375 -5.507812 0.9375 -5.9375 C 0.9375 -6.375 0.9375 -6.703125 0.9375 -6.921875 C 0.9375 -7.191406 0.9375 -7.582031 0.9375 -8.09375 C 0.9375 -8.613281 0.953125 -9.164062 0.984375 -9.75 C 1.023438 -10.34375 1.09375 -10.941406 1.1875 -11.546875 C 1.28125 -12.160156 1.414062 -12.71875 1.59375 -13.21875 C 1.78125 -13.726562 2.019531 -14.140625 2.3125 -14.453125 C 2.613281 -14.765625 2.988281 -14.921875 3.4375 -14.921875 C 3.914062 -14.921875 4.273438 -14.6875 4.515625 -14.21875 C 4.753906 -13.75 4.9375 -13.203125 5.0625 -12.578125 C 5.1875 -11.953125 5.253906 -11.328125 5.265625 -10.703125 C 5.285156 -10.085938 5.296875 -9.632812 5.296875 -9.34375 Z M 5.296875 -9.34375 "/></g></g></g><g fill="#5289b8" fill-opacity="1"><g transform="translate(228.699081, 31.70019)"><g><path d="M 5.734375 0.75 C 4.847656 0.75 4.070312 0.515625 3.40625 0.046875 C 2.75 -0.421875 2.191406 -1.019531 1.734375 -1.75 C 1.285156 -2.476562 0.945312 -3.289062 0.71875 -4.1875 C 0.5 -5.082031 0.390625 -5.96875 0.390625 -6.84375 C 0.390625 -7.757812 0.5 -8.707031 0.71875 -9.6875 C 0.945312 -10.675781 1.296875 -11.570312 1.765625 -12.375 C 2.242188 -13.1875 2.847656 -13.847656 3.578125 -14.359375 C 4.304688 -14.878906 5.175781 -15.140625 6.1875 -15.140625 C 7.15625 -15.140625 7.984375 -14.875 8.671875 -14.34375 C 9.359375 -13.8125 9.910156 -13.148438 10.328125 -12.359375 C 10.742188 -11.566406 11.039062 -10.695312 11.21875 -9.75 C 11.394531 -8.8125 11.457031 -7.925781 11.40625 -7.09375 C 11.351562 -6.175781 11.207031 -5.242188 10.96875 -4.296875 C 10.738281 -3.359375 10.394531 -2.515625 9.9375 -1.765625 C 9.488281 -1.023438 8.914062 -0.421875 8.21875 0.046875 C 7.519531 0.515625 6.691406 0.75 5.734375 0.75 Z M 6 -11.03125 C 5.738281 -11.03125 5.507812 -10.890625 5.3125 -10.609375 C 5.113281 -10.335938 4.945312 -10 4.8125 -9.59375 C 4.6875 -9.195312 4.585938 -8.773438 4.515625 -8.328125 C 4.441406 -7.890625 4.40625 -7.503906 4.40625 -7.171875 C 4.40625 -6.753906 4.441406 -6.300781 4.515625 -5.8125 C 4.597656 -5.332031 4.707031 -4.882812 4.84375 -4.46875 C 4.988281 -4.0625 5.160156 -3.722656 5.359375 -3.453125 C 5.554688 -3.179688 5.785156 -3.046875 6.046875 -3.046875 C 6.328125 -3.046875 6.566406 -3.175781 6.765625 -3.4375 C 6.972656 -3.695312 7.132812 -4.023438 7.25 -4.421875 C 7.375 -4.828125 7.460938 -5.269531 7.515625 -5.75 C 7.566406 -6.226562 7.59375 -6.675781 7.59375 -7.09375 C 7.59375 -7.476562 7.554688 -7.898438 7.484375 -8.359375 C 7.421875 -8.816406 7.320312 -9.242188 7.1875 -9.640625 C 7.0625 -10.046875 6.894531 -10.378906 6.6875 -10.640625 C 6.488281 -10.898438 6.257812 -11.03125 6 -11.03125 Z M 6 -11.03125 "/></g></g></g></svg>