<svg xmlns="http://www.w3.org/2000/svg" xmlns:xlink="http://www.w3.org/1999/xlink" width="239" zoomAndPan="magnify" viewBox="0 0 179.25 46.499999" height="62" preserveAspectRatio="xMidYMid meet" version="1.2"><defs><clipPath id="9c8f2c1977"><path d="M 0.582031 0.113281 L 177.601562 0.113281 L 177.601562 45.476562 L 0.582031 45.476562 Z M 0.582031 0.113281 "/></clipPath><clipPath id="9c4e7f57eb"><path d="M 23.265625 0.113281 L 154.832031 0.113281 C 160.847656 0.113281 166.617188 2.503906 170.871094 6.757812 C 175.125 11.011719 177.515625 16.78125 177.515625 22.796875 C 177.515625 28.8125 175.125 34.582031 170.871094 38.835938 C 166.617188 43.085938 160.847656 45.476562 154.832031 45.476562 L 23.265625 45.476562 C 17.25 45.476562 11.480469 43.085938 7.226562 38.835938 C 2.972656 34.582031 0.582031 28.8125 0.582031 22.796875 C 0.582031 16.78125 2.972656 11.011719 7.226562 6.757812 C 11.480469 2.503906 17.25 0.113281 23.265625 0.113281 Z M 23.265625 0.113281 "/></clipPath><clipPath id="934f1012a7"><path d="M 0.582031 0.113281 L 177.601562 0.113281 L 177.601562 45.476562 L 0.582031 45.476562 Z M 0.582031 0.113281 "/></clipPath><clipPath id="3258ce922b"><path d="M 23.265625 0.113281 L 154.832031 0.113281 C 160.847656 0.113281 166.617188 2.503906 170.871094 6.757812 C 175.125 11.011719 177.515625 16.78125 177.515625 22.796875 C 177.515625 28.8125 175.125 34.582031 170.871094 38.835938 C 166.617188 43.085938 160.847656 45.476562 154.832031 45.476562 L 23.265625 45.476562 C 17.25 45.476562 11.480469 43.085938 7.226562 38.835938 C 2.972656 34.582031 0.582031 28.8125 0.582031 22.796875 C 0.582031 16.78125 2.972656 11.011719 7.226562 6.757812 C 11.480469 2.503906 17.25 0.113281 23.265625 0.113281 Z M 23.265625 0.113281 "/></clipPath><clipPath id="4a84e588c2"><rect x="0" width="178" y="0" height="46"/></clipPath></defs><g id="0ae4a046cb"><g clip-rule="nonzero" clip-path="url(#9c8f2c1977)"><g clip-rule="nonzero" clip-path="url(#9c4e7f57eb)"><g transform="matrix(1,0,0,1,0.000000000000000111,0)"><g clip-path="url(#4a84e588c2)"><g clip-rule="nonzero" clip-path="url(#934f1012a7)"><g clip-rule="nonzero" clip-path="url(#3258ce922b)"><path style=" stroke:none;fill-rule:nonzero;fill:#e8f0f6;fill-opacity:1;" d="M 0.582031 0.113281 L 177.601562 0.113281 L 177.601562 45.476562 L 0.582031 45.476562 Z M 0.582031 0.113281 "/></g></g></g></g></g></g><g style="fill:#5289b8;fill-opacity:1;"><g transform="translate(37.781895, 31.70019)"><path style="stroke:none" d="M 10.46875 -10.015625 C 10.46875 -9.929688 10.457031 -9.84375 10.4375 -9.75 C 10.414062 -9.65625 10.390625 -9.5625 10.359375 -9.46875 C 10.203125 -9.070312 9.957031 -8.738281 9.625 -8.46875 C 9.289062 -8.195312 8.898438 -8.0625 8.453125 -8.0625 C 7.773438 -8.0625 7.316406 -8.398438 7.078125 -9.078125 C 7.035156 -9.160156 7.015625 -9.257812 7.015625 -9.375 C 7.015625 -9.488281 7.007812 -9.609375 7 -9.734375 L 7 -10.484375 C 6.957031 -10.734375 6.894531 -10.925781 6.8125 -11.0625 C 6.726562 -11.195312 6.578125 -11.265625 6.359375 -11.265625 C 6.066406 -11.265625 5.785156 -11.078125 5.515625 -10.703125 C 5.242188 -10.335938 5.007812 -9.894531 4.8125 -9.375 C 4.613281 -8.863281 4.453125 -8.335938 4.328125 -7.796875 C 4.210938 -7.265625 4.15625 -6.832031 4.15625 -6.5 C 4.15625 -6.238281 4.171875 -5.921875 4.203125 -5.546875 C 4.234375 -5.171875 4.300781 -4.804688 4.40625 -4.453125 C 4.507812 -4.109375 4.648438 -3.8125 4.828125 -3.5625 C 5.015625 -3.3125 5.257812 -3.1875 5.5625 -3.1875 C 5.851562 -3.1875 6.125 -3.273438 6.375 -3.453125 C 6.632812 -3.640625 6.882812 -3.851562 7.125 -4.09375 C 7.351562 -4.300781 7.597656 -4.519531 7.859375 -4.75 C 8.128906 -4.976562 8.441406 -5.09375 8.796875 -5.09375 C 9.234375 -5.09375 9.578125 -4.9375 9.828125 -4.625 C 10.078125 -4.3125 10.203125 -3.953125 10.203125 -3.546875 C 10.203125 -2.953125 10.046875 -2.398438 9.734375 -1.890625 C 9.421875 -1.378906 9.03125 -0.9375 8.5625 -0.5625 C 8.09375 -0.1875 7.566406 0.109375 6.984375 0.328125 C 6.410156 0.546875 5.863281 0.65625 5.34375 0.65625 C 4.40625 0.65625 3.609375 0.421875 2.953125 -0.046875 C 2.304688 -0.515625 1.78125 -1.109375 1.375 -1.828125 C 0.976562 -2.554688 0.691406 -3.347656 0.515625 -4.203125 C 0.347656 -5.054688 0.265625 -5.863281 0.265625 -6.625 C 0.265625 -7.507812 0.382812 -8.46875 0.625 -9.5 C 0.863281 -10.539062 1.234375 -11.503906 1.734375 -12.390625 C 2.242188 -13.273438 2.894531 -14.015625 3.6875 -14.609375 C 4.476562 -15.203125 5.421875 -15.5 6.515625 -15.5 C 7.203125 -15.5 7.789062 -15.347656 8.28125 -15.046875 C 8.78125 -14.753906 9.191406 -14.367188 9.515625 -13.890625 C 9.835938 -13.410156 10.078125 -12.875 10.234375 -12.28125 C 10.398438 -11.695312 10.484375 -11.117188 10.484375 -10.546875 C 10.484375 -10.453125 10.484375 -10.363281 10.484375 -10.28125 C 10.484375 -10.195312 10.476562 -10.109375 10.46875 -10.015625 Z M 10.46875 -10.015625 "/></g></g><g style="fill:#5289b8;fill-opacity:1;"><g transform="translate(55.171693, 31.70019)"><path style="stroke:none" d="M 5.734375 0.75 C 4.847656 0.75 4.070312 0.515625 3.40625 0.046875 C 2.75 -0.421875 2.191406 -1.019531 1.734375 -1.75 C 1.285156 -2.476562 0.945312 -3.289062 0.71875 -4.1875 C 0.5 -5.082031 0.390625 -5.96875 0.390625 -6.84375 C 0.390625 -7.757812 0.5 -8.707031 0.71875 -9.6875 C 0.945312 -10.675781 1.296875 -11.570312 1.765625 -12.375 C 2.242188 -13.1875 2.847656 -13.847656 3.578125 -14.359375 C 4.304688 -14.878906 5.175781 -15.140625 6.1875 -15.140625 C 7.15625 -15.140625 7.984375 -14.875 8.671875 -14.34375 C 9.359375 -13.8125 9.910156 -13.148438 10.328125 -12.359375 C 10.742188 -11.566406 11.039062 -10.695312 11.21875 -9.75 C 11.394531 -8.8125 11.457031 -7.925781 11.40625 -7.09375 C 11.351562 -6.175781 11.207031 -5.242188 10.96875 -4.296875 C 10.738281 -3.359375 10.394531 -2.515625 9.9375 -1.765625 C 9.488281 -1.023438 8.914062 -0.421875 8.21875 0.046875 C 7.519531 0.515625 6.691406 0.75 5.734375 0.75 Z M 6 -11.03125 C 5.738281 -11.03125 5.507812 -10.890625 5.3125 -10.609375 C 5.113281 -10.335938 4.945312 -10 4.8125 -9.59375 C 4.6875 -9.195312 4.585938 -8.773438 4.515625 -8.328125 C 4.441406 -7.890625 4.40625 -7.503906 4.40625 -7.171875 C 4.40625 -6.753906 4.441406 -6.300781 4.515625 -5.8125 C 4.597656 -5.332031 4.707031 -4.882812 4.84375 -4.46875 C 4.988281 -4.0625 5.160156 -3.722656 5.359375 -3.453125 C 5.554688 -3.179688 5.785156 -3.046875 6.046875 -3.046875 C 6.328125 -3.046875 6.566406 -3.175781 6.765625 -3.4375 C 6.972656 -3.695312 7.132812 -4.023438 7.25 -4.421875 C 7.375 -4.828125 7.460938 -5.269531 7.515625 -5.75 C 7.566406 -6.226562 7.59375 -6.675781 7.59375 -7.09375 C 7.59375 -7.476562 7.554688 -7.898438 7.484375 -8.359375 C 7.421875 -8.816406 7.320312 -9.242188 7.1875 -9.640625 C 7.0625 -10.046875 6.894531 -10.378906 6.6875 -10.640625 C 6.488281 -10.898438 6.257812 -11.03125 6 -11.03125 Z M 6 -11.03125 "/></g></g><g style="fill:#5289b8;fill-opacity:1;"><g transform="translate(73.370178, 31.70019)"><path style="stroke:none" d="M 8.1875 0.734375 C 7.894531 0.734375 7.660156 0.597656 7.484375 0.328125 C 7.316406 0.0546875 7.1875 -0.25 7.09375 -0.59375 C 7.007812 -0.945312 6.953125 -1.300781 6.921875 -1.65625 C 6.898438 -2.007812 6.890625 -2.285156 6.890625 -2.484375 C 6.890625 -3.003906 6.921875 -3.523438 6.984375 -4.046875 C 7.046875 -4.566406 7.113281 -5.085938 7.1875 -5.609375 C 7.269531 -6.128906 7.335938 -6.648438 7.390625 -7.171875 C 7.453125 -7.691406 7.484375 -8.210938 7.484375 -8.734375 C 7.484375 -8.941406 7.472656 -9.164062 7.453125 -9.40625 C 7.441406 -9.65625 7.40625 -9.890625 7.34375 -10.109375 C 7.28125 -10.328125 7.179688 -10.503906 7.046875 -10.640625 C 6.910156 -10.785156 6.726562 -10.859375 6.5 -10.859375 C 6.34375 -10.859375 6.164062 -10.726562 5.96875 -10.46875 C 5.78125 -10.21875 5.601562 -9.929688 5.4375 -9.609375 C 5.269531 -9.285156 5.128906 -8.960938 5.015625 -8.640625 C 4.910156 -8.328125 4.859375 -8.09375 4.859375 -7.9375 C 4.859375 -7.550781 4.859375 -7.160156 4.859375 -6.765625 C 4.867188 -6.378906 4.875 -5.984375 4.875 -5.578125 L 4.875 -4.078125 C 4.863281 -3.753906 4.835938 -3.425781 4.796875 -3.09375 C 4.765625 -2.769531 4.710938 -2.453125 4.640625 -2.140625 C 4.585938 -1.828125 4.507812 -1.523438 4.40625 -1.234375 C 4.300781 -0.953125 4.164062 -0.703125 4 -0.484375 C 3.832031 -0.265625 3.632812 -0.0859375 3.40625 0.046875 C 3.1875 0.191406 2.921875 0.265625 2.609375 0.265625 C 2.265625 0.265625 1.976562 0.148438 1.75 -0.078125 C 1.519531 -0.304688 1.332031 -0.597656 1.1875 -0.953125 C 1.050781 -1.304688 0.953125 -1.703125 0.890625 -2.140625 C 0.835938 -2.585938 0.796875 -3.023438 0.765625 -3.453125 C 0.742188 -3.878906 0.734375 -4.269531 0.734375 -4.625 C 0.742188 -4.988281 0.75 -5.273438 0.75 -5.484375 L 0.75 -6.703125 C 0.75 -7.367188 0.734375 -8.019531 0.703125 -8.65625 C 0.679688 -9.300781 0.671875 -9.945312 0.671875 -10.59375 C 0.671875 -10.9375 0.675781 -11.378906 0.6875 -11.921875 C 0.695312 -12.460938 0.757812 -12.988281 0.875 -13.5 C 1 -14.007812 1.203125 -14.445312 1.484375 -14.8125 C 1.765625 -15.1875 2.175781 -15.375 2.71875 -15.375 C 2.957031 -15.375 3.171875 -15.296875 3.359375 -15.140625 C 3.554688 -14.984375 3.726562 -14.789062 3.875 -14.5625 C 4.019531 -14.332031 4.140625 -14.085938 4.234375 -13.828125 C 4.335938 -13.566406 4.414062 -13.34375 4.46875 -13.15625 C 4.632812 -13.394531 4.832031 -13.625 5.0625 -13.84375 C 5.300781 -14.070312 5.566406 -14.273438 5.859375 -14.453125 C 6.160156 -14.628906 6.492188 -14.769531 6.859375 -14.875 C 7.222656 -14.976562 7.640625 -15.03125 8.109375 -15.03125 C 9.003906 -15.03125 9.695312 -14.816406 10.1875 -14.390625 C 10.6875 -13.960938 11.050781 -13.429688 11.28125 -12.796875 C 11.519531 -12.160156 11.664062 -11.476562 11.71875 -10.75 C 11.769531 -10.019531 11.796875 -9.359375 11.796875 -8.765625 C 11.796875 -8.472656 11.769531 -8.035156 11.71875 -7.453125 C 11.664062 -6.867188 11.582031 -6.222656 11.46875 -5.515625 C 11.351562 -4.816406 11.195312 -4.097656 11 -3.359375 C 10.8125 -2.617188 10.585938 -1.941406 10.328125 -1.328125 C 10.066406 -0.722656 9.757812 -0.226562 9.40625 0.15625 C 9.050781 0.539062 8.644531 0.734375 8.1875 0.734375 Z M 8.1875 0.734375 "/></g></g><g style="fill:#5289b8;fill-opacity:1;"><g transform="translate(92.090396, 31.70019)"><path style="stroke:none" d="M 11.71875 -4.640625 C 11.71875 -4.046875 11.53125 -3.46875 11.15625 -2.90625 C 10.78125 -2.34375 10.304688 -1.835938 9.734375 -1.390625 C 9.171875 -0.953125 8.566406 -0.597656 7.921875 -0.328125 C 7.285156 -0.0546875 6.695312 0.078125 6.15625 0.078125 C 5.238281 0.078125 4.414062 -0.148438 3.6875 -0.609375 C 2.96875 -1.066406 2.363281 -1.648438 1.875 -2.359375 C 1.382812 -3.078125 1.015625 -3.867188 0.765625 -4.734375 C 0.515625 -5.597656 0.390625 -6.4375 0.390625 -7.25 C 0.390625 -8.125 0.507812 -9.054688 0.75 -10.046875 C 1 -11.035156 1.367188 -11.945312 1.859375 -12.78125 C 2.359375 -13.613281 2.984375 -14.304688 3.734375 -14.859375 C 4.492188 -15.421875 5.394531 -15.703125 6.4375 -15.703125 C 7.03125 -15.703125 7.597656 -15.601562 8.140625 -15.40625 C 8.679688 -15.207031 9.148438 -14.925781 9.546875 -14.5625 C 9.953125 -14.195312 10.273438 -13.757812 10.515625 -13.25 C 10.753906 -12.75 10.875 -12.1875 10.875 -11.5625 C 10.875 -10.738281 10.703125 -9.96875 10.359375 -9.25 C 10.015625 -8.539062 9.550781 -7.925781 8.96875 -7.40625 C 8.394531 -6.882812 7.734375 -6.460938 6.984375 -6.140625 C 6.242188 -5.816406 5.484375 -5.640625 4.703125 -5.609375 C 4.765625 -5.109375 4.960938 -4.742188 5.296875 -4.515625 C 5.640625 -4.285156 6.046875 -4.171875 6.515625 -4.171875 C 6.867188 -4.171875 7.207031 -4.257812 7.53125 -4.4375 C 7.863281 -4.613281 8.1875 -4.804688 8.5 -5.015625 C 8.8125 -5.234375 9.117188 -5.429688 9.421875 -5.609375 C 9.734375 -5.785156 10.046875 -5.875 10.359375 -5.875 C 10.703125 -5.875 11.015625 -5.757812 11.296875 -5.53125 C 11.578125 -5.300781 11.71875 -5.003906 11.71875 -4.640625 Z M 7.484375 -11.03125 C 7.484375 -11.257812 7.421875 -11.492188 7.296875 -11.734375 C 7.179688 -11.984375 6.992188 -12.109375 6.734375 -12.109375 C 6.347656 -12.109375 6.023438 -12.003906 5.765625 -11.796875 C 5.503906 -11.597656 5.285156 -11.347656 5.109375 -11.046875 C 4.941406 -10.742188 4.804688 -10.414062 4.703125 -10.0625 C 4.609375 -9.71875 4.554688 -9.398438 4.546875 -9.109375 C 4.785156 -9.160156 5.070312 -9.226562 5.40625 -9.3125 C 5.75 -9.40625 6.070312 -9.523438 6.375 -9.671875 C 6.6875 -9.816406 6.945312 -10 7.15625 -10.21875 C 7.375 -10.445312 7.484375 -10.71875 7.484375 -11.03125 Z M 7.484375 -11.03125 "/></g></g><g style="fill:#5289b8;fill-opacity:1;"><g transform="translate(110.314968, 31.70019)"><path style="stroke:none" d="M 11.796875 -13.46875 C 11.796875 -13.1875 11.742188 -12.894531 11.640625 -12.59375 C 11.535156 -12.289062 11.40625 -11.976562 11.25 -11.65625 C 11.09375 -11.34375 10.925781 -11.039062 10.75 -10.75 C 10.570312 -10.46875 10.414062 -10.207031 10.28125 -9.96875 C 9.9375 -9.40625 9.59375 -8.835938 9.25 -8.265625 C 8.90625 -7.691406 8.5625 -7.128906 8.21875 -6.578125 C 8.375 -6.328125 8.585938 -5.984375 8.859375 -5.546875 C 9.140625 -5.117188 9.414062 -4.664062 9.6875 -4.1875 C 9.957031 -3.707031 10.1875 -3.234375 10.375 -2.765625 C 10.570312 -2.296875 10.671875 -1.894531 10.671875 -1.5625 C 10.671875 -1.25 10.546875 -0.941406 10.296875 -0.640625 C 10.054688 -0.347656 9.765625 -0.203125 9.421875 -0.203125 C 9.054688 -0.203125 8.6875 -0.332031 8.3125 -0.59375 C 7.9375 -0.851562 7.570312 -1.160156 7.21875 -1.515625 C 6.863281 -1.878906 6.535156 -2.253906 6.234375 -2.640625 C 5.941406 -3.035156 5.691406 -3.363281 5.484375 -3.625 C 5.253906 -3.382812 4.960938 -3.054688 4.609375 -2.640625 C 4.253906 -2.222656 3.867188 -1.8125 3.453125 -1.40625 C 3.046875 -1.007812 2.640625 -0.664062 2.234375 -0.375 C 1.835938 -0.09375 1.484375 0.046875 1.171875 0.046875 C 0.804688 0.046875 0.519531 -0.0820312 0.3125 -0.34375 C 0.101562 -0.601562 0 -0.90625 0 -1.25 C 0 -1.601562 0.113281 -2.046875 0.34375 -2.578125 C 0.582031 -3.117188 0.863281 -3.675781 1.1875 -4.25 C 1.507812 -4.820312 1.832031 -5.367188 2.15625 -5.890625 C 2.476562 -6.421875 2.722656 -6.832031 2.890625 -7.125 C 2.722656 -7.4375 2.507812 -7.847656 2.25 -8.359375 C 1.988281 -8.867188 1.738281 -9.40625 1.5 -9.96875 C 1.257812 -10.539062 1.054688 -11.097656 0.890625 -11.640625 C 0.734375 -12.191406 0.65625 -12.648438 0.65625 -13.015625 C 0.65625 -13.421875 0.773438 -13.742188 1.015625 -13.984375 C 1.265625 -14.222656 1.585938 -14.34375 1.984375 -14.34375 C 2.421875 -14.34375 2.828125 -14.171875 3.203125 -13.828125 C 3.585938 -13.492188 3.945312 -13.085938 4.28125 -12.609375 C 4.613281 -12.128906 4.90625 -11.632812 5.15625 -11.125 C 5.40625 -10.613281 5.609375 -10.191406 5.765625 -9.859375 C 5.972656 -10.171875 6.265625 -10.597656 6.640625 -11.140625 C 7.015625 -11.679688 7.4375 -12.210938 7.90625 -12.734375 C 8.375 -13.253906 8.859375 -13.703125 9.359375 -14.078125 C 9.867188 -14.460938 10.347656 -14.65625 10.796875 -14.65625 C 11.097656 -14.65625 11.335938 -14.53125 11.515625 -14.28125 C 11.703125 -14.03125 11.796875 -13.757812 11.796875 -13.46875 Z M 11.796875 -13.46875 "/></g></g><g style="fill:#5289b8;fill-opacity:1;"><g transform="translate(128.356933, 31.70019)"><path style="stroke:none" d="M 5.734375 0.75 C 4.847656 0.75 4.070312 0.515625 3.40625 0.046875 C 2.75 -0.421875 2.191406 -1.019531 1.734375 -1.75 C 1.285156 -2.476562 0.945312 -3.289062 0.71875 -4.1875 C 0.5 -5.082031 0.390625 -5.96875 0.390625 -6.84375 C 0.390625 -7.757812 0.5 -8.707031 0.71875 -9.6875 C 0.945312 -10.675781 1.296875 -11.570312 1.765625 -12.375 C 2.242188 -13.1875 2.847656 -13.847656 3.578125 -14.359375 C 4.304688 -14.878906 5.175781 -15.140625 6.1875 -15.140625 C 7.15625 -15.140625 7.984375 -14.875 8.671875 -14.34375 C 9.359375 -13.8125 9.910156 -13.148438 10.328125 -12.359375 C 10.742188 -11.566406 11.039062 -10.695312 11.21875 -9.75 C 11.394531 -8.8125 11.457031 -7.925781 11.40625 -7.09375 C 11.351562 -6.175781 11.207031 -5.242188 10.96875 -4.296875 C 10.738281 -3.359375 10.394531 -2.515625 9.9375 -1.765625 C 9.488281 -1.023438 8.914062 -0.421875 8.21875 0.046875 C 7.519531 0.515625 6.691406 0.75 5.734375 0.75 Z M 6 -11.03125 C 5.738281 -11.03125 5.507812 -10.890625 5.3125 -10.609375 C 5.113281 -10.335938 4.945312 -10 4.8125 -9.59375 C 4.6875 -9.195312 4.585938 -8.773438 4.515625 -8.328125 C 4.441406 -7.890625 4.40625 -7.503906 4.40625 -7.171875 C 4.40625 -6.753906 4.441406 -6.300781 4.515625 -5.8125 C 4.597656 -5.332031 4.707031 -4.882812 4.84375 -4.46875 C 4.988281 -4.0625 5.160156 -3.722656 5.359375 -3.453125 C 5.554688 -3.179688 5.785156 -3.046875 6.046875 -3.046875 C 6.328125 -3.046875 6.566406 -3.175781 6.765625 -3.4375 C 6.972656 -3.695312 7.132812 -4.023438 7.25 -4.421875 C 7.375 -4.828125 7.460938 -5.269531 7.515625 -5.75 C 7.566406 -6.226562 7.59375 -6.675781 7.59375 -7.09375 C 7.59375 -7.476562 7.554688 -7.898438 7.484375 -8.359375 C 7.421875 -8.816406 7.320312 -9.242188 7.1875 -9.640625 C 7.0625 -10.046875 6.894531 -10.378906 6.6875 -10.640625 C 6.488281 -10.898438 6.257812 -11.03125 6 -11.03125 Z M 6 -11.03125 "/></g></g></g></svg>