<svg xmlns="http://www.w3.org/2000/svg" xmlns:xlink="http://www.w3.org/1999/xlink" width="328" zoomAndPan="magnify" viewBox="0 0 246 46.499999" height="62" preserveAspectRatio="xMidYMid meet" version="1.0"><defs><g/><clipPath id="9e85d8c2d1"><path d="M 1.308594 0.113281 L 244.691406 0.113281 L 244.691406 45.476562 L 1.308594 45.476562 Z M 1.308594 0.113281 " clip-rule="nonzero"/></clipPath><clipPath id="59e8017544"><path d="M 23.988281 0.113281 L 222 0.113281 C 228.015625 0.113281 233.785156 2.503906 238.039062 6.757812 C 242.292969 11.011719 244.683594 16.78125 244.683594 22.796875 C 244.683594 28.8125 242.292969 34.582031 238.039062 38.835938 C 233.785156 43.085938 228.015625 45.476562 222 45.476562 L 23.988281 45.476562 C 17.972656 45.476562 12.207031 43.085938 7.953125 38.835938 C 3.699219 34.582031 1.308594 28.8125 1.308594 22.796875 C 1.308594 16.78125 3.699219 11.011719 7.953125 6.757812 C 12.207031 2.503906 17.972656 0.113281 23.988281 0.113281 Z M 23.988281 0.113281 " clip-rule="nonzero"/></clipPath><clipPath id="7b70cee3f2"><path d="M 0.308594 0.113281 L 243.691406 0.113281 L 243.691406 45.476562 L 0.308594 45.476562 Z M 0.308594 0.113281 " clip-rule="nonzero"/></clipPath><clipPath id="4d6c138d25"><path d="M 22.988281 0.113281 L 221 0.113281 C 227.015625 0.113281 232.785156 2.503906 237.039062 6.757812 C 241.292969 11.011719 243.683594 16.78125 243.683594 22.796875 C 243.683594 28.8125 241.292969 34.582031 237.039062 38.835938 C 232.785156 43.085938 227.015625 45.476562 221 45.476562 L 22.988281 45.476562 C 16.972656 45.476562 11.207031 43.085938 6.953125 38.835938 C 2.699219 34.582031 0.308594 28.8125 0.308594 22.796875 C 0.308594 16.78125 2.699219 11.011719 6.953125 6.757812 C 11.207031 2.503906 16.972656 0.113281 22.988281 0.113281 Z M 22.988281 0.113281 " clip-rule="nonzero"/></clipPath><clipPath id="ec3a77db3d"><rect x="0" width="244" y="0" height="46"/></clipPath></defs><g clip-path="url(#9e85d8c2d1)"><g clip-path="url(#59e8017544)"><g transform="matrix(1, 0, 0, 1, 1, 0)"><g clip-path="url(#ec3a77db3d)"><g clip-path="url(#7b70cee3f2)"><g clip-path="url(#4d6c138d25)"><path fill="#e8f0f6" d="M 0.308594 0.113281 L 243.601562 0.113281 L 243.601562 45.476562 L 0.308594 45.476562 Z M 0.308594 0.113281 " fill-opacity="1" fill-rule="nonzero"/></g></g></g></g></g></g><g fill="#5289b8" fill-opacity="1"><g transform="translate(22.718567, 31.70019)"><g><path d="M 5.21875 -17.953125 C 5.21875 -17.710938 5.144531 -17.488281 5 -17.28125 C 4.863281 -17.082031 4.691406 -16.910156 4.484375 -16.765625 C 4.273438 -16.628906 4.046875 -16.519531 3.796875 -16.4375 C 3.554688 -16.363281 3.332031 -16.328125 3.125 -16.328125 C 2.78125 -16.328125 2.476562 -16.414062 2.21875 -16.59375 C 1.957031 -16.769531 1.828125 -17.039062 1.828125 -17.40625 C 1.828125 -17.664062 1.890625 -17.894531 2.015625 -18.09375 C 2.148438 -18.289062 2.316406 -18.453125 2.515625 -18.578125 C 2.710938 -18.710938 2.925781 -18.816406 3.15625 -18.890625 C 3.394531 -18.960938 3.628906 -19 3.859375 -19 C 4.191406 -19 4.5 -18.914062 4.78125 -18.75 C 5.070312 -18.582031 5.21875 -18.316406 5.21875 -17.953125 Z M 5.71875 -6.625 C 5.71875 -5.8125 5.691406 -4.90625 5.640625 -3.90625 C 5.597656 -2.90625 5.492188 -1.898438 5.328125 -0.890625 C 5.171875 0.117188 4.914062 1.078125 4.5625 1.984375 C 4.21875 2.890625 3.734375 3.644531 3.109375 4.25 C 2.753906 4.582031 2.34375 4.929688 1.875 5.296875 C 1.40625 5.660156 0.90625 6 0.375 6.3125 C -0.15625 6.625 -0.6875 6.878906 -1.21875 7.078125 C -1.757812 7.285156 -2.273438 7.390625 -2.765625 7.390625 C -3.316406 7.390625 -3.726562 7.234375 -4 6.921875 C -4.269531 6.617188 -4.40625 6.195312 -4.40625 5.65625 C -4.40625 5.101562 -4.253906 4.6875 -3.953125 4.40625 C -3.660156 4.125 -3.296875 3.878906 -2.859375 3.671875 C -2.429688 3.460938 -1.957031 3.234375 -1.4375 2.984375 C -0.925781 2.734375 -0.453125 2.351562 -0.015625 1.84375 C 0.410156 1.34375 0.769531 0.664062 1.0625 -0.1875 C 1.363281 -1.050781 1.515625 -2.1875 1.515625 -3.59375 C 1.515625 -4.488281 1.492188 -5.359375 1.453125 -6.203125 C 1.421875 -7.054688 1.367188 -7.925781 1.296875 -8.8125 C 1.265625 -9.320312 1.226562 -9.832031 1.1875 -10.34375 C 1.15625 -10.851562 1.140625 -11.363281 1.140625 -11.875 C 1.140625 -12.1875 1.179688 -12.515625 1.265625 -12.859375 C 1.359375 -13.210938 1.492188 -13.53125 1.671875 -13.8125 C 1.847656 -14.101562 2.066406 -14.335938 2.328125 -14.515625 C 2.597656 -14.703125 2.925781 -14.796875 3.3125 -14.796875 C 3.75 -14.796875 4.109375 -14.628906 4.390625 -14.296875 C 4.679688 -13.960938 4.914062 -13.539062 5.09375 -13.03125 C 5.28125 -12.519531 5.410156 -11.945312 5.484375 -11.3125 C 5.566406 -10.675781 5.625 -10.054688 5.65625 -9.453125 C 5.695312 -8.859375 5.71875 -8.304688 5.71875 -7.796875 C 5.71875 -7.296875 5.71875 -6.90625 5.71875 -6.625 Z M 5.71875 -6.625 "/></g></g></g><g fill="#5289b8" fill-opacity="1"><g transform="translate(31.792136, 31.70019)"><g><path d="M 5.734375 0.75 C 4.847656 0.75 4.070312 0.515625 3.40625 0.046875 C 2.75 -0.421875 2.191406 -1.019531 1.734375 -1.75 C 1.285156 -2.476562 0.945312 -3.289062 0.71875 -4.1875 C 0.5 -5.082031 0.390625 -5.96875 0.390625 -6.84375 C 0.390625 -7.757812 0.5 -8.707031 0.71875 -9.6875 C 0.945312 -10.675781 1.296875 -11.570312 1.765625 -12.375 C 2.242188 -13.1875 2.847656 -13.847656 3.578125 -14.359375 C 4.304688 -14.878906 5.175781 -15.140625 6.1875 -15.140625 C 7.15625 -15.140625 7.984375 -14.875 8.671875 -14.34375 C 9.359375 -13.8125 9.910156 -13.148438 10.328125 -12.359375 C 10.742188 -11.566406 11.039062 -10.695312 11.21875 -9.75 C 11.394531 -8.8125 11.457031 -7.925781 11.40625 -7.09375 C 11.351562 -6.175781 11.207031 -5.242188 10.96875 -4.296875 C 10.738281 -3.359375 10.394531 -2.515625 9.9375 -1.765625 C 9.488281 -1.023438 8.914062 -0.421875 8.21875 0.046875 C 7.519531 0.515625 6.691406 0.75 5.734375 0.75 Z M 6 -11.03125 C 5.738281 -11.03125 5.507812 -10.890625 5.3125 -10.609375 C 5.113281 -10.335938 4.945312 -10 4.8125 -9.59375 C 4.6875 -9.195312 4.585938 -8.773438 4.515625 -8.328125 C 4.441406 -7.890625 4.40625 -7.503906 4.40625 -7.171875 C 4.40625 -6.753906 4.441406 -6.300781 4.515625 -5.8125 C 4.597656 -5.332031 4.707031 -4.882812 4.84375 -4.46875 C 4.988281 -4.0625 5.160156 -3.722656 5.359375 -3.453125 C 5.554688 -3.179688 5.785156 -3.046875 6.046875 -3.046875 C 6.328125 -3.046875 6.566406 -3.175781 6.765625 -3.4375 C 6.972656 -3.695312 7.132812 -4.023438 7.25 -4.421875 C 7.375 -4.828125 7.460938 -5.269531 7.515625 -5.75 C 7.566406 -6.226562 7.59375 -6.675781 7.59375 -7.09375 C 7.59375 -7.476562 7.554688 -7.898438 7.484375 -8.359375 C 7.421875 -8.816406 7.320312 -9.242188 7.1875 -9.640625 C 7.0625 -10.046875 6.894531 -10.378906 6.6875 -10.640625 C 6.488281 -10.898438 6.257812 -11.03125 6 -11.03125 Z M 6 -11.03125 "/></g></g></g><g fill="#5289b8" fill-opacity="1"><g transform="translate(45.770001, 31.70019)"><g><path d="M 12.609375 -8.890625 C 12.609375 -8.003906 12.59375 -7.117188 12.5625 -6.234375 C 12.539062 -5.347656 12.492188 -4.460938 12.421875 -3.578125 C 12.367188 -2.804688 12.296875 -1.984375 12.203125 -1.109375 C 12.117188 -0.242188 11.976562 0.613281 11.78125 1.46875 C 11.59375 2.332031 11.34375 3.160156 11.03125 3.953125 C 10.71875 4.742188 10.304688 5.441406 9.796875 6.046875 C 9.285156 6.660156 8.664062 7.148438 7.9375 7.515625 C 7.207031 7.878906 6.335938 8.0625 5.328125 8.0625 C 4.859375 8.0625 4.332031 7.988281 3.75 7.84375 C 3.164062 7.695312 2.613281 7.484375 2.09375 7.203125 C 1.582031 6.921875 1.148438 6.578125 0.796875 6.171875 C 0.441406 5.765625 0.265625 5.289062 0.265625 4.75 C 0.265625 4.351562 0.40625 3.984375 0.6875 3.640625 C 0.976562 3.296875 1.347656 3.125 1.796875 3.125 C 2.078125 3.125 2.34375 3.171875 2.59375 3.265625 C 2.84375 3.367188 3.09375 3.476562 3.34375 3.59375 C 3.601562 3.71875 3.847656 3.828125 4.078125 3.921875 C 4.316406 4.023438 4.554688 4.078125 4.796875 4.078125 C 5.441406 4.078125 5.984375 3.914062 6.421875 3.59375 C 6.859375 3.269531 7.207031 2.859375 7.46875 2.359375 C 7.726562 1.867188 7.921875 1.332031 8.046875 0.75 C 8.179688 0.164062 8.273438 -0.382812 8.328125 -0.90625 C 7.972656 -0.507812 7.566406 -0.238281 7.109375 -0.09375 C 6.648438 0.0507812 6.164062 0.125 5.65625 0.125 C 4.738281 0.125 3.957031 -0.03125 3.3125 -0.34375 C 2.664062 -0.664062 2.140625 -1.109375 1.734375 -1.671875 C 1.335938 -2.242188 1.046875 -2.90625 0.859375 -3.65625 C 0.671875 -4.40625 0.578125 -5.210938 0.578125 -6.078125 C 0.578125 -6.617188 0.628906 -7.226562 0.734375 -7.90625 C 0.847656 -8.582031 1.019531 -9.269531 1.25 -9.96875 C 1.476562 -10.664062 1.757812 -11.34375 2.09375 -12 C 2.4375 -12.664062 2.832031 -13.25 3.28125 -13.75 C 3.738281 -14.25 4.25 -14.65625 4.8125 -14.96875 C 5.375 -15.289062 6 -15.453125 6.6875 -15.453125 C 7.34375 -15.453125 7.925781 -15.257812 8.4375 -14.875 C 8.945312 -14.488281 9.25 -13.945312 9.34375 -13.25 C 9.53125 -13.613281 9.78125 -13.972656 10.09375 -14.328125 C 10.40625 -14.691406 10.789062 -14.875 11.25 -14.875 C 11.488281 -14.875 11.691406 -14.75 11.859375 -14.5 C 12.023438 -14.257812 12.15625 -13.941406 12.25 -13.546875 C 12.34375 -13.160156 12.414062 -12.734375 12.46875 -12.265625 C 12.519531 -11.804688 12.554688 -11.351562 12.578125 -10.90625 C 12.597656 -10.46875 12.609375 -10.066406 12.609375 -9.703125 C 12.609375 -9.335938 12.609375 -9.066406 12.609375 -8.890625 Z M 8.640625 -7.203125 C 8.640625 -7.460938 8.597656 -7.800781 8.515625 -8.21875 C 8.441406 -8.632812 8.328125 -9.035156 8.171875 -9.421875 C 8.023438 -9.804688 7.835938 -10.132812 7.609375 -10.40625 C 7.390625 -10.6875 7.125 -10.828125 6.8125 -10.828125 C 6.40625 -10.828125 6.050781 -10.6875 5.75 -10.40625 C 5.445312 -10.132812 5.191406 -9.800781 4.984375 -9.40625 C 4.773438 -9.007812 4.613281 -8.585938 4.5 -8.140625 C 4.382812 -7.703125 4.328125 -7.328125 4.328125 -7.015625 C 4.328125 -6.796875 4.34375 -6.492188 4.375 -6.109375 C 4.414062 -5.722656 4.492188 -5.347656 4.609375 -4.984375 C 4.722656 -4.617188 4.875 -4.304688 5.0625 -4.046875 C 5.25 -3.785156 5.5 -3.65625 5.8125 -3.65625 C 6.28125 -3.65625 6.6875 -3.765625 7.03125 -3.984375 C 7.382812 -4.210938 7.675781 -4.5 7.90625 -4.84375 C 8.144531 -5.195312 8.328125 -5.582031 8.453125 -6 C 8.578125 -6.414062 8.640625 -6.816406 8.640625 -7.203125 Z M 8.640625 -7.203125 "/></g></g></g><g fill="#5289b8" fill-opacity="1"><g transform="translate(61.469588, 31.70019)"><g><path d="M 5.734375 0.75 C 4.847656 0.75 4.070312 0.515625 3.40625 0.046875 C 2.75 -0.421875 2.191406 -1.019531 1.734375 -1.75 C 1.285156 -2.476562 0.945312 -3.289062 0.71875 -4.1875 C 0.5 -5.082031 0.390625 -5.96875 0.390625 -6.84375 C 0.390625 -7.757812 0.5 -8.707031 0.71875 -9.6875 C 0.945312 -10.675781 1.296875 -11.570312 1.765625 -12.375 C 2.242188 -13.1875 2.847656 -13.847656 3.578125 -14.359375 C 4.304688 -14.878906 5.175781 -15.140625 6.1875 -15.140625 C 7.15625 -15.140625 7.984375 -14.875 8.671875 -14.34375 C 9.359375 -13.8125 9.910156 -13.148438 10.328125 -12.359375 C 10.742188 -11.566406 11.039062 -10.695312 11.21875 -9.75 C 11.394531 -8.8125 11.457031 -7.925781 11.40625 -7.09375 C 11.351562 -6.175781 11.207031 -5.242188 10.96875 -4.296875 C 10.738281 -3.359375 10.394531 -2.515625 9.9375 -1.765625 C 9.488281 -1.023438 8.914062 -0.421875 8.21875 0.046875 C 7.519531 0.515625 6.691406 0.75 5.734375 0.75 Z M 6 -11.03125 C 5.738281 -11.03125 5.507812 -10.890625 5.3125 -10.609375 C 5.113281 -10.335938 4.945312 -10 4.8125 -9.59375 C 4.6875 -9.195312 4.585938 -8.773438 4.515625 -8.328125 C 4.441406 -7.890625 4.40625 -7.503906 4.40625 -7.171875 C 4.40625 -6.753906 4.441406 -6.300781 4.515625 -5.8125 C 4.597656 -5.332031 4.707031 -4.882812 4.84375 -4.46875 C 4.988281 -4.0625 5.160156 -3.722656 5.359375 -3.453125 C 5.554688 -3.179688 5.785156 -3.046875 6.046875 -3.046875 C 6.328125 -3.046875 6.566406 -3.175781 6.765625 -3.4375 C 6.972656 -3.695312 7.132812 -4.023438 7.25 -4.421875 C 7.375 -4.828125 7.460938 -5.269531 7.515625 -5.75 C 7.566406 -6.226562 7.59375 -6.675781 7.59375 -7.09375 C 7.59375 -7.476562 7.554688 -7.898438 7.484375 -8.359375 C 7.421875 -8.816406 7.320312 -9.242188 7.1875 -9.640625 C 7.0625 -10.046875 6.894531 -10.378906 6.6875 -10.640625 C 6.488281 -10.898438 6.257812 -11.03125 6 -11.03125 Z M 6 -11.03125 "/></g></g></g><g fill="#5289b8" fill-opacity="1"><g transform="translate(75.447453, 31.70019)"><g/></g></g><g fill="#5289b8" fill-opacity="1"><g transform="translate(83.764508, 31.70019)"><g><path d="M 12.03125 -17.171875 C 12.03125 -15.898438 11.976562 -14.632812 11.875 -13.375 C 11.78125 -12.125 11.734375 -10.867188 11.734375 -9.609375 C 11.734375 -8.578125 11.765625 -7.554688 11.828125 -6.546875 C 11.890625 -5.535156 11.921875 -4.519531 11.921875 -3.5 C 11.921875 -3.21875 11.910156 -2.878906 11.890625 -2.484375 C 11.878906 -2.097656 11.820312 -1.722656 11.71875 -1.359375 C 11.625 -0.992188 11.46875 -0.679688 11.25 -0.421875 C 11.039062 -0.160156 10.734375 -0.03125 10.328125 -0.03125 C 9.804688 -0.03125 9.375 -0.222656 9.03125 -0.609375 C 8.695312 -1.003906 8.488281 -1.445312 8.40625 -1.9375 C 8.070312 -1.300781 7.59375 -0.765625 6.96875 -0.328125 C 6.34375 0.0976562 5.664062 0.3125 4.9375 0.3125 C 4.144531 0.3125 3.46875 0.046875 2.90625 -0.484375 C 2.34375 -1.023438 1.875 -1.675781 1.5 -2.4375 C 1.125 -3.207031 0.84375 -4.007812 0.65625 -4.84375 C 0.476562 -5.6875 0.390625 -6.410156 0.390625 -7.015625 C 0.390625 -7.453125 0.414062 -7.945312 0.46875 -8.5 C 0.519531 -9.0625 0.609375 -9.628906 0.734375 -10.203125 C 0.867188 -10.773438 1.039062 -11.332031 1.25 -11.875 C 1.457031 -12.425781 1.722656 -12.921875 2.046875 -13.359375 C 2.367188 -13.796875 2.75 -14.144531 3.1875 -14.40625 C 3.632812 -14.664062 4.144531 -14.796875 4.71875 -14.796875 C 5.34375 -14.796875 5.941406 -14.613281 6.515625 -14.25 C 7.097656 -13.882812 7.535156 -13.429688 7.828125 -12.890625 L 8.0625 -17.03125 C 8.082031 -17.363281 8.109375 -17.75 8.140625 -18.1875 C 8.171875 -18.632812 8.242188 -19.054688 8.359375 -19.453125 C 8.472656 -19.859375 8.648438 -20.203125 8.890625 -20.484375 C 9.140625 -20.765625 9.5 -20.90625 9.96875 -20.90625 C 10.46875 -20.90625 10.859375 -20.78125 11.140625 -20.53125 C 11.421875 -20.289062 11.625 -19.984375 11.75 -19.609375 C 11.882812 -19.234375 11.960938 -18.828125 11.984375 -18.390625 C 12.015625 -17.960938 12.03125 -17.554688 12.03125 -17.171875 Z M 7.78125 -5.578125 C 7.78125 -5.984375 7.769531 -6.375 7.75 -6.75 C 7.726562 -7.132812 7.726562 -7.53125 7.75 -7.9375 C 7.644531 -8.15625 7.519531 -8.398438 7.375 -8.671875 C 7.238281 -8.941406 7.070312 -9.191406 6.875 -9.421875 C 6.675781 -9.660156 6.453125 -9.859375 6.203125 -10.015625 C 5.960938 -10.171875 5.703125 -10.25 5.421875 -10.25 C 5.109375 -10.25 4.859375 -10.15625 4.671875 -9.96875 C 4.484375 -9.78125 4.34375 -9.550781 4.25 -9.28125 C 4.164062 -9.007812 4.109375 -8.71875 4.078125 -8.40625 C 4.054688 -8.09375 4.046875 -7.820312 4.046875 -7.59375 C 4.046875 -7.382812 4.0625 -7.070312 4.09375 -6.65625 C 4.132812 -6.25 4.203125 -5.835938 4.296875 -5.421875 C 4.390625 -5.003906 4.519531 -4.640625 4.6875 -4.328125 C 4.863281 -4.015625 5.101562 -3.859375 5.40625 -3.859375 C 5.625 -3.859375 5.847656 -3.90625 6.078125 -4 C 6.304688 -4.101562 6.519531 -4.226562 6.71875 -4.375 C 6.914062 -4.519531 7.101562 -4.679688 7.28125 -4.859375 C 7.46875 -5.046875 7.632812 -5.21875 7.78125 -5.375 Z M 7.78125 -5.578125 "/></g></g></g><g fill="#5289b8" fill-opacity="1"><g transform="translate(98.759755, 31.70019)"><g><path d="M 11.875 -3.671875 C 11.875 -3.359375 11.859375 -2.953125 11.828125 -2.453125 C 11.804688 -1.953125 11.734375 -1.460938 11.609375 -0.984375 C 11.484375 -0.503906 11.289062 -0.09375 11.03125 0.25 C 10.769531 0.601562 10.40625 0.78125 9.9375 0.78125 C 9.289062 0.78125 8.796875 0.570312 8.453125 0.15625 C 8.109375 -0.257812 7.941406 -0.78125 7.953125 -1.40625 C 7.398438 -0.914062 6.769531 -0.53125 6.0625 -0.25 C 5.363281 0.0195312 4.644531 0.15625 3.90625 0.15625 C 3.40625 0.15625 2.925781 0.0351562 2.46875 -0.203125 C 2.019531 -0.453125 1.617188 -0.765625 1.265625 -1.140625 C 0.921875 -1.523438 0.644531 -1.957031 0.4375 -2.4375 C 0.226562 -2.914062 0.125 -3.390625 0.125 -3.859375 C 0.125 -4.691406 0.378906 -5.421875 0.890625 -6.046875 C 1.410156 -6.679688 2.039062 -7.21875 2.78125 -7.65625 C 3.53125 -8.101562 4.328125 -8.457031 5.171875 -8.71875 C 6.015625 -8.976562 6.769531 -9.148438 7.4375 -9.234375 C 7.4375 -9.328125 7.441406 -9.40625 7.453125 -9.46875 C 7.460938 -9.539062 7.46875 -9.617188 7.46875 -9.703125 C 7.46875 -10.242188 7.316406 -10.675781 7.015625 -11 C 6.722656 -11.332031 6.304688 -11.5 5.765625 -11.5 C 5.328125 -11.5 4.953125 -11.425781 4.640625 -11.28125 C 4.328125 -11.132812 4.03125 -10.96875 3.75 -10.78125 C 3.476562 -10.601562 3.203125 -10.441406 2.921875 -10.296875 C 2.640625 -10.148438 2.328125 -10.078125 1.984375 -10.078125 C 1.597656 -10.078125 1.269531 -10.195312 1 -10.4375 C 0.726562 -10.675781 0.59375 -10.988281 0.59375 -11.375 C 0.59375 -11.945312 0.765625 -12.46875 1.109375 -12.9375 C 1.453125 -13.40625 1.878906 -13.800781 2.390625 -14.125 C 2.898438 -14.445312 3.453125 -14.695312 4.046875 -14.875 C 4.648438 -15.0625 5.207031 -15.15625 5.71875 -15.15625 C 6.1875 -15.15625 6.65625 -15.097656 7.125 -14.984375 C 7.59375 -14.878906 8.035156 -14.707031 8.453125 -14.46875 C 8.867188 -14.226562 9.242188 -13.9375 9.578125 -13.59375 C 9.921875 -13.257812 10.195312 -12.867188 10.40625 -12.421875 C 10.71875 -11.773438 10.96875 -11.085938 11.15625 -10.359375 C 11.351562 -9.640625 11.503906 -8.898438 11.609375 -8.140625 C 11.710938 -7.390625 11.78125 -6.632812 11.8125 -5.875 C 11.851562 -5.125 11.875 -4.390625 11.875 -3.671875 Z M 7.703125 -4.515625 L 7.625 -6.28125 C 7.582031 -6.28125 7.546875 -6.285156 7.515625 -6.296875 C 7.484375 -6.304688 7.445312 -6.3125 7.40625 -6.3125 C 7.1875 -6.3125 6.90625 -6.253906 6.5625 -6.140625 C 6.21875 -6.023438 5.890625 -5.867188 5.578125 -5.671875 C 5.265625 -5.472656 5 -5.25 4.78125 -5 C 4.570312 -4.757812 4.46875 -4.507812 4.46875 -4.25 C 4.46875 -4.007812 4.550781 -3.84375 4.71875 -3.75 C 4.894531 -3.664062 5.097656 -3.625 5.328125 -3.625 C 5.703125 -3.625 6.109375 -3.722656 6.546875 -3.921875 C 6.984375 -4.128906 7.367188 -4.328125 7.703125 -4.515625 Z M 7.703125 -4.515625 "/></g></g></g><g fill="#5289b8" fill-opacity="1"><g transform="translate(113.441961, 31.70019)"><g/></g></g><g fill="#5289b8" fill-opacity="1"><g transform="translate(121.759016, 31.70019)"><g><path d="M 16.625 -8.609375 C 16.625 -8.273438 16.625 -7.828125 16.625 -7.265625 C 16.625 -6.703125 16.609375 -6.085938 16.578125 -5.421875 C 16.554688 -4.765625 16.5 -4.097656 16.40625 -3.421875 C 16.320312 -2.753906 16.1875 -2.148438 16 -1.609375 C 15.820312 -1.078125 15.59375 -0.632812 15.3125 -0.28125 C 15.039062 0.0625 14.6875 0.234375 14.25 0.234375 C 13.863281 0.234375 13.570312 0.0703125 13.375 -0.25 C 13.175781 -0.570312 13.03125 -0.945312 12.9375 -1.375 C 12.851562 -1.8125 12.804688 -2.253906 12.796875 -2.703125 C 12.785156 -3.160156 12.78125 -3.519531 12.78125 -3.78125 C 12.78125 -4.5625 12.804688 -5.328125 12.859375 -6.078125 C 12.910156 -6.828125 12.9375 -7.59375 12.9375 -8.375 C 12.9375 -8.457031 12.9375 -8.613281 12.9375 -8.84375 C 12.9375 -9.070312 12.921875 -9.296875 12.890625 -9.515625 C 12.859375 -9.742188 12.800781 -9.945312 12.71875 -10.125 C 12.644531 -10.300781 12.53125 -10.390625 12.375 -10.390625 C 12.050781 -10.390625 11.796875 -10.226562 11.609375 -9.90625 C 11.421875 -9.582031 11.265625 -9.203125 11.140625 -8.765625 C 11.015625 -8.328125 10.925781 -7.894531 10.875 -7.46875 C 10.820312 -7.050781 10.789062 -6.734375 10.78125 -6.515625 C 10.738281 -6.296875 10.703125 -5.957031 10.671875 -5.5 C 10.648438 -5.050781 10.617188 -4.554688 10.578125 -4.015625 C 10.535156 -3.472656 10.46875 -2.921875 10.375 -2.359375 C 10.28125 -1.796875 10.15625 -1.28125 10 -0.8125 C 9.851562 -0.351562 9.664062 0.0195312 9.4375 0.3125 C 9.21875 0.601562 8.941406 0.75 8.609375 0.75 C 8.191406 0.75 7.867188 0.566406 7.640625 0.203125 C 7.421875 -0.160156 7.257812 -0.582031 7.15625 -1.0625 C 7.050781 -1.550781 6.984375 -2.046875 6.953125 -2.546875 C 6.929688 -3.054688 6.921875 -3.453125 6.921875 -3.734375 C 6.921875 -4.023438 6.921875 -4.3125 6.921875 -4.59375 C 6.929688 -4.875 6.9375 -5.160156 6.9375 -5.453125 C 6.9375 -5.578125 6.9375 -5.773438 6.9375 -6.046875 C 6.9375 -6.328125 6.929688 -6.632812 6.921875 -6.96875 C 6.921875 -7.3125 6.90625 -7.664062 6.875 -8.03125 C 6.851562 -8.394531 6.816406 -8.726562 6.765625 -9.03125 C 6.710938 -9.34375 6.628906 -9.59375 6.515625 -9.78125 C 6.410156 -9.976562 6.289062 -10.078125 6.15625 -10.078125 C 5.925781 -10.078125 5.71875 -9.929688 5.53125 -9.640625 C 5.34375 -9.347656 5.175781 -9.003906 5.03125 -8.609375 C 4.894531 -8.222656 4.785156 -7.835938 4.703125 -7.453125 C 4.628906 -7.078125 4.59375 -6.800781 4.59375 -6.625 L 4.59375 -6.46875 C 4.59375 -5.632812 4.644531 -4.816406 4.75 -4.015625 C 4.851562 -3.210938 4.90625 -2.394531 4.90625 -1.5625 C 4.90625 -1.070312 4.75 -0.625 4.4375 -0.21875 C 4.125 0.1875 3.6875 0.390625 3.125 0.390625 C 2.726562 0.390625 2.398438 0.238281 2.140625 -0.0625 C 1.878906 -0.363281 1.660156 -0.757812 1.484375 -1.25 C 1.304688 -1.738281 1.171875 -2.273438 1.078125 -2.859375 C 0.984375 -3.441406 0.914062 -4.015625 0.875 -4.578125 C 0.84375 -5.140625 0.820312 -5.648438 0.8125 -6.109375 C 0.8125 -6.578125 0.8125 -6.925781 0.8125 -7.15625 C 0.8125 -7.414062 0.804688 -7.796875 0.796875 -8.296875 C 0.785156 -8.796875 0.789062 -9.34375 0.8125 -9.9375 C 0.84375 -10.53125 0.890625 -11.132812 0.953125 -11.75 C 1.023438 -12.375 1.140625 -12.9375 1.296875 -13.4375 C 1.460938 -13.9375 1.671875 -14.347656 1.921875 -14.671875 C 2.171875 -14.992188 2.492188 -15.15625 2.890625 -15.15625 C 3.347656 -15.15625 3.71875 -15.03125 4 -14.78125 C 4.289062 -14.539062 4.4375 -14.179688 4.4375 -13.703125 C 4.4375 -13.597656 4.429688 -13.492188 4.421875 -13.390625 C 4.410156 -13.285156 4.398438 -13.1875 4.390625 -13.09375 C 4.578125 -13.375 4.804688 -13.65625 5.078125 -13.9375 C 5.359375 -14.226562 5.660156 -14.488281 5.984375 -14.71875 C 6.304688 -14.957031 6.648438 -15.148438 7.015625 -15.296875 C 7.378906 -15.453125 7.742188 -15.53125 8.109375 -15.53125 C 8.460938 -15.53125 8.773438 -15.429688 9.046875 -15.234375 C 9.328125 -15.046875 9.570312 -14.804688 9.78125 -14.515625 C 9.988281 -14.234375 10.160156 -13.925781 10.296875 -13.59375 C 10.441406 -13.257812 10.539062 -12.945312 10.59375 -12.65625 C 10.769531 -12.96875 10.984375 -13.285156 11.234375 -13.609375 C 11.484375 -13.929688 11.753906 -14.210938 12.046875 -14.453125 C 12.347656 -14.703125 12.675781 -14.90625 13.03125 -15.0625 C 13.382812 -15.21875 13.753906 -15.296875 14.140625 -15.296875 C 14.503906 -15.296875 14.816406 -15.160156 15.078125 -14.890625 C 15.335938 -14.628906 15.5625 -14.296875 15.75 -13.890625 C 15.945312 -13.484375 16.097656 -13.019531 16.203125 -12.5 C 16.304688 -11.988281 16.390625 -11.484375 16.453125 -10.984375 C 16.523438 -10.492188 16.570312 -10.035156 16.59375 -9.609375 C 16.613281 -9.179688 16.625 -8.847656 16.625 -8.609375 Z M 16.625 -8.609375 "/></g></g></g><g fill="#5289b8" fill-opacity="1"><g transform="translate(141.345519, 31.70019)"><g><path d="M 11.71875 -4.640625 C 11.71875 -4.046875 11.53125 -3.46875 11.15625 -2.90625 C 10.78125 -2.34375 10.304688 -1.835938 9.734375 -1.390625 C 9.171875 -0.953125 8.566406 -0.597656 7.921875 -0.328125 C 7.285156 -0.0546875 6.695312 0.078125 6.15625 0.078125 C 5.238281 0.078125 4.414062 -0.148438 3.6875 -0.609375 C 2.96875 -1.066406 2.363281 -1.648438 1.875 -2.359375 C 1.382812 -3.078125 1.015625 -3.867188 0.765625 -4.734375 C 0.515625 -5.597656 0.390625 -6.4375 0.390625 -7.25 C 0.390625 -8.125 0.507812 -9.054688 0.75 -10.046875 C 1 -11.035156 1.367188 -11.945312 1.859375 -12.78125 C 2.359375 -13.613281 2.984375 -14.304688 3.734375 -14.859375 C 4.492188 -15.421875 5.394531 -15.703125 6.4375 -15.703125 C 7.03125 -15.703125 7.597656 -15.601562 8.140625 -15.40625 C 8.679688 -15.207031 9.148438 -14.925781 9.546875 -14.5625 C 9.953125 -14.195312 10.273438 -13.757812 10.515625 -13.25 C 10.753906 -12.75 10.875 -12.1875 10.875 -11.5625 C 10.875 -10.738281 10.703125 -9.96875 10.359375 -9.25 C 10.015625 -8.539062 9.550781 -7.925781 8.96875 -7.40625 C 8.394531 -6.882812 7.734375 -6.460938 6.984375 -6.140625 C 6.242188 -5.816406 5.484375 -5.640625 4.703125 -5.609375 C 4.765625 -5.109375 4.960938 -4.742188 5.296875 -4.515625 C 5.640625 -4.285156 6.046875 -4.171875 6.515625 -4.171875 C 6.867188 -4.171875 7.207031 -4.257812 7.53125 -4.4375 C 7.863281 -4.613281 8.1875 -4.804688 8.5 -5.015625 C 8.8125 -5.234375 9.117188 -5.429688 9.421875 -5.609375 C 9.734375 -5.785156 10.046875 -5.875 10.359375 -5.875 C 10.703125 -5.875 11.015625 -5.757812 11.296875 -5.53125 C 11.578125 -5.300781 11.71875 -5.003906 11.71875 -4.640625 Z M 7.484375 -11.03125 C 7.484375 -11.257812 7.421875 -11.492188 7.296875 -11.734375 C 7.179688 -11.984375 6.992188 -12.109375 6.734375 -12.109375 C 6.347656 -12.109375 6.023438 -12.003906 5.765625 -11.796875 C 5.503906 -11.597656 5.285156 -11.347656 5.109375 -11.046875 C 4.941406 -10.742188 4.804688 -10.414062 4.703125 -10.0625 C 4.609375 -9.71875 4.554688 -9.398438 4.546875 -9.109375 C 4.785156 -9.160156 5.070312 -9.226562 5.40625 -9.3125 C 5.75 -9.40625 6.070312 -9.523438 6.375 -9.671875 C 6.6875 -9.816406 6.945312 -10 7.15625 -10.21875 C 7.375 -10.445312 7.484375 -10.71875 7.484375 -11.03125 Z M 7.484375 -11.03125 "/></g></g></g><g fill="#5289b8" fill-opacity="1"><g transform="translate(155.349471, 31.70019)"><g><path d="M 16.625 -8.609375 C 16.625 -8.273438 16.625 -7.828125 16.625 -7.265625 C 16.625 -6.703125 16.609375 -6.085938 16.578125 -5.421875 C 16.554688 -4.765625 16.5 -4.097656 16.40625 -3.421875 C 16.320312 -2.753906 16.1875 -2.148438 16 -1.609375 C 15.820312 -1.078125 15.59375 -0.632812 15.3125 -0.28125 C 15.039062 0.0625 14.6875 0.234375 14.25 0.234375 C 13.863281 0.234375 13.570312 0.0703125 13.375 -0.25 C 13.175781 -0.570312 13.03125 -0.945312 12.9375 -1.375 C 12.851562 -1.8125 12.804688 -2.253906 12.796875 -2.703125 C 12.785156 -3.160156 12.78125 -3.519531 12.78125 -3.78125 C 12.78125 -4.5625 12.804688 -5.328125 12.859375 -6.078125 C 12.910156 -6.828125 12.9375 -7.59375 12.9375 -8.375 C 12.9375 -8.457031 12.9375 -8.613281 12.9375 -8.84375 C 12.9375 -9.070312 12.921875 -9.296875 12.890625 -9.515625 C 12.859375 -9.742188 12.800781 -9.945312 12.71875 -10.125 C 12.644531 -10.300781 12.53125 -10.390625 12.375 -10.390625 C 12.050781 -10.390625 11.796875 -10.226562 11.609375 -9.90625 C 11.421875 -9.582031 11.265625 -9.203125 11.140625 -8.765625 C 11.015625 -8.328125 10.925781 -7.894531 10.875 -7.46875 C 10.820312 -7.050781 10.789062 -6.734375 10.78125 -6.515625 C 10.738281 -6.296875 10.703125 -5.957031 10.671875 -5.5 C 10.648438 -5.050781 10.617188 -4.554688 10.578125 -4.015625 C 10.535156 -3.472656 10.46875 -2.921875 10.375 -2.359375 C 10.28125 -1.796875 10.15625 -1.28125 10 -0.8125 C 9.851562 -0.351562 9.664062 0.0195312 9.4375 0.3125 C 9.21875 0.601562 8.941406 0.75 8.609375 0.75 C 8.191406 0.75 7.867188 0.566406 7.640625 0.203125 C 7.421875 -0.160156 7.257812 -0.582031 7.15625 -1.0625 C 7.050781 -1.550781 6.984375 -2.046875 6.953125 -2.546875 C 6.929688 -3.054688 6.921875 -3.453125 6.921875 -3.734375 C 6.921875 -4.023438 6.921875 -4.3125 6.921875 -4.59375 C 6.929688 -4.875 6.9375 -5.160156 6.9375 -5.453125 C 6.9375 -5.578125 6.9375 -5.773438 6.9375 -6.046875 C 6.9375 -6.328125 6.929688 -6.632812 6.921875 -6.96875 C 6.921875 -7.3125 6.90625 -7.664062 6.875 -8.03125 C 6.851562 -8.394531 6.816406 -8.726562 6.765625 -9.03125 C 6.710938 -9.34375 6.628906 -9.59375 6.515625 -9.78125 C 6.410156 -9.976562 6.289062 -10.078125 6.15625 -10.078125 C 5.925781 -10.078125 5.71875 -9.929688 5.53125 -9.640625 C 5.34375 -9.347656 5.175781 -9.003906 5.03125 -8.609375 C 4.894531 -8.222656 4.785156 -7.835938 4.703125 -7.453125 C 4.628906 -7.078125 4.59375 -6.800781 4.59375 -6.625 L 4.59375 -6.46875 C 4.59375 -5.632812 4.644531 -4.816406 4.75 -4.015625 C 4.851562 -3.210938 4.90625 -2.394531 4.90625 -1.5625 C 4.90625 -1.070312 4.75 -0.625 4.4375 -0.21875 C 4.125 0.1875 3.6875 0.390625 3.125 0.390625 C 2.726562 0.390625 2.398438 0.238281 2.140625 -0.0625 C 1.878906 -0.363281 1.660156 -0.757812 1.484375 -1.25 C 1.304688 -1.738281 1.171875 -2.273438 1.078125 -2.859375 C 0.984375 -3.441406 0.914062 -4.015625 0.875 -4.578125 C 0.84375 -5.140625 0.820312 -5.648438 0.8125 -6.109375 C 0.8125 -6.578125 0.8125 -6.925781 0.8125 -7.15625 C 0.8125 -7.414062 0.804688 -7.796875 0.796875 -8.296875 C 0.785156 -8.796875 0.789062 -9.34375 0.8125 -9.9375 C 0.84375 -10.53125 0.890625 -11.132812 0.953125 -11.75 C 1.023438 -12.375 1.140625 -12.9375 1.296875 -13.4375 C 1.460938 -13.9375 1.671875 -14.347656 1.921875 -14.671875 C 2.171875 -14.992188 2.492188 -15.15625 2.890625 -15.15625 C 3.347656 -15.15625 3.71875 -15.03125 4 -14.78125 C 4.289062 -14.539062 4.4375 -14.179688 4.4375 -13.703125 C 4.4375 -13.597656 4.429688 -13.492188 4.421875 -13.390625 C 4.410156 -13.285156 4.398438 -13.1875 4.390625 -13.09375 C 4.578125 -13.375 4.804688 -13.65625 5.078125 -13.9375 C 5.359375 -14.226562 5.660156 -14.488281 5.984375 -14.71875 C 6.304688 -14.957031 6.648438 -15.148438 7.015625 -15.296875 C 7.378906 -15.453125 7.742188 -15.53125 8.109375 -15.53125 C 8.460938 -15.53125 8.773438 -15.429688 9.046875 -15.234375 C 9.328125 -15.046875 9.570312 -14.804688 9.78125 -14.515625 C 9.988281 -14.234375 10.160156 -13.925781 10.296875 -13.59375 C 10.441406 -13.257812 10.539062 -12.945312 10.59375 -12.65625 C 10.769531 -12.96875 10.984375 -13.285156 11.234375 -13.609375 C 11.484375 -13.929688 11.753906 -14.210938 12.046875 -14.453125 C 12.347656 -14.703125 12.675781 -14.90625 13.03125 -15.0625 C 13.382812 -15.21875 13.753906 -15.296875 14.140625 -15.296875 C 14.503906 -15.296875 14.816406 -15.160156 15.078125 -14.890625 C 15.335938 -14.628906 15.5625 -14.296875 15.75 -13.890625 C 15.945312 -13.484375 16.097656 -13.019531 16.203125 -12.5 C 16.304688 -11.988281 16.390625 -11.484375 16.453125 -10.984375 C 16.523438 -10.492188 16.570312 -10.035156 16.59375 -9.609375 C 16.613281 -9.179688 16.625 -8.847656 16.625 -8.609375 Z M 16.625 -8.609375 "/></g></g></g><g fill="#5289b8" fill-opacity="1"><g transform="translate(174.935974, 31.70019)"><g><path d="M 5.734375 0.75 C 4.847656 0.75 4.070312 0.515625 3.40625 0.046875 C 2.75 -0.421875 2.191406 -1.019531 1.734375 -1.75 C 1.285156 -2.476562 0.945312 -3.289062 0.71875 -4.1875 C 0.5 -5.082031 0.390625 -5.96875 0.390625 -6.84375 C 0.390625 -7.757812 0.5 -8.707031 0.71875 -9.6875 C 0.945312 -10.675781 1.296875 -11.570312 1.765625 -12.375 C 2.242188 -13.1875 2.847656 -13.847656 3.578125 -14.359375 C 4.304688 -14.878906 5.175781 -15.140625 6.1875 -15.140625 C 7.15625 -15.140625 7.984375 -14.875 8.671875 -14.34375 C 9.359375 -13.8125 9.910156 -13.148438 10.328125 -12.359375 C 10.742188 -11.566406 11.039062 -10.695312 11.21875 -9.75 C 11.394531 -8.8125 11.457031 -7.925781 11.40625 -7.09375 C 11.351562 -6.175781 11.207031 -5.242188 10.96875 -4.296875 C 10.738281 -3.359375 10.394531 -2.515625 9.9375 -1.765625 C 9.488281 -1.023438 8.914062 -0.421875 8.21875 0.046875 C 7.519531 0.515625 6.691406 0.75 5.734375 0.75 Z M 6 -11.03125 C 5.738281 -11.03125 5.507812 -10.890625 5.3125 -10.609375 C 5.113281 -10.335938 4.945312 -10 4.8125 -9.59375 C 4.6875 -9.195312 4.585938 -8.773438 4.515625 -8.328125 C 4.441406 -7.890625 4.40625 -7.503906 4.40625 -7.171875 C 4.40625 -6.753906 4.441406 -6.300781 4.515625 -5.8125 C 4.597656 -5.332031 4.707031 -4.882812 4.84375 -4.46875 C 4.988281 -4.0625 5.160156 -3.722656 5.359375 -3.453125 C 5.554688 -3.179688 5.785156 -3.046875 6.046875 -3.046875 C 6.328125 -3.046875 6.566406 -3.175781 6.765625 -3.4375 C 6.972656 -3.695312 7.132812 -4.023438 7.25 -4.421875 C 7.375 -4.828125 7.460938 -5.269531 7.515625 -5.75 C 7.566406 -6.226562 7.59375 -6.675781 7.59375 -7.09375 C 7.59375 -7.476562 7.554688 -7.898438 7.484375 -8.359375 C 7.421875 -8.816406 7.320312 -9.242188 7.1875 -9.640625 C 7.0625 -10.046875 6.894531 -10.378906 6.6875 -10.640625 C 6.488281 -10.898438 6.257812 -11.03125 6 -11.03125 Z M 8.953125 -19.5 C 8.953125 -19.300781 8.898438 -19.109375 8.796875 -18.921875 C 8.691406 -18.742188 8.5625 -18.578125 8.40625 -18.421875 C 8.257812 -18.265625 8.097656 -18.117188 7.921875 -17.984375 C 7.753906 -17.859375 7.601562 -17.742188 7.46875 -17.640625 C 7.34375 -17.554688 7.207031 -17.457031 7.0625 -17.34375 C 6.914062 -17.226562 6.757812 -17.125 6.59375 -17.03125 C 6.425781 -16.9375 6.257812 -16.851562 6.09375 -16.78125 C 5.925781 -16.707031 5.765625 -16.671875 5.609375 -16.671875 C 5.472656 -16.671875 5.351562 -16.707031 5.25 -16.78125 C 5.144531 -16.863281 5.09375 -16.984375 5.09375 -17.140625 C 5.09375 -17.398438 5.191406 -17.71875 5.390625 -18.09375 C 5.585938 -18.46875 5.832031 -18.832031 6.125 -19.1875 C 6.425781 -19.550781 6.738281 -19.859375 7.0625 -20.109375 C 7.394531 -20.359375 7.703125 -20.484375 7.984375 -20.484375 C 8.234375 -20.484375 8.457031 -20.382812 8.65625 -20.1875 C 8.851562 -19.988281 8.953125 -19.757812 8.953125 -19.5 Z M 8.953125 -19.5 "/></g></g></g><g fill="#5289b8" fill-opacity="1"><g transform="translate(188.91384, 31.70019)"><g><path d="M 9.84375 -9.765625 C 9.59375 -9.742188 9.378906 -9.765625 9.203125 -9.828125 C 9.035156 -9.890625 8.863281 -9.953125 8.6875 -10.015625 C 8.53125 -10.085938 8.375 -10.15625 8.21875 -10.21875 C 8.0625 -10.28125 7.890625 -10.300781 7.703125 -10.28125 C 7.347656 -10.257812 7.035156 -10.160156 6.765625 -9.984375 C 6.492188 -9.816406 6.25 -9.601562 6.03125 -9.34375 C 5.820312 -9.082031 5.640625 -8.789062 5.484375 -8.46875 C 5.328125 -8.144531 5.203125 -7.828125 5.109375 -7.515625 C 5.054688 -7.304688 5.015625 -6.988281 4.984375 -6.5625 C 4.960938 -6.132812 4.953125 -5.675781 4.953125 -5.1875 C 4.941406 -4.6875 4.9375 -4.207031 4.9375 -3.75 C 4.9375 -3.300781 4.914062 -2.945312 4.875 -2.6875 C 4.863281 -2.40625 4.820312 -2.078125 4.75 -1.703125 C 4.675781 -1.328125 4.566406 -0.972656 4.421875 -0.640625 C 4.273438 -0.316406 4.078125 -0.046875 3.828125 0.171875 C 3.585938 0.398438 3.273438 0.515625 2.890625 0.515625 C 2.597656 0.515625 2.34375 0.425781 2.125 0.25 C 1.90625 0.0820312 1.722656 -0.140625 1.578125 -0.421875 C 1.429688 -0.710938 1.304688 -1.050781 1.203125 -1.4375 C 1.109375 -1.820312 1.035156 -2.210938 0.984375 -2.609375 C 0.929688 -3.023438 0.890625 -3.441406 0.859375 -3.859375 C 0.835938 -4.273438 0.820312 -4.671875 0.8125 -5.046875 C 0.8125 -5.421875 0.8125 -5.765625 0.8125 -6.078125 C 0.820312 -6.390625 0.828125 -6.644531 0.828125 -6.84375 C 0.816406 -7.445312 0.785156 -8.054688 0.734375 -8.671875 C 0.691406 -9.296875 0.671875 -9.910156 0.671875 -10.515625 C 0.671875 -10.898438 0.6875 -11.328125 0.71875 -11.796875 C 0.757812 -12.265625 0.859375 -12.703125 1.015625 -13.109375 C 1.171875 -13.515625 1.398438 -13.859375 1.703125 -14.140625 C 2.015625 -14.421875 2.4375 -14.5625 2.96875 -14.5625 C 3.269531 -14.5625 3.523438 -14.460938 3.734375 -14.265625 C 3.941406 -14.078125 4.109375 -13.84375 4.234375 -13.5625 C 4.367188 -13.289062 4.46875 -13 4.53125 -12.6875 C 4.601562 -12.375 4.648438 -12.082031 4.671875 -11.8125 C 5.085938 -12.5 5.554688 -13.050781 6.078125 -13.46875 C 6.597656 -13.894531 7.273438 -14.128906 8.109375 -14.171875 C 8.523438 -14.179688 8.9375 -14.140625 9.34375 -14.046875 C 9.757812 -13.953125 10.132812 -13.796875 10.46875 -13.578125 C 10.8125 -13.359375 11.09375 -13.078125 11.3125 -12.734375 C 11.53125 -12.390625 11.644531 -11.976562 11.65625 -11.5 C 11.695312 -10.945312 11.535156 -10.519531 11.171875 -10.21875 C 10.804688 -9.925781 10.363281 -9.773438 9.84375 -9.765625 Z M 9.84375 -9.765625 "/></g></g></g><g fill="#5289b8" fill-opacity="1"><g transform="translate(202.213451, 31.70019)"><g><path d="M 5.09375 -18.21875 C 5.09375 -17.96875 5.023438 -17.742188 4.890625 -17.546875 C 4.765625 -17.359375 4.597656 -17.191406 4.390625 -17.046875 C 4.179688 -16.898438 3.953125 -16.785156 3.703125 -16.703125 C 3.460938 -16.628906 3.238281 -16.59375 3.03125 -16.59375 C 2.675781 -16.59375 2.367188 -16.675781 2.109375 -16.84375 C 1.847656 -17.019531 1.71875 -17.296875 1.71875 -17.671875 C 1.71875 -17.929688 1.78125 -18.160156 1.90625 -18.359375 C 2.039062 -18.554688 2.203125 -18.71875 2.390625 -18.84375 C 2.585938 -18.976562 2.804688 -19.078125 3.046875 -19.140625 C 3.296875 -19.210938 3.53125 -19.25 3.75 -19.25 C 4.082031 -19.25 4.390625 -19.171875 4.671875 -19.015625 C 4.953125 -18.859375 5.09375 -18.59375 5.09375 -18.21875 Z M 5.296875 -9.34375 C 5.296875 -9.09375 5.296875 -8.832031 5.296875 -8.5625 C 5.296875 -8.300781 5.285156 -8.046875 5.265625 -7.796875 C 5.253906 -7.503906 5.25 -7.109375 5.25 -6.609375 C 5.25 -6.117188 5.226562 -5.585938 5.1875 -5.015625 C 5.15625 -4.441406 5.097656 -3.859375 5.015625 -3.265625 C 4.941406 -2.671875 4.816406 -2.128906 4.640625 -1.640625 C 4.472656 -1.148438 4.242188 -0.753906 3.953125 -0.453125 C 3.660156 -0.148438 3.300781 0.0078125 2.875 0.03125 C 2.539062 0.0390625 2.257812 -0.0859375 2.03125 -0.359375 C 1.8125 -0.640625 1.625 -1 1.46875 -1.4375 C 1.320312 -1.882812 1.210938 -2.378906 1.140625 -2.921875 C 1.078125 -3.472656 1.023438 -4.003906 0.984375 -4.515625 C 0.953125 -5.035156 0.9375 -5.507812 0.9375 -5.9375 C 0.9375 -6.375 0.9375 -6.703125 0.9375 -6.921875 C 0.9375 -7.191406 0.9375 -7.582031 0.9375 -8.09375 C 0.9375 -8.613281 0.953125 -9.164062 0.984375 -9.75 C 1.023438 -10.34375 1.09375 -10.941406 1.1875 -11.546875 C 1.28125 -12.160156 1.414062 -12.71875 1.59375 -13.21875 C 1.78125 -13.726562 2.019531 -14.140625 2.3125 -14.453125 C 2.613281 -14.765625 2.988281 -14.921875 3.4375 -14.921875 C 3.914062 -14.921875 4.273438 -14.6875 4.515625 -14.21875 C 4.753906 -13.75 4.9375 -13.203125 5.0625 -12.578125 C 5.1875 -11.953125 5.253906 -11.328125 5.265625 -10.703125 C 5.285156 -10.085938 5.296875 -9.632812 5.296875 -9.34375 Z M 5.296875 -9.34375 "/></g></g></g><g fill="#5289b8" fill-opacity="1"><g transform="translate(210.608766, 31.70019)"><g><path d="M 11.875 -3.671875 C 11.875 -3.359375 11.859375 -2.953125 11.828125 -2.453125 C 11.804688 -1.953125 11.734375 -1.460938 11.609375 -0.984375 C 11.484375 -0.503906 11.289062 -0.09375 11.03125 0.25 C 10.769531 0.601562 10.40625 0.78125 9.9375 0.78125 C 9.289062 0.78125 8.796875 0.570312 8.453125 0.15625 C 8.109375 -0.257812 7.941406 -0.78125 7.953125 -1.40625 C 7.398438 -0.914062 6.769531 -0.53125 6.0625 -0.25 C 5.363281 0.0195312 4.644531 0.15625 3.90625 0.15625 C 3.40625 0.15625 2.925781 0.0351562 2.46875 -0.203125 C 2.019531 -0.453125 1.617188 -0.765625 1.265625 -1.140625 C 0.921875 -1.523438 0.644531 -1.957031 0.4375 -2.4375 C 0.226562 -2.914062 0.125 -3.390625 0.125 -3.859375 C 0.125 -4.691406 0.378906 -5.421875 0.890625 -6.046875 C 1.410156 -6.679688 2.039062 -7.21875 2.78125 -7.65625 C 3.53125 -8.101562 4.328125 -8.457031 5.171875 -8.71875 C 6.015625 -8.976562 6.769531 -9.148438 7.4375 -9.234375 C 7.4375 -9.328125 7.441406 -9.40625 7.453125 -9.46875 C 7.460938 -9.539062 7.46875 -9.617188 7.46875 -9.703125 C 7.46875 -10.242188 7.316406 -10.675781 7.015625 -11 C 6.722656 -11.332031 6.304688 -11.5 5.765625 -11.5 C 5.328125 -11.5 4.953125 -11.425781 4.640625 -11.28125 C 4.328125 -11.132812 4.03125 -10.96875 3.75 -10.78125 C 3.476562 -10.601562 3.203125 -10.441406 2.921875 -10.296875 C 2.640625 -10.148438 2.328125 -10.078125 1.984375 -10.078125 C 1.597656 -10.078125 1.269531 -10.195312 1 -10.4375 C 0.726562 -10.675781 0.59375 -10.988281 0.59375 -11.375 C 0.59375 -11.945312 0.765625 -12.46875 1.109375 -12.9375 C 1.453125 -13.40625 1.878906 -13.800781 2.390625 -14.125 C 2.898438 -14.445312 3.453125 -14.695312 4.046875 -14.875 C 4.648438 -15.0625 5.207031 -15.15625 5.71875 -15.15625 C 6.1875 -15.15625 6.65625 -15.097656 7.125 -14.984375 C 7.59375 -14.878906 8.035156 -14.707031 8.453125 -14.46875 C 8.867188 -14.226562 9.242188 -13.9375 9.578125 -13.59375 C 9.921875 -13.257812 10.195312 -12.867188 10.40625 -12.421875 C 10.71875 -11.773438 10.96875 -11.085938 11.15625 -10.359375 C 11.351562 -9.640625 11.503906 -8.898438 11.609375 -8.140625 C 11.710938 -7.390625 11.78125 -6.632812 11.8125 -5.875 C 11.851562 -5.125 11.875 -4.390625 11.875 -3.671875 Z M 7.703125 -4.515625 L 7.625 -6.28125 C 7.582031 -6.28125 7.546875 -6.285156 7.515625 -6.296875 C 7.484375 -6.304688 7.445312 -6.3125 7.40625 -6.3125 C 7.1875 -6.3125 6.90625 -6.253906 6.5625 -6.140625 C 6.21875 -6.023438 5.890625 -5.867188 5.578125 -5.671875 C 5.265625 -5.472656 5 -5.25 4.78125 -5 C 4.570312 -4.757812 4.46875 -4.507812 4.46875 -4.25 C 4.46875 -4.007812 4.550781 -3.84375 4.71875 -3.75 C 4.894531 -3.664062 5.097656 -3.625 5.328125 -3.625 C 5.703125 -3.625 6.109375 -3.722656 6.546875 -3.921875 C 6.984375 -4.128906 7.367188 -4.328125 7.703125 -4.515625 Z M 7.703125 -4.515625 "/></g></g></g></svg>