<svg xmlns="http://www.w3.org/2000/svg" xmlns:xlink="http://www.w3.org/1999/xlink" width="239" zoomAndPan="magnify" viewBox="0 0 179.25 46.499999" height="62" preserveAspectRatio="xMidYMid meet" version="1.0"><defs><g/><clipPath id="df27b1c820"><path d="M 0.582031 0.113281 L 177.601562 0.113281 L 177.601562 45.476562 L 0.582031 45.476562 Z M 0.582031 0.113281 " clip-rule="nonzero"/></clipPath><clipPath id="617b230b12"><path d="M 23.265625 0.113281 L 154.832031 0.113281 C 160.847656 0.113281 166.617188 2.503906 170.871094 6.757812 C 175.125 11.011719 177.515625 16.78125 177.515625 22.796875 C 177.515625 28.8125 175.125 34.582031 170.871094 38.835938 C 166.617188 43.085938 160.847656 45.476562 154.832031 45.476562 L 23.265625 45.476562 C 17.25 45.476562 11.480469 43.085938 7.226562 38.835938 C 2.972656 34.582031 0.582031 28.8125 0.582031 22.796875 C 0.582031 16.78125 2.972656 11.011719 7.226562 6.757812 C 11.480469 2.503906 17.25 0.113281 23.265625 0.113281 Z M 23.265625 0.113281 " clip-rule="nonzero"/></clipPath><clipPath id="6771e740ae"><path d="M 0.582031 0.113281 L 177.601562 0.113281 L 177.601562 45.476562 L 0.582031 45.476562 Z M 0.582031 0.113281 " clip-rule="nonzero"/></clipPath><clipPath id="17df8c7c80"><path d="M 23.265625 0.113281 L 154.832031 0.113281 C 160.847656 0.113281 166.617188 2.503906 170.871094 6.757812 C 175.125 11.011719 177.515625 16.78125 177.515625 22.796875 C 177.515625 28.8125 175.125 34.582031 170.871094 38.835938 C 166.617188 43.085938 160.847656 45.476562 154.832031 45.476562 L 23.265625 45.476562 C 17.25 45.476562 11.480469 43.085938 7.226562 38.835938 C 2.972656 34.582031 0.582031 28.8125 0.582031 22.796875 C 0.582031 16.78125 2.972656 11.011719 7.226562 6.757812 C 11.480469 2.503906 17.25 0.113281 23.265625 0.113281 Z M 23.265625 0.113281 " clip-rule="nonzero"/></clipPath><clipPath id="d23924fddd"><rect x="0" width="178" y="0" height="46"/></clipPath></defs><g clip-path="url(#df27b1c820)"><g clip-path="url(#617b230b12)"><g transform="matrix(1, 0, 0, 1, 0.000000000000000111, 0)"><g clip-path="url(#d23924fddd)"><g clip-path="url(#6771e740ae)"><g clip-path="url(#17df8c7c80)"><path fill="#e8f0f6" d="M 0.582031 0.113281 L 177.601562 0.113281 L 177.601562 45.476562 L 0.582031 45.476562 Z M 0.582031 0.113281 " fill-opacity="1" fill-rule="nonzero"/></g></g></g></g></g></g><g fill="#5289b8" fill-opacity="1"><g transform="translate(33.341176, 31.70019)"><g><path d="M 12.734375 -7.78125 C 12.734375 -7.007812 12.648438 -6.164062 12.484375 -5.25 C 12.316406 -4.34375 12.035156 -3.5 11.640625 -2.71875 C 11.253906 -1.9375 10.742188 -1.28125 10.109375 -0.75 C 9.472656 -0.226562 8.675781 0.03125 7.71875 0.03125 C 7.476562 0.03125 7.226562 0.015625 6.96875 -0.015625 C 6.707031 -0.0546875 6.457031 -0.117188 6.21875 -0.203125 C 5.988281 -0.296875 5.773438 -0.414062 5.578125 -0.5625 C 5.390625 -0.707031 5.242188 -0.898438 5.140625 -1.140625 L 4.90625 2.609375 C 4.882812 3.003906 4.867188 3.476562 4.859375 4.03125 C 4.859375 4.59375 4.789062 5.125 4.65625 5.625 C 4.53125 6.132812 4.3125 6.566406 4 6.921875 C 3.695312 7.285156 3.257812 7.46875 2.6875 7.46875 C 2.351562 7.46875 2.070312 7.296875 1.84375 6.953125 C 1.625 6.609375 1.445312 6.175781 1.3125 5.65625 C 1.1875 5.132812 1.085938 4.550781 1.015625 3.90625 C 0.941406 3.269531 0.894531 2.65625 0.875 2.0625 C 0.863281 1.46875 0.859375 0.925781 0.859375 0.4375 C 0.859375 -0.0390625 0.859375 -0.394531 0.859375 -0.625 C 0.859375 -1.789062 0.847656 -2.953125 0.828125 -4.109375 C 0.816406 -5.265625 0.8125 -6.425781 0.8125 -7.59375 C 0.8125 -7.800781 0.8125 -8.125 0.8125 -8.5625 C 0.8125 -9.007812 0.828125 -9.492188 0.859375 -10.015625 C 0.890625 -10.535156 0.941406 -11.070312 1.015625 -11.625 C 1.097656 -12.1875 1.21875 -12.695312 1.375 -13.15625 C 1.539062 -13.625 1.742188 -14 1.984375 -14.28125 C 2.222656 -14.570312 2.519531 -14.71875 2.875 -14.71875 C 3.09375 -14.71875 3.289062 -14.648438 3.46875 -14.515625 C 3.65625 -14.390625 3.816406 -14.222656 3.953125 -14.015625 C 4.085938 -13.816406 4.195312 -13.601562 4.28125 -13.375 C 4.363281 -13.15625 4.429688 -12.953125 4.484375 -12.765625 C 5.023438 -13.367188 5.644531 -13.828125 6.34375 -14.140625 C 7.050781 -14.453125 7.804688 -14.609375 8.609375 -14.609375 C 9.441406 -14.609375 10.125 -14.375 10.65625 -13.90625 C 11.1875 -13.4375 11.601562 -12.851562 11.90625 -12.15625 C 12.21875 -11.457031 12.429688 -10.710938 12.546875 -9.921875 C 12.671875 -9.128906 12.734375 -8.414062 12.734375 -7.78125 Z M 9 -7.984375 C 9 -8.242188 8.976562 -8.507812 8.9375 -8.78125 C 8.894531 -9.050781 8.816406 -9.300781 8.703125 -9.53125 C 8.585938 -9.769531 8.425781 -9.960938 8.21875 -10.109375 C 8.007812 -10.253906 7.75 -10.328125 7.4375 -10.328125 C 7.019531 -10.328125 6.578125 -10.191406 6.109375 -9.921875 C 5.648438 -9.660156 5.3125 -9.351562 5.09375 -9 C 5 -8.863281 4.941406 -8.640625 4.921875 -8.328125 C 4.910156 -8.015625 4.90625 -7.78125 4.90625 -7.625 C 4.90625 -7.5 4.910156 -7.335938 4.921875 -7.140625 C 4.929688 -6.941406 4.941406 -6.734375 4.953125 -6.515625 C 4.972656 -6.304688 4.992188 -6.109375 5.015625 -5.921875 C 5.046875 -5.734375 5.085938 -5.585938 5.140625 -5.484375 C 5.191406 -5.328125 5.300781 -5.179688 5.46875 -5.046875 C 5.644531 -4.921875 5.835938 -4.804688 6.046875 -4.703125 C 6.253906 -4.597656 6.46875 -4.519531 6.6875 -4.46875 C 6.90625 -4.414062 7.09375 -4.390625 7.25 -4.390625 C 7.613281 -4.390625 7.910156 -4.523438 8.140625 -4.796875 C 8.367188 -5.078125 8.546875 -5.40625 8.671875 -5.78125 C 8.804688 -6.164062 8.894531 -6.5625 8.9375 -6.96875 C 8.976562 -7.382812 9 -7.722656 9 -7.984375 Z M 9 -7.984375 "/></g></g></g><g fill="#5289b8" fill-opacity="1"><g transform="translate(48.91033, 31.70019)"><g><path d="M 11.875 -3.671875 C 11.875 -3.359375 11.859375 -2.953125 11.828125 -2.453125 C 11.804688 -1.953125 11.734375 -1.460938 11.609375 -0.984375 C 11.484375 -0.503906 11.289062 -0.09375 11.03125 0.25 C 10.769531 0.601562 10.40625 0.78125 9.9375 0.78125 C 9.289062 0.78125 8.796875 0.570312 8.453125 0.15625 C 8.109375 -0.257812 7.941406 -0.78125 7.953125 -1.40625 C 7.398438 -0.914062 6.769531 -0.53125 6.0625 -0.25 C 5.363281 0.0195312 4.644531 0.15625 3.90625 0.15625 C 3.40625 0.15625 2.925781 0.0351562 2.46875 -0.203125 C 2.019531 -0.453125 1.617188 -0.765625 1.265625 -1.140625 C 0.921875 -1.523438 0.644531 -1.957031 0.4375 -2.4375 C 0.226562 -2.914062 0.125 -3.390625 0.125 -3.859375 C 0.125 -4.691406 0.378906 -5.421875 0.890625 -6.046875 C 1.410156 -6.679688 2.039062 -7.21875 2.78125 -7.65625 C 3.53125 -8.101562 4.328125 -8.457031 5.171875 -8.71875 C 6.015625 -8.976562 6.769531 -9.148438 7.4375 -9.234375 C 7.4375 -9.328125 7.441406 -9.40625 7.453125 -9.46875 C 7.460938 -9.539062 7.46875 -9.617188 7.46875 -9.703125 C 7.46875 -10.242188 7.316406 -10.675781 7.015625 -11 C 6.722656 -11.332031 6.304688 -11.5 5.765625 -11.5 C 5.328125 -11.5 4.953125 -11.425781 4.640625 -11.28125 C 4.328125 -11.132812 4.03125 -10.96875 3.75 -10.78125 C 3.476562 -10.601562 3.203125 -10.441406 2.921875 -10.296875 C 2.640625 -10.148438 2.328125 -10.078125 1.984375 -10.078125 C 1.597656 -10.078125 1.269531 -10.195312 1 -10.4375 C 0.726562 -10.675781 0.59375 -10.988281 0.59375 -11.375 C 0.59375 -11.945312 0.765625 -12.46875 1.109375 -12.9375 C 1.453125 -13.40625 1.878906 -13.800781 2.390625 -14.125 C 2.898438 -14.445312 3.453125 -14.695312 4.046875 -14.875 C 4.648438 -15.0625 5.207031 -15.15625 5.71875 -15.15625 C 6.1875 -15.15625 6.65625 -15.097656 7.125 -14.984375 C 7.59375 -14.878906 8.035156 -14.707031 8.453125 -14.46875 C 8.867188 -14.226562 9.242188 -13.9375 9.578125 -13.59375 C 9.921875 -13.257812 10.195312 -12.867188 10.40625 -12.421875 C 10.71875 -11.773438 10.96875 -11.085938 11.15625 -10.359375 C 11.351562 -9.640625 11.503906 -8.898438 11.609375 -8.140625 C 11.710938 -7.390625 11.78125 -6.632812 11.8125 -5.875 C 11.851562 -5.125 11.875 -4.390625 11.875 -3.671875 Z M 7.703125 -4.515625 L 7.625 -6.28125 C 7.582031 -6.28125 7.546875 -6.285156 7.515625 -6.296875 C 7.484375 -6.304688 7.445312 -6.3125 7.40625 -6.3125 C 7.1875 -6.3125 6.90625 -6.253906 6.5625 -6.140625 C 6.21875 -6.023438 5.890625 -5.867188 5.578125 -5.671875 C 5.265625 -5.472656 5 -5.25 4.78125 -5 C 4.570312 -4.757812 4.46875 -4.507812 4.46875 -4.25 C 4.46875 -4.007812 4.550781 -3.84375 4.71875 -3.75 C 4.894531 -3.664062 5.097656 -3.625 5.328125 -3.625 C 5.703125 -3.625 6.109375 -3.722656 6.546875 -3.921875 C 6.984375 -4.128906 7.367188 -4.328125 7.703125 -4.515625 Z M 7.703125 -4.515625 "/></g></g></g><g fill="#5289b8" fill-opacity="1"><g transform="translate(63.592536, 31.70019)"><g><path d="M 9.84375 -9.765625 C 9.59375 -9.742188 9.378906 -9.765625 9.203125 -9.828125 C 9.035156 -9.890625 8.863281 -9.953125 8.6875 -10.015625 C 8.53125 -10.085938 8.375 -10.15625 8.21875 -10.21875 C 8.0625 -10.28125 7.890625 -10.300781 7.703125 -10.28125 C 7.347656 -10.257812 7.035156 -10.160156 6.765625 -9.984375 C 6.492188 -9.816406 6.25 -9.601562 6.03125 -9.34375 C 5.820312 -9.082031 5.640625 -8.789062 5.484375 -8.46875 C 5.328125 -8.144531 5.203125 -7.828125 5.109375 -7.515625 C 5.054688 -7.304688 5.015625 -6.988281 4.984375 -6.5625 C 4.960938 -6.132812 4.953125 -5.675781 4.953125 -5.1875 C 4.941406 -4.6875 4.9375 -4.207031 4.9375 -3.75 C 4.9375 -3.300781 4.914062 -2.945312 4.875 -2.6875 C 4.863281 -2.40625 4.820312 -2.078125 4.75 -1.703125 C 4.675781 -1.328125 4.566406 -0.972656 4.421875 -0.640625 C 4.273438 -0.316406 4.078125 -0.046875 3.828125 0.171875 C 3.585938 0.398438 3.273438 0.515625 2.890625 0.515625 C 2.597656 0.515625 2.34375 0.425781 2.125 0.25 C 1.90625 0.0820312 1.722656 -0.140625 1.578125 -0.421875 C 1.429688 -0.710938 1.304688 -1.050781 1.203125 -1.4375 C 1.109375 -1.820312 1.035156 -2.210938 0.984375 -2.609375 C 0.929688 -3.023438 0.890625 -3.441406 0.859375 -3.859375 C 0.835938 -4.273438 0.820312 -4.671875 0.8125 -5.046875 C 0.8125 -5.421875 0.8125 -5.765625 0.8125 -6.078125 C 0.820312 -6.390625 0.828125 -6.644531 0.828125 -6.84375 C 0.816406 -7.445312 0.785156 -8.054688 0.734375 -8.671875 C 0.691406 -9.296875 0.671875 -9.910156 0.671875 -10.515625 C 0.671875 -10.898438 0.6875 -11.328125 0.71875 -11.796875 C 0.757812 -12.265625 0.859375 -12.703125 1.015625 -13.109375 C 1.171875 -13.515625 1.398438 -13.859375 1.703125 -14.140625 C 2.015625 -14.421875 2.4375 -14.5625 2.96875 -14.5625 C 3.269531 -14.5625 3.523438 -14.460938 3.734375 -14.265625 C 3.941406 -14.078125 4.109375 -13.84375 4.234375 -13.5625 C 4.367188 -13.289062 4.46875 -13 4.53125 -12.6875 C 4.601562 -12.375 4.648438 -12.082031 4.671875 -11.8125 C 5.085938 -12.5 5.554688 -13.050781 6.078125 -13.46875 C 6.597656 -13.894531 7.273438 -14.128906 8.109375 -14.171875 C 8.523438 -14.179688 8.9375 -14.140625 9.34375 -14.046875 C 9.757812 -13.953125 10.132812 -13.796875 10.46875 -13.578125 C 10.8125 -13.359375 11.09375 -13.078125 11.3125 -12.734375 C 11.53125 -12.390625 11.644531 -11.976562 11.65625 -11.5 C 11.695312 -10.945312 11.535156 -10.519531 11.171875 -10.21875 C 10.804688 -9.925781 10.363281 -9.773438 9.84375 -9.765625 Z M 9.84375 -9.765625 "/></g></g></g><g fill="#5289b8" fill-opacity="1"><g transform="translate(76.892147, 31.70019)"><g><path d="M 11.875 -3.671875 C 11.875 -3.359375 11.859375 -2.953125 11.828125 -2.453125 C 11.804688 -1.953125 11.734375 -1.460938 11.609375 -0.984375 C 11.484375 -0.503906 11.289062 -0.09375 11.03125 0.25 C 10.769531 0.601562 10.40625 0.78125 9.9375 0.78125 C 9.289062 0.78125 8.796875 0.570312 8.453125 0.15625 C 8.109375 -0.257812 7.941406 -0.78125 7.953125 -1.40625 C 7.398438 -0.914062 6.769531 -0.53125 6.0625 -0.25 C 5.363281 0.0195312 4.644531 0.15625 3.90625 0.15625 C 3.40625 0.15625 2.925781 0.0351562 2.46875 -0.203125 C 2.019531 -0.453125 1.617188 -0.765625 1.265625 -1.140625 C 0.921875 -1.523438 0.644531 -1.957031 0.4375 -2.4375 C 0.226562 -2.914062 0.125 -3.390625 0.125 -3.859375 C 0.125 -4.691406 0.378906 -5.421875 0.890625 -6.046875 C 1.410156 -6.679688 2.039062 -7.21875 2.78125 -7.65625 C 3.53125 -8.101562 4.328125 -8.457031 5.171875 -8.71875 C 6.015625 -8.976562 6.769531 -9.148438 7.4375 -9.234375 C 7.4375 -9.328125 7.441406 -9.40625 7.453125 -9.46875 C 7.460938 -9.539062 7.46875 -9.617188 7.46875 -9.703125 C 7.46875 -10.242188 7.316406 -10.675781 7.015625 -11 C 6.722656 -11.332031 6.304688 -11.5 5.765625 -11.5 C 5.328125 -11.5 4.953125 -11.425781 4.640625 -11.28125 C 4.328125 -11.132812 4.03125 -10.96875 3.75 -10.78125 C 3.476562 -10.601562 3.203125 -10.441406 2.921875 -10.296875 C 2.640625 -10.148438 2.328125 -10.078125 1.984375 -10.078125 C 1.597656 -10.078125 1.269531 -10.195312 1 -10.4375 C 0.726562 -10.675781 0.59375 -10.988281 0.59375 -11.375 C 0.59375 -11.945312 0.765625 -12.46875 1.109375 -12.9375 C 1.453125 -13.40625 1.878906 -13.800781 2.390625 -14.125 C 2.898438 -14.445312 3.453125 -14.695312 4.046875 -14.875 C 4.648438 -15.0625 5.207031 -15.15625 5.71875 -15.15625 C 6.1875 -15.15625 6.65625 -15.097656 7.125 -14.984375 C 7.59375 -14.878906 8.035156 -14.707031 8.453125 -14.46875 C 8.867188 -14.226562 9.242188 -13.9375 9.578125 -13.59375 C 9.921875 -13.257812 10.195312 -12.867188 10.40625 -12.421875 C 10.71875 -11.773438 10.96875 -11.085938 11.15625 -10.359375 C 11.351562 -9.640625 11.503906 -8.898438 11.609375 -8.140625 C 11.710938 -7.390625 11.78125 -6.632812 11.8125 -5.875 C 11.851562 -5.125 11.875 -4.390625 11.875 -3.671875 Z M 7.703125 -4.515625 L 7.625 -6.28125 C 7.582031 -6.28125 7.546875 -6.285156 7.515625 -6.296875 C 7.484375 -6.304688 7.445312 -6.3125 7.40625 -6.3125 C 7.1875 -6.3125 6.90625 -6.253906 6.5625 -6.140625 C 6.21875 -6.023438 5.890625 -5.867188 5.578125 -5.671875 C 5.265625 -5.472656 5 -5.25 4.78125 -5 C 4.570312 -4.757812 4.46875 -4.507812 4.46875 -4.25 C 4.46875 -4.007812 4.550781 -3.84375 4.71875 -3.75 C 4.894531 -3.664062 5.097656 -3.625 5.328125 -3.625 C 5.703125 -3.625 6.109375 -3.722656 6.546875 -3.921875 C 6.984375 -4.128906 7.367188 -4.328125 7.703125 -4.515625 Z M 7.703125 -4.515625 "/></g></g></g><g fill="#5289b8" fill-opacity="1"><g transform="translate(91.574354, 31.70019)"><g><path d="M 13.125 -8.609375 C 13.125 -8.109375 13.082031 -7.539062 13 -6.90625 C 12.925781 -6.269531 12.804688 -5.617188 12.640625 -4.953125 C 12.472656 -4.296875 12.253906 -3.65625 11.984375 -3.03125 C 11.710938 -2.40625 11.378906 -1.84375 10.984375 -1.34375 C 10.597656 -0.84375 10.148438 -0.445312 9.640625 -0.15625 C 9.128906 0.132812 8.535156 0.28125 7.859375 0.28125 C 7.140625 0.28125 6.488281 0.117188 5.90625 -0.203125 C 5.320312 -0.535156 4.820312 -0.988281 4.40625 -1.5625 C 4.351562 -1.09375 4.160156 -0.679688 3.828125 -0.328125 C 3.503906 0.0234375 3.085938 0.203125 2.578125 0.203125 C 2.285156 0.203125 2.039062 0.0546875 1.84375 -0.234375 C 1.644531 -0.523438 1.484375 -0.898438 1.359375 -1.359375 C 1.234375 -1.828125 1.140625 -2.335938 1.078125 -2.890625 C 1.015625 -3.453125 0.972656 -3.992188 0.953125 -4.515625 C 0.941406 -5.035156 0.9375 -5.503906 0.9375 -5.921875 C 0.9375 -6.335938 0.9375 -6.632812 0.9375 -6.8125 C 0.9375 -7.40625 0.941406 -7.992188 0.953125 -8.578125 C 0.960938 -9.171875 0.972656 -9.773438 0.984375 -10.390625 C 0.984375 -10.679688 0.976562 -11.125 0.96875 -11.71875 C 0.96875 -12.3125 0.972656 -12.96875 0.984375 -13.6875 C 1.003906 -14.40625 1.046875 -15.140625 1.109375 -15.890625 C 1.171875 -16.648438 1.28125 -17.34375 1.4375 -17.96875 C 1.59375 -18.601562 1.804688 -19.117188 2.078125 -19.515625 C 2.359375 -19.921875 2.71875 -20.128906 3.15625 -20.140625 C 3.5 -20.140625 3.789062 -20.015625 4.03125 -19.765625 C 4.28125 -19.523438 4.488281 -19.207031 4.65625 -18.8125 C 4.820312 -18.414062 4.953125 -17.96875 5.046875 -17.46875 C 5.140625 -16.96875 5.207031 -16.46875 5.25 -15.96875 C 5.300781 -15.476562 5.328125 -15.007812 5.328125 -14.5625 C 5.335938 -14.125 5.34375 -13.765625 5.34375 -13.484375 C 5.34375 -13.429688 5.335938 -13.3125 5.328125 -13.125 C 5.328125 -12.945312 5.328125 -12.753906 5.328125 -12.546875 C 5.328125 -12.335938 5.328125 -12.148438 5.328125 -11.984375 C 5.328125 -11.816406 5.328125 -11.726562 5.328125 -11.71875 C 5.484375 -12.050781 5.707031 -12.375 6 -12.6875 C 6.289062 -13 6.617188 -13.273438 6.984375 -13.515625 C 7.359375 -13.753906 7.742188 -13.953125 8.140625 -14.109375 C 8.535156 -14.265625 8.914062 -14.34375 9.28125 -14.34375 C 10.019531 -14.34375 10.632812 -14.15625 11.125 -13.78125 C 11.625 -13.414062 12.019531 -12.941406 12.3125 -12.359375 C 12.613281 -11.785156 12.820312 -11.164062 12.9375 -10.5 C 13.0625 -9.832031 13.125 -9.203125 13.125 -8.609375 Z M 9.28125 -7.828125 C 9.28125 -8.035156 9.265625 -8.257812 9.234375 -8.5 C 9.210938 -8.75 9.15625 -8.976562 9.0625 -9.1875 C 8.96875 -9.394531 8.835938 -9.566406 8.671875 -9.703125 C 8.503906 -9.847656 8.289062 -9.921875 8.03125 -9.921875 C 7.757812 -9.921875 7.488281 -9.859375 7.21875 -9.734375 C 6.945312 -9.609375 6.6875 -9.445312 6.4375 -9.25 C 6.195312 -9.0625 5.972656 -8.859375 5.765625 -8.640625 C 5.554688 -8.429688 5.375 -8.222656 5.21875 -8.015625 L 4.953125 -5.6875 C 5.234375 -5.289062 5.570312 -4.972656 5.96875 -4.734375 C 6.375 -4.503906 6.828125 -4.390625 7.328125 -4.390625 C 7.710938 -4.390625 8.03125 -4.507812 8.28125 -4.75 C 8.53125 -4.988281 8.726562 -5.285156 8.875 -5.640625 C 9.03125 -6.003906 9.132812 -6.382812 9.1875 -6.78125 C 9.25 -7.1875 9.28125 -7.535156 9.28125 -7.828125 Z M 9.28125 -7.828125 "/></g></g></g><g fill="#5289b8" fill-opacity="1"><g transform="translate(107.534807, 31.70019)"><g><path d="M 11.71875 -4.640625 C 11.71875 -4.046875 11.53125 -3.46875 11.15625 -2.90625 C 10.78125 -2.34375 10.304688 -1.835938 9.734375 -1.390625 C 9.171875 -0.953125 8.566406 -0.597656 7.921875 -0.328125 C 7.285156 -0.0546875 6.695312 0.078125 6.15625 0.078125 C 5.238281 0.078125 4.414062 -0.148438 3.6875 -0.609375 C 2.96875 -1.066406 2.363281 -1.648438 1.875 -2.359375 C 1.382812 -3.078125 1.015625 -3.867188 0.765625 -4.734375 C 0.515625 -5.597656 0.390625 -6.4375 0.390625 -7.25 C 0.390625 -8.125 0.507812 -9.054688 0.75 -10.046875 C 1 -11.035156 1.367188 -11.945312 1.859375 -12.78125 C 2.359375 -13.613281 2.984375 -14.304688 3.734375 -14.859375 C 4.492188 -15.421875 5.394531 -15.703125 6.4375 -15.703125 C 7.03125 -15.703125 7.597656 -15.601562 8.140625 -15.40625 C 8.679688 -15.207031 9.148438 -14.925781 9.546875 -14.5625 C 9.953125 -14.195312 10.273438 -13.757812 10.515625 -13.25 C 10.753906 -12.75 10.875 -12.1875 10.875 -11.5625 C 10.875 -10.738281 10.703125 -9.96875 10.359375 -9.25 C 10.015625 -8.539062 9.550781 -7.925781 8.96875 -7.40625 C 8.394531 -6.882812 7.734375 -6.460938 6.984375 -6.140625 C 6.242188 -5.816406 5.484375 -5.640625 4.703125 -5.609375 C 4.765625 -5.109375 4.960938 -4.742188 5.296875 -4.515625 C 5.640625 -4.285156 6.046875 -4.171875 6.515625 -4.171875 C 6.867188 -4.171875 7.207031 -4.257812 7.53125 -4.4375 C 7.863281 -4.613281 8.1875 -4.804688 8.5 -5.015625 C 8.8125 -5.234375 9.117188 -5.429688 9.421875 -5.609375 C 9.734375 -5.785156 10.046875 -5.875 10.359375 -5.875 C 10.703125 -5.875 11.015625 -5.757812 11.296875 -5.53125 C 11.578125 -5.300781 11.71875 -5.003906 11.71875 -4.640625 Z M 7.484375 -11.03125 C 7.484375 -11.257812 7.421875 -11.492188 7.296875 -11.734375 C 7.179688 -11.984375 6.992188 -12.109375 6.734375 -12.109375 C 6.347656 -12.109375 6.023438 -12.003906 5.765625 -11.796875 C 5.503906 -11.597656 5.285156 -11.347656 5.109375 -11.046875 C 4.941406 -10.742188 4.804688 -10.414062 4.703125 -10.0625 C 4.609375 -9.71875 4.554688 -9.398438 4.546875 -9.109375 C 4.785156 -9.160156 5.070312 -9.226562 5.40625 -9.3125 C 5.75 -9.40625 6.070312 -9.523438 6.375 -9.671875 C 6.6875 -9.816406 6.945312 -10 7.15625 -10.21875 C 7.375 -10.445312 7.484375 -10.71875 7.484375 -11.03125 Z M 7.484375 -11.03125 "/></g></g></g><g fill="#5289b8" fill-opacity="1"><g transform="translate(121.538759, 31.70019)"><g><path d="M 8.1875 0.734375 C 7.894531 0.734375 7.660156 0.597656 7.484375 0.328125 C 7.316406 0.0546875 7.1875 -0.25 7.09375 -0.59375 C 7.007812 -0.945312 6.953125 -1.300781 6.921875 -1.65625 C 6.898438 -2.007812 6.890625 -2.285156 6.890625 -2.484375 C 6.890625 -3.003906 6.921875 -3.523438 6.984375 -4.046875 C 7.046875 -4.566406 7.113281 -5.085938 7.1875 -5.609375 C 7.269531 -6.128906 7.335938 -6.648438 7.390625 -7.171875 C 7.453125 -7.691406 7.484375 -8.210938 7.484375 -8.734375 C 7.484375 -8.941406 7.472656 -9.164062 7.453125 -9.40625 C 7.441406 -9.65625 7.40625 -9.890625 7.34375 -10.109375 C 7.28125 -10.328125 7.179688 -10.503906 7.046875 -10.640625 C 6.910156 -10.785156 6.726562 -10.859375 6.5 -10.859375 C 6.34375 -10.859375 6.164062 -10.726562 5.96875 -10.46875 C 5.78125 -10.21875 5.601562 -9.929688 5.4375 -9.609375 C 5.269531 -9.285156 5.128906 -8.960938 5.015625 -8.640625 C 4.910156 -8.328125 4.859375 -8.09375 4.859375 -7.9375 C 4.859375 -7.550781 4.859375 -7.160156 4.859375 -6.765625 C 4.867188 -6.378906 4.875 -5.984375 4.875 -5.578125 L 4.875 -4.078125 C 4.863281 -3.753906 4.835938 -3.425781 4.796875 -3.09375 C 4.765625 -2.769531 4.710938 -2.453125 4.640625 -2.140625 C 4.585938 -1.828125 4.507812 -1.523438 4.40625 -1.234375 C 4.300781 -0.953125 4.164062 -0.703125 4 -0.484375 C 3.832031 -0.265625 3.632812 -0.0859375 3.40625 0.046875 C 3.1875 0.191406 2.921875 0.265625 2.609375 0.265625 C 2.265625 0.265625 1.976562 0.148438 1.75 -0.078125 C 1.519531 -0.304688 1.332031 -0.597656 1.1875 -0.953125 C 1.050781 -1.304688 0.953125 -1.703125 0.890625 -2.140625 C 0.835938 -2.585938 0.796875 -3.023438 0.765625 -3.453125 C 0.742188 -3.878906 0.734375 -4.269531 0.734375 -4.625 C 0.742188 -4.988281 0.75 -5.273438 0.75 -5.484375 L 0.75 -6.703125 C 0.75 -7.367188 0.734375 -8.019531 0.703125 -8.65625 C 0.679688 -9.300781 0.671875 -9.945312 0.671875 -10.59375 C 0.671875 -10.9375 0.675781 -11.378906 0.6875 -11.921875 C 0.695312 -12.460938 0.757812 -12.988281 0.875 -13.5 C 1 -14.007812 1.203125 -14.445312 1.484375 -14.8125 C 1.765625 -15.1875 2.175781 -15.375 2.71875 -15.375 C 2.957031 -15.375 3.171875 -15.296875 3.359375 -15.140625 C 3.554688 -14.984375 3.726562 -14.789062 3.875 -14.5625 C 4.019531 -14.332031 4.140625 -14.085938 4.234375 -13.828125 C 4.335938 -13.566406 4.414062 -13.34375 4.46875 -13.15625 C 4.632812 -13.394531 4.832031 -13.625 5.0625 -13.84375 C 5.300781 -14.070312 5.566406 -14.273438 5.859375 -14.453125 C 6.160156 -14.628906 6.492188 -14.769531 6.859375 -14.875 C 7.222656 -14.976562 7.640625 -15.03125 8.109375 -15.03125 C 9.003906 -15.03125 9.695312 -14.816406 10.1875 -14.390625 C 10.6875 -13.960938 11.050781 -13.429688 11.28125 -12.796875 C 11.519531 -12.160156 11.664062 -11.476562 11.71875 -10.75 C 11.769531 -10.019531 11.796875 -9.359375 11.796875 -8.765625 C 11.796875 -8.472656 11.769531 -8.035156 11.71875 -7.453125 C 11.664062 -6.867188 11.582031 -6.222656 11.46875 -5.515625 C 11.351562 -4.816406 11.195312 -4.097656 11 -3.359375 C 10.8125 -2.617188 10.585938 -1.941406 10.328125 -1.328125 C 10.066406 -0.722656 9.757812 -0.226562 9.40625 0.15625 C 9.050781 0.539062 8.644531 0.734375 8.1875 0.734375 Z M 8.1875 0.734375 "/></g></g></g><g fill="#5289b8" fill-opacity="1"><g transform="translate(136.038359, 31.70019)"><g><path d="M 8.421875 -14.34375 C 8.421875 -13.84375 8.25 -13.46875 7.90625 -13.21875 C 7.570312 -12.976562 7.195312 -12.75 6.78125 -12.53125 C 6.363281 -12.320312 5.984375 -12.066406 5.640625 -11.765625 C 5.304688 -11.472656 5.140625 -11.03125 5.140625 -10.4375 C 5.140625 -10.125 5.210938 -9.851562 5.359375 -9.625 C 5.503906 -9.394531 5.6875 -9.1875 5.90625 -9 C 6.125 -8.820312 6.363281 -8.640625 6.625 -8.453125 C 6.882812 -8.265625 7.125 -8.046875 7.34375 -7.796875 C 7.5625 -7.554688 7.742188 -7.257812 7.890625 -6.90625 C 8.035156 -6.5625 8.109375 -6.140625 8.109375 -5.640625 C 8.109375 -4.910156 7.921875 -4.191406 7.546875 -3.484375 C 7.179688 -2.773438 6.707031 -2.144531 6.125 -1.59375 C 5.539062 -1.050781 4.878906 -0.613281 4.140625 -0.28125 C 3.410156 0.0390625 2.691406 0.203125 1.984375 0.203125 C 1.691406 0.203125 1.394531 0.179688 1.09375 0.140625 C 0.800781 0.0976562 0.535156 0.0195312 0.296875 -0.09375 C 0.0664062 -0.21875 -0.125 -0.390625 -0.28125 -0.609375 C -0.4375 -0.828125 -0.515625 -1.113281 -0.515625 -1.46875 C -0.515625 -1.945312 -0.421875 -2.320312 -0.234375 -2.59375 C -0.046875 -2.863281 0.191406 -3.078125 0.484375 -3.234375 C 0.785156 -3.390625 1.101562 -3.507812 1.4375 -3.59375 C 1.78125 -3.6875 2.097656 -3.796875 2.390625 -3.921875 C 2.691406 -4.054688 2.9375 -4.226562 3.125 -4.4375 C 3.320312 -4.644531 3.421875 -4.941406 3.421875 -5.328125 C 3.421875 -5.691406 3.273438 -6.066406 2.984375 -6.453125 C 2.703125 -6.847656 2.382812 -7.265625 2.03125 -7.703125 C 1.6875 -8.148438 1.367188 -8.625 1.078125 -9.125 C 0.796875 -9.632812 0.65625 -10.191406 0.65625 -10.796875 C 0.65625 -11.546875 0.804688 -12.238281 1.109375 -12.875 C 1.410156 -13.507812 1.816406 -14.0625 2.328125 -14.53125 C 2.847656 -15 3.4375 -15.367188 4.09375 -15.640625 C 4.757812 -15.910156 5.457031 -16.046875 6.1875 -16.046875 C 6.457031 -16.046875 6.726562 -16.019531 7 -15.96875 C 7.269531 -15.914062 7.507812 -15.820312 7.71875 -15.6875 C 7.925781 -15.5625 8.09375 -15.390625 8.21875 -15.171875 C 8.351562 -14.953125 8.421875 -14.675781 8.421875 -14.34375 Z M 8.421875 -14.34375 "/></g></g></g></svg>